<?xml version="1.0" standalone="no"?>
<!DOCTYPE svg PUBLIC "-//W3C//DTD SVG 1.1//EN" "http://www.w3.org/Graphics/SVG/1.1/DTD/svg11.dtd" >
<svg xmlns="http://www.w3.org/2000/svg" xmlns:xlink="http://www.w3.org/1999/xlink" version="1.1">
<metadata></metadata>
<defs>
<font id="titilliumbold_italic" horiz-adv-x="1191" >
<font-face units-per-em="2048" ascent="1536" descent="-512" />
<missing-glyph horiz-adv-x="468" />
<glyph horiz-adv-x="0" />
<glyph horiz-adv-x="682" />
<glyph unicode=" "  horiz-adv-x="468" />
<glyph unicode="&#x09;" horiz-adv-x="468" />
<glyph unicode="&#xa0;" horiz-adv-x="468" />
<glyph unicode="!" horiz-adv-x="370" d="M196 524l213 967h243l-241 -967h-215zM71 0l65 287h234l-65 -287h-234z" />
<glyph unicode="&#x22;" horiz-adv-x="657" d="M737 959h-388l120 513h403z" />
<glyph unicode="#" d="M1229 364h-217l-92 -364h-202l89 364h-266l-92 -364h-201l89 364h-217l48 197h218l72 291h-218l50 194h216l92 366h203l-92 -366h269l91 366h203l-92 -366h217l-47 -194h-220l-71 -291h219zM856 561l73 291h-269l-72 -291h268z" />
<glyph unicode="$" d="M1295 1363l-43 -164q-92 16 -191 26l-183 -426q76 -34 123.5 -65t78.5 -70t43.5 -86t12.5 -114q0 -154 -65 -265t-182 -167t-275 -56q-15 0 -86 5l-97 -235h-152l107 254q-31 6 -62 13t-53.5 13t-40.5 11.5t-27 8.5l-10 3l39 166q115 -20 232 -30l194 458 q-70 30 -115.5 59.5t-79 68.5t-48.5 89t-15 118q0 203 131 328t353 125q51 0 106 -6l96 228h156l-106 -249l38 -8t34.5 -8t29.5 -8t24 -6.5t17.5 -5t11.5 -3.5zM901 439q0 38 -9.5 62t-33.5 44.5t-70 42.5l-174 -411h2q285 0 285 262zM632 1002q0 -56 24 -87.5t92 -62.5 l161 386h-23q-47 0 -87 -10.5t-70.5 -30.5t-52 -48.5t-33 -65.5t-11.5 -81z" />
<glyph unicode="%" d="M619.5 1350q40.5 0 47.5 -38.5t-15 -120.5q-22 -87 -47 -124.5t-66 -37.5q-40 0 -46.5 40.5t13.5 121.5q22 85 47.5 122t66 37zM272 12l844 1511l142 -49l-843 -1510zM332 1191q-38 -153 7.5 -230t164.5 -77q118 0 201.5 77.5t121.5 229.5q37 152 -8 227t-163 75 q-121 0 -204 -75t-120 -227zM713 307q26 102 72 170t108.5 100t141.5 32q119 0 163.5 -75t6.5 -227q-37 -153 -119.5 -230t-201.5 -77t-163.5 77t-7.5 230zM888 307q-23 -83 -16.5 -122.5t46.5 -39.5t65.5 38t47.5 124q22 82 15.5 121t-47 39t-66 -38t-45.5 -122z" />
<glyph unicode="&#x26;" horiz-adv-x="1358" d="M927 1482q170 0 257.5 -71t87.5 -222q0 -157 -88 -254.5t-306 -182.5l193 -264q29 43 64.5 125.5t51.5 144.5h215q-27 -98 -90 -223t-119 -198l183 -222l-160 -139l-168 215q-205 -215 -479 -215q-96 0 -169.5 18t-121.5 48.5t-78 76.5t-42.5 98.5t-12.5 117.5 q0 195 103.5 318.5t322.5 208.5q-20 37 -32.5 69t-19.5 70t-7 81q0 100 30.5 177t86.5 125.5t131 73t167 24.5zM612 175q86 0 175.5 45.5t145.5 114.5l-277 389q-77 -33 -130.5 -72t-84 -85.5t-43 -96t-12.5 -110.5q0 -185 226 -185zM744 1077q0 -121 51 -195 q141 65 192.5 127.5t51.5 159.5q0 58 -29.5 89t-87.5 31q-86 0 -132 -58.5t-46 -153.5z" />
<glyph unicode="'" horiz-adv-x="315" d="M473 959h-201l120 513h215z" />
<glyph unicode="(" horiz-adv-x="491" d="M630 1593h216q-10 -14 -27 -41t-65.5 -112.5t-93 -173.5t-98.5 -216t-93 -250t-66 -265t-27 -271q0 -133 9 -265t17 -196l9 -65h-220q-2 8 -5.5 23t-13 67t-17 109t-13.5 146t-6 181q0 139 27.5 287.5t71 274.5t96 246.5t105.5 213t96.5 163t70.5 107.5z" />
<glyph unicode=")" horiz-adv-x="494" d="M173 -252h-216q10 15 27 42t65.5 112.5t93 173.5t98.5 216t93 249.5t65.5 265t26.5 270.5q0 134 -8.5 265.5t-16.5 196.5l-9 65h220q2 -8 5.5 -23.5t13 -67t17 -108.5t13.5 -146t6 -182q0 -139 -27.5 -287t-71 -274.5t-96 -246.5t-105.5 -212.5t-96.5 -163t-70.5 -107.5z " />
<glyph unicode="*" horiz-adv-x="892" d="M1071 1073h-270l83 -260l-132 -40l-87 262l-224 -168l-85 109l225 168l-219 157l83 115l220 -160l85 262l136 -44l-83 -264h268v-137z" />
<glyph unicode="+" d="M234 431v208h378v381h208v-381h383v-208h-383v-386h-208v386h-378z" />
<glyph unicode="," horiz-adv-x="380" d="M115 -277h-190l233 564h253z" />
<glyph unicode="-" horiz-adv-x="632" d="M153 462l54 209h532l-51 -209h-535z" />
<glyph unicode="." horiz-adv-x="338" d="M53 0l65 287h234l-65 -287h-234z" />
<glyph unicode="/" horiz-adv-x="951" d="M301 -38l-218 76l916 1480l215 -77z" />
<glyph unicode="0" d="M862 1429q445 0 445 -437q0 -171 -30.5 -326.5t-88.5 -280.5t-137.5 -217t-181.5 -142t-217 -50q-443 0 -443 433q0 212 47.5 399t131.5 324.5t207 217t267 79.5zM858 1227q-76 0 -143.5 -51t-114.5 -134t-81.5 -187.5t-51 -211t-16.5 -204.5q0 -133 48.5 -195.5 t156.5 -62.5q76 0 143 50t114.5 131t82.5 184t52 210t17 207q0 135 -48 199.5t-159 64.5z" />
<glyph unicode="1" d="M447 1108l529 298h206l-324 -1406h-236l260 1124l-370 -204z" />
<glyph unicode="2" d="M1041 0h-903l47 193l475 408q82 70 133.5 116.5t103 97.5t79 89.5t44.5 78t17 76.5q0 92 -53 130t-181 38q-67 0 -156.5 -9.5t-145.5 -19.5l-56 -9l30 174q24 8 63.5 19t144 30t186.5 19q140 0 230.5 -33.5t135.5 -104.5t45 -181q0 -72 -18.5 -137t-48 -117.5 t-80.5 -108.5t-101.5 -100t-124.5 -102l-443 -342h627z" />
<glyph unicode="3" d="M437 1193l23 159q8 3 22.5 8.5t59.5 18.5t91 23t110.5 18.5t123.5 8.5q209 0 307 -71.5t98 -223.5q0 -147 -65 -236.5t-205 -153.5q53 -28 84 -60.5t47.5 -84t16.5 -128.5q0 -148 -74.5 -261t-208.5 -173.5t-306 -60.5q-43 0 -89.5 4t-86.5 11t-79 15t-69 15.5t-53 14.5 t-35 11l-13 4l51 166q240 -36 392 -36q90 0 164 31.5t120 96t46 151.5q0 50 -19.5 83t-66.5 51.5t-124 19.5l-273 2l45 179l275 10q45 1 94.5 22t91.5 55.5t69.5 84t27.5 102.5q0 79 -52 118.5t-162 39.5q-78 0 -172.5 -8.5t-150.5 -17.5z" />
<glyph unicode="4" d="M720 -8l60 258h-624l40 174l624 982h257l-628 -959h376l95 413h234l-95 -413h146l-46 -197h-145l-59 -258h-235z" />
<glyph unicode="5" d="M532 1408h823l-48 -205h-632l-138 -394q19 9 50 21.5t106.5 34t126.5 21.5q369 0 369 -328q0 -124 -44 -232.5t-120 -185t-182 -120.5t-225 -44q-66 0 -139 8.5t-131 21t-106.5 24.5t-74.5 21l-27 8l53 183q28 -7 73 -17t153.5 -27t181.5 -17q96 0 175.5 45t124 121 t44.5 165q0 87 -47 128t-150 41q-56 0 -123.5 -16t-107.5 -31l-40 -16l-174 38z" />
<glyph unicode="6" d="M1357 1384l-73 -191q-168 34 -337 34q-291 0 -427 -414q7 4 20.5 9.5t52.5 19t76.5 24.5t87.5 19.5t91 8.5q381 0 381 -357q0 -124 -38 -226.5t-109 -177t-180 -116t-246 -41.5q-205 0 -318.5 124t-113.5 369q0 88 16 181.5t49 187.5t79.5 180.5t112.5 161.5t143 130.5 t175 87t205 31.5q45 0 98 -4.5t96.5 -11t80.5 -13.5t58 -11zM778 691q-68 0 -141 -17t-112 -33l-39 -17q-19 -82 -19 -162q0 -57 11 -106t34.5 -89t63.5 -63t93 -23q155 0 236 87t81 241q0 96 -51.5 139t-156.5 43z" />
<glyph unicode="7" d="M437 1201l47 205h864l-72 -315l-784 -1125l-215 66l771 1086l17 83h-628z" />
<glyph unicode="8" d="M939 1431q205 0 312.5 -79t107.5 -204q0 -149 -72 -250t-210 -170q36 -21 62 -46t41.5 -50t25 -54.5t12.5 -56t3 -57.5q0 -73 -27 -143.5t-82 -133.5t-131 -111t-181.5 -76t-226.5 -28q-221 0 -328 83t-107 254q0 59 20 115.5t50.5 100t72.5 84t82 68t84 51.5 q-39 32 -63.5 60t-36 56t-14.5 51t-3 57q0 71 23.5 139.5t74 130t121 108t171.5 74t219 27.5zM628 177q80 0 147.5 25.5t109 66.5t64 88t22.5 92q0 69 -30.5 104.5t-107.5 62.5h-199q-47 -16 -87.5 -38.5t-75.5 -54.5t-55 -76t-20 -95q0 -61 24 -99t75 -57t133 -19z M886 1227q-73 0 -134 -22t-99 -58t-59 -80.5t-21 -90.5q0 -59 23 -93.5t87 -69.5h199q30 13 59.5 30.5t59.5 42t53 51t37.5 59t14.5 65.5q0 78 -53.5 122t-166.5 44z" />
<glyph unicode="9" d="M168 24l72 204q16 -4 43.5 -9.5t107.5 -15.5t154 -10q160 0 280 102.5t167 287.5q-26 -7 -67.5 -18t-135 -29t-146.5 -18q-191 0 -280.5 94.5t-75.5 296.5q4 62 24 123.5t54.5 120t87 108.5t117 87.5t149 59t180.5 21.5q107 0 184 -40.5t121.5 -117.5t60.5 -184t5 -246 q-10 -171 -56 -313.5t-118.5 -243.5t-168.5 -171t-205.5 -103.5t-229.5 -33.5q-44 0 -94 5t-89 12t-72 14t-51 12zM716 730q55 0 136.5 12t135.5 24l53 12q21 97 21 175.5t-22 137.5t-71 91t-123 32q-82 0 -153 -34t-118.5 -100t-54.5 -151q-12 -109 35 -154t161 -45z" />
<glyph unicode=":" horiz-adv-x="346" d="M211 662l64 288h234l-64 -288h-234zM55 0l65 287h234l-64 -287h-235z" />
<glyph unicode=";" horiz-adv-x="395" d="M-66 -277h190l295 564h-253zM248 662l63 288h234l-63 -288h-234z" />
<glyph unicode="&#x3c;" d="M1110 803l-628 -264l628 -277v-238l-874 415v191l874 409v-236z" />
<glyph unicode="=" d="M254 641v209h933v-209h-933zM254 219v209h933v-209h-933z" />
<glyph unicode="&#x3e;" d="M955 539l-629 264v236l873 -409v-191l-873 -415v238z" />
<glyph unicode="?" horiz-adv-x="902" d="M1095 1173q0 -45 -6 -82.5t-16.5 -70t-31 -64.5t-44 -60t-62 -61.5t-78 -64.5t-97.5 -73q-128 -96 -144 -179l-20 -85h-216q0 88 14 165q21 115 207 252q74 54 115.5 88.5t75 71.5t46 70t12.5 72q0 72 -45 98t-136 26q-63 0 -139.5 -8t-122.5 -16l-45 -8l24 183 q21 6 56.5 15t125 24.5t154.5 15.5q86 0 153 -17t117 -53t76.5 -96.5t26.5 -142.5zM275 0l70 311h234l-70 -311h-234z" />
<glyph unicode="@" horiz-adv-x="2018" d="M1357 1542q152 0 275 -24.5t209.5 -69.5t148.5 -110t95.5 -142t45 -169.5t2 -190.5t-36.5 -206q-48 -187 -99.5 -311.5t-116 -200.5t-138.5 -107.5t-173 -31.5q-90 0 -146 24.5t-81 79.5q-47 -23 -113.5 -46.5t-148 -42t-141.5 -18.5q-61 0 -109.5 17t-80 46.5t-53 70.5 t-31 86t-11.5 97t2.5 100.5t14.5 98.5q27 139 71.5 247t110 187.5t155.5 121t202 41.5q110 0 475 -63q-33 -133 -95.5 -414t-66.5 -335q-3 -45 22 -62t76 -17q54 0 95 37.5t83.5 139t84.5 279.5q22 87 32 158.5t6.5 144.5t-24 129t-64.5 106.5t-112 83t-169 51.5t-232 19 q-191 0 -338.5 -48.5t-256 -147t-181.5 -241t-121 -338.5q-22 -93 -29.5 -178t1.5 -167t35.5 -151t76 -127.5t120 -99.5t170.5 -63.5t224 -22.5q36 0 109 4.5t129 9.5l55 5l-43 -196q-207 -20 -303 -20q-147 0 -269 30t-210 83t-152.5 127t-101.5 161.5t-52 188t-9 204.5 t32 212q63 264 163 450t243.5 301t325 167.5t418.5 52.5zM996 175q68 0 149 28t148 65q8 95 126 592q-132 32 -214 32q-50 0 -92.5 -20.5t-74 -55.5t-58 -87.5t-44.5 -110t-33 -128.5q-11 -52 -15.5 -97.5t-0.5 -85t16.5 -68.5t36 -46t56.5 -18z" />
<glyph unicode="A" horiz-adv-x="1175" d="M38 0l688 1459h424l-12 -1459h-237v305h-477l-147 -305h-239zM864 1252l-348 -738h391l11 738h-54z" />
<glyph unicode="B" horiz-adv-x="1224" d="M486 1459h492q368 0 368 -303q0 -75 -18.5 -138t-54 -111.5t-79.5 -85.5t-103 -69q87 -43 121 -101.5t34 -150.5q0 -106 -36 -196.5t-104.5 -158.5t-178 -106.5t-248.5 -38.5h-530zM817 639h-282l-100 -434h291q128 0 202 79t74 210q0 78 -47 111.5t-138 33.5zM939 1254 h-262l-98 -415h267q111 0 184 77t73 196q0 74 -39.5 108t-124.5 34z" />
<glyph unicode="C" horiz-adv-x="1059" d="M1024 215l-16 -187q-22 -6 -58.5 -14.5t-131.5 -23t-168 -14.5q-215 0 -320.5 107.5t-105.5 312.5q0 100 12.5 203t40.5 210t69.5 204t102.5 183.5t135 149.5t172.5 99.5t210.5 36.5q77 0 167 -14.5t141 -28.5l52 -14l-55 -179q-145 30 -315 30q-77 0 -145.5 -35.5 t-121.5 -97.5t-95 -145t-69.5 -179.5t-42 -199.5t-14.5 -206q0 -114 50.5 -172t159.5 -58q75 0 161.5 8t135.5 16z" />
<glyph unicode="D" horiz-adv-x="1290" d="M667 0h-518l339 1459h462q447 0 447 -439q0 -102 -14 -204t-43 -203t-71 -191.5t-102.5 -168t-133.5 -133.5t-167 -88t-199 -32zM1152 1020q0 125 -61 178.5t-188 53.5h-228l-238 -1045h254q67 0 127.5 29.5t106 79t84 116.5t64.5 141.5t44.5 154t26.5 153t8 139.5z" />
<glyph unicode="E" horiz-adv-x="1064" d="M149 0l337 1459h837l-49 -207h-599l-94 -413h482l-49 -209h-479l-98 -423h600l-49 -207h-839z" />
<glyph unicode="F" horiz-adv-x="1019" d="M149 0l339 1459h819l-49 -207h-583l-112 -500h489l-50 -207h-488l-126 -545h-239z" />
<glyph unicode="G" horiz-adv-x="1213" d="M825 590l47 198h408l-177 -756q-6 -2 -18.5 -6t-53.5 -13.5t-86 -17t-113.5 -13.5t-138.5 -6q-229 0 -347 109.5t-118 329.5q0 101 11 199t33.5 192.5t58 180.5t81.5 161.5t107 136.5t132 105t158.5 68t184.5 24q101 0 209.5 -19t166.5 -38l59 -19l-55 -173 q-24 5 -64.5 12t-147.5 19t-191 12q-74 0 -139 -29t-115 -79t-91 -118.5t-69 -146t-47 -162.5t-28 -167t-9 -161q0 -230 247 -230q41 0 88 5.5t73 10.5l26 6l89 385h-171z" />
<glyph unicode="H" horiz-adv-x="1323" d="M937 0l145 639h-547l-147 -639h-239l339 1459h236l-141 -613h547l144 613h236l-337 -1459h-236z" />
<glyph unicode="I" horiz-adv-x="536" d="M149 0l339 1459h236l-336 -1459h-239z" />
<glyph unicode="J" horiz-adv-x="585" d="M780 1459l-276 -1187q-16 -73 -30 -123.5t-32.5 -97t-36 -74.5t-45.5 -52.5t-58 -37t-75.5 -21.5t-94.5 -12t-120 -3l41 208q38 1 61.5 3.5t46.5 11t36 21.5t26.5 39t23.5 58.5t21 84.5l275 1182h237z" />
<glyph unicode="K" horiz-adv-x="1132" d="M854 0l-145 614l-183 -13l-138 -601h-239l339 1459h236l-151 -650l162 14l438 636h262l-510 -733l178 -726h-249z" />
<glyph unicode="L" horiz-adv-x="908" d="M899 0h-750l339 1459h236l-287 -1252h508z" />
<glyph unicode="M" horiz-adv-x="1671" d="M149 0l339 1459h376l43 -1138l569 1138h384l-337 -1459h-239l293 1252h-18l-594 -1193h-230l-44 1193h-16l-287 -1252h-239z" />
<glyph unicode="N" horiz-adv-x="1366" d="M149 0l339 1459h390l140 -1209h32l275 1209h230l-337 -1459h-372l-153 1225h-33l-286 -1225h-225z" />
<glyph unicode="O" horiz-adv-x="1319" d="M718 183q120 0 209 79q80 72 140 204t87.5 275t27.5 279q0 137 -56 196.5t-189 59.5q-118 0 -198 -71q-63 -57 -115.5 -152.5t-85 -201.5t-50 -213t-17.5 -199q0 -139 55.5 -197.5t191.5 -58.5zM681 -24q-226 0 -340.5 106.5t-114.5 334.5q0 180 36 350t113.5 321.5 t187.5 246.5q162 147 400 147q464 0 464 -441q0 -188 -36.5 -362t-117 -329t-196.5 -248q-77 -61 -180.5 -93.5t-215.5 -32.5z" />
<glyph unicode="P" horiz-adv-x="1164" d="M733 451h-241l-104 -451h-239l339 1459h437q216 0 313 -92t97 -292q0 -295 -159.5 -459.5t-442.5 -164.5zM539 658h227q156 0 241.5 113t85.5 302q0 92 -44 135.5t-144 43.5h-230z" />
<glyph unicode="Q" horiz-adv-x="1319" d="M681 -24q-226 0 -340.5 106.5t-114.5 334.5q0 180 36 350t113.5 321.5t187.5 246.5q162 147 400 147q464 0 464 -441q0 -188 -36.5 -362t-117 -329t-196.5 -248q-37 -30 -85 -53l103 -294l-223 -74l-94 302q-57 -7 -97 -7zM718 183q120 0 209 79q80 72 140 204t87.5 275 t27.5 279q0 137 -56 196.5t-189 59.5q-118 0 -198 -71q-63 -57 -115.5 -152.5t-85 -201.5t-50 -213t-17.5 -199q0 -139 55.5 -197.5t191.5 -58.5z" />
<glyph unicode="R" horiz-adv-x="1193" d="M890 0l-119 500h-269l-114 -500h-239l339 1459h432q214 0 315.5 -91t101.5 -297q0 -109 -29 -202.5t-79 -159t-110.5 -109.5t-128.5 -68l136 -532h-236zM1093 1061q0 105 -43.5 149t-146.5 44h-226l-128 -549h246q68 0 125 28.5t94.5 77t58 113t20.5 137.5z" />
<glyph unicode="S" horiz-adv-x="1057" d="M1252 1412l-42 -170q-231 38 -379 38q-124 0 -194 -64.5t-70 -178.5q0 -30 6.5 -51.5t19.5 -39t42 -35t63 -33t94 -39.5q90 -37 144.5 -69.5t90 -74t49 -91.5t13.5 -122q0 -161 -68 -275.5t-189.5 -172.5t-284.5 -58q-35 0 -71.5 2.5t-70 7t-66.5 10t-61.5 12t-54 12.5 t-45.5 11.5t-34.5 10t-22.5 6.5l-8 3l38 173q246 -41 398 -41q144 0 220.5 66.5t76.5 203.5q0 39 -8 63.5t-36 48t-67 43t-115 50.5q-80 33 -131.5 63t-90 71.5t-55.5 94.5t-17 125q0 139 60.5 245t175.5 165.5t267 59.5q96 0 201.5 -17.5t163.5 -34.5z" />
<glyph unicode="T" horiz-adv-x="981" d="M309 1252l49 207h941l-49 -207h-354l-289 -1252h-237l288 1252h-349z" />
<glyph unicode="U" horiz-adv-x="1264" d="M711 1459l-227 -980q-20 -88 -20 -147q0 -83 55 -116t162 -33q76 0 129.5 17.5t90 56t59 89t39.5 127.5l228 986h238l-227 -986q-61 -259 -195.5 -378t-382.5 -119q-132 0 -227.5 33.5t-150 106t-54.5 180.5q0 86 26 218l219 945h238z" />
<glyph unicode="V" horiz-adv-x="1173" d="M1231 1459h239l-675 -1459h-431l8 1459h237l-26 -1252h82z" />
<glyph unicode="W" horiz-adv-x="1807" d="M382 1459h238l-81 -1240h42l522 1218h260l-58 -1218h41l514 1240h236l-626 -1459h-364l57 1122l-468 -1122h-376z" />
<glyph unicode="X" horiz-adv-x="1100" d="M620 1459l140 -554l405 554h254l-559 -729l217 -730h-246l-152 558l-413 -558h-254l567 735l-211 724h252z" />
<glyph unicode="Y" horiz-adv-x="1061" d="M1388 1459l-606 -839l-148 -620h-221l148 634l-214 825h241l132 -618l418 618h250z" />
<glyph unicode="Z" horiz-adv-x="1047" d="M368 1252l49 207h888l-59 -262l-841 -937l-13 -53h624l-49 -207h-888l57 258l837 941l13 53h-618z" />
<glyph unicode="[" horiz-adv-x="551" d="M437 1591h455l-46 -198h-218l-338 -1454h214l-48 -199h-452z" />
<glyph unicode="\" horiz-adv-x="977" d="M920 8l-241 -8l-281 1487l243 9z" />
<glyph unicode="]" horiz-adv-x="549" d="M422 -260h-456l46 199h218l339 1454h-215l48 198h452z" />
<glyph unicode="^" d="M945 673l-264 507l-264 -507h-242l404 733h201l409 -733h-244z" />
<glyph unicode="_" horiz-adv-x="1109" d="M38 -171h954l-49 -217h-953z" />
<glyph unicode="`" horiz-adv-x="1102" d="M665 1616l436 -195l-97 -169l-451 177z" />
<glyph unicode="a" horiz-adv-x="1098" d="M467 -24q-75 0 -131 26t-90 74t-50.5 112t-16.5 144q0 79 14 163.5t42 170t73.5 161t103 134.5t136.5 93.5t170 34.5q65 0 187.5 -15.5t212.5 -31.5l89 -16l-159 -689q-8 -38 -17 -86t-16 -89.5t-13 -78t-9 -58.5l-3 -21l-228 -8q24 153 33 193q-7 -8 -18 -22.5 t-47 -51.5t-72.5 -65t-89 -51t-101.5 -23zM724 892q-60 0 -112 -36.5t-87.5 -95.5t-61.5 -133.5t-38 -150t-12 -144.5q0 -79 29 -118t101 -39q30 0 71.5 23.5t78.5 57t70 67t53 56.5l19 23l108 458q-144 32 -219 32z" />
<glyph unicode="b" horiz-adv-x="1096" d="M858 1089q70 0 124 -18.5t87.5 -49.5t55 -75.5t30 -91.5t8.5 -102q0 -115 -22 -225t-67.5 -209.5t-109 -174.5t-154.5 -119.5t-196 -44.5q-91 0 -211 15.5t-195 30.5l-74 16l337 1467h232l-128 -551q6 5 16 14t42 32t64 40t76.5 31.5t84.5 14.5zM612 175q55 0 103.5 29.5 t82 78.5t59 108t40.5 122.5t22.5 117.5t7.5 97q0 35 -5.5 61t-19 50.5t-41.5 37.5t-71 13q-30 0 -68.5 -14t-71.5 -34.5t-61 -41t-44 -34.5l-17 -14l-128 -554q118 -23 212 -23z" />
<glyph unicode="c" horiz-adv-x="866" d="M742 1089q61 0 135 -14t117 -28l43 -14l-59 -171q-153 26 -245 26q-63 0 -116 -30t-89 -80.5t-61 -117.5t-36.5 -139t-11.5 -147q0 -48 10.5 -84.5t32.5 -62t57.5 -38t85.5 -12.5q40 0 98 6t96 12l38 6l-17 -175q-17 -6 -46 -14t-107.5 -22t-142.5 -14q-159 0 -250 91.5 t-91 258.5q0 124 22 236.5t67.5 209t110.5 167t157 110.5t202 40z" />
<glyph unicode="d" horiz-adv-x="1098" d="M1321 1508l-350 -1508h-223l27 145q-6 -7 -16 -18.5t-43 -40.5t-67 -51.5t-83.5 -40.5t-96.5 -18q-143 0 -216.5 89.5t-73.5 260.5q0 65 8.5 132.5t25.5 133.5t43 128t59 117t76 100.5t91.5 78.5t107.5 51.5t123 18.5q47 0 114 -10t111 -20l44 -10l107 462h232zM827 368 l112 492q-130 30 -226 30q-55 0 -104.5 -37t-84.5 -96.5t-60.5 -134.5t-38 -151t-12.5 -145q0 -72 32.5 -112.5t97.5 -40.5q22 0 49 10.5t53.5 28t53.5 38t49.5 41.5t40.5 38.5t28 27.5z" />
<glyph unicode="e" horiz-adv-x="1000" d="M590 175q66 0 154 9t142 18l55 9l-23 -175q-22 -6 -59.5 -16t-141 -27t-191.5 -17q-172 0 -258.5 85t-86.5 260q0 96 15 187.5t44.5 178t77.5 158.5t110.5 126t147.5 84.5t184 30.5q350 0 350 -291q0 -81 -23.5 -140.5t-69 -100t-118.5 -64.5t-165.5 -34.5t-217.5 -10.5 h-90q-13 -52 -13 -115q0 -75 49 -115t128 -40zM453 620h100q178 0 253.5 38t75.5 134q0 58 -33.5 82.5t-98.5 24.5q-222 0 -297 -279z" />
<glyph unicode="f" horiz-adv-x="681" d="M603 867l-203 -867l-132 -460h-207l309 1324h-106l47 201h104l16 63q25 112 55 185.5t74 124t104 72.5t143 22q40 0 88 -10t76 -20l28 -11l-42 -172q-80 14 -146 14q-26 0 -47 -10t-35 -26t-27 -45t-22 -56t-20 -70l-14 -61h250l-48 -198h-245z" />
<glyph unicode="g" horiz-adv-x="1015" d="M453 -494q-130 0 -223.5 29.5t-147.5 94t-54 161.5q0 45 17 86t42 71.5t63.5 59.5t71 48t74.5 40q-38 38 -38 105q0 19 7 40.5t17.5 40.5t24 38t26.5 34t24 26.5t18 17.5l7 7q-73 38 -110.5 100t-37.5 162q0 84 30.5 160t85.5 134.5t138 93t183 34.5q47 0 105.5 -9 t93.5 -18l35 -10l313 13l-45 -189h-151q19 -51 19 -126q0 -77 -31.5 -149.5t-88 -129.5t-142 -91.5t-185.5 -34.5q-12 0 -24.5 1t-22 2.5t-17.5 3.5l-12 3l-4 1q-5 -7 -13 -18.5t-21 -39t-13 -46.5q0 -31 40.5 -44.5t157.5 -30.5q39 -6 72 -13t65.5 -18t58 -25.5t47.5 -34.5 t36.5 -44.5t23 -56.5t8.5 -70q0 -87 -36 -162t-102 -129.5t-165 -86t-220 -31.5zM583 -4q-131 20 -183 32q-60 -30 -110 -81.5t-50 -102.5q0 -64 52.5 -104.5t160.5 -40.5q59 0 111 11t96 32.5t70 59.5t26 88q0 51 -38.5 71.5t-134.5 34.5zM612 535q50 0 92.5 19.5t69 51.5 t41 70.5t14.5 77.5q0 72 -40.5 108.5t-128.5 36.5q-63 0 -112.5 -33.5t-74 -83.5t-24.5 -105q0 -142 163 -142z" />
<glyph unicode="h" horiz-adv-x="1079" d="M358 0h-230l347 1508h230l-132 -581q6 6 16.5 17t43.5 39t66.5 49.5t81.5 39t93 17.5q66 0 116 -21.5t80 -61t44 -90.5t14 -113q0 -85 -44 -275l-121 -528h-230l119 514q38 156 38 236q0 70 -24 104t-86 34q-27 0 -64 -18t-69.5 -44t-61.5 -52t-46 -44l-17 -19z" />
<glyph unicode="i" horiz-adv-x="482" d="M128 0l244 1065h231l-245 -1065h-230zM407 1223l57 249h235l-58 -249h-234z" />
<glyph unicode="j" horiz-adv-x="482" d="M128 0l244 1065h231l-245 -1065q-15 -64 -25 -102t-26 -80.5t-29 -65.5t-39 -53t-51 -47.5t-70.5 -44t-91 -47.5t-118.5 -54l-74 185q65 33 101 52.5t70.5 43.5t50 40t31 44.5t23 55t18.5 73.5zM405 1212l57 247h233l-56 -247h-234z" />
<glyph unicode="k" horiz-adv-x="974" d="M358 0h-230l347 1508h230l-199 -856l101 10l322 401h258l-407 -502l167 -561h-238l-136 471l-109 -9z" />
<glyph unicode="l" horiz-adv-x="491" d="M130 0l349 1508h230l-347 -1508h-232z" />
<glyph unicode="m" horiz-adv-x="1650" d="M961 0h-231l120 514q38 183 38 236q0 69 -26 103.5t-87 34.5q-28 0 -64 -18t-68 -44t-60 -52t-44 -44l-17 -19l-164 -711h-230l244 1065h222l-23 -138q6 6 16 17t43 39t67.5 49.5t84.5 39t98 17.5q39 0 73 -9.5t56.5 -24t40.5 -32.5t28 -36t16.5 -33t8.5 -24l3 -10 q6 7 18.5 18.5t51.5 40.5t77.5 51t92 40.5t101.5 18.5q66 0 116 -21.5t79 -61t43 -90t14 -113.5q0 -78 -40 -275l-121 -528h-233l124 514q38 183 38 230q0 71 -25 107.5t-81 36.5q-28 0 -64 -15.5t-66.5 -38t-57 -45t-42.5 -38.5l-15 -16q-11 -115 -34 -207z" />
<glyph unicode="n" horiz-adv-x="1077" d="M358 0h-230l244 1065h222l-23 -140q6 6 16.5 17t43.5 39.5t67 50t82.5 39.5t93.5 18q66 0 116 -21.5t80 -61t44 -90.5t14 -113q0 -88 -44 -273l-121 -530h-230l119 514q38 183 38 236q0 70 -24 104t-88 34q-28 0 -64.5 -18t-69 -44t-61 -52t-44.5 -44l-17 -19z" />
<glyph unicode="o" horiz-adv-x="1053" d="M718 1086q398 0 398 -383q0 -89 -16 -177t-46 -169.5t-77 -150.5t-105.5 -120.5t-134.5 -80.5t-162 -29q-194 0 -294 91.5t-100 288.5q0 89 17 178t48.5 170t79.5 151t106 121t131.5 80.5t154.5 29.5zM575 173q70 0 130 46t98.5 121.5t60.5 170.5t22 194q0 87 -42.5 136 t-125.5 49q-69 0 -128 -47t-97.5 -123t-60 -171.5t-21.5 -194.5q0 -88 42 -134.5t122 -46.5z" />
<glyph unicode="p" horiz-adv-x="1096" d="M21 -458l351 1523h226l-29 -145q6 7 16.5 18.5t44 40.5t67 51t81.5 40.5t91 18.5q150 0 223 -91t73 -250q0 -90 -15.5 -181t-45 -176.5t-76 -160.5t-104 -130.5t-133.5 -88t-161 -32.5q-50 0 -117.5 10t-110.5 20l-42 10l-110 -477h-229zM799 890q-21 0 -48 -10.5 t-53 -27.5t-53 -37.5t-50 -41.5t-41 -38t-28 -28l-10 -10l-111 -490q130 -32 225 -32q56 0 106 37t85 97t60 135t37.5 150t12.5 141q0 29 -5 52.5t-15.5 42.5t-26 32.5t-37 20.5t-48.5 7z" />
<glyph unicode="q" horiz-adv-x="1094" d="M471 -24q-143 0 -217.5 90.5t-74.5 254.5q0 91 16 182t45.5 176.5t76 159t104.5 129t133.5 87t158.5 31.5q35 0 81 -3.5t91.5 -9t93 -12t87.5 -13t71.5 -12t49.5 -8.5l18 -4l-338 -1477h-231l139 600q-6 -7 -16 -18.5t-43 -41t-66.5 -52t-82.5 -41t-96 -18.5zM711 890 q-66 0 -124 -54.5t-95 -138.5t-58 -181t-21 -186q0 -74 32 -114.5t98 -40.5q29 0 69 20t76 48t68 56.5t52 48.5l19 20l112 492q-130 30 -228 30z" />
<glyph unicode="r" horiz-adv-x="693" d="M128 0l244 1065h229l-36 -156q7 6 20.5 16.5t54.5 38t81 50.5t95.5 45t103.5 30l-66 -239q-52 -16 -134.5 -50.5t-139.5 -61.5l-56 -27l-166 -711h-230z" />
<glyph unicode="s" horiz-adv-x="917" d="M1044 1031l-42 -173q-212 32 -350 32q-83 0 -131 -42.5t-48 -105.5q0 -42 33.5 -64t136.5 -52q31 -9 52.5 -15.5t47 -15.5t43 -16.5t37 -18t32 -20.5t26 -23.5t21.5 -28t14.5 -32.5t9.5 -38.5t3 -45.5q0 -79 -23.5 -144t-65.5 -111.5t-101 -78t-129.5 -47t-151.5 -15.5 q-85 0 -173.5 15.5t-135.5 31.5l-47 15l43 173q203 -38 339 -38q101 0 156 40.5t55 114.5q0 17 -6.5 30t-17.5 22.5t-33.5 18.5t-45.5 16t-62 18q-73 19 -121.5 38t-89 48t-60 69.5t-19.5 94.5q0 94 35 171t95 127t138.5 77.5t166.5 27.5q89 0 181.5 -14t139.5 -28z" />
<glyph unicode="t" horiz-adv-x="689" d="M848 867h-254l-110 -473q-22 -94 -22 -142q0 -79 83 -79q11 0 25.5 0.5t29 1.5t29 2.5t27 3t22.5 2.5t15 1l6 1l-20 -168q-12 -5 -33.5 -11.5t-80.5 -18t-109 -11.5q-111 0 -171.5 60t-60.5 157q0 83 32 220l106 454h-124l52 198h121l66 292h232l-68 -292h255z" />
<glyph unicode="u" horiz-adv-x="1077" d="M967 1065h230l-245 -1065h-222l24 140q-6 -6 -16.5 -17t-44 -39.5t-67.5 -50t-82 -39.5t-93 -18q-66 0 -116.5 21.5t-80 61t-44 90.5t-14.5 113q0 72 42 273l122 530h230l-117 -514q-38 -156 -38 -236q0 -69 25 -103.5t85 -34.5q28 0 65 18t69.5 44t61 52t45.5 44l17 19z " />
<glyph unicode="v" horiz-adv-x="977" d="M279 1065h227l-10 -874h51l408 874h234l-518 -1065h-384z" />
<glyph unicode="w" horiz-adv-x="1592" d="M296 1065h232l-46 -867h44l381 846h264l-19 -846h45l360 867h234l-456 -1065h-392l20 737l-324 -737h-385z" />
<glyph unicode="x" horiz-adv-x="904" d="M275 1065h237l108 -366l270 366h236l-429 -549l179 -516h-237l-107 356l-266 -356h-242l427 532z" />
<glyph unicode="y" horiz-adv-x="979" d="M279 1065h227l-10 -874h47l412 874h234l-738 -1523h-232l230 458h-162z" />
<glyph unicode="z" horiz-adv-x="885" d="M275 867l48 198h734l-47 -191l-620 -676h468l-51 -198h-730l41 193l617 674h-460z" />
<glyph unicode="{" horiz-adv-x="636" d="M532 469q0 -33 -24 -120.5t-48.5 -176.5t-24.5 -127q0 -122 151 -122l-56 -200q-153 2 -238 68t-85 188q0 53 47 225t47 213q0 57 -34.5 99t-113.5 78l40 170q71 19 115 38t70 46.5t38 54.5t23 73q6 25 19.5 98t25.5 136t14 70q54 175 163 248.5t317 81.5l-39 -200 q-107 -7 -160 -55t-74 -139l-49 -261q-29 -127 -86 -189t-170 -101q45 -23 72.5 -47t43.5 -61t16 -88z" />
<glyph unicode="|" horiz-adv-x="691" d="M352 -458v1966h229v-1966h-229z" />
<glyph unicode="}" horiz-adv-x="634" d="M409 858q0 39 48.5 208t48.5 216q0 122 -150 122l55 200q153 -2 238.5 -68t85.5 -188q0 -53 -47 -225.5t-47 -213.5q0 -57 34 -98t113 -78l-40 -170q-70 -18 -114.5 -37.5t-70.5 -47t-38 -54.5t-23 -72q-7 -32 -31.5 -164t-27.5 -141q-54 -175 -163 -248.5t-316 -81.5 l38 200q108 7 160.5 55t73.5 138l49 262q30 127 86.5 189t169.5 101q-45 23 -72 47t-43.5 61.5t-16.5 87.5z" />
<glyph unicode="~" d="M1163 681l19 -185q-4 -4 -13 -11.5t-36 -26.5t-54 -33.5t-65 -26.5t-73 -12q-49 0 -138.5 27t-173 54t-117.5 27q-27 0 -60.5 -9t-62 -22.5t-53.5 -26.5t-39 -22l-14 -9l-21 187q6 4 15.5 11.5t39 27t59 34t69 26.5t73.5 12q32 0 79 -11t94 -27.5t93.5 -32.5t90 -27 t70.5 -11q37 0 91.5 22t90.5 43z" />
<glyph unicode="&#xa1;" horiz-adv-x="357" d="M415 541l-212 -967h-244l242 967h214zM541 1065l-66 -287h-235l67 287h234z" />
<glyph unicode="&#xa2;" d="M541 -164l51 233q-78 3 -134 31.5t-86 73t-42.5 104t-8.5 122t20 130.5q55 221 177.5 337t294.5 125l54 233h188l-59 -237l169 -21l-57 -196q-162 11 -239 11q-131 0 -201.5 -60.5t-102.5 -191.5q-16 -62 -16 -104.5t18.5 -76.5t65 -50t123.5 -16q36 0 97.5 3t104.5 5 l44 3l-39 -196q-98 -13 -181 -17l-56 -245h-185z" />
<glyph unicode="&#xa3;" d="M1315 1402l-55 -177q-140 17 -234 17q-21 0 -40 -4.5t-33.5 -10t-27.5 -18.5t-22.5 -23.5t-19 -30.5t-15.5 -34.5t-14 -41t-12.5 -44t-12.5 -49.5l-16 -64h369l-46 -198h-367l-121 -526h238l151 36l-4 -198l-161 -36h-708l45 198h204l119 526h-166l47 198h164l24 92 q19 77 38.5 135t45.5 108.5t57 84.5t71.5 58t91 35.5t113.5 11.5q48 0 122 -11.5t124 -22.5z" />
<glyph unicode="&#xa4;" d="M1067 30l-151 153q-91 -51 -194.5 -51t-195.5 51l-152 -153l-159 159l151 152q-49 91 -49 195t49 194l-151 154l159 160l152 -154q92 49 195.5 49t194.5 -49l151 154l160 -160l-154 -154q49 -90 49 -194t-49 -195l154 -152zM585.5 400.5q56.5 -56.5 135.5 -56.5t135 56.5 t56 136.5t-56 136t-135 56t-135.5 -56t-56.5 -136t56.5 -136.5z" />
<glyph unicode="&#xa5;" d="M298 620l45 203h200l-234 583h256l221 -537l428 537h306l-479 -583h199l-47 -203h-307l-24 -30l-21 -88h326l-47 -204h-325l-71 -298h-236l73 298h-339l48 204h335l21 90l-8 28h-320z" />
<glyph unicode="&#xa6;" horiz-adv-x="695" d="M354 1508h232v-795h-232v795zM354 349h232v-807h-232v807z" />
<glyph unicode="&#xa7;" horiz-adv-x="1022" d="M1191 1325l-53 -197q-218 33 -313 33q-123 0 -189.5 -48.5t-66.5 -132.5q0 -19 6 -34.5t14.5 -27t26.5 -21.5t32 -16.5t41 -14t43 -11t49 -10.5q17 -4 26 -6q52 -11 93 -28.5t68 -38.5t46.5 -44t29.5 -49t14.5 -48.5t4.5 -47.5q0 -152 -177 -349q15 -23 23.5 -45 t10.5 -39t2 -40q0 -30 -4.5 -65t-19 -82.5t-37.5 -91t-63.5 -87.5t-92.5 -76t-129.5 -52t-170.5 -20q-61 0 -149.5 10.5t-146.5 21.5l-58 11l67 193q211 -30 319 -30q115 0 186.5 53.5t71.5 125.5q0 15 -1.5 26.5t-8 22t-11.5 17.5t-20.5 15t-25 12.5t-35.5 12.5t-42.5 12.5 t-54.5 14.5q-30 8 -47 12q-141 38 -200.5 99.5t-59.5 158.5q0 51 15.5 100.5t37.5 86t51 70.5t50.5 53.5t42.5 34.5q-43 42 -43 168q0 55 19.5 113.5t62 116t101.5 102.5t146 73t188 28q60 0 142.5 -11.5t135.5 -22.5zM665 646q-48 10 -92 22.5t-55 19.5 q-12 -13 -31.5 -43.5t-40 -78.5t-20.5 -82q0 -43 30.5 -64t106.5 -40q109 -33 172 -61q22 22 56 92.5t34 118.5q0 44 -36.5 70t-123.5 46z" />
<glyph unicode="&#xa8;" horiz-adv-x="1248" d="M484 1297l57 249h189l-57 -249h-189zM886 1297l55 249h193l-61 -249h-187z" />
<glyph unicode="&#xa9;" horiz-adv-x="1366" d="M321 925q0 126 43.5 236t119.5 188.5t183.5 123.5t231.5 45q126 0 234.5 -47t182.5 -128t116 -189.5t42 -228.5q0 -125 -42 -234.5t-116.5 -189t-183.5 -125.5t-238 -46q-80 0 -155.5 21t-138.5 58.5t-115 92t-88 120t-56 143t-20 160.5zM437 925q0 -66 15.5 -128 t44 -115t70 -97.5t91.5 -75.5t110.5 -48.5t125.5 -17.5q132 0 238.5 64.5t165.5 175t59 242.5q0 97 -35 186t-95.5 154.5t-147 104t-183.5 38.5t-182.5 -38.5t-146 -104t-95.5 -154.5t-35 -186zM1071 760l13 -146q-8 -4 -22.5 -10t-60 -15.5t-92.5 -9.5q-96 0 -152 33 t-82.5 109.5t-26.5 209.5q0 182 61.5 259.5t206.5 77.5q28 0 55 -3t46.5 -7t35 -8.5t23.5 -6.5l8 -3l-13 -154q-76 15 -144 15q-59 0 -78.5 -37.5t-19.5 -132.5q0 -97 21.5 -140t76.5 -43q13 0 28 0.5t29 1.5t27 2.5t24 3t19 2.5t13 2h4z" />
<glyph unicode="&#xaa;" horiz-adv-x="713" d="M903 1173l-68 -297q13 -20 43 -24l-37 -145q-82 0 -127 8.5t-60.5 20t-27.5 35.5q-13 -7 -35.5 -17.5t-81 -27.5t-104.5 -17q-98 0 -139 58.5t-16 159.5q23 99 88 146t194 53l159 10l12 49q6 28 -13.5 41.5t-67.5 13.5q-40 0 -107 -4t-114 -7l-47 -4l22 134q7 2 19 5 t47 11t68.5 13.5t78.5 10.5t82 5q46 0 82 -4.5t67 -15t50 -27.5t31.5 -42.5t11.5 -60.5t-10 -81zM662 1010l-123 -8q-41 -4 -63.5 -20.5t-30.5 -50.5q-6 -35 8 -51t49 -16q25 0 58.5 8.5t54.5 17.5l21 9z" />
<glyph unicode="&#xab;" horiz-adv-x="992" d="M1154 903l-65 -228l-258 -159l179 -181l-58 -209l-336 343l40 106zM677 903l-65 -228l-258 -159l178 -181l-57 -209l-337 343l41 106z" />
<glyph unicode="&#xac;" d="M250 748h921v-514h-208v307h-713v207z" />
<glyph unicode="&#xad;" horiz-adv-x="632" d="M153 462l54 209h532l-51 -209h-535z" />
<glyph unicode="&#xae;" horiz-adv-x="1366" d="M321 925q0 126 43.5 236t119.5 188.5t183 123.5t229 45q128 0 237 -47t183 -128t116 -189.5t42 -228.5q0 -125 -42 -234.5t-116.5 -189t-183 -125.5t-236.5 -46q-121 0 -228 46t-183 125.5t-120 189.5t-44 234zM437 925q0 -79 22.5 -152t64.5 -132.5t98 -104t127 -69 t147 -24.5q131 0 237 64.5t165 175t59 242.5q0 97 -35 186t-95.5 154.5t-147 104t-183.5 38.5q-96 0 -181.5 -38.5t-146.5 -104t-96 -154.5t-35 -186zM988 594l-79 211h-89v-211h-170v658h266q243 0 243 -213q0 -81 -20.5 -127t-71.5 -79l100 -239h-179zM817 1122v-189h90 q42 0 64.5 24.5t22.5 68.5q0 96 -100 96h-77z" />
<glyph unicode="&#xaf;" horiz-adv-x="962" d="M473 1346l43 188h628l-45 -188h-626z" />
<glyph unicode="&#xb0;" d="M553 1171q0 139 87.5 225t226.5 86q138 0 224.5 -86t86.5 -225q0 -138 -86.5 -223.5t-224.5 -85.5q-139 0 -226.5 85.5t-87.5 223.5zM693 1171q0 -79 47.5 -128t126.5 -49t129 49.5t50 127.5t-50.5 128.5t-128.5 50.5t-126 -50t-48 -129z" />
<glyph unicode="&#xb1;" d="M215 596v209h377v245h209v-245h384v-209h-384v-238h-209v238h-377zM215 266h970v-209h-970v209z" />
<glyph unicode="&#xb2;" horiz-adv-x="595" d="M762 1018h-470l38 160l207 151q66 46 98 79t40 66q3 14 0.5 24t-13.5 16t-26.5 8.5t-37.5 2.5q-11 0 -26.5 -1t-31.5 -2.5t-32.5 -3t-31.5 -3t-26.5 -2.5t-18.5 -2l-7 -1l36 173q150 21 243 21q123 0 162.5 -47.5t12.5 -156.5q-18 -70 -59 -120.5t-120 -103.5l-126 -89 h230z" />
<glyph unicode="&#xb3;" horiz-adv-x="595" d="M458 1685q141 19 230 19q123 0 171.5 -44t26.5 -140q-14 -58 -46.5 -97t-64.5 -55q26 -11 39.5 -29t17.5 -50.5t-9 -81.5q-27 -105 -103.5 -158t-191.5 -53q-46 0 -108 4.5t-100 9.5l-39 4l54 164q123 -13 202 -13q80 0 95 58q8 31 -8 43t-53 12h-140l38 153h136 q26 0 47 15.5t27 40.5q6 27 -9 38t-52 11t-84.5 -3.5t-76.5 -6.5l-29 -3z" />
<glyph unicode="&#xb4;" horiz-adv-x="1177" d="M565 1246l-20 183l528 197l20 -207z" />
<glyph unicode="&#xb5;" d="M73 -458l214 942l3 10l15 62l12 51l105 458h230l-105 -458l-29 -130q-22 -100 -22 -162q0 -69 25.5 -103.5t85.5 -34.5q28 0 65 18t69.5 44t61 52t44.5 44l17 19l165 711h229l-244 -1065h-222l23 140q-5 -6 -16 -17t-44 -39.5t-67 -50t-82 -39.5t-92 -18q-60 0 -107 20 l-104 -454h-230z" />
<glyph unicode="&#xb6;" horiz-adv-x="1193" d="M801 0l311 1303h-171l-311 -1303h-189l162 675q-81 1 -141 27.5t-93.5 71.5t-49.5 98.5t-16 117.5q0 73 22 146t65 136.5t100.5 113t133.5 77.5t160 28h665l-45 -188h-105l-311 -1303h-187z" />
<glyph unicode="&#xb7;" horiz-adv-x="338" d="M162 475l70 313h235l-71 -313h-234z" />
<glyph unicode="&#xb8;" horiz-adv-x="1683" d="M1071 -264q-24 -102 -88.5 -154.5t-167.5 -52.5q-39 0 -83 5t-68 10l-23 5l36 144q71 -4 113.5 -4t65 14.5t30.5 46.5q9 34 -9.5 45.5t-59.5 11.5h-61l47 203h98l-25 -91h12q39 0 70 -5t58 -17.5t41 -33.5t20 -52.5t-6 -74.5z" />
<glyph unicode="&#xb9;" horiz-adv-x="595" d="M415 1527l258 156h173l-165 -665h-187l113 458l-138 -81z" />
<glyph unicode="&#xba;" horiz-adv-x="728" d="M683 1404q47 0 89.5 -9t79.5 -26.5t62 -47.5t31 -69q16 -83 -10 -189q-45 -195 -142 -275.5t-273 -80.5q-125 0 -193 65t-63 180q3 54 19 117q43 181 139.5 258t260.5 77zM561 878q34 0 59.5 9t46.5 31t37.5 57.5t30.5 89.5q13 45 13 85q0 47 -24 68.5t-76 21.5 q-45 0 -75.5 -16t-52 -52.5t-36.5 -98.5q-17 -65 -17 -104q0 -19 3 -33.5t10 -25.5t18 -18t26.5 -10.5t36.5 -3.5z" />
<glyph unicode="&#xbb;" horiz-adv-x="1015" d="M577 126l66 228l258 160l-179 181l58 208l336 -342l-41 -108zM81 126l66 228l258 160l-179 181l57 208l337 -342l-41 -108z" />
<glyph unicode="&#xbc;" horiz-adv-x="1313" d="M356 1527l258 156h172l-164 -665h-187l112 458l-138 -81zM441 -38l-217 76l916 1480l215 -77zM1069 0l22 87h-294l38 155l222 423h206l-230 -409h101l69 189h163l-47 -189h36l-40 -169h-39l-22 -87h-185z" />
<glyph unicode="&#xbd;" horiz-adv-x="1349" d="M356 1527l258 156h172l-164 -665h-187l112 458l-138 -81zM441 -38l-217 76l916 1480l215 -77zM1319 0h-471l38 160l207 151q44 31 72 54.5t44.5 45.5t21.5 45q5 18 -2.5 29.5t-26 16t-48.5 4.5q-23 0 -67 -3.5t-75 -6.5l-32 -4l36 173q149 20 242 20q123 0 163 -47 t12 -156q-12 -48 -35 -86t-57 -70.5t-87 -67.5l-126 -90h231z" />
<glyph unicode="&#xbe;" horiz-adv-x="1321" d="M431 1685q140 19 229 19q123 0 171.5 -44t26.5 -140q-14 -58 -46.5 -97t-63.5 -55q26 -11 39 -29t17 -50.5t-9 -81.5q-27 -105 -103.5 -158t-191.5 -53q-46 0 -107.5 4.5t-100.5 9.5l-38 4l53 164q123 -13 202 -13q81 0 96 58q5 21 -1.5 33.5t-21 17t-39.5 4.5h-141 l39 153h136q27 0 48 15.5t27 40.5q6 27 -9 38t-53 11q-37 0 -84.5 -3.5t-76.5 -6.5l-29 -3zM451 -38l-217 76l916 1480l216 -77zM1080 0l21 87h-294l39 155l221 423h207l-230 -409h100l70 189h162l-47 -189h37l-41 -169h-39l-20 -87h-186z" />
<glyph unicode="&#xbf;" horiz-adv-x="896" d="M53 -108q0 45 6 82.5t16.5 70t31 64.5t44.5 60t62 61.5t77.5 64.5t97.5 73q128 96 144 179l19 85h218q0 -88 -15 -165q-21 -115 -207 -252q-74 -54 -115.5 -88.5t-74.5 -71.5t-46 -70t-13 -72q0 -72 45.5 -98t135.5 -26q63 0 139.5 8t122.5 16l45 8l-24 -183 q-21 -6 -56.5 -15t-124.5 -24.5t-155 -15.5q-86 0 -153 17t-117 53t-76.5 96.5t-26.5 142.5zM874 1065l-71 -311h-234l70 311h235z" />
<glyph unicode="&#xc0;" horiz-adv-x="1175" d="M797 2004l439 -195l-106 -179l-447 172zM38 0l688 1459h424l-12 -1459h-237v305h-477l-147 -305h-239zM864 1252l-348 -738h391l11 738h-54z" />
<glyph unicode="&#xc1;" horiz-adv-x="1175" d="M786 1648l-20 181l529 197l22 -207zM38 0l688 1459h424l-12 -1459h-237v305h-477l-147 -305h-239zM864 1252l-348 -738h391l11 738h-54z" />
<glyph unicode="&#xc2;" horiz-adv-x="1175" d="M612 1672l361 311h135l204 -311h-211l-81 141l-164 -141h-244zM38 0l688 1459h424l-12 -1459h-237v305h-477l-147 -305h-239zM864 1252l-348 -738h391l11 738h-54z" />
<glyph unicode="&#xc3;" horiz-adv-x="1175" d="M1342 1974l4 -161q-3 -3 -8 -7.5t-21 -18t-32 -26t-38.5 -27.5t-43.5 -25.5t-44.5 -18t-42.5 -7.5q-42 0 -104 25.5t-119.5 51t-87.5 25.5q-14 0 -37.5 -9.5t-47.5 -23t-46 -27t-36 -22.5l-14 -10l-6 162l8 8t22 19t33.5 26.5t40 28t45 26.5t45 19t42.5 8q40 0 89.5 -16 t87 -35.5t74.5 -35t56 -15.5q21 0 66.5 21.5t79.5 42.5zM38 0l688 1459h424l-12 -1459h-237v305h-477l-147 -305h-239zM864 1252l-348 -738h391l11 738h-54z" />
<glyph unicode="&#xc4;" horiz-adv-x="1175" d="M685 1701l59 250h191l-59 -250h-191zM1099 1701l57 250h192l-62 -250h-187zM38 0l688 1459h424l-12 -1459h-237v305h-477l-147 -305h-239zM864 1252l-348 -738h391l11 738h-54z" />
<glyph unicode="&#xc5;" horiz-adv-x="1175" d="M38 0l667 1416q-20 59 0 133q30 116 112.5 175t198.5 59q54 0 95.5 -13.5t70.5 -41.5t37 -72.5t-5 -106.5q-19 -76 -64 -130l-12 -1419h-237v305h-477l-147 -305h-239zM864 1252l-348 -738h391l11 738h-54zM854 1549q-7 -37 15 -59.5t70 -22.5t81.5 22t42.5 60 q9 41 -18 62t-67 21q-19 0 -36 -4t-31 -11t-25.5 -17t-19.5 -23t-12 -28z" />
<glyph unicode="&#xc6;" horiz-adv-x="1628" d="M699 0l72 307h-358l-147 -307h-225l689 1476h1164l-49 -226l-627 4l-98 -413h506l-49 -215h-508l-96 -402h624l-48 -224h-850zM850 1252l-336 -726h311l169 726h-144z" />
<glyph unicode="&#xc7;" horiz-adv-x="1059" d="M1024 215l-16 -187q-22 -6 -58.5 -14.5t-131.5 -23t-168 -14.5h-20l-14 -57h12q39 0 70 -5t58 -17.5t41 -33.5t20 -52.5t-6 -74.5q-49 -207 -255 -207q-18 0 -37.5 1t-36 3t-32.5 4t-28 4t-21.5 3.5t-13.5 3.5l-5 1l35 144q71 -4 113.5 -4t65 14.5t30.5 46.5 q9 34 -9 45.5t-59 11.5h-62l41 178q-313 51 -313 411q0 100 12.5 203t40.5 210t69.5 204t102.5 183.5t135 149.5t172.5 99.5t210.5 36.5q77 0 167 -14.5t141 -28.5l52 -14l-55 -179q-145 30 -315 30q-77 0 -145.5 -35.5t-121.5 -97.5t-95 -145t-69.5 -179.5t-42 -199.5 t-14.5 -206q0 -114 50.5 -172t159.5 -58q75 0 161.5 8t135.5 16z" />
<glyph unicode="&#xc8;" horiz-adv-x="1064" d="M746 2004l439 -195l-105 -179l-448 172zM149 0l337 1459h837l-49 -207h-599l-94 -413h482l-49 -209h-479l-98 -423h600l-49 -207h-839z" />
<glyph unicode="&#xc9;" horiz-adv-x="1064" d="M769 1648l-19 181l528 197l21 -207zM149 0l337 1459h837l-49 -207h-599l-94 -413h482l-49 -209h-479l-98 -423h600l-49 -207h-839z" />
<glyph unicode="&#xca;" horiz-adv-x="1064" d="M630 1674l362 311h134l205 -311h-211l-81 141l-163 -141h-246zM149 0l337 1459h837l-49 -207h-599l-94 -413h482l-49 -209h-479l-98 -423h600l-49 -207h-839z" />
<glyph unicode="&#xcb;" horiz-adv-x="1064" d="M652 1701l57 250h192l-60 -250h-189zM1065 1701l57 250h193l-63 -250h-187zM149 0l337 1459h837l-49 -207h-599l-94 -413h482l-49 -209h-479l-98 -423h600l-49 -207h-839z" />
<glyph unicode="&#xcc;" horiz-adv-x="536" d="M424 2004l438 -195l-104 -179l-447 172zM149 0l339 1459h236l-336 -1459h-239z" />
<glyph unicode="&#xcd;" horiz-adv-x="536" d="M496 1648l-19 181l529 197l20 -207zM149 0l339 1459h236l-336 -1459h-239z" />
<glyph unicode="&#xce;" horiz-adv-x="536" d="M292 1674l362 311h134l204 -311h-210l-81 141l-164 -141h-245zM149 0l339 1459h236l-336 -1459h-239z" />
<glyph unicode="&#xcf;" horiz-adv-x="536" d="M349 1721l58 249h191l-59 -249h-190zM762 1721l58 249h192l-62 -249h-188zM149 0l339 1459h236l-336 -1459h-239z" />
<glyph unicode="&#xd0;" horiz-adv-x="1303" d="M679 0h-517l143 618h-124l49 234h130l140 607h463q447 0 447 -439q0 -102 -13.5 -204t-43 -203t-71.5 -191.5t-102.5 -168t-133.5 -133.5t-167 -88t-200 -32zM1165 1020q0 125 -61 178.5t-188 53.5h-228l-92 -400h264l-53 -234h-264l-94 -411h254q59 0 113 22.5 t96.5 62.5t79.5 93t64 116t48.5 130t34.5 135.5t19.5 132.5t6.5 121z" />
<glyph unicode="&#xd1;" horiz-adv-x="1366" d="M1429 1970l4 -161q-5 -6 -15 -14.5t-38 -31t-55 -39.5t-61 -31t-61 -14q-42 0 -104 25.5t-119 50.5t-88 25q-10 0 -25 -5t-32 -13t-34.5 -17.5t-33.5 -19.5t-28.5 -18t-19.5 -13l-8 -5l-6 162q6 6 16 15t39.5 32t57.5 40.5t62.5 32t60.5 14.5q40 0 89.5 -16t87 -35 t75 -35.5t55.5 -16.5q22 0 67 22t80 44zM149 0l339 1459h390l140 -1209h32l275 1209h230l-337 -1459h-372l-153 1225h-33l-286 -1225h-225z" />
<glyph unicode="&#xd2;" horiz-adv-x="1319" d="M858 2004l439 -195l-104 -179l-447 172zM718 183q120 0 209 79q80 72 140 204t87.5 275t27.5 279q0 137 -56 196.5t-189 59.5q-118 0 -198 -71q-63 -57 -115.5 -152.5t-85 -201.5t-50 -213t-17.5 -199q0 -139 55.5 -197.5t191.5 -58.5zM681 -24q-226 0 -340.5 106.5 t-114.5 334.5q0 180 36 350t113.5 321.5t187.5 246.5q162 147 400 147q464 0 464 -441q0 -188 -36.5 -362t-117 -329t-196.5 -248q-77 -61 -180.5 -93.5t-215.5 -32.5z" />
<glyph unicode="&#xd3;" horiz-adv-x="1319" d="M718 183q120 0 209 79q80 72 140 204t87.5 275t27.5 279q0 137 -56 196.5t-189 59.5q-118 0 -198 -71q-63 -57 -115.5 -152.5t-85 -201.5t-50 -213t-17.5 -199q0 -139 55.5 -197.5t191.5 -58.5zM681 -24q-226 0 -340.5 106.5t-114.5 334.5q0 180 36 350t113.5 321.5 t187.5 246.5q162 147 400 147q464 0 464 -441q0 -188 -36.5 -362t-117 -329t-196.5 -248q-77 -61 -180.5 -93.5t-215.5 -32.5zM860 1648l-19 181l529 197l20 -207z" />
<glyph unicode="&#xd4;" horiz-adv-x="1319" d="M718 183q120 0 209 79q80 72 140 204t87.5 275t27.5 279q0 137 -56 196.5t-189 59.5q-118 0 -198 -71q-63 -57 -115.5 -152.5t-85 -201.5t-50 -213t-17.5 -199q0 -139 55.5 -197.5t191.5 -58.5zM681 -24q-226 0 -340.5 106.5t-114.5 334.5q0 180 36 350t113.5 321.5 t187.5 246.5q162 147 400 147q464 0 464 -441q0 -188 -36.5 -362t-117 -329t-196.5 -248q-77 -61 -180.5 -93.5t-215.5 -32.5zM695 1672l362 311h134l204 -311h-210l-82 141l-164 -141h-244z" />
<glyph unicode="&#xd5;" horiz-adv-x="1319" d="M1445 1970l4 -161q-6 -6 -15.5 -14.5t-38 -31t-55.5 -39.5t-61 -31t-61 -14q-42 0 -104 25.5t-119.5 50.5t-87.5 25q-10 0 -25.5 -5t-32 -13t-34.5 -17.5t-33.5 -19.5t-28 -18t-20.5 -13l-7 -5l-6 162l8 8t22 19t33.5 26.5t40.5 28t45 26.5t45 18.5t43 7.5q40 0 89 -16 t86.5 -35t74.5 -35.5t56 -16.5q21 0 66.5 22t80.5 44zM718 183q120 0 209 79q80 72 140 204t87.5 275t27.5 279q0 137 -56 196.5t-189 59.5q-118 0 -198 -71q-63 -57 -115.5 -152.5t-85 -201.5t-50 -213t-17.5 -199q0 -139 55.5 -197.5t191.5 -58.5zM681 -24 q-226 0 -340.5 106.5t-114.5 334.5q0 180 36 350t113.5 321.5t187.5 246.5q162 147 400 147q464 0 464 -441q0 -188 -36.5 -362t-117 -329t-196.5 -248q-77 -61 -180.5 -93.5t-215.5 -32.5z" />
<glyph unicode="&#xd6;" horiz-adv-x="1319" d="M730 1693l56 248h210l-59 -248h-207zM1150 1693l57 248h209l-59 -248h-207zM718 183q120 0 209 79q80 72 140 204t87.5 275t27.5 279q0 137 -56 196.5t-189 59.5q-118 0 -198 -71q-63 -57 -115.5 -152.5t-85 -201.5t-50 -213t-17.5 -199q0 -139 55.5 -197.5t191.5 -58.5z M681 -24q-226 0 -340.5 106.5t-114.5 334.5q0 180 36 350t113.5 321.5t187.5 246.5q162 147 400 147q464 0 464 -441q0 -188 -36.5 -362t-117 -329t-196.5 -248q-77 -61 -180.5 -93.5t-215.5 -32.5z" />
<glyph unicode="&#xd7;" d="M405 994l315 -319l317 321l145 -146l-322 -318l322 -315l-147 -146l-315 321l-318 -321l-146 146l321 315l-319 316z" />
<glyph unicode="&#xd8;" horiz-adv-x="1319" d="M248 -252l-120 73l191 283q-93 111 -93 313q0 180 36 350t113.5 321.5t187.5 246.5q162 147 400 147q153 0 258 -51l187 275l134 -56l-209 -304q94 -115 94 -305q0 -188 -36.5 -362t-117 -329t-196.5 -248q-77 -61 -180.5 -93.5t-215.5 -32.5q-151 0 -248 45zM479 341 l287 423l327 478q-55 34 -156 34q-118 0 -198 -71q-63 -57 -115.5 -152.5t-85 -201.5t-50 -213t-17.5 -199q0 -60 8 -98zM718 183q120 0 209 79q80 72 140 204t87.5 275t27.5 279q0 51 -9 90l-281 -413l-329 -484q62 -30 155 -30z" />
<glyph unicode="&#xd9;" horiz-adv-x="1264" d="M831 2004l439 -195l-105 -179l-447 172zM711 1459l-227 -980q-20 -88 -20 -147q0 -83 55 -116t162 -33q76 0 129.5 17.5t90 56t59 89t39.5 127.5l228 986h238l-227 -986q-61 -259 -195.5 -378t-382.5 -119q-132 0 -227.5 33.5t-150 106t-54.5 180.5q0 86 26 218l219 945 h238z" />
<glyph unicode="&#xda;" horiz-adv-x="1264" d="M711 1459l-227 -980q-20 -88 -20 -147q0 -83 55 -116t162 -33q76 0 129.5 17.5t90 56t59 89t39.5 127.5l228 986h238l-227 -986q-61 -259 -195.5 -378t-382.5 -119q-132 0 -227.5 33.5t-150 106t-54.5 180.5q0 86 26 218l219 945h238zM790 1648l-19 181l528 197l22 -207z " />
<glyph unicode="&#xdb;" horiz-adv-x="1264" d="M711 1459l-227 -980q-20 -88 -20 -147q0 -83 55 -116t162 -33q76 0 129.5 17.5t90 56t59 89t39.5 127.5l228 986h238l-227 -986q-61 -259 -195.5 -378t-382.5 -119q-132 0 -227.5 33.5t-150 106t-54.5 180.5q0 86 26 218l219 945h238zM654 1672l362 311h134l205 -311 h-211l-81 141l-164 -141h-245z" />
<glyph unicode="&#xdc;" horiz-adv-x="1264" d="M685 1693l59 248h208l-58 -248h-209zM1108 1693l55 248h211l-59 -248h-207zM711 1459l-227 -980q-20 -88 -20 -147q0 -83 55 -116t162 -33q76 0 129.5 17.5t90 56t59 89t39.5 127.5l228 986h238l-227 -986q-61 -259 -195.5 -378t-382.5 -119q-132 0 -227.5 33.5t-150 106 t-54.5 180.5q0 86 26 218l219 945h238z" />
<glyph unicode="&#xdd;" horiz-adv-x="1061" d="M735 1648l-19 181l528 197l22 -207zM1388 1459l-606 -839l-148 -620h-221l148 634l-214 825h241l132 -618l418 618h250z" />
<glyph unicode="&#xde;" horiz-adv-x="1156" d="M742 464q118 0 194.5 76.5t109.5 211.5q12 43 13.5 81.5t-8 73.5t-30.5 60t-59 40t-90 15l-258 4l-135 -562h263zM688 230l-264 2l-54 -232h-223l347 1476h226l-55 -222h260q87 0 155.5 -25.5t112 -71.5t69.5 -109t27 -137.5t-15 -158.5q-52 -242 -206.5 -383 t-379.5 -139z" />
<glyph unicode="&#xdf;" horiz-adv-x="1177" d="M343 0h-217l262 1116q14 60 32 109.5t40 90t47.5 72.5t57 56t66 40.5t76 27t87 15.5t98.5 5q192 0 291 -74.5t99 -211.5q0 -116 -47 -190.5t-153 -118.5q-108 -46 -147 -74t-39 -68q0 -35 25.5 -59.5t113.5 -81.5q43 -27 65.5 -43t47.5 -39.5t36 -46t18.5 -54.5t7.5 -75 q0 -193 -120.5 -306.5t-331.5 -113.5q-62 0 -140 13t-124 26l-47 13l49 173q146 -28 239 -28q118 0 179.5 54.5t61.5 138.5q0 47 -25.5 75t-117.5 83q-97 58 -132.5 106t-35.5 122q0 57 13 100t42 77.5t68 61t98 55.5q97 47 129.5 81.5t32.5 93.5q0 112 -179 112 q-116 0 -178 -57t-93 -190z" />
<glyph unicode="&#xe0;" horiz-adv-x="1098" d="M467 -24q-75 0 -131 26t-90 74t-50.5 112t-16.5 144q0 79 14 163.5t42 170t73.5 161t103 134.5t136.5 93.5t170 34.5q65 0 187.5 -15.5t212.5 -31.5l89 -16l-159 -689q-8 -38 -17 -86t-16 -89.5t-13 -78t-9 -58.5l-3 -21l-228 -8q24 153 33 193q-7 -8 -18 -22.5 t-47 -51.5t-72.5 -65t-89 -51t-101.5 -23zM724 892q-60 0 -112 -36.5t-87.5 -95.5t-61.5 -133.5t-38 -150t-12 -144.5q0 -79 29 -118t101 -39q30 0 71.5 23.5t78.5 57t70 67t53 56.5l19 23l108 458q-144 32 -219 32zM739 1616l436 -195l-98 -169l-449 177z" />
<glyph unicode="&#xe1;" horiz-adv-x="1098" d="M467 -24q-75 0 -131 26t-90 74t-50.5 112t-16.5 144q0 79 14 163.5t42 170t73.5 161t103 134.5t136.5 93.5t170 34.5q65 0 187.5 -15.5t212.5 -31.5l89 -16l-159 -689q-8 -38 -17 -86t-16 -89.5t-13 -78t-9 -58.5l-3 -21l-228 -8q24 153 33 193q-7 -8 -18 -22.5 t-47 -51.5t-72.5 -65t-89 -51t-101.5 -23zM724 892q-60 0 -112 -36.5t-87.5 -95.5t-61.5 -133.5t-38 -150t-12 -144.5q0 -79 29 -118t101 -39q30 0 71.5 23.5t78.5 57t70 67t53 56.5l19 23l108 458q-144 32 -219 32zM720 1246l-19 183l528 197l19 -207z" />
<glyph unicode="&#xe2;" horiz-adv-x="1098" d="M477 1236l348 351h167l186 -351h-231l-71 157l-154 -157h-245zM467 -24q-75 0 -131 26t-90 74t-50.5 112t-16.5 144q0 79 14 163.5t42 170t73.5 161t103 134.5t136.5 93.5t170 34.5q65 0 187.5 -15.5t212.5 -31.5l89 -16l-159 -689q-8 -38 -17 -86t-16 -89.5t-13 -78 t-9 -58.5l-3 -21l-228 -8q24 153 33 193q-7 -8 -18 -22.5t-47 -51.5t-72.5 -65t-89 -51t-101.5 -23zM724 892q-60 0 -112 -36.5t-87.5 -95.5t-61.5 -133.5t-38 -150t-12 -144.5q0 -79 29 -118t101 -39q30 0 71.5 23.5t78.5 57t70 67t53 56.5l19 23l108 458q-144 32 -219 32z " />
<glyph unicode="&#xe3;" horiz-adv-x="1098" d="M467 -24q-75 0 -131 26t-90 74t-50.5 112t-16.5 144q0 79 14 163.5t42 170t73.5 161t103 134.5t136.5 93.5t170 34.5q65 0 187.5 -15.5t212.5 -31.5l89 -16l-159 -689q-8 -38 -17 -86t-16 -89.5t-13 -78t-9 -58.5l-3 -21l-228 -8q24 153 33 193q-7 -8 -18 -22.5 t-47 -51.5t-72.5 -65t-89 -51t-101.5 -23zM724 892q-60 0 -112 -36.5t-87.5 -95.5t-61.5 -133.5t-38 -150t-12 -144.5q0 -79 29 -118t101 -39q30 0 71.5 23.5t78.5 57t70 67t53 56.5l19 23l108 458q-144 32 -219 32zM1260 1567l10 -163q-6 -5 -15 -13.5t-37 -30t-54.5 -38.5 t-60 -30.5t-59.5 -13.5q-40 0 -95.5 24.5t-105 49t-74.5 24.5q-24 0 -68.5 -22t-77.5 -44l-33 -21l-4 162q5 5 15 13.5t38.5 30.5t55 39t60.5 31t60 14q29 0 63 -10t64 -24.5t57.5 -28.5t51.5 -24t38 -10q21 0 63.5 21.5t75.5 42.5z" />
<glyph unicode="&#xe4;" horiz-adv-x="1098" d="M537 1297l57 249h211l-59 -249h-209zM959 1297l55 249h211l-60 -249h-206zM467 -24q-75 0 -131 26t-90 74t-50.5 112t-16.5 144q0 79 14 163.5t42 170t73.5 161t103 134.5t136.5 93.5t170 34.5q65 0 187.5 -15.5t212.5 -31.5l89 -16l-159 -689q-8 -38 -17 -86t-16 -89.5 t-13 -78t-9 -58.5l-3 -21l-228 -8q24 153 33 193q-7 -8 -18 -22.5t-47 -51.5t-72.5 -65t-89 -51t-101.5 -23zM724 892q-60 0 -112 -36.5t-87.5 -95.5t-61.5 -133.5t-38 -150t-12 -144.5q0 -79 29 -118t101 -39q30 0 71.5 23.5t78.5 57t70 67t53 56.5l19 23l108 458 q-144 32 -219 32z" />
<glyph unicode="&#xe5;" horiz-adv-x="1098" d="M467 -24q-75 0 -131 26t-90 74t-50.5 112t-16.5 144q0 79 14 163.5t42 170t73.5 161t103 134.5t136.5 93.5t170 34.5q65 0 187.5 -15.5t212.5 -31.5l89 -16l-159 -689q-8 -38 -17 -86t-16 -89.5t-13 -78t-9 -58.5l-3 -21l-228 -8q24 153 33 193q-7 -8 -18 -22.5 t-47 -51.5t-72.5 -65t-89 -51t-101.5 -23zM724 892q-60 0 -112 -36.5t-87.5 -95.5t-61.5 -133.5t-38 -150t-12 -144.5q0 -79 29 -118t101 -39q30 0 71.5 23.5t78.5 57t70 67t53 56.5l19 23l108 458q-144 32 -219 32zM711 1404q15 61 50.5 110.5t90.5 79t119 29.5 q93 0 131.5 -57.5t19.5 -151.5q-18 -105 -90.5 -168.5t-171.5 -63.5q-97 0 -135.5 62t-13.5 160zM839 1404q-5 -20 0.5 -38.5t21 -30.5t38.5 -12q33 0 59.5 22.5t35.5 56.5q9 31 -8.5 53.5t-48.5 22.5q-35 0 -61.5 -21t-36.5 -53z" />
<glyph unicode="&#xe6;" horiz-adv-x="1551" d="M1118 187q41 0 94 2t99.5 5t87.5 6t64 5l24 2l-40 -181q-23 -6 -62 -14t-142.5 -22t-187.5 -14q-210 0 -286 109q-78 -35 -207 -72t-206 -37q-54 0 -98.5 19t-72.5 52t-45.5 76.5t-18.5 92.5t9 101q16 76 48.5 132.5t79 93t99.5 57.5t118 32q160 26 309 26q8 25 13.5 50 t6 55t-7 53t-29 38t-56.5 15q-66 0 -162.5 -7t-159.5 -14l-63 -7l36 207q258 38 409 38q86 0 149.5 -29t89.5 -88q119 117 313 117q153 0 233 -72.5t86 -210.5q3 -104 -30 -217l-41 -153l-606 4q-15 -82 -10 -122q5 -62 43 -95t120 -33zM435 177q103 0 285 51q-6 29 -6 60 t4.5 65.5t10 62t15.5 66.5q-117 -8 -222 -20q-42 -4 -76 -21t-57.5 -47t-32.5 -71q-7 -23 -5.5 -48.5t8 -47.5t26.5 -36t50 -14zM1006 616l398 -4q26 92 17 157q-10 117 -149 117q-44 0 -80.5 -11.5t-65 -33t-51.5 -55t-39.5 -75.5t-29.5 -95z" />
<glyph unicode="&#xe7;" horiz-adv-x="868" d="M744 1089q61 0 135 -14t117 -28l43 -14l-59 -171q-153 26 -245 26q-63 0 -115.5 -30t-88.5 -80.5t-61 -117.5t-36.5 -139t-11.5 -147q0 -99 43.5 -148t141.5 -49q40 0 98 6t96 12l38 6l-16 -175q-16 -5 -43.5 -13t-101.5 -21.5t-135 -15.5l-15 -57h13q39 0 69.5 -5 t58 -17.5t41.5 -33.5t20 -52.5t-6 -74.5q-49 -207 -255 -207q-18 0 -37.5 1t-36 3t-32.5 4t-28 4t-21.5 3.5t-14.5 3.5l-5 1l36 144q70 -4 113 -4q29 0 48 6.5t30.5 20t17.5 34.5q8 34 -9.5 45.5t-58.5 11.5h-62l40 176q-125 20 -194.5 108.5t-69.5 234.5q0 124 22 236.5 t67.5 209t110.5 167t157 110.5t202 40z" />
<glyph unicode="&#xe8;" horiz-adv-x="1000" d="M590 175q66 0 154 9t142 18l55 9l-23 -175q-22 -6 -59.5 -16t-141 -27t-191.5 -17q-172 0 -258.5 85t-86.5 260q0 96 15 187.5t44.5 178t77.5 158.5t110.5 126t147.5 84.5t184 30.5q350 0 350 -291q0 -81 -23.5 -140.5t-69 -100t-118.5 -64.5t-165.5 -34.5t-217.5 -10.5 h-90q-13 -52 -13 -115q0 -75 49 -115t128 -40zM453 620h100q178 0 253.5 38t75.5 134q0 58 -33.5 82.5t-98.5 24.5q-222 0 -297 -279zM553 1616l437 -195l-98 -169l-449 177z" />
<glyph unicode="&#xe9;" horiz-adv-x="1000" d="M590 175q66 0 154 9t142 18l55 9l-23 -175q-22 -6 -59.5 -16t-141 -27t-191.5 -17q-172 0 -258.5 85t-86.5 260q0 96 15 187.5t44.5 178t77.5 158.5t110.5 126t147.5 84.5t184 30.5q350 0 350 -291q0 -81 -23.5 -140.5t-69 -100t-118.5 -64.5t-165.5 -34.5t-217.5 -10.5 h-90q-13 -52 -13 -115q0 -75 49 -115t128 -40zM453 620h100q178 0 253.5 38t75.5 134q0 58 -33.5 82.5t-98.5 24.5q-222 0 -297 -279zM618 1246l-20 183l528 197l20 -207z" />
<glyph unicode="&#xea;" horiz-adv-x="1000" d="M426 1236l345 351h170l183 -351h-228l-73 157l-152 -157h-245zM590 175q66 0 154 9t142 18l55 9l-23 -175q-22 -6 -59.5 -16t-141 -27t-191.5 -17q-172 0 -258.5 85t-86.5 260q0 96 15 187.5t44.5 178t77.5 158.5t110.5 126t147.5 84.5t184 30.5q350 0 350 -291 q0 -81 -23.5 -140.5t-69 -100t-118.5 -64.5t-165.5 -34.5t-217.5 -10.5h-90q-13 -52 -13 -115q0 -75 49 -115t128 -40zM453 620h100q178 0 253.5 38t75.5 134q0 58 -33.5 82.5t-98.5 24.5q-222 0 -297 -279z" />
<glyph unicode="&#xeb;" horiz-adv-x="1000" d="M488 1297l57 249h209l-57 -249h-209zM909 1297l56 249h210l-59 -249h-207zM590 175q66 0 154 9t142 18l55 9l-23 -175q-22 -6 -59.5 -16t-141 -27t-191.5 -17q-172 0 -258.5 85t-86.5 260q0 96 15 187.5t44.5 178t77.5 158.5t110.5 126t147.5 84.5t184 30.5 q350 0 350 -291q0 -81 -23.5 -140.5t-69 -100t-118.5 -64.5t-165.5 -34.5t-217.5 -10.5h-90q-13 -52 -13 -115q0 -75 49 -115t128 -40zM453 620h100q178 0 253.5 38t75.5 134q0 58 -33.5 82.5t-98.5 24.5q-222 0 -297 -279z" />
<glyph unicode="&#xec;" horiz-adv-x="482" d="M128 0l244 1065h231l-245 -1065h-230zM268 1616l437 -195l-98 -169l-449 177z" />
<glyph unicode="&#xed;" horiz-adv-x="482" d="M128 0l244 1065h231l-245 -1065h-230zM398 1246l-18 183l527 197l20 -207z" />
<glyph unicode="&#xee;" horiz-adv-x="482" d="M160 1236l346 351h169l185 -351h-230l-72 157l-153 -157h-245zM128 0l244 1065h231l-245 -1065h-230z" />
<glyph unicode="&#xef;" horiz-adv-x="482" d="M203 1297l57 249h209l-58 -249h-208zM624 1297l55 249h211l-59 -249h-207zM128 0l244 1065h231l-245 -1065h-230z" />
<glyph unicode="&#xf0;" horiz-adv-x="1113" d="M817 1201l-229 -153l-82 127l137 91q-103 27 -164 39l79 203q203 -23 332 -77l216 146l76 -130l-143 -97q262 -192 164 -594q-49 -203 -108.5 -345t-140.5 -240t-185.5 -144t-240.5 -46q-61 0 -114.5 12.5t-93 35.5t-70.5 54.5t-50 70t-28.5 82.5t-8.5 91.5t12 96.5 q19 110 67.5 203t118.5 159t163 103.5t198 37.5q63 0 131 -15t105 -30l36 -15q40 225 -177 334zM688 716q-105 0 -182 -81.5t-95 -208.5q-21 -106 17 -164.5t153 -58.5q254 0 366 453q-4 5 -35.5 18t-96 27.5t-127.5 14.5z" />
<glyph unicode="&#xf1;" horiz-adv-x="1077" d="M128 0h230l164 711q6 8 17.5 19.5t43.5 42t62 54t67.5 42.5t65.5 19q64 0 88 -34t24 -104q0 -53 -38 -236l-119 -514h230l121 530q44 185 44 273q0 62 -14 113t-44 90.5t-80 61t-116 21.5q-45 0 -93 -17t-84 -41t-65.5 -48.5t-44.5 -41.5l-16 -16l23 140h-222zM1207 1567 l9 -163q-6 -5 -15.5 -13.5t-37 -30t-54 -38.5t-60 -30.5t-59.5 -13.5q-40 0 -95 24.5t-104.5 49t-74.5 24.5q-15 0 -39 -9t-47.5 -22t-45 -25.5t-34.5 -21.5l-13 -9l-5 162q6 5 16 13.5t38.5 30.5t55 39t60.5 31t60 14q36 0 79.5 -15.5t76.5 -33.5t66.5 -33t50.5 -15 q21 0 64 21.5t76 42.5z" />
<glyph unicode="&#xf2;" horiz-adv-x="1053" d="M718 1086q398 0 398 -383q0 -89 -16 -177t-46 -169.5t-77 -150.5t-105.5 -120.5t-134.5 -80.5t-162 -29q-194 0 -294 91.5t-100 288.5q0 89 17 178t48.5 170t79.5 151t106 121t131.5 80.5t154.5 29.5zM575 173q70 0 130 46t98.5 121.5t60.5 170.5t22 194q0 87 -42.5 136 t-125.5 49q-69 0 -128 -47t-97.5 -123t-60 -171.5t-21.5 -194.5q0 -88 42 -134.5t122 -46.5zM616 1616l436 -195l-97 -169l-451 177z" />
<glyph unicode="&#xf3;" horiz-adv-x="1053" d="M718 1086q398 0 398 -383q0 -89 -16 -177t-46 -169.5t-77 -150.5t-105.5 -120.5t-134.5 -80.5t-162 -29q-194 0 -294 91.5t-100 288.5q0 89 17 178t48.5 170t79.5 151t106 121t131.5 80.5t154.5 29.5zM575 173q70 0 130 46t98.5 121.5t60.5 170.5t22 194q0 87 -42.5 136 t-125.5 49q-69 0 -128 -47t-97.5 -123t-60 -171.5t-21.5 -194.5q0 -88 42 -134.5t122 -46.5zM620 1246l-19 183l527 197l20 -207z" />
<glyph unicode="&#xf4;" horiz-adv-x="1053" d="M458 1236l347 351h168l186 -351h-230l-73 157l-153 -157h-245zM718 1086q398 0 398 -383q0 -89 -16 -177t-46 -169.5t-77 -150.5t-105.5 -120.5t-134.5 -80.5t-162 -29q-194 0 -294 91.5t-100 288.5q0 89 17 178t48.5 170t79.5 151t106 121t131.5 80.5t154.5 29.5z M575 173q70 0 130 46t98.5 121.5t60.5 170.5t22 194q0 87 -42.5 136t-125.5 49q-69 0 -128 -47t-97.5 -123t-60 -171.5t-21.5 -194.5q0 -88 42 -134.5t122 -46.5z" />
<glyph unicode="&#xf5;" horiz-adv-x="1053" d="M718 1086q398 0 398 -383q0 -89 -16 -177t-46 -169.5t-77 -150.5t-105.5 -120.5t-134.5 -80.5t-162 -29q-194 0 -294 91.5t-100 288.5q0 89 17 178t48.5 170t79.5 151t106 121t131.5 80.5t154.5 29.5zM575 173q70 0 130 46t98.5 121.5t60.5 170.5t22 194q0 87 -42.5 136 t-125.5 49q-69 0 -128 -47t-97.5 -123t-60 -171.5t-21.5 -194.5q0 -88 42 -134.5t122 -46.5zM1163 1567l8 -163q-5 -5 -14.5 -13.5t-37.5 -30t-54 -38.5t-59.5 -30.5t-60.5 -13.5q-39 0 -94.5 24.5t-105 49t-74.5 24.5q-24 0 -68.5 -22t-77.5 -44l-33 -21l-4 162 q5 5 15 13.5t38.5 30.5t55 39t60.5 31t61 14q28 0 62 -10t63.5 -24.5t57 -28.5t51.5 -24t38 -10q21 0 64 21.5t76 42.5z" />
<glyph unicode="&#xf6;" horiz-adv-x="1053" d="M718 1086q398 0 398 -383q0 -89 -16 -177t-46 -169.5t-77 -150.5t-105.5 -120.5t-134.5 -80.5t-162 -29q-194 0 -294 91.5t-100 288.5q0 89 17 178t48.5 170t79.5 151t106 121t131.5 80.5t154.5 29.5zM575 173q70 0 130 46t98.5 121.5t60.5 170.5t22 194q0 87 -42.5 136 t-125.5 49q-69 0 -128 -47t-97.5 -123t-60 -171.5t-21.5 -194.5q0 -88 42 -134.5t122 -46.5zM518 1297l57 249h189l-57 -249h-189zM920 1297l56 249h191l-59 -249h-188z" />
<glyph unicode="&#xf7;" d="M347 514v234h145v164h453v-164h148v-234h-746zM603 49v252h230v-252h-230z" />
<glyph unicode="&#xf8;" horiz-adv-x="1053" d="M720 1091q93 0 183 -28l138 226l126 -56l-151 -237q102 -98 102 -289q0 -108 -22 -212t-67.5 -197t-108.5 -163.5t-152 -112t-191 -41.5q-104 0 -181 25l-146 -238l-126 55l159 250q-100 93 -100 287q0 107 24 213t70.5 199t110.5 164.5t150 113t182 41.5zM577 177 q70 0 130 46t99 122t60.5 170.5t21.5 193.5q0 38 -10 73l-177 -278l-195 -317q32 -10 71 -10zM422 287l172 274l198 321q-31 12 -72 12q-69 0 -128 -46.5t-97.5 -123t-60 -172t-21.5 -194.5q0 -40 9 -71z" />
<glyph unicode="&#xf9;" horiz-adv-x="1077" d="M622 1616l437 -195l-98 -169l-449 177zM967 1065h230l-245 -1065h-222l24 140q-6 -6 -16.5 -17t-44 -39.5t-67.5 -50t-82 -39.5t-93 -18q-66 0 -116.5 21.5t-80 61t-44 90.5t-14.5 113q0 72 42 273l122 530h230l-117 -514q-38 -156 -38 -236q0 -69 25 -103.5t85 -34.5 q28 0 65 18t69.5 44t61 52t45.5 44l17 19z" />
<glyph unicode="&#xfa;" horiz-adv-x="1077" d="M967 1065h230l-245 -1065h-222l24 140q-6 -6 -16.5 -17t-44 -39.5t-67.5 -50t-82 -39.5t-93 -18q-66 0 -116.5 21.5t-80 61t-44 90.5t-14.5 113q0 72 42 273l122 530h230l-117 -514q-38 -156 -38 -236q0 -69 25 -103.5t85 -34.5q28 0 65 18t69.5 44t61 52t45.5 44l17 19z M634 1246l-18 183l528 197l19 -207z" />
<glyph unicode="&#xfb;" horiz-adv-x="1077" d="M441 1236l345 351h171l183 -351h-228l-75 157l-152 -157h-244zM967 1065h230l-245 -1065h-222l24 140q-6 -6 -16.5 -17t-44 -39.5t-67.5 -50t-82 -39.5t-93 -18q-66 0 -116.5 21.5t-80 61t-44 90.5t-14.5 113q0 72 42 273l122 530h230l-117 -514q-38 -156 -38 -236 q0 -69 25 -103.5t85 -34.5q28 0 65 18t69.5 44t61 52t45.5 44l17 19z" />
<glyph unicode="&#xfc;" horiz-adv-x="1077" d="M490 1297l57 249h209l-57 -249h-209zM912 1297l55 249h208l-57 -249h-206zM967 1065h230l-245 -1065h-222l24 140q-6 -6 -16.5 -17t-44 -39.5t-67.5 -50t-82 -39.5t-93 -18q-66 0 -116.5 21.5t-80 61t-44 90.5t-14.5 113q0 72 42 273l122 530h230l-117 -514 q-38 -156 -38 -236q0 -69 25 -103.5t85 -34.5q28 0 65 18t69.5 44t61 52t45.5 44l17 19z" />
<glyph unicode="&#xfd;" horiz-adv-x="979" d="M279 1065h227l-10 -874h47l412 874h234l-738 -1523h-232l230 458h-162zM596 1246l-19 183l529 197l18 -207z" />
<glyph unicode="&#xfe;" horiz-adv-x="1043" d="M831 1086q66 0 117.5 -18.5t84 -49.5t53.5 -74t29 -91t7.5 -102t-9 -105t-22.5 -101q-21 -79 -45 -145t-51 -121t-57 -98.5t-65.5 -77.5t-74 -57.5t-83.5 -39t-94.5 -23t-106.5 -7.5q-40 0 -82.5 3t-67.5 6.5t-25 6.5l-105 -445h-217l462 1957h218l-122 -522 q11 9 28.5 20.5t55 33.5t83.5 36t89 14zM522 771l-134 -570l168 -18q62 0 110.5 24t86 72.5t65 113t51.5 154.5q11 40 16.5 81t3.5 86.5t-14.5 79.5t-42.5 57t-76 23q-27 0 -61.5 -11t-63.5 -26.5t-54.5 -31t-40 -25.5t-14.5 -9z" />
<glyph unicode="&#xff;" horiz-adv-x="979" d="M449 1297l57 249h210l-58 -249h-209zM872 1297l55 249h209l-59 -249h-205zM279 1065h227l-10 -874h47l412 874h234l-738 -1523h-232l230 458h-162z" />
<glyph unicode="&#x152;" horiz-adv-x="1795" d="M1713 0h-837q-164 -24 -267 -24q-196 0 -292 89.5t-104 266.5q-6 173 49 403q93 393 264 579t441 186q41 0 120.5 -8t130.5 -16h843l-51 -228h-624l-97 -405h500l-49 -217l-500 4l-96 -402h622zM691 205q55 0 229 14l247 1037q-132 14 -226 14q-174 0 -276 -123 t-171 -410q-45 -197 -45 -300q0 -121 56.5 -176.5t185.5 -55.5z" />
<glyph unicode="&#x153;" horiz-adv-x="1652" d="M1221 187q65 0 157.5 5t152.5 10l60 5l-40 -181q-9 -2 -23.5 -5.5t-60 -12t-90 -15t-106 -12t-115.5 -5.5q-218 0 -287 137q-67 -69 -152 -103t-201 -34q-311 0 -337 252q-18 139 24 311q25 101 55 179t76.5 149.5t106 117.5t144 73.5t190.5 27.5q117 0 188.5 -37.5 t105.5 -113.5q133 151 352 151q151 0 232.5 -68t90.5 -198q8 -122 -23 -224l-51 -163l-607 4q-19 -74 -13 -128q13 -122 171 -122zM561 183q33 0 63 7t53.5 18t44.5 30t36.5 37.5t30 47t24.5 51t21 57t17.5 58t15.5 60.5q29 112 21 193q-5 70 -43 104t-117 34 q-52 0 -93.5 -15.5t-73 -43t-56.5 -71t-43 -94.5t-34 -117q-39 -160 -28 -241q7 -57 45 -86t116 -29zM1103 616l405 -4q24 107 19 157q-5 57 -40 82t-109 25t-128 -28.5t-90 -85.5t-57 -146z" />
<glyph unicode="&#x178;" horiz-adv-x="1061" d="M603 1701l57 250h192l-60 -250h-189zM1016 1701l57 250h193l-63 -250h-187zM1388 1459l-606 -839l-148 -620h-221l148 634l-214 825h241l132 -618l418 618h250z" />
<glyph unicode="&#x2c6;" horiz-adv-x="1683" d="M782 1236l344 351h134l185 -351h-212l-74 157l-151 -157h-226z" />
<glyph unicode="&#x2dc;" horiz-adv-x="932" d="M1116 1567l8 -163l-7.5 -7.5t-20.5 -17.5t-31.5 -25t-37.5 -26.5t-42.5 -25t-43.5 -17.5t-42 -7q-40 0 -95.5 24.5t-104.5 49t-75 24.5q-24 0 -68.5 -22t-77.5 -44l-33 -21l-4 162q6 5 15.5 13.5t38 30.5t55.5 39t61 31t60 14q35 0 78.5 -15.5t76.5 -33.5t66.5 -33 t50.5 -15q21 0 64 21.5t76 42.5z" />
<glyph unicode="&#x2000;" horiz-adv-x="1013" />
<glyph unicode="&#x2001;" horiz-adv-x="2026" />
<glyph unicode="&#x2002;" horiz-adv-x="1013" />
<glyph unicode="&#x2003;" horiz-adv-x="2026" />
<glyph unicode="&#x2004;" horiz-adv-x="675" />
<glyph unicode="&#x2005;" horiz-adv-x="506" />
<glyph unicode="&#x2006;" horiz-adv-x="337" />
<glyph unicode="&#x2007;" horiz-adv-x="337" />
<glyph unicode="&#x2008;" horiz-adv-x="253" />
<glyph unicode="&#x2009;" horiz-adv-x="405" />
<glyph unicode="&#x200a;" horiz-adv-x="112" />
<glyph unicode="&#x2010;" horiz-adv-x="632" d="M153 462l54 209h532l-51 -209h-535z" />
<glyph unicode="&#x2011;" horiz-adv-x="632" d="M153 462l54 209h532l-51 -209h-535z" />
<glyph unicode="&#x2012;" horiz-adv-x="632" d="M153 462l54 209h532l-51 -209h-535z" />
<glyph unicode="&#x2013;" horiz-adv-x="1183" d="M191 667h1065v-198h-1065v198z" />
<glyph unicode="&#x2014;" horiz-adv-x="2248" d="M191 667h2130v-198h-2130v198z" />
<glyph unicode="&#x2018;" horiz-adv-x="376" d="M514 1457h171l-210 -514h-230z" />
<glyph unicode="&#x2019;" horiz-adv-x="376" d="M419 945h-171l210 514h230z" />
<glyph unicode="&#x201a;" horiz-adv-x="340" d="M79 -323h-173l212 512h229z" />
<glyph unicode="&#x201c;" horiz-adv-x="748" d="M512 1459h171l-210 -514h-231zM886 1459h173l-211 -514h-230z" />
<glyph unicode="&#x201d;" horiz-adv-x="750" d="M419 945h-171l210 514h230zM795 945h-173l211 514h230z" />
<glyph unicode="&#x201e;" horiz-adv-x="717" d="M549 183h173l-210 -513h-231zM132 183h173l-211 -513h-230z" />
<glyph unicode="&#x2022;" horiz-adv-x="1000" d="M354 219v601h532v-601h-532z" />
<glyph unicode="&#x2026;" horiz-adv-x="1331" d="M53 0l65 287h234l-65 -287h-234zM549 0l65 287h234l-64 -287h-235zM1046 0l64 287h234l-64 -287h-234z" />
<glyph unicode="&#x202f;" horiz-adv-x="405" />
<glyph unicode="&#x2039;" horiz-adv-x="514" d="M677 903l-65 -228l-258 -159l178 -181l-57 -209l-337 343l41 106z" />
<glyph unicode="&#x203a;" horiz-adv-x="518" d="M81 126l66 228l258 160l-179 181l57 208l337 -342l-41 -108z" />
<glyph unicode="&#x2044;" horiz-adv-x="106" d="M-118 -61l-214 76l913 1481l218 -77z" />
<glyph unicode="&#x205f;" horiz-adv-x="506" />
<glyph unicode="&#x2070;" horiz-adv-x="595" d="M697 1704q52 0 89.5 -11.5t64.5 -37t38.5 -66.5t8.5 -101.5t-22 -139.5q-56 -225 -160 -304q-69 -48 -194 -48q-53 0 -91 10.5t-65 35.5t-38 65.5t-7.5 100t22.5 140.5q58 230 161 305q70 51 193 51zM656 1536q-26 0 -44 -14t-36.5 -55.5t-38.5 -118.5q-15 -58 -19.5 -95 t1 -56t16.5 -25.5t30 -6.5q26 0 43 12.5t35 52.5t38 118q27 114 21 151t-46 37z" />
<glyph unicode="&#x2074;" horiz-adv-x="595" d="M565 1018l21 88h-294l38 154l221 423h207l-230 -409h100l71 189h161l-47 -189h37l-41 -168h-38l-21 -88h-185z" />
<glyph unicode="&#x2075;" horiz-adv-x="595" d="M492 1683h424l-40 -163h-273l-32 -95q61 22 110 22q93 0 133.5 -52t14.5 -159q-22 -85 -63 -137t-99 -74.5t-139 -22.5q-47 0 -105.5 7t-93.5 14l-35 8l53 154q111 -22 194 -22q34 0 58 16.5t31 47.5q9 32 -1 45.5t-37 13.5q-10 0 -22.5 -1.5t-23 -4t-19 -5t-13.5 -3.5 l-5 -2l-137 16z" />
<glyph unicode="&#x2076;" horiz-adv-x="595" d="M929 1681l-49 -154q-124 13 -187 13q-35 0 -59.5 -12t-39 -33.5t-23.5 -53.5q73 18 106 18q110 0 151 -56.5t13 -164.5q-62 -242 -306 -242q-266 0 -181 335q45 191 132 282t240 91q34 0 85 -6t84 -12zM607 1305q-18 0 -37 -6t-29 -13l-11 -6q-27 -121 39 -121 q62 0 83 77q7 24 3.5 39.5t-15 22.5t-33.5 7z" />
<glyph unicode="&#x2077;" horiz-adv-x="595" d="M405 1498l44 185h467l-49 -194l-332 -490l-214 38l318 426l7 35h-241z" />
<glyph unicode="&#x2078;" horiz-adv-x="595" d="M699 1704q129 0 181 -47t29 -139q-11 -44 -34 -80t-43 -53t-35 -22q9 -2 19 -10.5t21 -27t12 -45.5t-8 -66q-30 -121 -107.5 -169.5t-211.5 -48.5q-131 0 -185 49t-26 165q17 65 57 107t67 49q-9 3 -17.5 12t-17.5 28t-8.5 46t8.5 66q23 94 96.5 140t202.5 46zM561 1148 q70 0 89 68q12 48 -32 73h-43q-57 -25 -69 -75q-9 -32 5.5 -49t49.5 -17zM662 1553q-67 0 -83 -57q-9 -47 30 -71h43q52 22 61 71q17 57 -51 57z" />
<glyph unicode="&#x2079;" horiz-adv-x="595" d="M292 1022l51 156q98 -13 179 -13q97 0 119 91q0 1 -3 0.5t-8.5 -2t-13 -3t-17 -3.5t-19.5 -3t-21 -2t-20 -1q-106 0 -147 57t-16 164q31 117 111.5 179t197.5 62q137 0 180.5 -90t-1.5 -262q-16 -64 -34 -113.5t-41.5 -90t-51.5 -68.5t-63 -47t-77.5 -28t-94.5 -9 q-42 0 -94.5 6.5t-84.5 13.5zM612 1390q13 0 32 5t32 10l12 5q32 130 -38 130q-29 0 -50.5 -19.5t-30.5 -55.5q-8 -33 3.5 -54t39.5 -21z" />
<glyph unicode="&#x2081;" horiz-adv-x="595" d="M156 296l257 155h173l-164 -664h-188l113 458l-138 -81z" />
<glyph unicode="&#x2082;" horiz-adv-x="595" d="M475 -213h-471l39 160l207 151q44 31 71.5 54t44.5 45.5t22 44.5q7 28 -12.5 40t-64.5 12q-24 0 -67.5 -3.5t-75.5 -7.5l-32 -4l37 172q149 22 242 22q122 0 162 -47.5t13 -157.5q-18 -69 -59 -119.5t-120 -103.5l-126 -90h231z" />
<glyph unicode="&#x2083;" horiz-adv-x="595" d="M168 453q141 20 230 20q123 0 171.5 -44t26.5 -139q-14 -58 -46.5 -98t-63.5 -56q25 -11 38.5 -28.5t17 -50t-9.5 -81.5q-26 -106 -102.5 -158t-191.5 -52q-46 0 -107.5 4t-100.5 8l-38 5l53 164q124 -13 203 -13q42 0 64.5 14t30.5 44t-8.5 42.5t-53.5 12.5h-141l39 154 h136q17 0 32.5 6.5t27 19t15.5 29.5q4 18 -2 29t-20.5 15.5t-39.5 4.5q-37 0 -84.5 -3.5t-76.5 -6.5l-29 -3z" />
<glyph unicode="&#x20ac;" d="M1093 207l-18 -179q-2 -1 -6.5 -2t-18.5 -4.5t-29 -7t-37.5 -8t-44.5 -8.5t-49 -8.5t-52.5 -7t-54 -4.5t-53.5 -2q-206 0 -308.5 104t-102.5 302v31h-116l42 183h90q15 107 35 182h-87l45 183h105q42 102 97.5 183.5t129.5 147t170 101.5t207 36q34 0 71.5 -3t70 -8 t64.5 -11t57 -11.5t44.5 -10.5t29.5 -8l10 -3l-53 -173q-141 30 -305 30q-110 0 -198.5 -72t-152.5 -198h498l-39 -183h-527q-26 -95 -38 -182h524l-43 -183h-494v-15q0 -109 49 -165t155 -56q72 0 155.5 7.5t130.5 14.5z" />
<glyph unicode="&#x2122;" horiz-adv-x="1475" d="M460 1216v143h426v-143h-111v-509h-157v509h-158zM945 705v654h191l110 -383l120 383h187v-654h-147v417l-103 -378h-104l-106 378v-417h-148z" />
<glyph unicode="&#x25fc;" horiz-adv-x="1064" d="M0 1065h1065v-1065h-1065v1065z" />
<glyph horiz-adv-x="817" d="M108 317q0 63 12 112.5t33.5 91.5t65 87t93 86t131.5 101q128 95 145 178l19 86h218q-1 -90 -16 -167q-21 -115 -206 -251q-74 -55 -115.5 -89t-75 -71t-46 -69.5t-12.5 -72.5q0 -72 45 -98t136 -26q39 0 85 3.5t83.5 8t69.5 9.5t50 8l18 4l-24 -185q-21 -6 -56.5 -15 t-124.5 -24.5t-154 -15.5q-87 0 -153.5 17.5t-117 53.5t-77 96t-26.5 142zM929 1491l-71 -311h-234l71 311h234z" />
<glyph horiz-adv-x="1183" d="M207 730h1065v-198h-1065v198z" />
<glyph horiz-adv-x="2248" d="M207 730h2130v-198h-2130v198z" />
<glyph horiz-adv-x="340" d="M181 556l71 311h234l-71 -311h-234z" />
<glyph horiz-adv-x="370" d="M512 935l-214 -967h-243l241 967h216zM636 1459l-65 -288h-234l65 288h234z" />
<glyph horiz-adv-x="491" d="M646 1657h214q-10 -15 -26.5 -41.5t-65.5 -112.5t-93 -173.5t-98 -216t-93 -250t-65.5 -265t-26.5 -270.5q0 -134 8.5 -265.5t17.5 -195.5l8 -65h-219q-2 8 -6 23.5t-13.5 67t-17 108t-13.5 145.5t-6 182q0 139 27 287t71 274.5t96.5 246.5t105.5 212.5t96.5 163 t71.5 107.5z" />
<glyph horiz-adv-x="496" d="M189 -187h-215q10 15 27 41.5t65.5 112t93 173.5t98.5 216t93 250t65.5 265.5t26.5 270.5q0 134 -8.5 265.5t-17.5 195.5l-8 65h219l3 -12t8 -34.5t11 -56.5t11.5 -77.5t11 -97t7.5 -115.5t3 -133q0 -191 -50.5 -398t-123.5 -366t-145.5 -291.5t-123.5 -202.5z" />
<glyph horiz-adv-x="551" d="M449 1655h456l-47 -198h-217l-338 -1455h215l-49 -198h-452z" />
<glyph horiz-adv-x="549" d="M437 -196h-456l47 198h217l338 1455h-215l49 198h452z" />
<glyph horiz-adv-x="636" d="M547 532q0 -39 -49 -208t-49 -216q0 -120 152 -120l-56 -201q-154 1 -238.5 67t-84.5 189q0 53 46.5 225.5t46.5 213.5q0 56 -34 98t-113 78l41 171q70 18 114 37t70 46.5t37.5 54t22.5 72.5q7 26 20.5 99t25.5 135.5t15 70.5q54 175 162.5 249t315.5 81l-37 -200 q-108 -8 -161.5 -55.5t-73.5 -138.5l-49 -262q-30 -126 -86.5 -188.5t-169.5 -101.5q33 -17 56 -34t41 -40t26.5 -53t8.5 -69z" />
<glyph horiz-adv-x="634" d="M424 922q0 40 49 208.5t49 215.5q0 121 -152 121l56 201q154 -1 239 -67.5t85 -188.5q0 -53 -47 -225.5t-47 -213.5q0 -57 34 -98.5t113 -77.5l-41 -171q-70 -18 -114 -37.5t-69.5 -46.5t-37.5 -54t-23 -73q-6 -26 -20 -99t-26 -135.5t-14 -70.5q-54 -175 -163 -248.5 t-316 -80.5l38 200q107 8 160.5 55.5t74.5 138.5l49 262q29 126 85.5 188t169.5 101q-67 34 -99.5 78.5t-32.5 117.5z" />
</font>
</defs>
</svg>
