<?xml version="1.0" standalone="no"?>
<!DOCTYPE svg PUBLIC "-//W3C//DTD SVG 1.1//EN" "http://www.w3.org/Graphics/SVG/1.1/DTD/svg11.dtd" >
<svg xmlns="http://www.w3.org/2000/svg" xmlns:xlink="http://www.w3.org/1999/xlink" version="1.1">
<metadata></metadata>
<defs>
<font id="titilliumthin_italic" horiz-adv-x="1191" >
<font-face units-per-em="2048" ascent="1536" descent="-512" />
<missing-glyph horiz-adv-x="468" />
<glyph horiz-adv-x="0" />
<glyph horiz-adv-x="682" />
<glyph unicode=" "  horiz-adv-x="468" />
<glyph unicode="&#x09;" horiz-adv-x="468" />
<glyph unicode="&#xa0;" horiz-adv-x="468" />
<glyph unicode="!" horiz-adv-x="439" d="M287 449l241 1042h70l-251 -1042h-60zM189 0l41 177h77l-41 -177h-77z" />
<glyph unicode="&#x22;" horiz-adv-x="674" d="M758 1035h-70l102 452h74zM462 1035h-70l102 452h75z" />
<glyph unicode="#" d="M1216 405h-255l-99 -405h-76l98 405h-400l-98 -405h-77l98 405h-256l17 68h256l119 482h-256l18 67h256l101 405h77l-103 -405h401l103 405h76l-102 -405h256l-18 -67h-255l-119 -482h255zM901 473l119 482h-400l-120 -482h401z" />
<glyph unicode="$" d="M1286 1386l-12 -61q-128 22 -250 32l-215 -599q51 -15 86 -28t70 -31t57 -38.5t39.5 -48t25.5 -63t8 -80.5q0 -148 -59.5 -258.5t-170 -170t-258.5 -59.5q-51 0 -77 2l-85 -239h-65l84 244q-59 4 -121.5 11.5t-95.5 12.5l-34 5l13 66q132 -20 264 -30l234 656 q-60 18 -100 33.5t-78 38.5t-59.5 51t-34.5 67.5t-13 90.5q0 144 64 243.5t175.5 146.5t262.5 47q6 0 19 -1t20 -1l91 258h71l-94 -262q56 -5 115.5 -13.5t91.5 -14.5zM1018 467q0 52 -11 86.5t-41 60t-70 42.5t-110 37l-233 -644h67q186 0 292 113.5t106 304.5zM514 990 q0 -37 9.5 -65.5t26 -49t47.5 -38t64.5 -30.5t86.5 -29l209 583h-30q-194 0 -303.5 -93.5t-109.5 -277.5z" />
<glyph unicode="%" d="M641 1427q-77 0 -124.5 -53t-75.5 -162q-57 -228 89 -228q77 0 124.5 56.5t75.5 169.5q29 108 8.5 162.5t-97.5 54.5zM396 12l675 1481l69 -11l-676 -1480zM366 1212q25 98 69.5 162.5t99.5 93t123 28.5q103 0 143.5 -69.5t3.5 -216.5q-25 -100 -70 -167t-100 -97 t-121 -30q-102 0 -143.5 73t-4.5 223zM737 296q71 283 289 283q103 0 144.5 -68.5t4.5 -216.5t-113.5 -221t-177.5 -73q-102 0 -142.5 73.5t-4.5 222.5zM811 296q-29 -110 -8.5 -168.5t96.5 -58.5q77 0 125.5 56.5t76.5 168.5q29 109 8 163.5t-99 54.5q-52 0 -90 -24.5 t-64 -71.5t-45 -120z" />
<glyph unicode="&#x26;" horiz-adv-x="1343" d="M961 1510q59 0 105 -12.5t80.5 -38t53 -69t18.5 -101.5q0 -172 -117.5 -296.5t-329.5 -202.5l286 -396q90 157 140 307h81q-60 -189 -170 -369l219 -287l-53 -51l-211 272q-73 -97 -150 -159t-166.5 -94t-193.5 -32q-190 0 -283 76t-93 246q0 225 103 356t348 221 q-28 62 -39.5 102.5t-11.5 97.5q0 195 101 312.5t283 117.5zM553 53q136 0 253 69.5t208 205.5l-349 487q-151 -53 -240.5 -123.5t-128 -163.5t-38.5 -225q0 -250 295 -250zM658 1080q0 -119 77 -230q211 79 307 183.5t96 255.5q0 81 -47 116.5t-136 35.5 q-97 0 -165.5 -48.5t-100 -129t-31.5 -183.5z" />
<glyph unicode="'" horiz-adv-x="378" d="M462 1035h-70l102 452h75z" />
<glyph unicode="(" horiz-adv-x="474" d="M683 1593h75q-10 -15 -26.5 -42t-65.5 -114t-93 -177.5t-98 -222.5t-93 -258.5t-65.5 -277t-26.5 -286.5q0 -134 7.5 -254t14.5 -173l7 -52h-69q-4 19 -10 55.5t-15.5 161t-9.5 262.5q0 144 26 297.5t67 284t91 255.5t100 221t91.5 169.5t66.5 112.5z" />
<glyph unicode=")" horiz-adv-x="472" d="M98 -252h-74q10 15 26.5 42t65.5 114.5t93 177.5t98 222.5t93 259t65.5 277t26.5 285.5q0 85 -3 165.5t-7.5 135t-9 97t-7.5 62.5l-3 20h70q4 -19 10 -55.5t15.5 -161t9.5 -263.5q0 -473 -270 -1027q-104 -213 -199 -351z" />
<glyph unicode="*" horiz-adv-x="866" d="M1022 1106h-292l90 -275l-68 -22l-90 277l-234 -168l-40 58l234 170l-232 171l43 57l234 -173l89 275l69 -21l-90 -277h287v-72z" />
<glyph unicode="+" d="M250 498v73h429v451h77v-451h435v-73h-435v-455h-77v455h-429z" />
<glyph unicode="," horiz-adv-x="402" d="M92 -275h-60l183 452h86z" />
<glyph unicode="-" horiz-adv-x="815" d="M272 537l18 75h519l-19 -75h-518z" />
<glyph unicode="." horiz-adv-x="380" d="M153 0l40 177h77l-40 -177h-77z" />
<glyph unicode="/" horiz-adv-x="821" d="M166 -2l-70 28l906 1465l69 -30z" />
<glyph unicode="0" d="M886 1427q196 0 300.5 -100.5t104.5 -293.5q0 -122 -19.5 -246t-56.5 -241.5t-95 -220t-130 -179t-167 -121t-201 -44.5q-188 0 -292 97t-104 284q0 96 12.5 198t39.5 206.5t65.5 200.5t93.5 180t120.5 146t150 98t178.5 36zM886 1357q-84 0 -159.5 -34.5t-133.5 -94.5 t-106.5 -140t-82 -170t-57 -186.5t-34 -188t-10.5 -175.5q0 -160 84.5 -238.5t234.5 -78.5q95 0 179.5 42.5t148.5 116t115 170t83 206.5t49 223.5t17 223.5q0 158 -84.5 241t-243.5 83z" />
<glyph unicode="1" d="M545 1136l488 272h68l-321 -1408h-77l299 1307l-439 -240z" />
<glyph unicode="2" d="M1046 0h-897l15 63l626 518q77 63 130 110t109 105.5t90 109t56 108.5t22 114q0 122 -79 176.5t-228 54.5q-77 0 -182 -13.5t-171 -26.5l-66 -14l4 67q25 6 67 15.5t151.5 25.5t196.5 16q384 0 384 -301q0 -63 -22.5 -127t-57 -117.5t-90.5 -114t-108.5 -107 t-126.5 -106.5l-597 -485h791z" />
<glyph unicode="3" d="M477 1310l7 68l12 3t34 7t53.5 9.5t67.5 10t78.5 9.5t84.5 7t89 3q351 0 351 -279q0 -76 -25.5 -142t-69.5 -115t-98.5 -84t-117.5 -55q193 -72 193 -294q0 -112 -44.5 -203t-120.5 -150.5t-176 -91.5t-214 -32q-90 0 -192.5 17.5t-160.5 35.5l-57 17l18 69 q25 -8 66.5 -19.5t147 -30.5t183.5 -19q129 0 236 49t172 141t65 210q0 120 -71.5 189t-218.5 69h-279l19 71h277q48 0 101.5 16t105 47.5t93 73t67 98.5t25.5 119q0 118 -67.5 170.5t-214.5 52.5q-90 0 -194.5 -11.5t-164.5 -23.5z" />
<glyph unicode="4" d="M817 0l65 281h-707l14 62l725 1063h88l-727 -1054h624l117 510h77l-117 -510h195l-17 -71h-195l-65 -281h-77z" />
<glyph unicode="5" d="M547 1406h780l-17 -71h-712l-176 -566q9 4 25 11t63.5 25.5t93 33t105.5 26t108 11.5q173 0 267 -72t94 -218q0 -123 -46.5 -234t-126.5 -191.5t-191 -128t-235 -47.5q-85 0 -189 15t-166 30l-62 15l21 68q26 -6 69.5 -15.5t151 -26t184.5 -16.5q104 0 199 41.5t164 112 t109.5 169t40.5 208.5q0 105 -76.5 162t-219.5 57q-36 0 -78 -6.5t-80 -16.5t-75.5 -22.5t-68 -25t-54 -23t-36.5 -16.5l-13 -7l-70 9z" />
<glyph unicode="6" d="M1337 1386l-18 -65q-4 1 -10.5 2t-28 5t-43.5 7.5t-54.5 7.5t-64 7t-68.5 5t-70 2q-67 0 -129 -15.5t-112 -44t-94 -65t-79.5 -82.5t-65 -93.5t-52.5 -100t-39.5 -99.5t-28.5 -95q8 4 24 11t65.5 24.5t99.5 31t120.5 24.5t135.5 11q92 0 162.5 -22.5t115.5 -64.5 t67.5 -100.5t22.5 -131.5q0 -167 -66.5 -294t-194 -198.5t-300.5 -71.5q-182 0 -278 122.5t-96 349.5q0 83 13 173t41.5 185t70 183.5t102.5 167.5t135 137.5t171.5 93t207.5 34.5q48 0 100.5 -4t93 -10t74.5 -12t52 -11zM803 795q-57 0 -123.5 -11t-121 -26.5t-100.5 -31.5 t-72 -27l-26 -11q-9 -28 -16 -98.5t-7 -136.5q0 -194 73.5 -298t219.5 -104q95 0 175.5 25t137 68t96 102t58.5 127t19 143q0 141 -71.5 210t-241.5 69z" />
<glyph unicode="7" d="M488 1333l16 73h829l-38 -160l-873 -1265l-68 29l864 1250l18 73h-748z" />
<glyph unicode="8" d="M937 1427q221 0 322.5 -72t101.5 -211q0 -59 -25 -120.5t-71.5 -118t-123 -100.5t-170.5 -63q73 -23 121.5 -52t73.5 -65t34.5 -72.5t9.5 -83.5q0 -26 -4 -56t-19 -79.5t-40 -94.5t-73.5 -93.5t-112.5 -83.5t-164 -58t-222 -23q-72 0 -133 8t-118 27.5t-96.5 49.5 t-63.5 77.5t-24 108.5q0 81 22 151t57.5 120.5t88.5 93t108.5 71.5t124.5 54q-38 14 -66.5 29.5t-50.5 33t-37 37.5t-24 44.5t-13.5 52t-4.5 60.5q0 61 18 118.5t62 114.5t109.5 99.5t169 69t233.5 26.5zM594 51q84 0 158 15t127.5 40t97 58.5t71.5 70t47 75.5t27 73t8 64 q0 42 -7.5 74.5t-25 57t-38.5 42.5t-54.5 33.5t-65.5 25.5t-79 23h-232q-60 -16 -113 -38.5t-108 -60t-94 -84t-64 -114t-25 -146.5q0 -98 95.5 -153.5t274.5 -55.5zM918 1357q-111 0 -199 -21.5t-142.5 -56t-90.5 -82.5t-50 -97t-14 -104q0 -77 50.5 -133t173.5 -92h232 q43 8 91.5 24t105 46.5t100.5 69.5t73.5 96.5t29.5 122.5q0 120 -84.5 173.5t-275.5 53.5z" />
<glyph unicode="9" d="M166 26l30 68q19 -5 52.5 -11.5t123.5 -18t163 -11.5q438 0 589 581q-31 -10 -82.5 -24.5t-171 -39.5t-193.5 -25q-206 0 -295 108t-37 320q36 139 123.5 243t205 157.5t248.5 53.5q161 0 246.5 -86.5t95 -250t-47.5 -399.5q-40 -159 -94.5 -280t-118.5 -202 t-142.5 -132.5t-162.5 -73.5t-182 -22q-70 0 -157.5 11.5t-139.5 22.5zM701 618q68 0 179 23t189 45l77 23q36 152 40.5 269.5t-23 202.5t-93 129.5t-167.5 44.5q-171 0 -302 -102.5t-175 -279.5q-43 -178 29 -266.5t246 -88.5z" />
<glyph unicode=":" horiz-adv-x="380" d="M323 750l41 177h77l-41 -177h-77zM153 0l40 177h77l-40 -177h-77z" />
<glyph unicode=";" horiz-adv-x="463" d="M69 -275h59l209 452h-85zM370 750l41 177h77l-41 -177h-77z" />
<glyph unicode="&#x3c;" d="M1118 950l-833 -415l833 -415v-88l-903 464v77l903 460v-83z" />
<glyph unicode="=" d="M268 677v73h903v-73h-903zM268 317v73h903v-73h-903z" />
<glyph unicode="&#x3e;" d="M1148 535l-833 415v83l903 -460v-77l-903 -464v88z" />
<glyph unicode="?" horiz-adv-x="858" d="M1048 1268q0 -42 -3 -76t-14 -67t-22.5 -59t-36.5 -58t-48 -56.5t-65.5 -62.5t-80 -69.5t-99.5 -82.5q-164 -134 -187 -253l-17 -84h-73q5 47 13 92q8 40 25.5 78.5t46 76t66 74.5t88.5 78q70 57 112 93.5t83.5 77t62.5 71t38.5 67.5t23.5 74.5t6 85.5q0 169 -256 169 q-51 0 -128 -11.5t-129 -23.5l-52 -12v69q8 2 21.5 5.5t52.5 12.5t76.5 15.5t85.5 12t86 5.5q70 0 127 -13.5t102.5 -41t70 -75.5t24.5 -112zM330 2l36 175h79l-38 -175h-77z" />
<glyph unicode="@" horiz-adv-x="1950" d="M1366 1527q138 0 248 -24.5t185.5 -67.5t126.5 -107t77 -138.5t32.5 -166.5t-3.5 -186t-34 -203q-23 -99 -47 -180.5t-47.5 -144t-50 -112t-50.5 -84t-53.5 -59t-55.5 -39t-59 -23t-61.5 -11t-65.5 -2.5q-88 0 -136 31t-51 105q-269 -134 -409 -134q-61 0 -106 16.5 t-71.5 40t-41.5 65t-20 75t-2 85.5t7 81.5t13 77.5q37 219 108 364.5t179.5 221.5t254.5 76q37 0 104.5 -7.5t132 -17t109.5 -18.5q-46 -177 -116 -489t-70 -399q0 -18 2 -32t6.5 -24.5t10 -18t15 -12.5t18.5 -8t22.5 -4.5t25.5 -2t30 -0.5q37 0 65.5 5t61 20t59 42t55.5 72 t55 108t53 152.5t53 203.5q16 69 25 130.5t12.5 123t-1.5 115t-18 104.5t-37.5 93t-59 79t-83 65t-109 48t-138 30.5t-168.5 10.5q-213 0 -372 -46.5t-285 -152t-214 -276.5t-149 -422q-28 -110 -40.5 -205.5t-10 -188.5t25.5 -168t71 -139.5t121 -108t181 -67.5t246 -24 q36 0 108 5.5t127 10.5l55 6l-11 -77q-201 -19 -296 -19q-126 0 -229 19.5t-177 53t-130 83.5t-90 106.5t-54 126.5t-25.5 139t-0.5 148.5t16.5 150t29.5 148.5q64 270 158 454.5t232 300t314.5 166t416.5 50.5zM927 57q145 0 394 130q4 55 61.5 322.5t108.5 474.5 q-131 32 -268 32q-55 0 -103 -13t-88 -38t-74 -64t-62 -86.5t-52 -110t-43 -132t-37 -153.5q-74 -362 163 -362z" />
<glyph unicode="A" horiz-adv-x="1183" d="M69 0l789 1491h190l80 -1491h-76l-26 460h-636l-243 -460h-78zM901 1421l-473 -893h594l-44 893h-77z" />
<glyph unicode="B" horiz-adv-x="1234" d="M526 1491h458q173 0 255 -62t82 -211q0 -86 -25 -161.5t-67.5 -131t-95.5 -94.5t-113 -58q64 -17 108 -47t70.5 -82.5t26.5 -125.5q0 -244 -146 -381t-412 -137h-484zM827 730h-399l-151 -659h406q220 0 340.5 119t120.5 326q0 51 -17 89.5t-44.5 62t-69.5 38t-86.5 19.5 t-99.5 5zM969 1421h-383l-143 -620h400q89 0 164.5 33t126.5 89.5t79.5 132t28.5 160.5q0 60 -16 100t-51 63t-83.5 32.5t-122.5 9.5z" />
<glyph unicode="C" horiz-adv-x="1085" d="M1010 94l-2 -70q-21 -5 -56.5 -12t-129.5 -19t-170 -12q-394 0 -394 424q0 98 14.5 203.5t44.5 213.5t73.5 208t105.5 187.5t135.5 152.5t168.5 102.5t199 37.5q73 0 160 -10t137 -20l50 -10l-17 -68q-186 35 -339 35q-90 0 -172.5 -35t-147 -95.5t-119 -142.5 t-93 -175.5t-66 -194.5t-40.5 -199.5t-13 -189.5q0 -180 77.5 -266t245.5 -86q76 0 163 10t136 20z" />
<glyph unicode="D" horiz-adv-x="1294" d="M688 0h-505l345 1491h486q194 0 278 -106t84 -330q0 -94 -13 -194.5t-41 -203.5t-67.5 -198.5t-97 -179t-125.5 -145.5t-156.5 -98t-187.5 -36zM1295 1055q0 191 -67 278.5t-229 87.5h-411l-309 -1350h428q80 0 153 33.5t131 91.5t107.5 136.5t85.5 168t61 185t37.5 189 t12.5 180.5z" />
<glyph unicode="E" horiz-adv-x="1085" d="M183 0l345 1491h803l-16 -70h-727l-143 -620h607l-17 -71h-607l-151 -659h727l-18 -71h-803z" />
<glyph unicode="F" horiz-adv-x="1032" d="M183 0l345 1491h782l-17 -70h-705l-155 -677h611l-18 -71h-611l-155 -673h-77z" />
<glyph unicode="G" horiz-adv-x="1224" d="M876 667l16 70h358l-161 -696q-25 -7 -66.5 -17t-150.5 -26.5t-195 -16.5q-205 0 -312 96.5t-107 294.5q0 111 14 223.5t43.5 224.5t72.5 213.5t105 189t136 151t170.5 100t204.5 36.5q90 0 193 -13t161 -27l58 -13l-21 -64q-25 5 -66 12.5t-149.5 20.5t-193.5 13 q-93 0 -176.5 -35.5t-147.5 -97.5t-118 -146t-91.5 -180t-63.5 -200.5t-38 -207t-12 -200.5q0 -165 86 -243t256 -78q43 0 94 5t93.5 11.5t78.5 13.5t57 12l20 5l132 569h-280z" />
<glyph unicode="H" horiz-adv-x="1333" d="M1073 0l165 711h-814l-164 -711h-77l345 1491h77l-164 -709h813l165 709h77l-346 -1491h-77z" />
<glyph unicode="I" horiz-adv-x="442" d="M183 0l345 1491h77l-345 -1491h-77z" />
<glyph unicode="J" horiz-adv-x="538" d="M707 1491l-292 -1263q-15 -65 -25.5 -105.5t-25.5 -83.5t-29 -67t-36 -48.5t-47 -36.5t-61 -22t-78 -13t-98 -3l13 70q57 0 94.5 4.5t69.5 19.5t51.5 35t38 61t31.5 87t30 122l287 1243h77z" />
<glyph unicode="K" horiz-adv-x="1081" d="M955 0l-286 701h-247l-162 -701h-77l345 1491h77l-168 -720h234l618 720h91l-647 -754l302 -737h-80z" />
<glyph unicode="L" horiz-adv-x="939" d="M920 0h-737l345 1491h77l-328 -1420h660z" />
<glyph unicode="M" horiz-adv-x="1648" d="M183 0l345 1491h155l154 -1376l818 1376h156l-346 -1491h-77l331 1421h-28l-813 -1376h-98l-162 1376h-30l-328 -1421h-77z" />
<glyph unicode="N" horiz-adv-x="1313" d="M183 0l345 1491h173l319 -1420h51l329 1420h76l-346 -1491h-167l-322 1421h-53l-328 -1421h-77z" />
<glyph unicode="O" horiz-adv-x="1354" d="M709 51q160 0 290 96q90 66 160 175.5t111.5 236t63 257.5t21.5 257q0 189 -89.5 277.5t-279.5 88.5q-144 0 -270 -91q-91 -67 -165 -178.5t-119 -239t-69 -260t-24 -253.5q0 -199 84.5 -282.5t285.5 -83.5zM709 -19q-124 0 -207.5 23t-138.5 76t-79 135t-24 204 q0 176 39 349t117.5 327t186.5 255q170 160 383 160q227 0 338 -107t111 -332q0 -137 -22.5 -273t-65.5 -262t-112 -235t-155 -183q-163 -137 -371 -137z" />
<glyph unicode="P" horiz-adv-x="1164" d="M803 545h-417l-126 -545h-77l345 1491h496q160 0 234.5 -77.5t74.5 -231.5q0 -102 -20 -195.5t-63 -174t-104.5 -140t-149.5 -93.5t-193 -34zM402 618h418q88 0 160.5 31t122.5 84.5t84 126t49.5 153.5t15.5 169q0 80 -24 131.5t-78.5 78.5t-141.5 27h-420z" />
<glyph unicode="Q" horiz-adv-x="1354" d="M709 -19q-124 0 -207.5 23t-138.5 76t-79 135t-24 204q0 176 39 349t117.5 327t186.5 255q170 160 383 160q227 0 338 -107t111 -332q0 -137 -22.5 -273t-65.5 -262t-112 -235t-155 -183q-58 -48 -115 -77l102 -313l-73 -24l-100 306q-89 -29 -185 -29zM709 51 q160 0 290 96q90 66 160 175.5t111.5 236t63 257.5t21.5 257q0 189 -89.5 277.5t-279.5 88.5q-144 0 -270 -91q-91 -67 -165 -178.5t-119 -239t-69 -260t-24 -253.5q0 -199 84.5 -282.5t285.5 -83.5z" />
<glyph unicode="R" horiz-adv-x="1209" d="M1039 0l-187 614h-450l-142 -614h-77l345 1491h474q67 0 119 -10.5t94 -34t69 -60.5t41.5 -90t14.5 -123q0 -107 -27.5 -197.5t-70.5 -150t-99.5 -104t-109.5 -67t-106 -32.5l189 -622h-77zM1258 1173q0 70 -16 117.5t-51 76.5t-85 41.5t-122 12.5h-396l-171 -738h398 q200 0 321.5 134t121.5 356z" />
<glyph unicode="S" horiz-adv-x="1069" d="M1263 1465l-13 -63q-218 37 -366 37q-206 0 -322.5 -98t-116.5 -293q0 -24 4 -44.5t10.5 -37.5t19.5 -32.5t25.5 -27t35 -23.5t41.5 -20.5t50.5 -19t56.5 -18.5t66 -20q66 -20 109.5 -37t84.5 -41.5t63.5 -55t36 -74.5t13.5 -101q0 -236 -140 -375.5t-376 -139.5 q-83 0 -187.5 9t-166.5 18l-63 9l14 70q252 -36 416 -36q132 0 227.5 55.5t145 155t49.5 232.5q0 45 -9 77.5t-26 56.5t-50 43t-72 33t-101 31q-53 15 -90 26.5t-77 28t-66.5 33t-51.5 39t-39.5 49t-23 61t-8.5 76.5q0 115 38.5 203.5t109.5 145t168 85t217 28.5 q75 0 166 -11t144 -22z" />
<glyph unicode="T" horiz-adv-x="1015" d="M349 1421l17 70h967l-16 -70h-445l-329 -1421h-76l328 1421h-446z" />
<glyph unicode="U" horiz-adv-x="1262" d="M594 1491l-242 -1050q-22 -93 -22 -164q0 -114 88 -169t249 -55q192 0 296 91.5t147 277.5l247 1069h76l-246 -1072q-26 -109 -66 -188t-102.5 -136t-151 -85.5t-205.5 -28.5q-192 0 -300 73t-108 221q0 81 21 166l243 1050h76z" />
<glyph unicode="V" horiz-adv-x="1145" d="M1337 1491h77l-733 -1491h-230l-49 1491h77l43 -1420h114z" />
<glyph unicode="W" horiz-adv-x="1713" d="M415 1491h77l-53 -1420h75l634 1399h81l-19 -1399h70l614 1420h76l-643 -1491h-189l21 1323l-601 -1323h-194z" />
<glyph unicode="X" horiz-adv-x="1083" d="M484 1491l246 -684l563 684h93l-626 -758l266 -733h-76l-247 673l-567 -673h-93l628 746l-264 745h77z" />
<glyph unicode="Y" horiz-adv-x="1032" d="M1335 1491l-640 -850l-150 -641h-76l151 656l-240 835h76l219 -769l575 769h85z" />
<glyph unicode="Z" horiz-adv-x="1059" d="M417 1421l18 70h884l-39 -166l-1091 -1201l-12 -53h807l-17 -71h-884l37 158l1090 1201l15 62h-808z" />
<glyph unicode="[" horiz-adv-x="630" d="M543 1591h369l-16 -71h-295l-403 -1709h296l-19 -71h-367z" />
<glyph unicode="\" horiz-adv-x="823" d="M762 30l-81 -30l-276 1463l81 30z" />
<glyph unicode="]" horiz-adv-x="630" d="M396 -258h-368l15 71h296l403 1710h-297l19 70h367z" />
<glyph unicode="^" d="M1112 688l-356 641l-337 -641h-84l383 718h77l402 -718h-85z" />
<glyph unicode="_" horiz-adv-x="1368" d="M168 -168h956l-21 -82h-952z" />
<glyph unicode="`" horiz-adv-x="1102" d="M685 1536l341 -203l-38 -47l-340 196z" />
<glyph unicode="a" horiz-adv-x="1026" d="M458 -19q-255 0 -255 271q0 90 16 186t46 189t76.5 175.5t104 145.5t132.5 99.5t157 36.5q54 0 147.5 -11t159.5 -21l66 -11l-163 -694q-14 -60 -29.5 -146.5t-23.5 -142.5l-8 -56l-71 -4q37 222 47 270q-4 -6 -12 -16t-33 -40t-51 -57t-64.5 -60t-75.5 -57t-81.5 -40.5 t-84.5 -16.5zM735 1016q-62 0 -119 -26t-101.5 -71t-83 -105.5t-66 -129.5t-46.5 -143.5t-28.5 -148t-9.5 -140.5q0 -100 45 -150.5t147 -50.5q27 0 58 11.5t61 31t61 45t59 53t54 55.5t47 53.5t36.5 45t23.5 30.5l9 12l138 596q-155 32 -285 32z" />
<glyph unicode="b" horiz-adv-x="1024" d="M805 1084q53 0 94.5 -10t70 -29.5t48 -45.5t30 -62.5t15 -75.5t4.5 -88q0 -48 -8 -109.5t-27.5 -138t-47.5 -151.5t-71.5 -146.5t-96.5 -126t-126.5 -87.5t-157.5 -33q-61 0 -153.5 11t-154.5 21l-62 11l354 1531h74l-155 -669q4 4 10.5 11t29 27.5t46.5 39.5t59 41.5 t69 39t75.5 28t80.5 11.5zM530 49q72 0 135.5 32t109 84t82.5 120t61 137.5t40 138.5t23 122t7 90q0 39 -2.5 67.5t-10 58t-21.5 49t-36.5 35.5t-55.5 23.5t-78 7.5t-100.5 -24t-101.5 -58t-86 -68t-62 -58l-23 -24l-161 -701q183 -32 280 -32z" />
<glyph unicode="c" horiz-adv-x="858" d="M773 1084q46 0 104 -6t94 -11l35 -6l-20 -67q-122 22 -213 22q-98 0 -179 -41.5t-136.5 -112t-93.5 -165t-56 -199.5t-18 -217q0 -116 60.5 -174t196.5 -58q35 0 96.5 10t105.5 20l43 10v-68q-5 -2 -15.5 -4.5t-41.5 -9.5t-61 -12t-70 -9.5t-74 -4.5q-165 0 -242 74.5 t-77 219.5q0 123 21 239t66 220t110 181.5t158.5 123t206.5 45.5z" />
<glyph unicode="d" horiz-adv-x="1024" d="M1227 1555l-360 -1555h-72l55 242l-22 -27.5t-58.5 -63t-90 -79.5t-110 -62.5t-124.5 -28.5q-120 0 -181 66t-61 203q0 92 16 189t46.5 190t77 175.5t103 144.5t130.5 98.5t154 36.5q66 0 142.5 -8.5t119.5 -16.5l43 -9l117 505h75zM878 366l142 618q-150 32 -290 32 q-71 0 -134.5 -35t-112 -94.5t-87.5 -136.5t-64 -163t-38 -172t-13 -165q0 -201 186 -201q38 0 81 17.5t81.5 45.5t76.5 61.5t68.5 67.5t54 62t36.5 46z" />
<glyph unicode="e" horiz-adv-x="962" d="M522 53q73 0 160.5 15.5t138.5 31.5l51 15v-70q-21 -7 -56.5 -17.5t-132.5 -28.5t-179 -18q-136 0 -216.5 77t-80.5 221q0 90 15.5 183t45 183.5t77.5 169.5t109 139t143.5 95t177.5 35q130 0 203.5 -54.5t73.5 -165.5q0 -75 -25 -131t-72.5 -94t-122.5 -62t-167.5 -34.5 t-213.5 -10.5h-134q-32 -132 -32 -238q0 -115 63.5 -178t173.5 -63zM332 601h139q104 0 180 7t139.5 24.5t103 47t61 75t21.5 107.5q0 54 -24 88.5t-68.5 50t-110.5 15.5q-87 0 -158.5 -30.5t-124 -88t-91 -130t-67.5 -166.5z" />
<glyph unicode="f" horiz-adv-x="632" d="M498 996l-232 -996l-126 -490h-61l343 1486h-137l18 69h134l30 126q35 142 80.5 225.5t108.5 120.5t155 37q15 0 31.5 -1t32 -2.5t31 -3.5t28 -3.5t22 -3t14.5 -2.5l6 -1l-17 -66q-90 15 -162 15q-102 0 -157 -71.5t-99 -247.5l-29 -122h327l-19 -69h-322z" />
<glyph unicode="g" horiz-adv-x="974" d="M376 -509q-75 0 -136.5 21t-102.5 57.5t-63.5 86t-22.5 106.5q0 49 19.5 95.5t48 82t71 70t78 57t79.5 46.5q-7 7 -13.5 18t-10.5 27t-4 33q0 27 11.5 58t27.5 56.5t32 47.5t27 35l11 12q-149 61 -149 248q0 35 6.5 71.5t19.5 74t33.5 73t46 68t59.5 59.5t72.5 47 t86 31.5t98.5 11.5q50 0 92.5 -8t59.5 -16l16 -8l318 13l-18 -75h-234q53 -68 53 -170q0 -46 -11 -94t-33.5 -98t-59.5 -94t-85 -79t-116 -55t-146 -20l-55 4q-10 -13 -24.5 -33.5t-39 -69.5t-24.5 -80q0 -42 40 -60t154 -31q131 -15 204 -44.5t101.5 -75.5t28.5 -122 q0 -70 -38 -137t-106 -120.5t-173 -86.5t-229 -33zM592 36q-130 13 -190 37q-51 -26 -97 -57t-86.5 -69t-64.5 -82.5t-24 -88.5q0 -97 68.5 -157t195.5 -60q90 0 172.5 23.5t143.5 64t97 98t36 123.5q0 82 -55 118t-196 50zM553 447q75 0 137 25.5t102 64t68 86.5t40 92 t12 82q0 112 -50 165.5t-169 53.5q-64 0 -120 -24t-95 -62.5t-67 -87t-41.5 -97.5t-13.5 -93q0 -97 45 -151t152 -54z" />
<glyph unicode="h" horiz-adv-x="1041" d="M232 0h-74l360 1555h74l-170 -735q8 10 21.5 28t57 63.5t88 80.5t107.5 63.5t121 28.5q115 0 180.5 -66t65.5 -181q0 -107 -43 -290l-128 -547h-72l127 549q41 171 41 282q0 88 -46.5 135.5t-136.5 47.5q-38 0 -81.5 -17.5t-82 -45t-76.5 -61.5t-68.5 -67.5t-53.5 -61 t-36 -45.5l-13 -17z" />
<glyph unicode="i" horiz-adv-x="386" d="M156 0l246 1065h75l-247 -1065h-74zM469 1359l29 128h77l-30 -128h-76z" />
<glyph unicode="j" horiz-adv-x="386" d="M156 0l246 1065h75l-247 -1065q-16 -67 -27.5 -110t-27.5 -87t-29.5 -70t-38 -55.5t-47 -48t-63 -43.5t-80 -45t-102.5 -50l-26 64q58 29 93 47.5t71.5 41.5t56.5 39t42 42.5t33 48.5t25 59.5t23.5 73.5t22.5 93zM475 1368l27 123h75l-28 -123h-74z" />
<glyph unicode="k" horiz-adv-x="917" d="M232 0h-74l360 1555h74l-216 -931h180l462 441h98l-502 -482l240 -583h-83l-232 556h-179z" />
<glyph unicode="l" horiz-adv-x="414" d="M171 0l359 1555h75l-360 -1555h-74z" />
<glyph unicode="m" horiz-adv-x="1648" d="M890 0h-75l128 549q41 171 41 282q0 87 -47.5 135t-133.5 48q-39 0 -82.5 -17t-82 -44.5t-76 -60.5t-67.5 -66.5t-53 -61t-35 -44.5l-13 -17l-164 -703h-74l246 1065h75l-55 -240q8 10 21.5 27.5t56.5 62t87 79t107 62.5t121 28q48 0 86.5 -12t63 -31t42.5 -41.5 t26.5 -45.5t14 -42t6.5 -31l1 -12q7 9 20.5 23.5t55 51.5t83.5 65t100 51.5t111 23.5q114 0 179.5 -66t65.5 -181q0 -46 -8 -104.5t-14 -90t-20 -95.5l-128 -547h-75l128 549q40 171 40 282q0 43 -12.5 77t-35.5 57.5t-57.5 36t-77.5 12.5q-46 0 -99.5 -24.5t-97 -59 t-80 -69t-56.5 -59.5l-20 -24q-3 -83 -39 -231z" />
<glyph unicode="n" horiz-adv-x="1038" d="M230 0h-74l246 1065h75l-55 -240q8 10 21.5 27.5t56.5 62t87 79t107 62.5t121 28q115 0 180.5 -66t65.5 -181q0 -99 -41 -284l-130 -553h-73l128 549q41 171 41 282q0 87 -47 135t-136 48q-39 0 -82.5 -17t-82 -44.5t-76 -60.5t-67.5 -66.5t-53 -61t-35 -44.5l-13 -17z " />
<glyph unicode="o" horiz-adv-x="1049" d="M744 1084q166 0 251 -85t85 -249q0 -160 -39.5 -301.5t-109.5 -244.5t-172.5 -163t-221.5 -60q-165 0 -245.5 77t-80.5 238q0 163 41 309t111.5 251t169.5 166.5t211 61.5zM537 49q103 0 191 55.5t148 150.5t94 223.5t34 271.5q0 122 -65.5 194t-194.5 72 q-99 0 -185.5 -58.5t-145 -157t-92.5 -230t-34 -274.5q0 -80 27 -135t83 -83.5t140 -28.5z" />
<glyph unicode="p" horiz-adv-x="1022" d="M43 -490l359 1555h73l-56 -242l22 27.5t58 62.5t88 79.5t106 63t118 28.5q88 0 145 -31.5t84 -93.5t27 -156q0 -74 -11.5 -153t-34.5 -159t-55 -154.5t-77 -139t-97 -113t-117.5 -76t-135.5 -27.5q-65 0 -141.5 9t-119.5 18l-44 9l-116 -507h-75zM797 1014 q-36 0 -77.5 -17.5t-79.5 -45t-75.5 -61.5t-68 -67.5t-54.5 -61t-37 -45.5l-13 -17l-142 -616q149 -34 289 -34q54 0 104 20.5t91 57t77 85.5t63.5 106.5t49.5 119.5t35.5 126t21 124.5t7.5 114.5q0 109 -45.5 160t-145.5 51z" />
<glyph unicode="q" horiz-adv-x="1019" d="M453 -19q-127 0 -189.5 71.5t-62.5 203.5q0 74 11 154t34 160.5t55.5 155.5t77 140t96.5 113.5t117 76.5t136 28q41 0 95 -4.5t101.5 -11t89.5 -12.5t67 -11l25 -4l-350 -1510h-73l163 709l-22 -27.5t-57 -62.5t-87 -79t-106.5 -62t-120.5 -28zM728 1016 q-69 0 -132.5 -34.5t-112 -93.5t-88 -135t-64.5 -160.5t-38.5 -169.5t-13.5 -163q0 -70 19.5 -116t63 -69.5t111.5 -23.5q49 0 108.5 32t109.5 78t93 92.5t67 78.5l25 32l142 620q-146 32 -290 32z" />
<glyph unicode="r" horiz-adv-x="646" d="M156 0l249 1065h72l-36 -162q9 5 24.5 14.5t63 35t95 48t113 47t123.5 38.5l-17 -74q-70 -16 -174.5 -62t-174.5 -83l-70 -38l-192 -829h-76z" />
<glyph unicode="s" horiz-adv-x="908" d="M1020 1055l-18 -67q-191 28 -327 28q-69 0 -128.5 -22.5t-99.5 -60.5t-62.5 -87.5t-22.5 -103.5q0 -65 44.5 -95.5t181.5 -60.5q46 -11 77 -19t65.5 -19t55.5 -22.5t41.5 -28t32 -36t18 -45.5t6.5 -58q0 -74 -23.5 -136t-65 -106t-98 -74.5t-123.5 -45.5t-141 -15 q-39 0 -86 3.5t-86.5 8.5t-73 10t-52.5 8l-20 4l15 68q192 -34 313 -34q74 0 138 17.5t115.5 52t81 92.5t29.5 132q0 22 -3 39t-11 31.5t-16.5 25t-26.5 20.5t-33.5 16.5t-44.5 14.5t-52 13.5t-64 14.5q-59 13 -96.5 23.5t-74 27.5t-56.5 37.5t-32 51t-12 70.5q0 73 29 138 t81 113t129 76.5t167 28.5q59 0 141.5 -7.5t135.5 -14.5z" />
<glyph unicode="t" horiz-adv-x="661" d="M860 996h-346l-144 -608q-31 -137 -31 -213q0 -59 33.5 -92.5t102.5 -33.5q16 0 40 1.5t47.5 3.5t44.5 4t34 4l13 1l-4 -65q-109 -17 -186 -17q-64 0 -109 19.5t-70 61t-25 102.5q0 74 36 224l143 608h-156l18 69h157l83 345h75l-86 -345h348z" />
<glyph unicode="u" horiz-adv-x="1038" d="M1055 1065h73l-246 -1065h-75l55 240q-7 -10 -21 -27.5t-57 -62.5t-87 -79t-106.5 -62t-121.5 -28q-113 0 -179 66t-66 181q0 99 40 284l130 553h73l-128 -549q-41 -171 -41 -282q0 -87 48.5 -135t135.5 -48q38 0 81.5 17t82 44.5t76 60.5t67.5 66.5t53 61t36 44.5l12 17 z" />
<glyph unicode="v" horiz-adv-x="953" d="M313 1065h77l49 -996h85l528 996h82l-567 -1065h-201z" />
<glyph unicode="w" horiz-adv-x="1512" d="M319 1065h75l13 -996h34l502 975h96l43 -975h36l484 996h79l-516 -1065h-157l-37 952l-483 -952h-153z" />
<glyph unicode="x" horiz-adv-x="874" d="M309 1065h81l183 -484l405 484h91l-460 -539l200 -526h-83l-177 475l-400 -475h-92l455 532z" />
<glyph unicode="y" horiz-adv-x="953" d="M313 1065h77l49 -996h85l528 996h82l-825 -1551h-81l262 486h-124z" />
<glyph unicode="z" horiz-adv-x="894" d="M315 996l17 69h723l-11 -69l-853 -927h634l-16 -69h-722l7 69l851 927h-630z" />
<glyph unicode="{" horiz-adv-x="699" d="M441 477q0 -35 -26.5 -128t-53 -196t-26.5 -161q0 -61 24.5 -99.5t76 -58t131.5 -19.5l-22 -77q-149 6 -217 62.5t-68 169.5q0 61 26.5 164.5t53 195t26.5 123.5q0 73 -38 109.5t-123 59.5l17 75q73 20 120 43.5t78 58.5t47 76.5t29 106.5q5 26 17 92t22 113t21 83 q37 110 89.5 178.5t135 105t203.5 41.5l-13 -77q-69 -3 -122.5 -17.5t-93 -39t-68 -62t-47 -83.5t-31.5 -106q-6 -33 -21.5 -120.5t-22.5 -124.5q-21 -94 -53 -151.5t-80 -91.5t-127 -60q136 -48 136 -185z" />
<glyph unicode="|" horiz-adv-x="630" d="M400 -490v2045h75v-2045h-75z" />
<glyph unicode="}" horiz-adv-x="699" d="M567 850q0 35 26.5 128t53 196t26.5 161q0 91 -56.5 134t-175.5 43l21 77q100 -4 163.5 -31t93 -76.5t29.5 -124.5q0 -61 -27 -164.5t-53.5 -195t-26.5 -123.5q0 -73 38.5 -109.5t123.5 -59.5l-17 -75q-73 -20 -120.5 -43.5t-78 -58.5t-46.5 -76.5t-29 -106.5 q-6 -26 -17.5 -92t-21.5 -113t-22 -83q-54 -165 -151.5 -241.5t-275.5 -83.5l12 77q87 4 149 24.5t104.5 60.5t68 93.5t40.5 130.5q7 32 22 119.5t23 124.5q20 94 52.5 151.5t80.5 91.5t127 60q-136 48 -136 185z" />
<glyph unicode="~" d="M1154 634l24 -65q-5 -5 -14.5 -13t-38.5 -28t-56.5 -35.5t-63.5 -28.5t-66 -13q-41 0 -103.5 24.5t-116.5 54t-111 53.5t-88 24q-22 0 -52 -11.5t-58 -27.5t-53 -32.5t-39 -27.5l-15 -12l-24 69q5 4 14.5 12t38.5 27.5t56.5 34.5t63.5 27.5t66 12.5q41 0 103.5 -24 t116.5 -53t111 -53.5t88 -24.5q22 0 52 11.5t58 27.5t53 32.5t39 27.5z" />
<glyph unicode="&#xa1;" horiz-adv-x="402" d="M380 616l-242 -1042h-69l250 1042h61zM477 1065l-40 -177h-77l40 177h77z" />
<glyph unicode="&#xa2;" d="M556 -179l64 266q-361 0 -248 439q57 220 174.5 334t282.5 118l65 278h71l-66 -276q40 -2 97 -7.5t94 -9.5l36 -4l-20 -75q-190 21 -267 21q-146 0 -244.5 -101.5t-141.5 -277.5q-11 -46 -17.5 -81.5t-9 -75.5t3.5 -68.5t22 -56t43 -44.5t69.5 -27.5t100.5 -10.5 q42 0 113.5 4.5t121.5 8.5l50 4l-19 -73q-17 -2 -44.5 -4.5t-91.5 -6.5t-102 -3l-65 -271h-72z" />
<glyph unicode="&#xa3;" d="M1270 1423l-16 -64q-157 17 -274 17q-134 0 -200 -103q-41 -66 -83 -235q-3 -14 -10 -42l-2 -8l-29 -124h466l-16 -69h-467l-162 -724h360l173 33v-66l-173 -38h-660l16 71h205l165 724h-154l17 69h153l30 132q12 51 21 86.5t22 78t26 71.5t30.5 61.5t37 53.5t45.5 41.5 t56 32.5t67.5 19t81.5 7q53 0 121 -6t111 -12z" />
<glyph unicode="&#xa4;" d="M1095 104l-150 152q-99 -81 -227.5 -81t-227.5 81l-149 -152l-56 56l152 149q-81 99 -81 227.5t81 227.5l-152 150l56 55l149 -152q99 82 227.5 82t227.5 -82l150 152l55 -55l-151 -150q82 -99 82 -227.5t-82 -227.5l151 -149zM516 335q83 -81 202.5 -81t201.5 81 q82 83 82 202.5t-82 201.5t-201.5 82t-202.5 -82q-81 -82 -81 -201.5t81 -202.5z" />
<glyph unicode="&#xa5;" d="M305 707l16 71h346l-252 630h81l262 -662l567 662h98l-545 -630h334l-15 -71h-380l-35 -42l-47 -205h405l-18 -70h-404l-92 -390h-75l90 390h-411l18 70h408l49 209l-10 38h-390z" />
<glyph unicode="&#xa6;" horiz-adv-x="651" d="M411 1555h75v-801h-75v801zM411 311h75v-801h-75v801z" />
<glyph unicode="&#xa7;" horiz-adv-x="977" d="M1134 1376l-22 -77q-207 28 -303 28q-164 0 -250 -85.5t-86 -227.5q0 -27 4.5 -47t12 -35.5t22.5 -27.5t31 -20.5t43.5 -16t53.5 -12.5t67 -12q151 -24 215 -78.5t64 -136.5q0 -25 -5.5 -53.5t-14.5 -55t-20.5 -53.5t-24.5 -50.5t-25.5 -45.5t-24.5 -39t-20.5 -30 t-14.5 -20l-5 -6q24 -28 30 -54.5t6 -71.5q0 -25 -6 -56.5t-21 -71t-37.5 -78t-58 -76t-79.5 -65.5t-105 -45t-132 -17q-54 0 -137 7t-139 14l-56 7l24 76q217 -29 325 -29q65 0 121.5 21.5t95.5 55.5t67.5 77.5t41.5 87t13 83.5q0 48 -19 75.5t-69.5 46t-150.5 32.5 q-83 11 -140.5 32t-90 51t-46.5 65.5t-14 81.5q0 49 18 101.5t43.5 92t51 72.5t43.5 51l18 17q-23 35 -32.5 64t-9.5 88q0 50 12.5 98.5t37 92.5t62.5 81t85.5 64.5t110 42.5t133.5 15q55 0 131.5 -7t125.5 -14zM677 766q-68 12 -126 28t-72 29q-6 -6 -15.5 -16.5t-35 -42.5 t-45 -63t-35.5 -73t-16 -77q0 -52 20 -85.5t74.5 -57.5t150.5 -38q141 -20 203 -57q3 4 7.5 10.5t18.5 27t26.5 41.5t27.5 50.5t26 56t18.5 56.5t7.5 54q0 63 -53.5 100t-181.5 57z" />
<glyph unicode="&#xa8;" horiz-adv-x="1683" d="M553 1348l33 139h62l-32 -139h-63zM927 1348l28 139h61l-32 -139h-57z" />
<glyph unicode="&#xa9;" horiz-adv-x="1375" d="M358 925q0 116 41 220t112.5 180.5t173 121t216.5 44.5q77 0 149 -20t131.5 -57t109.5 -89t84 -114.5t53 -135.5t19 -150q0 -116 -42 -220.5t-114 -180t-173.5 -120t-216.5 -44.5t-216.5 44.5t-173 120t-112.5 180t-41 220.5zM426 925q0 -137 61 -250t170 -180t244 -67 q101 0 190 39.5t151.5 106t99 158t36.5 193t-36.5 193.5t-99 159t-151.5 106.5t-190 39.5t-190 -39.5t-151 -106.5t-98 -159t-36 -193zM1057 683l2 -67q-93 -18 -158 -18q-55 0 -96 15.5t-67 42.5t-41.5 69t-21.5 89t-6 108q0 52 4 92.5t13.5 78.5t26.5 66t42.5 49t62 31.5 t83.5 10.5q36 0 75.5 -3.5t60.5 -7.5l22 -3l-2 -69q-88 15 -156 15q-44 0 -74.5 -12t-48 -31t-26.5 -54.5t-12 -71t-3 -91.5q0 -42 3 -75t9.5 -63t18.5 -50.5t30 -36t43.5 -23t59.5 -7.5q26 0 65 4t65 8z" />
<glyph unicode="&#xaa;" horiz-adv-x="752" d="M846 1216l-68 -291q12 -34 65 -45l-16 -57q-39 1 -61.5 11.5t-43.5 34.5q-16 -5 -43.5 -12.5t-97.5 -20.5t-123 -13q-33 0 -58 11.5t-39 33.5t-18 53.5t6 70.5q20 79 66 117.5t132 44.5l217 15l14 49q11 45 5 72t-26 38.5t-58 11.5q-32 0 -88 -4t-96 -7l-40 -4l9 61 q151 18 229 18q93 0 124.5 -44.5t8.5 -143.5zM750 1108l-203 -13q-55 -3 -83.5 -28t-41.5 -79q-24 -100 60 -100q42 0 98.5 9.5t91.5 19.5l35 10z" />
<glyph unicode="&#xab;" horiz-adv-x="898" d="M947 833l-25 -87l-306 -216l199 -234l-23 -74l-264 292l17 47zM628 833l-25 -87l-307 -216l200 -234l-23 -74l-264 292l17 47z" />
<glyph unicode="&#xac;" d="M277 707h898v-439h-76v366h-822v73z" />
<glyph unicode="&#xad;" horiz-adv-x="815" d="M272 537l18 75h519l-19 -75h-518z" />
<glyph unicode="&#xae;" horiz-adv-x="1375" d="M358 925q0 116 41 220t112.5 180.5t173 121t216.5 44.5q77 0 149 -20t131.5 -57t109.5 -89t84 -114.5t53 -135.5t19 -150q0 -116 -42 -220.5t-114 -180t-173.5 -120t-216.5 -44.5t-216.5 44.5t-173 120t-112.5 180t-41 220.5zM426 925q0 -137 61 -250t170 -180t244 -67 q101 0 190 39.5t151.5 106t99 158t36.5 193t-36.5 193.5t-99 159t-151.5 106.5t-190 39.5t-190 -39.5t-151 -106.5t-98 -159t-36 -193zM1059 609l-134 247h-173v-247h-69v629h199q63 0 106.5 -9.5t74 -31.5t45 -58.5t14.5 -90.5q0 -51 -11.5 -87t-40 -61.5t-74.5 -37.5 l140 -253h-77zM752 1171v-249h170q72 0 102.5 28t30.5 98t-40.5 96.5t-130.5 26.5h-132z" />
<glyph unicode="&#xaf;" horiz-adv-x="902" d="M504 1378l14 55h539l-16 -55h-537z" />
<glyph unicode="&#xb0;" d="M586 1221q0 129 80 209t210 80q85 0 151 -36t102 -102t36 -151q0 -129 -80 -208.5t-209.5 -79.5t-209.5 79.5t-80 208.5zM658 1221q0 -99 59.5 -159t158.5 -60q65 0 115.5 27t78 77t27.5 115q0 99 -61 159.5t-160 60.5q-49 0 -90 -15.5t-69 -44.5t-43.5 -70t-15.5 -90z " />
<glyph unicode="&#xb1;" d="M224 656v72h430v294h76v-294h435v-72h-435v-307h-76v307h-430zM224 179h941v-73h-941v73z" />
<glyph unicode="&#xb2;" horiz-adv-x="595" d="M728 1018h-415l17 73l264 221q29 25 46.5 40t40.5 37.5t36.5 41.5t26 43t18.5 49q14 54 -13 80.5t-82 26.5q-33 0 -82.5 -6.5t-82.5 -13.5l-33 -6l13 70q117 27 206 27q196 0 151 -181q-18 -69 -66 -126t-139 -131l-203 -172h315z" />
<glyph unicode="&#xb3;" horiz-adv-x="595" d="M482 1679q119 22 215 22q105 0 144 -40t17 -129q-9 -34 -27 -63.5t-34.5 -46.5t-37.5 -31t-29.5 -18t-16.5 -7q24 -7 39 -14t29 -19.5t19 -29.5t4 -43.5t-9 -62.5q-17 -67 -54.5 -111.5t-89.5 -65.5t-121 -21q-46 0 -101.5 6t-87.5 12l-32 5l23 69q111 -20 217 -20 q68 0 109.5 33.5t54.5 90.5q35 130 -93 130h-138l16 72h138q38 0 84.5 40.5t59.5 94.5q7 32 1 53.5t-31 33t-71 11.5q-27 0 -58.5 -2t-57 -5t-47 -6t-33.5 -5l-12 -2z" />
<glyph unicode="&#xb4;" horiz-adv-x="1142" d="M630 1299l-10 53l432 203l13 -64z" />
<glyph unicode="&#xb5;" d="M113 -490l219 950l13 52l13 53l2 10l115 490h72l-114 -490h2l-35 -147q-20 -105 -20 -194q0 -87 48 -135t135 -48q38 0 81.5 17t82 44.5t76 60.5t67.5 66.5t53 61t36 44.5l12 17l165 703h74l-247 -1065h-75l55 240q-7 -10 -21 -27.5t-57 -62.5t-87 -79t-107 -62t-122 -28 q-81 0 -138.5 33.5t-84.5 95.5l-139 -600h-74z" />
<glyph unicode="&#xb6;" horiz-adv-x="1173" d="M827 0l336 1414h-305l-338 -1414h-73l181 744q-79 0 -140.5 23.5t-97.5 63.5t-54.5 88.5t-18.5 104.5q0 64 22.5 130.5t65 126.5t99 107.5t131 75t153.5 27.5h659l-16 -77h-195l-337 -1414h-72z" />
<glyph unicode="&#xb7;" horiz-adv-x="386" d="M285 575l38 177h82l-39 -177h-81z" />
<glyph unicode="&#xb8;" horiz-adv-x="1683" d="M1059 -264q-19 -85 -68.5 -122.5t-134.5 -37.5q-25 0 -51 1t-45 2t-34 2.5t-23 2.5l-8 1l16 66q88 -9 156 -9q49 0 78 21.5t41 72.5q11 50 -10.5 68.5t-63.5 18.5h-109l45 187h68l-32 -123h10q43 0 75.5 -8t57.5 -25.5t32.5 -46.5t-0.5 -71z" />
<glyph unicode="&#xb9;" horiz-adv-x="595" d="M449 1540l246 143h76l-164 -665h-77l145 582l-204 -120z" />
<glyph unicode="&#xba;" horiz-adv-x="721" d="M683 1402q181 0 181 -166q0 -61 -16 -139q-31 -141 -104.5 -211.5t-196.5 -70.5q-89 0 -136 45t-47 132q0 53 16 120q25 104 64.5 167.5t97 93t141.5 29.5zM563 892q86 0 134.5 50t77.5 170q13 58 13 109q0 57 -28 80.5t-91 23.5q-88 0 -137.5 -48t-78.5 -165 q-14 -60 -14 -106q0 -40 13.5 -65t41 -37t69.5 -12z" />
<glyph unicode="&#xbb;" horiz-adv-x="1030" d="M648 222l25 87l307 215l-200 234l23 75l264 -292l-17 -47zM196 222l26 87l306 215l-200 234l24 75l264 -292l-18 -47z" />
<glyph unicode="&#xbc;" horiz-adv-x="1207" d="M407 1540l245 143h76l-163 -665h-77l144 582l-204 -120zM309 -2l-71 28l906 1465l70 -30zM986 0l30 122h-311l17 67l307 476h85l-303 -472h222l47 187h76l-46 -187h79l-18 -71h-78l-30 -122h-77z" />
<glyph unicode="&#xbd;" horiz-adv-x="1270" d="M407 1540l245 143h76l-163 -665h-77l144 582l-204 -120zM309 -2l-71 28l906 1465l70 -30zM1182 0h-416l18 73l264 221q36 30 58 50t47 47t40 55t23 58q13 55 -14 81.5t-82 26.5q-32 0 -81.5 -6.5t-82.5 -13.5l-34 -6l13 70q118 27 207 27q196 0 151 -181q-7 -24 -17 -47 t-24.5 -44.5t-30.5 -41t-38 -41t-43.5 -40.5t-50.5 -43l-205 -172h315z" />
<glyph unicode="&#xbe;" horiz-adv-x="1264" d="M370 -2l-69 28l904 1465l71 -30zM496 1679q120 22 215 22q105 0 145 -40t18 -129q-9 -34 -27 -63t-34 -45.5t-37.5 -31t-29.5 -18.5t-18 -8q24 -7 39 -14.5t28.5 -20t19 -29.5t4.5 -43.5t-10 -61.5q-25 -100 -93 -149t-171 -49q-46 0 -101.5 6t-87.5 12l-33 5l24 69 q112 -20 218 -20q67 0 108.5 33.5t54.5 90.5q35 130 -94 130h-138l18 72h138q18 0 39.5 10.5t42 28.5t37.5 43.5t24 52.5q11 50 -11 74t-89 24q-44 0 -96 -5t-83 -10l-30 -5zM1048 0l29 122h-311l18 67l307 476h84l-301 -472h221l47 187h76l-47 -187h79l-17 -71h-79 l-30 -122h-76z" />
<glyph unicode="&#xbf;" horiz-adv-x="832" d="M45 -201q0 42 3 76t14 67t22.5 59t36 58t47.5 57t65.5 62.5t80 69t99.5 82.5q166 135 188 253l17 84h73q-6 -47 -14 -92q-15 -79 -69.5 -152t-156.5 -155q-69 -56 -111.5 -93t-83.5 -77.5t-62.5 -71t-38.5 -67.5t-23 -74.5t-6 -85.5q0 -169 256 -169q51 0 128 11.5 t129 23.5l52 12v-69q-21 -6 -56 -14.5t-120.5 -22.5t-146.5 -14q-56 0 -103.5 8t-88.5 26.5t-69.5 46t-45 68.5t-16.5 93zM762 1065l-36 -175h-78l37 175h77z" />
<glyph unicode="&#xc0;" horiz-adv-x="1183" d="M746 1953l340 -207l-31 -47l-346 197zM69 0l789 1491h190l80 -1491h-76l-26 460h-636l-243 -460h-78zM901 1421l-473 -893h594l-44 893h-77z" />
<glyph unicode="&#xc1;" horiz-adv-x="1183" d="M876 1699l-18 54l435 204l19 -61zM69 0l789 1491h190l80 -1491h-76l-26 460h-636l-243 -460h-78zM901 1421l-473 -893h594l-44 893h-77z" />
<glyph unicode="&#xc2;" horiz-adv-x="1183" d="M691 1711l331 272h30l206 -272h-71l-156 206l-253 -206h-87zM69 0l789 1491h190l80 -1491h-76l-26 460h-636l-243 -460h-78zM901 1421l-473 -893h594l-44 893h-77z" />
<glyph unicode="&#xc3;" horiz-adv-x="1183" d="M1331 1921l9 -53q-6 -5 -15.5 -13.5t-35.5 -29t-49.5 -37t-50 -29.5t-43.5 -13q-29 0 -72.5 21.5t-80.5 47t-76 46.5t-59 21q-12 0 -36 -12t-49.5 -29t-49.5 -34t-39 -29l-15 -12l-2 59q3 3 8 7.5t21 17t31.5 24t37 25.5t39.5 24t37 17t33 7q30 0 73.5 -21t80 -46t75 -46 t60.5 -21q16 0 58 27t76 54zM69 0l789 1491h190l80 -1491h-76l-26 460h-636l-243 -460h-78zM901 1421l-473 -893h594l-44 893h-77z" />
<glyph unicode="&#xc4;" horiz-adv-x="1183" d="M773 1770l30 140h64l-36 -140h-58zM1154 1770l35 140h61l-34 -140h-62zM69 0l789 1491h190l80 -1491h-76l-26 460h-636l-243 -460h-78zM901 1421l-473 -893h594l-44 893h-77z" />
<glyph unicode="&#xc5;" horiz-adv-x="1183" d="M69 0l766 1447q-72 46 -40 161q25 93 84.5 141.5t144.5 48.5t123.5 -47.5t15.5 -142.5q-29 -112 -113 -159l78 -1449h-76l-26 460h-636l-243 -460h-78zM901 1421l-473 -893h594l-44 893h-45h-8h-24zM850 1608q-10 -42 1 -73.5t43 -43.5h114q77 26 100 117 q12 59 -12.5 93.5t-85.5 34.5t-103 -33t-57 -95z" />
<glyph unicode="&#xc6;" horiz-adv-x="1697" d="M792 0l104 458h-510l-244 -458h-73l787 1491h1089l-13 -70l-731 4l-151 -624h611l-13 -71h-611l-155 -659h726l-13 -71h-803zM890 1421l-471 -895h493l216 895h-238z" />
<glyph unicode="&#xc7;" horiz-adv-x="1085" d="M1010 94l-2 -70q-21 -5 -56.5 -12t-129.5 -19t-170 -12h-4l-24 -94h10q43 0 75.5 -8t57.5 -25.5t32.5 -46.5t-0.5 -71q-19 -85 -68.5 -122.5t-134.5 -37.5q-18 0 -37 0.5t-34.5 1t-29.5 1.5t-25 2t-19 2t-12 2h-4l16 66q88 -9 156 -9q49 0 78 21.5t41 72.5 q11 50 -10.5 68.5t-63.5 18.5h-109l38 162q-323 36 -323 420q0 98 14.5 203.5t44.5 213.5t73.5 208t105.5 187.5t135.5 152.5t168.5 102.5t199 37.5q73 0 160 -10t137 -20l50 -10l-17 -68q-186 35 -339 35q-90 0 -172.5 -35t-147 -95.5t-119 -142.5t-93 -175.5t-66 -194.5 t-40.5 -199.5t-13 -189.5q0 -180 77.5 -266t245.5 -86q76 0 163 10t136 20z" />
<glyph unicode="&#xc8;" horiz-adv-x="1085" d="M833 1953l340 -207l-31 -47l-345 197zM183 0l345 1491h803l-16 -70h-727l-143 -620h607l-17 -71h-607l-151 -659h727l-18 -71h-803z" />
<glyph unicode="&#xc9;" horiz-adv-x="1085" d="M841 1699l-16 54l433 204l20 -61zM183 0l345 1491h803l-16 -70h-727l-143 -620h607l-17 -71h-607l-151 -659h727l-18 -71h-803z" />
<glyph unicode="&#xca;" horiz-adv-x="1085" d="M846 1699l332 273h29l207 -273h-72l-155 207l-254 -207h-87zM183 0l345 1491h803l-16 -70h-727l-143 -620h607l-17 -71h-607l-151 -659h727l-18 -71h-803z" />
<glyph unicode="&#xcb;" horiz-adv-x="1085" d="M771 1770l30 140h63l-35 -140h-58zM1152 1770l35 140h61l-34 -140h-62zM183 0l345 1491h803l-16 -70h-727l-143 -620h607l-17 -71h-607l-151 -659h727l-18 -71h-803z" />
<glyph unicode="&#xcc;" horiz-adv-x="442" d="M362 1953l341 -207l-32 -47l-345 197zM183 0l345 1491h77l-345 -1491h-77z" />
<glyph unicode="&#xcd;" horiz-adv-x="442" d="M522 1699l-18 54l435 204l20 -61zM183 0l345 1491h77l-345 -1491h-77z" />
<glyph unicode="&#xce;" horiz-adv-x="442" d="M321 1699l333 273h29l207 -273h-73l-155 207l-253 -207h-88zM183 0l345 1491h77l-345 -1491h-77z" />
<glyph unicode="&#xcf;" horiz-adv-x="442" d="M390 1770l29 140h65l-37 -140h-57zM771 1770l34 140h62l-34 -140h-62zM183 0l345 1491h77l-345 -1491h-77z" />
<glyph unicode="&#xd0;" horiz-adv-x="1298" d="M693 0h-506l165 707h-163l16 81h165l162 703h486q194 0 278 -106t84 -330q0 -82 -10.5 -169.5t-30.5 -177.5t-52 -176.5t-73 -165.5t-96 -146t-118 -116t-142 -76.5t-165 -27.5zM1299 1055q0 191 -67 278.5t-228 87.5h-412l-145 -633h345l-19 -81h-345l-145 -636h428 q80 0 153 33.5t131 91.5t107.5 136.5t85.5 168t61 185t37.5 189t12.5 180.5z" />
<glyph unicode="&#xd1;" horiz-adv-x="1313" d="M1408 1917l8 -53q-5 -5 -14.5 -13.5t-35.5 -29.5t-49.5 -37t-50 -29t-43.5 -13q-24 0 -56.5 14t-64.5 34t-63 40t-59 34t-45 14q-12 0 -36 -12t-49.5 -29t-49.5 -34t-39 -29l-15 -12l-2 59q5 5 15 13t38 29t52.5 37t53 29.5t47.5 13.5q30 0 73.5 -21t80 -46.5t75.5 -46 t61 -20.5q16 0 58 27t76 54zM183 0l345 1491h173l319 -1420h51l329 1420h76l-346 -1491h-167l-322 1421h-53l-328 -1421h-77z" />
<glyph unicode="&#xd2;" horiz-adv-x="1354" d="M903 1953l341 -207l-32 -47l-345 197zM709 51q160 0 290 96q90 66 160 175.5t111.5 236t63 257.5t21.5 257q0 189 -89.5 277.5t-279.5 88.5q-144 0 -270 -91q-91 -67 -165 -178.5t-119 -239t-69 -260t-24 -253.5q0 -199 84.5 -282.5t285.5 -83.5zM709 -19 q-124 0 -207.5 23t-138.5 76t-79 135t-24 204q0 176 39 349t117.5 327t186.5 255q170 160 383 160q227 0 338 -107t111 -332q0 -137 -22.5 -273t-65.5 -262t-112 -235t-155 -183q-163 -137 -371 -137z" />
<glyph unicode="&#xd3;" horiz-adv-x="1354" d="M709 51q160 0 290 96q90 66 160 175.5t111.5 236t63 257.5t21.5 257q0 189 -89.5 277.5t-279.5 88.5q-144 0 -270 -91q-91 -67 -165 -178.5t-119 -239t-69 -260t-24 -253.5q0 -199 84.5 -282.5t285.5 -83.5zM709 -19q-124 0 -207.5 23t-138.5 76t-79 135t-24 204 q0 176 39 349t117.5 327t186.5 255q170 160 383 160q227 0 338 -107t111 -332q0 -137 -22.5 -273t-65.5 -262t-112 -235t-155 -183q-163 -137 -371 -137zM957 1699l-18 54l435 204l19 -61z" />
<glyph unicode="&#xd4;" horiz-adv-x="1354" d="M709 51q160 0 290 96q90 66 160 175.5t111.5 236t63 257.5t21.5 257q0 189 -89.5 277.5t-279.5 88.5q-144 0 -270 -91q-91 -67 -165 -178.5t-119 -239t-69 -260t-24 -253.5q0 -199 84.5 -282.5t285.5 -83.5zM709 -19q-124 0 -207.5 23t-138.5 76t-79 135t-24 204 q0 176 39 349t117.5 327t186.5 255q170 160 383 160q227 0 338 -107t111 -332q0 -137 -22.5 -273t-65.5 -262t-112 -235t-155 -183q-163 -137 -371 -137zM792 1711l332 272h30l207 -272h-72l-155 206l-254 -206h-88z" />
<glyph unicode="&#xd5;" horiz-adv-x="1354" d="M1445 1917l8 -53q-6 -5 -15.5 -13.5t-36 -29.5t-49.5 -37t-50 -29t-44 -13q-28 0 -71.5 21.5t-80.5 47t-75.5 46.5t-59.5 21q-19 0 -66 -29t-85 -58l-38 -29l-2 59q6 5 15.5 13t37.5 29t52.5 37t53.5 29.5t47 13.5q30 0 73.5 -21t80.5 -46.5t75.5 -46t60.5 -20.5 q16 0 58 27t77 54zM709 51q160 0 290 96q90 66 160 175.5t111.5 236t63 257.5t21.5 257q0 189 -89.5 277.5t-279.5 88.5q-144 0 -270 -91q-91 -67 -165 -178.5t-119 -239t-69 -260t-24 -253.5q0 -199 84.5 -282.5t285.5 -83.5zM709 -19q-124 0 -207.5 23t-138.5 76t-79 135 t-24 204q0 176 39 349t117.5 327t186.5 255q170 160 383 160q227 0 338 -107t111 -332q0 -137 -22.5 -273t-65.5 -262t-112 -235t-155 -183q-163 -137 -371 -137z" />
<glyph unicode="&#xd6;" horiz-adv-x="1354" d="M860 1774l32 139h73l-32 -139h-73zM1244 1774l28 139h72l-32 -139h-68zM709 51q160 0 290 96q90 66 160 175.5t111.5 236t63 257.5t21.5 257q0 189 -89.5 277.5t-279.5 88.5q-144 0 -270 -91q-91 -67 -165 -178.5t-119 -239t-69 -260t-24 -253.5q0 -199 84.5 -282.5 t285.5 -83.5zM709 -19q-124 0 -207.5 23t-138.5 76t-79 135t-24 204q0 176 39 349t117.5 327t186.5 255q170 160 383 160q227 0 338 -107t111 -332q0 -137 -22.5 -273t-65.5 -262t-112 -235t-155 -183q-163 -137 -371 -137z" />
<glyph unicode="&#xd7;" d="M345 959l373 -376l373 376l51 -52l-376 -372l376 -373l-51 -52l-373 376l-373 -376l-51 52l375 373l-375 372z" />
<glyph unicode="&#xd8;" horiz-adv-x="1354" d="M226 -234l-58 33l192 282q-53 52 -76.5 134t-23.5 204q0 176 39 349t117.5 327t186.5 255q170 160 383 160q189 0 296 -75l171 250l63 -30l-181 -265q100 -110 100 -319q0 -137 -22.5 -273t-65.5 -262t-112 -235t-155 -183q-163 -137 -371 -137q-193 0 -296 60zM407 151 l402 591l431 630q-90 67 -254 67q-144 0 -270 -91q-91 -67 -165 -178.5t-119 -239t-69 -260t-24 -253.5q0 -181 68 -266zM709 51q160 0 290 96q90 66 160 175.5t111.5 236t63 257.5t21.5 257q0 162 -66 250l-417 -616l-414 -601q85 -55 251 -55z" />
<glyph unicode="&#xd9;" horiz-adv-x="1262" d="M841 1953l341 -207l-32 -47l-345 197zM594 1491l-242 -1050q-22 -93 -22 -164q0 -114 88 -169t249 -55q192 0 296 91.5t147 277.5l247 1069h76l-246 -1072q-26 -109 -66 -188t-102.5 -136t-151 -85.5t-205.5 -28.5q-192 0 -300 73t-108 221q0 81 21 166l243 1050h76z" />
<glyph unicode="&#xda;" horiz-adv-x="1262" d="M594 1491l-242 -1050q-22 -93 -22 -164q0 -114 88 -169t249 -55q192 0 296 91.5t147 277.5l247 1069h76l-246 -1072q-26 -109 -66 -188t-102.5 -136t-151 -85.5t-205.5 -28.5q-192 0 -300 73t-108 221q0 81 21 166l243 1050h76zM856 1699l-17 54l435 204l19 -61z" />
<glyph unicode="&#xdb;" horiz-adv-x="1262" d="M594 1491l-242 -1050q-22 -93 -22 -164q0 -114 88 -169t249 -55q192 0 296 91.5t147 277.5l247 1069h76l-246 -1072q-26 -109 -66 -188t-102.5 -136t-151 -85.5t-205.5 -28.5q-192 0 -300 73t-108 221q0 81 21 166l243 1050h76zM724 1711l333 272h29l207 -272h-72 l-156 206l-254 -206h-87z" />
<glyph unicode="&#xdc;" horiz-adv-x="1262" d="M790 1774l33 139h71l-32 -139h-72zM1173 1774l28 139h73l-32 -139h-69zM594 1491l-242 -1050q-22 -93 -22 -164q0 -114 88 -169t249 -55q192 0 296 91.5t147 277.5l247 1069h76l-246 -1072q-26 -109 -66 -188t-102.5 -136t-151 -85.5t-205.5 -28.5q-192 0 -300 73 t-108 221q0 81 21 166l243 1050h76z" />
<glyph unicode="&#xdd;" horiz-adv-x="1032" d="M733 1699l-17 54l434 204l19 -61zM1335 1491l-640 -850l-150 -641h-76l151 656l-240 835h76l219 -769l575 769h85z" />
<glyph unicode="&#xde;" horiz-adv-x="1183" d="M769 354q59 0 111 15t93.5 44t76 67t61 87t47 101.5t35.5 113.5q96 383 -248 383h-413l-191 -811h428zM752 285h-429l-65 -285h-77l349 1491h77l-60 -258h416q406 0 309 -451q-24 -109 -67 -197.5t-106 -156.5t-151.5 -105.5t-195.5 -37.5z" />
<glyph unicode="&#xdf;" horiz-adv-x="1111" d="M228 0h-72l266 1140q56 238 154 336t282 98q301 0 301 -222q0 -66 -16 -120t-46.5 -94.5t-66.5 -69t-85 -54.5q-64 -34 -97 -56t-50.5 -45.5t-17.5 -50.5q0 -44 23.5 -72t103.5 -77q34 -20 54.5 -33t44.5 -30t37 -29t27.5 -28.5t21.5 -32t13.5 -35.5t8.5 -42.5t2 -49.5 q0 -207 -127 -329.5t-357 -122.5q-19 0 -42 1.5t-43.5 4.5l-41 6t-36.5 6t-29 5.5t-20 4.5l-7 1l11 69q134 -30 217 -30q185 0 291.5 103t106.5 279q0 75 -35 118.5t-148 112.5q-87 54 -119 95t-32 95q0 69 42 112t169 111q83 45 124.5 108t41.5 159q0 84 -52 124t-174 40 q-82 0 -140 -20t-100.5 -67t-71 -114.5t-52.5 -170.5z" />
<glyph unicode="&#xe0;" horiz-adv-x="1026" d="M458 -19q-255 0 -255 271q0 90 16 186t46 189t76.5 175.5t104 145.5t132.5 99.5t157 36.5q54 0 147.5 -11t159.5 -21l66 -11l-163 -694q-14 -60 -29.5 -146.5t-23.5 -142.5l-8 -56l-71 -4q37 222 47 270q-4 -6 -12 -16t-33 -40t-51 -57t-64.5 -60t-75.5 -57t-81.5 -40.5 t-84.5 -16.5zM735 1016q-62 0 -119 -26t-101.5 -71t-83 -105.5t-66 -129.5t-46.5 -143.5t-28.5 -148t-9.5 -140.5q0 -100 45 -150.5t147 -50.5q27 0 58 11.5t61 31t61 45t59 53t54 55.5t47 53.5t36.5 45t23.5 30.5l9 12l138 596q-155 32 -285 32zM703 1536l341 -203l-38 -47 l-341 196z" />
<glyph unicode="&#xe1;" horiz-adv-x="1026" d="M458 -19q-255 0 -255 271q0 90 16 186t46 189t76.5 175.5t104 145.5t132.5 99.5t157 36.5q54 0 147.5 -11t159.5 -21l66 -11l-163 -694q-14 -60 -29.5 -146.5t-23.5 -142.5l-8 -56l-71 -4q37 222 47 270q-4 -6 -12 -16t-33 -40t-51 -57t-64.5 -60t-75.5 -57t-81.5 -40.5 t-84.5 -16.5zM735 1016q-62 0 -119 -26t-101.5 -71t-83 -105.5t-66 -129.5t-46.5 -143.5t-28.5 -148t-9.5 -140.5q0 -100 45 -150.5t147 -50.5q27 0 58 11.5t61 31t61 45t59 53t54 55.5t47 53.5t36.5 45t23.5 30.5l9 12l138 596q-155 32 -285 32zM730 1299l-10 53l432 203 l13 -64z" />
<glyph unicode="&#xe2;" horiz-adv-x="1026" d="M553 1268l311 287h48l185 -287h-81l-136 214l-234 -214h-93zM458 -19q-255 0 -255 271q0 90 16 186t46 189t76.5 175.5t104 145.5t132.5 99.5t157 36.5q54 0 147.5 -11t159.5 -21l66 -11l-163 -694q-14 -60 -29.5 -146.5t-23.5 -142.5l-8 -56l-71 -4q37 222 47 270 q-4 -6 -12 -16t-33 -40t-51 -57t-64.5 -60t-75.5 -57t-81.5 -40.5t-84.5 -16.5zM735 1016q-62 0 -119 -26t-101.5 -71t-83 -105.5t-66 -129.5t-46.5 -143.5t-28.5 -148t-9.5 -140.5q0 -100 45 -150.5t147 -50.5q27 0 58 11.5t61 31t61 45t59 53t54 55.5t47 53.5t36.5 45 t23.5 30.5l9 12l138 596q-155 32 -285 32z" />
<glyph unicode="&#xe3;" horiz-adv-x="1026" d="M458 -19q-255 0 -255 271q0 90 16 186t46 189t76.5 175.5t104 145.5t132.5 99.5t157 36.5q54 0 147.5 -11t159.5 -21l66 -11l-163 -694q-14 -60 -29.5 -146.5t-23.5 -142.5l-8 -56l-71 -4q37 222 47 270q-4 -6 -12 -16t-33 -40t-51 -57t-64.5 -60t-75.5 -57t-81.5 -40.5 t-84.5 -16.5zM735 1016q-62 0 -119 -26t-101.5 -71t-83 -105.5t-66 -129.5t-46.5 -143.5t-28.5 -148t-9.5 -140.5q0 -100 45 -150.5t147 -50.5q27 0 58 11.5t61 31t61 45t59 53t54 55.5t47 53.5t36.5 45t23.5 30.5l9 12l138 596q-155 32 -285 32zM1180 1498l11 -65 q-12 -10 -31.5 -25.5t-64.5 -40.5t-73 -25q-30 0 -85.5 27t-108 54.5t-76.5 27.5q-18 0 -58.5 -24t-72.5 -48l-31 -24l-4 66q13 11 35.5 27t73 43t78.5 27q31 0 85 -27t104 -54t73 -27q16 0 52.5 22t64.5 44z" />
<glyph unicode="&#xe4;" horiz-adv-x="1026" d="M601 1348l31 139h73l-32 -139h-72zM984 1348l28 139h72l-32 -139h-68zM458 -19q-255 0 -255 271q0 90 16 186t46 189t76.5 175.5t104 145.5t132.5 99.5t157 36.5q54 0 147.5 -11t159.5 -21l66 -11l-163 -694q-14 -60 -29.5 -146.5t-23.5 -142.5l-8 -56l-71 -4 q37 222 47 270q-4 -6 -12 -16t-33 -40t-51 -57t-64.5 -60t-75.5 -57t-81.5 -40.5t-84.5 -16.5zM735 1016q-62 0 -119 -26t-101.5 -71t-83 -105.5t-66 -129.5t-46.5 -143.5t-28.5 -148t-9.5 -140.5q0 -100 45 -150.5t147 -50.5q27 0 58 11.5t61 31t61 45t59 53t54 55.5 t47 53.5t36.5 45t23.5 30.5l9 12l138 596q-155 32 -285 32z" />
<glyph unicode="&#xe5;" horiz-adv-x="1026" d="M458 -19q-255 0 -255 271q0 90 16 186t46 189t76.5 175.5t104 145.5t132.5 99.5t157 36.5q54 0 147.5 -11t159.5 -21l66 -11l-163 -694q-14 -60 -29.5 -146.5t-23.5 -142.5l-8 -56l-71 -4q37 222 47 270q-4 -6 -12 -16t-33 -40t-51 -57t-64.5 -60t-75.5 -57t-81.5 -40.5 t-84.5 -16.5zM735 1016q-62 0 -119 -26t-101.5 -71t-83 -105.5t-66 -129.5t-46.5 -143.5t-28.5 -148t-9.5 -140.5q0 -100 45 -150.5t147 -50.5q27 0 58 11.5t61 31t61 45t59 53t54 55.5t47 53.5t36.5 45t23.5 30.5l9 12l138 596q-155 32 -285 32zM724 1421q13 78 77 135.5 t154 57.5q67 0 102.5 -38.5t35.5 -110.5q0 -101 -68.5 -169.5t-164.5 -68.5q-87 0 -119 52.5t-17 141.5zM784 1421q-11 -51 14 -91.5t78 -40.5t96.5 38t56.5 94q11 49 -13.5 88.5t-76.5 39.5q-36 0 -69 -17.5t-56 -46.5t-30 -64z" />
<glyph unicode="&#xe6;" horiz-adv-x="1644" d="M1144 57q64 0 157 5t154 10l61 5l-14 -77q-231 -19 -376 -19q-195 0 -257 123q-120 -47 -269 -85t-251 -38q-55 0 -95 17.5t-63 46.5t-34 69.5t-10.5 85t9.5 94.5q11 62 36.5 110.5t60 81t83.5 56.5t101 38t119 23q182 25 340 38q9 27 14.5 44t13.5 49t11 54.5t4 52.5 t-4 51t-16.5 43.5t-30.5 36.5t-48.5 23t-68.5 9q-66 0 -161 -5t-157 -10l-63 -5l12 79q226 21 386 21q99 0 162 -53.5t66 -148.5q138 202 398 202q145 0 218.5 -69.5t73.5 -219.5q0 -108 -30 -222l-19 -75l-702 4q-33 -147 -33 -221q0 -55 11.5 -95.5t37 -70t68.5 -44 t105 -14.5zM368 57q62 0 158 20.5t174 44.5t150 51q-5 23 -7.5 49.5t-3.5 46t2.5 51.5t4.5 45.5t8.5 52t9 47t11.5 53.5t11 49q-257 -27 -377 -47q-110 -19 -175 -71.5t-92 -154.5q-10 -41 -10.5 -80.5t11 -75.5t43.5 -58.5t82 -22.5zM969 575l626 -4q35 122 35 213 q0 60 -15 102.5t-44.5 69.5t-72.5 39.5t-101 12.5q-160 0 -266.5 -102t-161.5 -331z" />
<glyph unicode="&#xe7;" horiz-adv-x="858" d="M773 1084q46 0 104 -6t94 -11l35 -6l-20 -67q-122 22 -213 22q-98 0 -179 -41.5t-136.5 -112t-93.5 -165t-56 -199.5t-18 -217q0 -116 60.5 -174t196.5 -58q35 0 96.5 10t105.5 20l43 10v-68q-5 -2 -15.5 -4.5t-41.5 -9.5t-61 -12t-70 -9.5t-74 -4.5h-21l-23 -94h10 q43 0 75.5 -8t57.5 -25.5t32 -46.5t-1 -71q-12 -57 -39.5 -93t-67 -51.5t-95.5 -15.5q-25 0 -51 1t-45 2t-34.5 2.5t-23.5 2.5l-8 1l17 66q88 -9 156 -9q48 0 77.5 21.5t41.5 72.5q11 50 -10.5 68.5t-63.5 18.5h-109l38 165q-120 17 -176 89.5t-56 197.5q0 123 21 239 t66 220t110 181.5t158.5 123t206.5 45.5z" />
<glyph unicode="&#xe8;" horiz-adv-x="962" d="M522 53q73 0 160.5 15.5t138.5 31.5l51 15v-70q-21 -7 -56.5 -17.5t-132.5 -28.5t-179 -18q-136 0 -216.5 77t-80.5 221q0 90 15.5 183t45 183.5t77.5 169.5t109 139t143.5 95t177.5 35q130 0 203.5 -54.5t73.5 -165.5q0 -75 -25 -131t-72.5 -94t-122.5 -62t-167.5 -34.5 t-213.5 -10.5h-134q-32 -132 -32 -238q0 -115 63.5 -178t173.5 -63zM332 601h139q104 0 180 7t139.5 24.5t103 47t61 75t21.5 107.5q0 54 -24 88.5t-68.5 50t-110.5 15.5q-87 0 -158.5 -30.5t-124 -88t-91 -130t-67.5 -166.5zM545 1536l341 -203l-38 -47l-342 196z" />
<glyph unicode="&#xe9;" horiz-adv-x="962" d="M522 53q73 0 160.5 15.5t138.5 31.5l51 15v-70q-21 -7 -56.5 -17.5t-132.5 -28.5t-179 -18q-136 0 -216.5 77t-80.5 221q0 90 15.5 183t45 183.5t77.5 169.5t109 139t143.5 95t177.5 35q130 0 203.5 -54.5t73.5 -165.5q0 -75 -25 -131t-72.5 -94t-122.5 -62t-167.5 -34.5 t-213.5 -10.5h-134q-32 -132 -32 -238q0 -115 63.5 -178t173.5 -63zM332 601h139q104 0 180 7t139.5 24.5t103 47t61 75t21.5 107.5q0 54 -24 88.5t-68.5 50t-110.5 15.5q-87 0 -158.5 -30.5t-124 -88t-91 -130t-67.5 -166.5zM667 1299l-11 53l433 203l12 -64z" />
<glyph unicode="&#xea;" horiz-adv-x="962" d="M518 1268l311 287h47l185 -287h-81l-137 214l-234 -214h-91zM522 53q73 0 160.5 15.5t138.5 31.5l51 15v-70q-21 -7 -56.5 -17.5t-132.5 -28.5t-179 -18q-136 0 -216.5 77t-80.5 221q0 90 15.5 183t45 183.5t77.5 169.5t109 139t143.5 95t177.5 35q130 0 203.5 -54.5 t73.5 -165.5q0 -75 -25 -131t-72.5 -94t-122.5 -62t-167.5 -34.5t-213.5 -10.5h-134q-32 -132 -32 -238q0 -115 63.5 -178t173.5 -63zM332 601h139q104 0 180 7t139.5 24.5t103 47t61 75t21.5 107.5q0 54 -24 88.5t-68.5 50t-110.5 15.5q-87 0 -158.5 -30.5t-124 -88 t-91 -130t-67.5 -166.5z" />
<glyph unicode="&#xeb;" horiz-adv-x="962" d="M598 1348l32 139h73l-32 -139h-73zM982 1348l28 139h72l-32 -139h-68zM522 53q73 0 160.5 15.5t138.5 31.5l51 15v-70q-21 -7 -56.5 -17.5t-132.5 -28.5t-179 -18q-136 0 -216.5 77t-80.5 221q0 90 15.5 183t45 183.5t77.5 169.5t109 139t143.5 95t177.5 35 q130 0 203.5 -54.5t73.5 -165.5q0 -75 -25 -131t-72.5 -94t-122.5 -62t-167.5 -34.5t-213.5 -10.5h-134q-32 -132 -32 -238q0 -115 63.5 -178t173.5 -63zM332 601h139q104 0 180 7t139.5 24.5t103 47t61 75t21.5 107.5q0 54 -24 88.5t-68.5 50t-110.5 15.5 q-87 0 -158.5 -30.5t-124 -88t-91 -130t-67.5 -166.5z" />
<glyph unicode="&#xec;" horiz-adv-x="386" d="M156 0l246 1065h75l-247 -1065h-74zM209 1536l340 -203l-37 -47l-341 196z" />
<glyph unicode="&#xed;" horiz-adv-x="386" d="M156 0l246 1065h75l-247 -1065h-74zM431 1299l-12 53l433 203l12 -64z" />
<glyph unicode="&#xee;" horiz-adv-x="386" d="M201 1268l311 287h46l186 -287h-82l-136 214l-234 -214h-91zM156 0l246 1065h75l-247 -1065h-74z" />
<glyph unicode="&#xef;" horiz-adv-x="386" d="M240 1348l32 139h73l-32 -139h-73zM624 1348l28 139h72l-31 -139h-69zM156 0l246 1065h75l-247 -1065h-74z" />
<glyph unicode="&#xf0;" horiz-adv-x="1085" d="M874 1344l-273 -164l-34 60l242 146q-106 64 -234 110l41 71q158 -54 272 -132l238 146l35 -63l-214 -128q287 -238 199 -624q-50 -211 -114.5 -363t-143 -244t-167.5 -135t-195 -43q-94 0 -163.5 25t-109 68.5t-58 96.5t-18.5 116q0 94 20.5 179.5t57.5 153t88 122 t111 90.5t128 55.5t138 19.5t159.5 -23.5t143.5 -46.5l54 -24q56 332 -203 531zM707 827q-123 0 -225 -69.5t-161 -191.5t-59 -270q0 -107 70.5 -171t210.5 -64q79 0 147.5 33.5t122.5 91.5t100.5 143.5t81.5 183t66 217.5q-12 7 -63.5 28t-139 45t-151.5 24z" />
<glyph unicode="&#xf1;" horiz-adv-x="1038" d="M156 0h74l164 703q5 7 13 18t34.5 43.5t54 61.5t67 65t77 62t81 43.5t82.5 17.5q59 0 100.5 -21.5t62 -62.5t20.5 -99q0 -111 -41 -282l-128 -549h73l130 553q41 185 41 284q0 115 -65.5 181t-180.5 66q-42 0 -87 -14.5t-82.5 -37.5t-72.5 -50.5t-62 -55t-47.5 -50.5 t-30.5 -37l-11 -14l55 240h-75zM1142 1498l10 -65q-12 -10 -31.5 -25.5t-64.5 -40.5t-72 -25q-31 0 -86 27t-107.5 54.5t-77.5 27.5q-18 0 -58.5 -24t-71.5 -48l-32 -24l-4 66q5 4 14 10.5t34 23.5t47 29.5t49 23t44 10.5q32 0 85.5 -27t103.5 -54t72 -27q16 0 52.5 22 t65.5 44z" />
<glyph unicode="&#xf2;" horiz-adv-x="1049" d="M744 1084q166 0 251 -85t85 -249q0 -160 -39.5 -301.5t-109.5 -244.5t-172.5 -163t-221.5 -60q-165 0 -245.5 77t-80.5 238q0 163 41 309t111.5 251t169.5 166.5t211 61.5zM537 49q103 0 191 55.5t148 150.5t94 223.5t34 271.5q0 122 -65.5 194t-194.5 72 q-99 0 -185.5 -58.5t-145 -157t-92.5 -230t-34 -274.5q0 -80 27 -135t83 -83.5t140 -28.5zM603 1536l340 -203l-38 -47l-340 196z" />
<glyph unicode="&#xf3;" horiz-adv-x="1049" d="M744 1084q166 0 251 -85t85 -249q0 -160 -39.5 -301.5t-109.5 -244.5t-172.5 -163t-221.5 -60q-165 0 -245.5 77t-80.5 238q0 163 41 309t111.5 251t169.5 166.5t211 61.5zM537 49q103 0 191 55.5t148 150.5t94 223.5t34 271.5q0 122 -65.5 194t-194.5 72 q-99 0 -185.5 -58.5t-145 -157t-92.5 -230t-34 -274.5q0 -80 27 -135t83 -83.5t140 -28.5zM671 1299l-11 53l433 203l13 -64z" />
<glyph unicode="&#xf4;" horiz-adv-x="1049" d="M551 1268l311 287h47l186 -287h-81l-136 214l-235 -214h-92zM744 1084q166 0 251 -85t85 -249q0 -160 -39.5 -301.5t-109.5 -244.5t-172.5 -163t-221.5 -60q-165 0 -245.5 77t-80.5 238q0 163 41 309t111.5 251t169.5 166.5t211 61.5zM537 49q103 0 191 55.5t148 150.5 t94 223.5t34 271.5q0 122 -65.5 194t-194.5 72q-99 0 -185.5 -58.5t-145 -157t-92.5 -230t-34 -274.5q0 -80 27 -135t83 -83.5t140 -28.5z" />
<glyph unicode="&#xf5;" horiz-adv-x="1049" d="M744 1084q166 0 251 -85t85 -249q0 -160 -39.5 -301.5t-109.5 -244.5t-172.5 -163t-221.5 -60q-165 0 -245.5 77t-80.5 238q0 163 41 309t111.5 251t169.5 166.5t211 61.5zM537 49q103 0 191 55.5t148 150.5t94 223.5t34 271.5q0 122 -65.5 194t-194.5 72 q-99 0 -185.5 -58.5t-145 -157t-92.5 -230t-34 -274.5q0 -80 27 -135t83 -83.5t140 -28.5zM1124 1498l12 -65q-12 -10 -31.5 -25.5t-65 -40.5t-72.5 -25q-31 0 -86 27t-107.5 54.5t-76.5 27.5q-18 0 -58.5 -24t-72.5 -48l-31 -24l-5 66q14 11 36.5 27t72.5 43t79 27 q31 0 85 -27t104 -54t73 -27q16 0 52 22t64 44z" />
<glyph unicode="&#xf6;" horiz-adv-x="1049" d="M744 1084q166 0 251 -85t85 -249q0 -160 -39.5 -301.5t-109.5 -244.5t-172.5 -163t-221.5 -60q-165 0 -245.5 77t-80.5 238q0 163 41 309t111.5 251t169.5 166.5t211 61.5zM537 49q103 0 191 55.5t148 150.5t94 223.5t34 271.5q0 122 -65.5 194t-194.5 72 q-99 0 -185.5 -58.5t-145 -157t-92.5 -230t-34 -274.5q0 -80 27 -135t83 -83.5t140 -28.5zM607 1348l32 139h62l-32 -139h-62zM980 1348l28 139h61l-32 -139h-57z" />
<glyph unicode="&#xf7;" d="M248 498v73h945v-73h-945zM679 815v171h81v-171h-81zM679 83v171h81v-171h-81z" />
<glyph unicode="&#xf8;" horiz-adv-x="1047" d="M746 1089q108 0 183 -37l146 234l59 -26l-154 -242q102 -82 102 -264q0 -160 -39.5 -301.5t-109.5 -244.5t-172.5 -163t-221.5 -60q-107 0 -185 34l-163 -259l-57 23l169 268q-90 77 -90 250q0 130 26 250.5t74.5 217.5t113.5 169t147 111.5t172 39.5zM539 53 q103 0 191 55.5t148 151t94 223.5t34 271q0 124 -69 196l-275 -434l-268 -431q60 -32 145 -32zM347 122l267 421l274 443q-63 34 -142 34q-99 0 -185 -58.5t-145 -157t-92.5 -229.5t-33.5 -274q0 -119 57 -179z" />
<glyph unicode="&#xf9;" horiz-adv-x="1038" d="M605 1536l340 -203l-38 -47l-340 196zM1055 1065h73l-246 -1065h-75l55 240q-7 -10 -21 -27.5t-57 -62.5t-87 -79t-106.5 -62t-121.5 -28q-113 0 -179 66t-66 181q0 99 40 284l130 553h73l-128 -549q-41 -171 -41 -282q0 -87 48.5 -135t135.5 -48q38 0 81.5 17t82 44.5 t76 60.5t67.5 66.5t53 61t36 44.5l12 17z" />
<glyph unicode="&#xfa;" horiz-adv-x="1038" d="M1055 1065h73l-246 -1065h-75l55 240q-7 -10 -21 -27.5t-57 -62.5t-87 -79t-106.5 -62t-121.5 -28q-113 0 -179 66t-66 181q0 99 40 284l130 553h73l-128 -549q-41 -171 -41 -282q0 -87 48.5 -135t135.5 -48q38 0 81.5 17t82 44.5t76 60.5t67.5 66.5t53 61t36 44.5l12 17 zM703 1299l-10 53l431 203l14 -64z" />
<glyph unicode="&#xfb;" horiz-adv-x="1038" d="M500 1268l311 287h47l186 -287h-81l-136 214l-235 -214h-92zM1055 1065h73l-246 -1065h-75l55 240q-7 -10 -21 -27.5t-57 -62.5t-87 -79t-106.5 -62t-121.5 -28q-113 0 -179 66t-66 181q0 99 40 284l130 553h73l-128 -549q-41 -171 -41 -282q0 -87 48.5 -135t135.5 -48 q38 0 81.5 17t82 44.5t76 60.5t67.5 66.5t53 61t36 44.5l12 17z" />
<glyph unicode="&#xfc;" horiz-adv-x="1038" d="M575 1348l32 139h72l-31 -139h-73zM959 1348l27 139h73l-33 -139h-67zM1055 1065h73l-246 -1065h-75l55 240q-7 -10 -21 -27.5t-57 -62.5t-87 -79t-106.5 -62t-121.5 -28q-113 0 -179 66t-66 181q0 99 40 284l130 553h73l-128 -549q-41 -171 -41 -282q0 -87 48.5 -135 t135.5 -48q38 0 81.5 17t82 44.5t76 60.5t67.5 66.5t53 61t36 44.5l12 17z" />
<glyph unicode="&#xfd;" horiz-adv-x="953" d="M313 1065h77l49 -996h85l528 996h82l-825 -1551h-81l262 486h-124zM639 1299l-11 53l433 203l12 -64z" />
<glyph unicode="&#xfe;" horiz-adv-x="1010" d="M805 1084q58 0 103.5 -18.5t73.5 -50t46 -75t24 -91t4.5 -100t-9.5 -101t-21 -95.5q-30 -115 -66.5 -203t-84 -159t-106 -116t-133 -69.5t-165.5 -24.5q-52 0 -112 5.5t-95.5 11.5t-35.5 8l-118 -492h-69l481 2037h72l-149 -618q17 14 47.5 34.5t80.5 49t113 48t119 19.5 zM422 841l-180 -758l242 -26q96 0 169 29.5t128.5 94t95.5 154t78 221.5q15 53 21.5 111.5t1.5 119.5t-24 109.5t-61 80t-103 31.5q-50 0 -106 -17.5t-101 -42.5t-82.5 -50t-58 -41z" />
<glyph unicode="&#xff;" horiz-adv-x="953" d="M528 1348l33 139h71l-31 -139h-73zM912 1348l27 139h73l-32 -139h-68zM313 1065h77l49 -996h85l528 996h82l-825 -1551h-81l262 486h-124z" />
<glyph unicode="&#x152;" horiz-adv-x="1865" d="M1762 -2h-791q-208 -17 -321 -17q-214 0 -309.5 95.5t-95.5 287.5q0 148 53 371q26 108 55.5 197.5t66 170.5t79.5 143.5t96.5 113t115.5 83t137 50t162 17.5q18 0 148.5 -8t162.5 -11h792l-15 -81h-720l-147 -603h598l-14 -81l-599 4l-153 -649h720zM667 61 q21 0 80.5 3.5t127.5 8t111 8.5l315 1333q-28 4 -80 7t-115.5 5.5t-113.5 2.5q-108 0 -194 -30t-150 -85t-115 -142.5t-87.5 -190.5t-69.5 -242q-53 -220 -53 -359q0 -162 80 -240.5t264 -78.5z" />
<glyph unicode="&#x153;" horiz-adv-x="1758" d="M1254 57q40 0 92.5 2t99.5 5t88.5 6t66.5 5l25 2l-12 -77q-230 -19 -378 -19q-136 0 -205 58.5t-81 169.5q-63 -119 -162 -173.5t-258 -54.5q-171 0 -249 60.5t-78 198.5q0 129 45 316q34 146 78 244t109 162.5t150.5 93t202.5 28.5q97 0 162.5 -27t102 -83.5 t42.5 -144.5q130 255 428 255q300 0 300 -292q0 -89 -32 -221l-19 -73l-711 4q-37 -149 -37 -221q0 -114 54.5 -169t175.5 -55zM545 57q49 0 91 7.5t76 19.5t63.5 33.5t52 44.5t42.5 57.5t35 67t30.5 79t27 87.5t25.5 98q11 44 17.5 76t12 74t3.5 82t-11 77 q-21 77 -79 112.5t-158 35.5q-127 0 -209.5 -42.5t-139.5 -140.5t-96 -269q-49 -200 -49 -296q0 -108 61 -155.5t205 -47.5zM1077 575l634 -4q31 128 31 215q0 79 -27 128.5t-78 71.5t-129 22q-159 0 -267.5 -102.5t-163.5 -330.5z" />
<glyph unicode="&#x178;" horiz-adv-x="1032" d="M669 1768l30 140h63l-36 -140h-57zM1050 1768l34 140h62l-34 -140h-62zM1335 1491l-640 -850l-150 -641h-76l151 656l-240 835h76l219 -769l575 769h85z" />
<glyph unicode="&#x2c6;" horiz-adv-x="1683" d="M862 1268l311 287h30l185 -287h-71l-137 214l-235 -214h-83z" />
<glyph unicode="&#x2dc;" horiz-adv-x="880" d="M1093 1498l10 -65q-12 -10 -31.5 -25.5t-64.5 -40.5t-72 -25q-31 0 -86 27t-107.5 54.5t-76.5 27.5q-18 0 -59 -24t-72 -48l-32 -24l-4 66q14 11 36.5 27t72.5 43t78 27q32 0 86 -27t104 -54t72 -27q17 0 53 22t65 44z" />
<glyph unicode="&#x2000;" horiz-adv-x="991" />
<glyph unicode="&#x2001;" horiz-adv-x="1983" />
<glyph unicode="&#x2002;" horiz-adv-x="991" />
<glyph unicode="&#x2003;" horiz-adv-x="1983" />
<glyph unicode="&#x2004;" horiz-adv-x="661" />
<glyph unicode="&#x2005;" horiz-adv-x="495" />
<glyph unicode="&#x2006;" horiz-adv-x="330" />
<glyph unicode="&#x2007;" horiz-adv-x="330" />
<glyph unicode="&#x2008;" horiz-adv-x="247" />
<glyph unicode="&#x2009;" horiz-adv-x="396" />
<glyph unicode="&#x200a;" horiz-adv-x="110" />
<glyph unicode="&#x2010;" horiz-adv-x="815" d="M272 537l18 75h519l-19 -75h-518z" />
<glyph unicode="&#x2011;" horiz-adv-x="815" d="M272 537l18 75h519l-19 -75h-518z" />
<glyph unicode="&#x2012;" horiz-adv-x="815" d="M272 537l18 75h519l-19 -75h-518z" />
<glyph unicode="&#x2013;" horiz-adv-x="1362" d="M281 609h1065v-72h-1065v72z" />
<glyph unicode="&#x2014;" horiz-adv-x="2427" d="M281 609h2130v-72h-2130v72z" />
<glyph unicode="&#x2018;" horiz-adv-x="393" d="M563 1491h57l-175 -430h-81z" />
<glyph unicode="&#x2019;" horiz-adv-x="393" d="M428 1061h-58l175 430h81z" />
<glyph unicode="&#x201a;" horiz-adv-x="397" d="M100 -242h-57l174 429h81z" />
<glyph unicode="&#x201c;" horiz-adv-x="685" d="M563 1491h57l-175 -430h-81zM854 1491h58l-175 -430h-81z" />
<glyph unicode="&#x201d;" horiz-adv-x="685" d="M428 1061h-58l175 430h81zM720 1061h-58l175 430h81z" />
<glyph unicode="&#x201e;" horiz-adv-x="659" d="M502 191h59l-175 -429h-81zM226 191h57l-175 -429h-80z" />
<glyph unicode="&#x2022;" horiz-adv-x="1071" d="M394 234v618h533v-618h-533z" />
<glyph unicode="&#x2026;" horiz-adv-x="1400" d="M156 0l40 177h76l-40 -177h-76zM669 0l40 177h77l-40 -177h-77zM1171 0l41 177h77l-41 -177h-77z" />
<glyph unicode="&#x202f;" horiz-adv-x="396" />
<glyph unicode="&#x2039;" horiz-adv-x="579" d="M628 833l-25 -87l-307 -216l200 -234l-23 -74l-264 292l17 47z" />
<glyph unicode="&#x203a;" horiz-adv-x="579" d="M196 222l26 87l306 215l-200 234l24 75l264 -292l-18 -47z" />
<glyph unicode="&#x2044;" horiz-adv-x="0" d="M-254 -45l-69 28l904 1466l71 -30z" />
<glyph unicode="&#x205f;" horiz-adv-x="495" />
<glyph unicode="&#x2070;" horiz-adv-x="595" d="M695 1701q55 0 92.5 -17.5t61 -58.5t22 -108t-22.5 -165q-56 -217 -157 -300q-67 -53 -171 -53q-238 0 -152 356q56 216 158 295q65 51 169 51zM675 1630q-82 0 -136.5 -66t-91.5 -212q-19 -78 -22 -133t10 -87t38.5 -46.5t65.5 -14.5q53 0 93.5 26t75.5 90t61 168 q35 142 13 208.5t-107 66.5z" />
<glyph unicode="&#x2074;" horiz-adv-x="595" d="M609 1018l30 122h-311l17 67l307 476h85l-302 -471h221l47 185h77l-47 -185h78l-16 -72h-79l-31 -122h-76z" />
<glyph unicode="&#x2075;" horiz-adv-x="595" d="M518 1683h370l-16 -75h-299l-71 -218q7 6 19.5 13.5t52 20.5t80.5 13q43 0 75.5 -11t55.5 -36t28 -65t-8 -98q-16 -63 -43 -108t-63 -70.5t-76.5 -37.5t-90.5 -12q-19 0 -41 1.5t-41 4l-38 5t-34 5t-26.5 5t-17.5 3.5l-6 1l26 75q106 -26 197 -26q38 0 71.5 17t60 52.5 t39.5 84.5q20 75 -4 105.5t-84 30.5q-38 0 -77.5 -11.5t-60.5 -23.5l-21 -11l-66 4z" />
<glyph unicode="&#x2076;" horiz-adv-x="595" d="M890 1683l-21 -69q-81 16 -162 16q-83 0 -137 -51t-86 -171q98 41 166 41q73 0 115.5 -27t52.5 -75t-5 -114q-60 -234 -283 -234q-229 0 -142 353q24 99 57.5 167.5t76.5 108t92 56.5t112 17q35 0 76 -4.5t65 -9.5zM630 1376q-22 0 -47.5 -4.5t-46 -11.5t-38 -13.5 t-27 -11.5t-9.5 -6q-32 -123 -12.5 -190.5t99.5 -67.5q141 0 184 162q14 53 8.5 84.5t-31.5 45t-80 13.5z" />
<glyph unicode="&#x2077;" horiz-adv-x="595" d="M447 1610l17 73h414l-32 -130l-375 -551l-83 22l374 533l13 53h-328z" />
<glyph unicode="&#x2078;" horiz-adv-x="595" d="M697 1701q112 0 159.5 -43.5t25.5 -130.5q-16 -69 -50.5 -105t-107.5 -56q63 -21 84.5 -57.5t2.5 -109.5q-15 -60 -42.5 -100t-66.5 -61.5t-82 -30t-100 -8.5q-110 0 -163.5 45.5t-30.5 142.5q11 42 26.5 72t39 50.5t48.5 33t62 25.5q-58 23 -76.5 57.5t-3.5 101.5 q24 93 91 133.5t184 40.5zM539 1071q80 0 127 29.5t64 96.5q14 60 -6.5 87t-82.5 43h-76q-71 -17 -106.5 -45t-49.5 -93q-15 -61 19 -89.5t111 -28.5zM677 1630q-40 0 -70.5 -6.5t-51.5 -19.5t-33.5 -32t-19.5 -45q-12 -53 5.5 -77t75.5 -44h77q70 18 99.5 42t41.5 77 q13 54 -15.5 79.5t-108.5 25.5z" />
<glyph unicode="&#x2079;" horiz-adv-x="595" d="M326 1020l23 66q86 -15 165 -15q90 0 146.5 54t87.5 166q-102 -37 -179 -37q-99 0 -141.5 61.5t-16.5 162.5q25 107 101 165t183 58q230 0 142 -357q-14 -57 -30 -102.5t-34.5 -81.5t-41 -62.5t-47 -45.5t-54.5 -30.5t-63 -17t-73 -5.5q-35 0 -77 5.5t-67 10.5zM590 1327 q31 0 75.5 11t72.5 23l28 11q18 81 18 138.5t-27 88.5t-82 31q-68 0 -116 -38t-67 -112q-9 -45 -3.5 -79t31.5 -54t70 -20z" />
<glyph unicode="&#x2081;" horiz-adv-x="595" d="M201 309l244 142h77l-164 -664h-77l145 581l-204 -118z" />
<glyph unicode="&#x2082;" horiz-adv-x="595" d="M453 -213h-415l17 73l264 221q36 30 58 50t47.5 47.5t40.5 55.5t23 58q13 55 -14 80.5t-82 25.5q-32 0 -82 -6.5t-83 -12.5l-34 -7l14 71q117 28 206 28q197 0 152 -181q-18 -69 -66.5 -126t-138.5 -132l-204 -172h315z" />
<glyph unicode="&#x2083;" horiz-adv-x="595" d="M193 447q120 24 216 24q105 0 144.5 -41t17.5 -129q-9 -34 -26.5 -63t-33.5 -46t-37 -31.5t-29.5 -18.5t-18.5 -8q24 -7 39 -14t28.5 -19.5t18.5 -30t4 -43.5t-10 -61q-25 -100 -92.5 -149t-171.5 -49q-46 0 -101.5 6t-87.5 11l-32 6l24 69q111 -20 217 -20 q68 0 109.5 33.5t54.5 90.5q35 130 -94 130h-139l18 72h138q38 0 84 40.5t59 94.5q11 49 -10.5 73t-89.5 24q-43 0 -95.5 -4.5t-82.5 -9.5l-31 -4z" />
<glyph unicode="&#x20ac;" d="M1037 89l-2 -68q-20 -5 -53 -11.5t-122 -17.5t-161 -11q-93 0 -163.5 26t-117 76.5t-69.5 126t-23 174.5q0 31 4 100h-104l16 67h95q17 149 59 278h-91l16 67h98q33 89 75 166t98.5 145t121 116t145 76t167.5 28q70 0 152 -9.5t130 -19.5l47 -10l-15 -63q-178 34 -322 34 q-90 0 -171 -36t-145 -100.5t-114 -146t-88 -180.5h652l-14 -67h-663q-47 -143 -62 -278h660l-14 -67h-652q-5 -35 -5 -100q0 -171 74 -252t233 -81q71 0 153 9.5t129 19.5z" />
<glyph unicode="&#x2122;" horiz-adv-x="1502" d="M473 1256v67h426v-67h-177v-549h-70v549h-179zM973 705v618h107l178 -516l187 516h106v-618h-69v549l-187 -526h-74l-180 526v-549h-68z" />
<glyph unicode="&#x25fc;" horiz-adv-x="1064" d="M0 1065h1065v-1065h-1065v1065z" />
<glyph horiz-adv-x="855" d="M151 224q0 42 3.5 75.5t14 66.5t22 59t36.5 58t48 57t65.5 63t80 69t99.5 82q165 134 187 254l17 83h73q-5 -47 -13 -92q-15 -79 -69.5 -152t-156.5 -154q-59 -49 -97 -81.5t-76.5 -68t-60.5 -63t-42 -58t-29.5 -60.5t-15 -64t-5.5 -74q0 -171 256 -171q51 0 128.5 11.5 t128.5 23.5l52 12v-68q-21 -5 -55.5 -13.5t-120 -23t-146.5 -14.5q-70 0 -127 13.5t-102 41.5t-70 75.5t-25 112.5zM869 1489l-36 -174h-79l38 174h77z" />
<glyph horiz-adv-x="1360" d="M294 673h1065v-72h-1065v72z" />
<glyph horiz-adv-x="2425" d="M294 673h2130v-72h-2130v72z" />
<glyph horiz-adv-x="386" d="M301 639l38 176h80l-37 -176h-81z" />
<glyph horiz-adv-x="437" d="M496 1041l-240 -1041h-71l252 1041h59zM594 1491l-41 -176h-76l41 176h76z" />
<glyph horiz-adv-x="470" d="M699 1657h74q-10 -15 -27 -42t-65.5 -114.5t-92.5 -177.5t-98 -222.5t-93 -259t-65.5 -277t-26.5 -285.5q0 -85 3 -165.5t7.5 -135t9 -97t7.5 -62.5l3 -20h-71q-4 19 -9.5 55.5t-15 161.5t-9.5 263q0 143 26 296.5t67 284.5t91 255.5t100 220.5t91.5 169.5t67.5 112.5z " />
<glyph horiz-adv-x="474" d="M115 -187h-74q9 15 26 42t65.5 114t93 177.5t98.5 222.5t92.5 258.5t65.5 277t27 286.5q0 134 -7.5 254t-14.5 173l-8 52h70q4 -19 9.5 -55.5t15 -161t9.5 -262.5q0 -197 -48 -411.5t-117 -379.5t-137.5 -302.5t-116.5 -210.5z" />
<glyph horiz-adv-x="632" d="M558 1655h369l-15 -70h-296l-403 -1711h296l-19 -70h-366z" />
<glyph horiz-adv-x="628" d="M409 -193h-368l14 69h297l402 1711h-296l19 70h366z" />
<glyph horiz-adv-x="702" d="M456 541q0 -35 -27 -128.5t-53.5 -196.5t-26.5 -161q0 -90 56.5 -133.5t175.5 -43.5l-20 -76q-150 7 -218 63.5t-68 168.5q0 61 26.5 165t53.5 195.5t27 123.5q0 73 -38.5 109t-124.5 58l17 75q74 20 121 43.5t78 59t47.5 77t29.5 106.5q5 27 13 72.5t13.5 78t14.5 71 t18 65.5q54 165 152 241.5t276 84.5l-13 -76q-86 -4 -148.5 -25t-104.5 -61t-67.5 -93.5t-41.5 -129.5q-6 -30 -14.5 -77.5t-16.5 -93t-14 -74.5q-20 -94 -52 -152t-80 -92t-128 -59q137 -49 137 -185z" />
<glyph horiz-adv-x="704" d="M583 914q0 35 27 128.5t54 196.5t27 161q0 90 -57 133.5t-176 43.5l21 76q149 -7 217 -63.5t68 -168.5q0 -61 -26.5 -165t-53 -195.5t-26.5 -123.5q0 -73 38.5 -109.5t123.5 -58.5l-17 -74q-74 -20 -121 -43.5t-77.5 -59.5t-47 -77t-29.5 -106q-5 -29 -16 -93t-21 -111.5 t-22 -82.5q-54 -165 -152 -242t-276 -85l12 77q86 4 148.5 25t104.5 61t67.5 93.5t41.5 129.5q7 33 22 121t23 124q10 48 22.5 84.5t29 66.5t36 52t46 40.5t56.5 32t70 26.5q-137 49 -137 186z" />
</font>
</defs>
</svg>
