<?xml version="1.0" standalone="no"?>
<!DOCTYPE svg PUBLIC "-//W3C//DTD SVG 1.1//EN" "http://www.w3.org/Graphics/SVG/1.1/DTD/svg11.dtd" >
<svg xmlns="http://www.w3.org/2000/svg">
<metadata></metadata>
<defs>
<font id="titillium_bdbold" horiz-adv-x="1191" >
<font-face units-per-em="2048" ascent="1536" descent="-512" />
<missing-glyph horiz-adv-x="467" />
<glyph horiz-adv-x="0" />
<glyph horiz-adv-x="682" />
<glyph unicode=" "  horiz-adv-x="467" />
<glyph unicode="&#x09;" horiz-adv-x="467" />
<glyph unicode="&#xa0;" horiz-adv-x="467" />
<glyph unicode="!" horiz-adv-x="595" d="M145 0v343h306v-343h-306zM173 532l-28 917h308l-29 -917h-251z" />
<glyph unicode="&#x22;" horiz-adv-x="874" d="M746 937h-252l-8 512h274zM380 937h-252l-10 512h274z" />
<glyph unicode="#" d="M1159 317h-204v-317h-248v317h-221v-317h-248v317h-204v239h204v269h-204v238h204v343h248v-343h221v343h248v-343h204v-238h-204v-269h204v-239zM707 556v269h-221v-269h221z" />
<glyph unicode="$" d="M1055 1376l-24 -226q-156 17 -287 25l-43 -342q114 -36 183.5 -70.5t115.5 -82.5t64 -108t18 -148q0 -112 -37 -199t-103 -141.5t-153.5 -82t-192.5 -27.5h-2l-31 -251q-158 7 -158 15l30 247q-70 8 -146.5 21t-118.5 23l-42 9l28 222q169 -24 311 -32l47 370 q-220 66 -312 160t-92 256q0 107 34.5 188t99 130.5t151 74t195.5 24.5h28l38 294h157l-38 -306q64 -7 134 -17.5t108 -18.5zM394 1033q0 -52 31.5 -83t123.5 -66l37 296q-96 -4 -144 -43t-48 -104zM799 405q0 50 -29 83.5t-103 62.5l-41 -325q87 9 130 56t43 123z" />
<glyph unicode="%" d="M266 -17l500 1506l156 -56l-500 -1502zM285.5 1431q124.5 0 190 -77.5t65.5 -231.5t-66 -232.5t-190 -78.5t-189.5 78.5t-65.5 232.5t65.5 231.5t190 77.5zM238 1122q0 -77 9.5 -108.5t37.5 -31.5t37.5 31.5t9.5 108.5t-9.5 107.5t-37.5 30.5t-37.5 -30.5t-9.5 -107.5z M906.5 594q124.5 0 190.5 -77.5t66 -231.5t-66 -232.5t-190 -78.5t-189.5 78.5t-65.5 232.5t65 231.5t189.5 77.5zM860 285q0 -77 9.5 -108.5t37.5 -31.5t38 31.5t10 108t-10 108t-38 31.5t-37.5 -31t-9.5 -108z" />
<glyph unicode="&#x26;" horiz-adv-x="1492" d="M673 1516q209 0 322 -89t113 -256q0 -72 -15.5 -126.5t-53.5 -105t-89 -94t-135 -101.5l209 -209q13 32 26 123.5t15 148.5l277 -6q-14 -111 -45 -232.5t-64 -200.5l239 -208l-162 -186l-226 186q-74 -82 -190 -134t-246 -52q-129 0 -226.5 20t-163 56t-107 91.5 t-59 122.5t-17.5 153q0 117 33.5 199.5t98 137t169.5 96.5q-87 106 -113.5 171.5t-26.5 173.5q0 149 119 235t318 86zM612 230q84 0 164.5 24t113.5 61l-368 368q-158 -77 -158 -242q0 -106 61 -158.5t187 -52.5zM526 1130q0 -49 22.5 -90.5t73.5 -96.5l36 -38 q88 64 123.5 114.5t35.5 120.5q0 71 -36 102.5t-108 31.5q-70 0 -108.5 -35.5t-38.5 -108.5z" />
<glyph unicode="'" horiz-adv-x="508" d="M128 937l-8 512h274l-14 -512h-252z" />
<glyph unicode="(" horiz-adv-x="655" d="M328 1597h270q-8 -21 -21.5 -59.5t-48.5 -153.5t-61.5 -225t-48.5 -255t-22 -263.5t21 -255.5t50.5 -248t59 -205t50.5 -146l21 -52h-270q-10 16 -27 46t-59.5 126t-75 196.5t-59 248t-26.5 290t25.5 293.5t61.5 264.5t72.5 207t61.5 142.5z" />
<glyph unicode=")" horiz-adv-x="655" d="M57 1597h271q10 -18 26.5 -51t59 -138t75.5 -212t59.5 -260t26.5 -295.5t-25.5 -288t-62 -252t-72.5 -192.5t-62 -130l-25 -44h-271q8 19 22 54.5t49 141.5t61.5 209.5t48.5 243t22 258t-21 261t-50.5 260.5t-59.5 219.5t-51 158.5z" />
<glyph unicode="*" horiz-adv-x="904" d="M829 1063h-262l81 -256l-156 -47l-87 258l-220 -168l-100 126l224 166l-217 155l97 134l216 -155l83 258l160 -54l-81 -259h262v-158z" />
<glyph unicode="+" d="M106 407v255h361v358h255v-358h364v-255h-364v-362h-255v362h-361z" />
<glyph unicode="," horiz-adv-x="559" d="M43 -262l106 554h315l-192 -554h-229z" />
<glyph unicode="-" horiz-adv-x="868" d="M120 437v260h630v-260h-630z" />
<glyph unicode="." horiz-adv-x="544" d="M120 0v354h306v-354h-306z" />
<glyph unicode="/" horiz-adv-x="992" d="M66 17l613 1512l252 -90l-614 -1512z" />
<glyph unicode="0" d="M596 1431q134 0 233.5 -40.5t170 -127.5t106.5 -229t36 -339q0 -158 -23.5 -279.5t-68 -205t-112 -136.5t-151.5 -76.5t-191 -23.5t-191 23.5t-151.5 76.5t-111.5 136.5t-67.5 204.5t-23.5 280q0 197 35.5 339t106.5 229t170 127.5t233 40.5zM598 1175q-88 0 -140 -43.5 t-78 -149t-26 -287.5q0 -173 26 -275t78.5 -146t139.5 -44t139 44.5t77 146t25 274.5q0 183 -25.5 288t-76.5 148.5t-139 43.5z" />
<glyph unicode="1" d="M158 1097l464 309h268v-1406h-294v1073l-304 -195z" />
<glyph unicode="2" d="M1050 0h-912v250l301 303q54 56 85 88.5t69 75.5t58 72.5t39 64.5t26.5 66.5t7.5 65.5q0 105 -52 145t-178 40q-64 0 -147 -8t-134 -15l-51 -8l-15 228q23 7 63.5 17.5t152 28t206.5 17.5q237 0 347 -101t110 -301q0 -83 -15.5 -148t-55 -130.5t-96 -127.5t-148.5 -146 l-244 -221h583v-256z" />
<glyph unicode="3" d="M151 1138l-19 217q8 3 22.5 8t59.5 18.5t91 23.5t111 18t125 8q138 0 232.5 -23t152 -72.5t82.5 -120t25 -171.5q0 -110 -41.5 -186t-122.5 -130q41 -22 65.5 -38t51.5 -41.5t41 -54t23 -71.5t9 -99q0 -227 -113.5 -338.5t-366.5 -111.5q-93 0 -207 18t-182 37l-68 18 l14 223q239 -40 401 -40q110 0 164.5 45.5t54.5 141.5q0 78 -56.5 125.5t-148.5 47.5h-283v243h283q71 0 125 59.5t54 131.5q0 76 -51.5 113.5t-158.5 37.5q-74 0 -166.5 -9.5t-147.5 -18.5z" />
<glyph unicode="4" d="M681 0v232h-596v224l348 950h323l-376 -918h301v394h295v-394h134v-256h-134v-232h-295z" />
<glyph unicode="5" d="M185 1406h859v-256h-629l-35 -304q14 5 39 13.5t91.5 22.5t119.5 14q456 0 456 -423q0 -238 -125.5 -368.5t-355.5 -130.5q-97 0 -222 20t-201 39l-76 20l32 217q259 -40 431 -40q103 0 159 55t56 156q0 106 -47.5 153t-148.5 47q-66 0 -133 -9t-100 -18l-34 -9l-174 41z " />
<glyph unicode="6" d="M1082 1370l-25 -226q-218 31 -397 31q-140 0 -212 -88.5t-72 -238.5q0 -1 45 12t112.5 27t112.5 14q241 0 361.5 -110.5t120.5 -345.5q0 -233 -135.5 -352t-378.5 -119q-139 0 -242.5 49.5t-168 144.5t-96.5 227t-32 302q0 159 26.5 282.5t75.5 208t122 139.5t162 79.5 t199 24.5q80 0 185.5 -15.5t170.5 -30.5zM620 646q-51 0 -112.5 -12t-97.5 -24l-36 -12q0 -80 13 -144.5t40 -116t74.5 -79.5t112.5 -28q102 0 157.5 56.5t55.5 158.5q0 98 -53.5 149.5t-153.5 51.5z" />
<glyph unicode="7" d="M147 1144v262h899v-333l-501 -1099l-273 77l480 1024v69h-605z" />
<glyph unicode="8" d="M592 1431q152 0 268 -44t183 -132t67 -209q0 -86 -14 -138.5t-44.5 -92.5t-94.5 -91q47 -39 75.5 -69t53 -70t34.5 -89t10 -114q0 -87 -27.5 -156.5t-76 -116t-117 -77.5t-147.5 -44.5t-170 -13.5q-533 0 -533 384q0 71 11 124.5t36 96.5t54 74.5t76 70.5 q-89 72 -121 141t-32 183q0 180 138 281.5t371 101.5zM592 238q223 0 223 188q0 53 -31.5 94.5t-92.5 65.5h-189q-128 -51 -128 -160q0 -96 54 -142t164 -46zM596 1167q-96 0 -147 -43t-51 -122q0 -51 26 -91t78 -76h189q52 36 78 76t26 91q0 79 -51 122t-148 43z" />
<glyph unicode="9" d="M106 36l26 226q218 -32 396 -32q142 0 212.5 90t70.5 255q0 1 -17.5 -5.5t-47.5 -16t-64 -19t-72.5 -16t-66.5 -6.5q-233 0 -358.5 112t-125.5 337q0 221 138.5 345.5t377.5 124.5q137 0 240 -49.5t168.5 -143.5t98 -226t32.5 -301q0 -165 -27 -290.5t-75.5 -210 t-122 -137.5t-161.5 -76t-200 -23q-79 0 -184.5 15.5t-171.5 31.5zM569 766q51 0 112 12.5t97 24.5l35 12q0 78 -12.5 140.5t-39 113t-74 78.5t-112.5 28q-102 0 -157.5 -56t-55.5 -158q0 -96 54 -145.5t153 -49.5z" />
<glyph unicode=":" horiz-adv-x="544" d="M120 616v353h306v-353h-306zM120 0v354h306v-354h-306z" />
<glyph unicode=";" horiz-adv-x="593" d="M164 292l-107 -554h230l192 554h-315zM147 616v353h306v-353h-306z" />
<glyph unicode="&#x3c;" d="M1006 752l-557 -211l557 -230v-290l-866 396v235l866 389v-289z" />
<glyph unicode="=" d="M124 628v258h945v-258h-945zM124 185v258h945v-258h-945z" />
<glyph unicode="&#x3e;" d="M744 541l-557 211v289l865 -389v-235l-865 -396v290z" />
<glyph unicode="?" horiz-adv-x="929" d="M862 1124q0 -77 -6.5 -126t-25.5 -94.5t-52.5 -81.5t-89.5 -78q-55 -43 -88 -74t-48.5 -56t-19.5 -42.5t-4 -43.5v-66h-227q-3 3 -7.5 8.5t-16 24.5t-20.5 40t-16 54t-7 67q0 42 34.5 86.5t119.5 113.5q81 65 117.5 101.5t49 65t12.5 70.5q0 60 -40.5 92.5t-140.5 32.5 q-63 0 -140 -8.5t-122 -16.5l-45 -8l-16 215q8 3 21.5 8t55 17.5t82.5 22.5t97.5 18t106.5 8q230 0 333 -83t103 -267zM254 0v343h307v-343h-307z" />
<glyph unicode="@" horiz-adv-x="2071" d="M2010 650v-18q0 -327 -103 -479.5t-307 -152.5q-63 0 -114.5 12.5t-81.5 30t-51 35t-29 29.5l-7 13q-7 -5 -19.5 -13t-49.5 -29t-73.5 -36.5t-84.5 -28.5t-88 -13q-100 0 -172.5 29t-124 92t-77 166t-25.5 248q0 133 20.5 228.5t67.5 165t126 103t193 33.5 q35 0 83.5 -13.5t78.5 -26.5l31 -13v27h286v-381q0 -78 0.5 -129.5t3 -99t5 -75t9 -51.5t13 -34.5t19 -18.5t25 -10t31.5 -2q46 0 73 31.5t42 119.5t15 243v20q0 340 -157 494.5t-497 154.5q-343 0 -524 -195.5t-181 -549.5q0 -197 37.5 -335t121.5 -232t218.5 -138 t327.5 -44q47 0 123.5 4.5t128.5 9.5l53 4l10 -249q-191 -21 -315 -21q-138 0 -253 15t-218 49t-183 88t-144 132.5t-106 182t-64 237.5t-22 297q0 200 46.5 363.5t132.5 280.5t209 196.5t273.5 118t328.5 38.5q467 0 703 -231t236 -672zM1024 252q83 0 192 53 q-13 76 -13 225v262q-89 21 -130 21q-46 0 -77.5 -10.5t-52 -30.5t-31.5 -55.5t-15.5 -77.5t-4.5 -104q0 -144 32 -213.5t100 -69.5z" />
<glyph unicode="A" horiz-adv-x="1281" d="M36 0l326 1449h558l326 -1449h-294l-58 262h-506l-58 -262h-294zM590 1205l-147 -687h396l-146 687h-103z" />
<glyph unicode="B" horiz-adv-x="1296" d="M158 1449h568q226 0 339 -91t113 -293q0 -122 -36 -193t-124 -126q96 -41 141.5 -118t45.5 -213q0 -212 -122.5 -313.5t-347.5 -101.5h-577v1449zM720 605h-269v-353h269q97 0 142 38.5t45 140.5q0 87 -48.5 130.5t-138.5 43.5zM711 1197h-260v-345h262q86 0 126.5 43.5 t40.5 130.5q0 89 -42 130t-127 41z" />
<glyph unicode="C" horiz-adv-x="1156" d="M1069 264l6 -240q-86 -18 -208 -34t-213 -16q-95 0 -171 15.5t-134 44.5t-100.5 76t-71 105.5t-46 138.5t-24.5 168.5t-7 201.5q0 141 11 246.5t37 191.5t67.5 143t104 96t144 56t190.5 17q177 0 423 -58l-8 -234q-78 12 -191 22t-181 10q-59 0 -100 -7.5t-75.5 -28.5 t-56 -55t-36.5 -89.5t-21 -130.5t-6 -179q0 -102 5 -172t18 -128t34 -92t56 -57t80 -32t110 -9q68 0 180.5 10t183.5 20z" />
<glyph unicode="D" horiz-adv-x="1358" d="M646 0h-488v1449h488q95 0 171.5 -10t137.5 -31.5t107 -52t80 -75t57 -96.5t36.5 -120.5t19 -143t5.5 -168.5q0 -86 -3.5 -156t-13.5 -138t-26.5 -121t-41.5 -102t-59 -84.5t-79.5 -65t-103 -47.5t-129.5 -28t-158 -10zM959 752q0 58 -1.5 99t-5.5 84t-11 72.5 t-18.5 58.5t-28.5 47.5t-40 35t-53.5 25.5t-68.5 14t-86 5h-195v-937h195q47 0 85.5 6.5t68.5 18.5t53.5 32.5t40 43t28.5 56.5t19 67t11 80t5.5 90t1.5 102z" />
<glyph unicode="E" horiz-adv-x="1179" d="M158 0v1449h937v-256h-644v-339h516v-251h-516v-347h644v-256h-937z" />
<glyph unicode="F" horiz-adv-x="1130" d="M158 0v1449h924v-256h-631v-427h516v-254h-516v-512h-293z" />
<glyph unicode="G" horiz-adv-x="1301" d="M760 520v255h422v-751q-34 -6 -89.5 -14t-187.5 -22t-217 -14q-100 0 -181 16.5t-143 47t-107.5 79t-76.5 108t-49.5 138.5t-26.5 166t-8 195q0 202 30.5 340.5t99.5 231.5t179.5 135.5t271.5 42.5q99 0 225.5 -15t203.5 -30l76 -15l-9 -227q-256 27 -449 27 q-66 0 -112 -8t-84 -29t-61.5 -55.5t-39.5 -90.5t-22.5 -129.5t-6.5 -177.5q0 -101 5 -171t19 -128t36 -93t58 -59t84 -33.5t116 -9.5q38 0 82.5 2t69.5 4l24 2v282h-132z" />
<glyph unicode="H" horiz-adv-x="1441" d="M990 0v601h-539v-601h-293v1449h293v-593h539v593h294v-1449h-294z" />
<glyph unicode="I" horiz-adv-x="608" d="M158 0v1449h293v-1449h-293z" />
<glyph unicode="J" horiz-adv-x="642" d="M494 1449l2 -1204q0 -80 -11 -140t-36 -104t-60.5 -72.5t-88.5 -46t-114.5 -24.5t-144.5 -7v255q84 0 123 32.5t39 119.5v1191h291z" />
<glyph unicode="K" horiz-adv-x="1262" d="M890 0l-242 577l-197 -21v-556h-293v1449h293v-638l197 22l238 616h335l-316 -727l324 -722h-339z" />
<glyph unicode="L" horiz-adv-x="1004" d="M982 0h-824v1449h293v-1189h531v-260z" />
<glyph unicode="M" horiz-adv-x="1827" d="M158 0v1449h500l256 -1057l255 1057h501v-1449h-294v1120h-32l-283 -1057h-295l-282 1057h-33v-1120h-293z" />
<glyph unicode="N" horiz-adv-x="1475" d="M158 0v1449h496l350 -1193h20v1193h295v-1449h-484l-362 1193h-22v-1193h-293z" />
<glyph unicode="O" horiz-adv-x="1388" d="M694.5 230q71.5 0 122.5 19t85 55t54 96.5t28 135.5t8 180q0 104 -8 180.5t-28 140t-53.5 102t-85 59t-122.5 20.5t-122.5 -20.5t-85.5 -59.5t-54 -102t-28.5 -139.5t-8.5 -180.5q0 -105 8.5 -180t28.5 -135.5t54 -96.5t85 -55t122.5 -19zM695 -26q-136 0 -237.5 30.5 t-171 89t-112.5 150t-61.5 206.5t-18.5 266t18.5 267t61.5 210.5t112 155t171 93t237.5 32.5t237.5 -32.5t171 -93t112 -155t61.5 -210.5t18.5 -267.5t-19 -266t-61.5 -206t-111.5 -150t-170.5 -89t-237.5 -30.5z" />
<glyph unicode="P" horiz-adv-x="1254" d="M691 422h-240v-422h-293v1449h533q514 0 514 -504q0 -254 -130 -388.5t-384 -134.5zM451 673h237q219 0 219 272q0 134 -53.5 193t-165.5 59h-237v-524z" />
<glyph unicode="Q" horiz-adv-x="1388" d="M980 -332l-192 313q-25 -7 -93 -7q-136 0 -237.5 30t-171 88t-112.5 149.5t-61.5 206.5t-18.5 268q0 151 18.5 267t61.5 210.5t112 155t171 93t237.5 32.5t237.5 -32.5t171 -93t112 -155t61.5 -210.5t18.5 -267q0 -241 -53 -395.5t-171 -241.5l177 -286zM694.5 230 q71.5 0 122.5 18.5t85 54t54 96t28 136t8 181.5q0 104 -8 180.5t-28 140t-53.5 102t-85 59t-122.5 20.5t-122.5 -20.5t-85.5 -59.5t-54 -102t-28.5 -139.5t-8.5 -180.5q0 -106 8.5 -181.5t28.5 -136t54 -96t85 -54t122.5 -18.5z" />
<glyph unicode="R" horiz-adv-x="1319" d="M735 486h-284v-486h-293v1449h562q511 0 511 -478q0 -283 -213 -418l207 -553h-322zM931 967q0 107 -54 168.5t-157 61.5h-269v-460h273q104 0 155.5 63.5t51.5 166.5z" />
<glyph unicode="S" horiz-adv-x="1158" d="M1050 1416l-24 -231q-299 33 -423 33q-116 0 -174.5 -40t-58.5 -113q0 -28 9 -49t27 -39t55.5 -35.5t84.5 -35t125 -42.5q122 -39 196.5 -75t124 -86t69 -112t19.5 -154q0 -116 -38 -205t-106 -145t-158 -84.5t-199 -28.5q-88 0 -208.5 16.5t-197.5 33.5l-77 17l30 227 q286 -38 437 -38q114 0 169.5 49.5t55.5 137.5q0 46 -21.5 76.5t-77 57t-161.5 56.5q-246 71 -347.5 168t-101.5 269q0 111 35.5 194t101.5 134t155.5 76.5t201.5 25.5q86 0 205.5 -14.5t195.5 -28.5z" />
<glyph unicode="T" horiz-adv-x="1120" d="M28 1189v260h1065v-260h-384v-1189h-294v1189h-387z" />
<glyph unicode="U" horiz-adv-x="1392" d="M439 484q0 -129 64 -191.5t194 -62.5q258 0 258 254v965h293v-959q0 -267 -137.5 -391.5t-414 -124.5t-414 124.5t-137.5 391.5v959h294v-965z" />
<glyph unicode="V" horiz-adv-x="1283" d="M941 1449h309l-336 -1449h-544l-336 1449h309l251 -1193h97z" />
<glyph unicode="W" horiz-adv-x="1980" d="M41 1449h308l179 -1197h33l259 1197h341l260 -1197h32l179 1197h309l-278 -1449h-445l-228 1101l-228 -1101h-445z" />
<glyph unicode="X" horiz-adv-x="1211" d="M345 1449l269 -533l274 533h305l-418 -740l418 -709h-326l-269 500l-275 -500h-304l418 695l-418 754h326z" />
<glyph unicode="Y" horiz-adv-x="1185" d="M742 586v-586h-295v586l-447 863h326l266 -577l266 577h327z" />
<glyph unicode="Z" horiz-adv-x="1132" d="M87 1193v256h959v-256l-605 -899v-38h605v-256h-959v254l606 900v39h-606z" />
<glyph unicode="[" horiz-adv-x="756" d="M681 1595v-255h-244v-1346h244v-256h-536v1857h536z" />
<glyph unicode="\" horiz-adv-x="1059" d="M992 28l-246 -105l-677 1491l242 111z" />
<glyph unicode="]" horiz-adv-x="756" d="M75 1340v255h537v-1857h-537v256h244v1346h-244z" />
<glyph unicode="^" d="M815 667l-232 461l-240 -461h-298l413 739h243l413 -739h-299z" />
<glyph unicode="_" horiz-adv-x="1319" d="M205 -156h911v-242h-911v242z" />
<glyph unicode="`" horiz-adv-x="569" d="M49 1604l537 -218l-64 -185l-558 158z" />
<glyph unicode="a" horiz-adv-x="1087" d="M947 733v-443q4 -51 17 -72t54 -29l-8 -215q-109 0 -174 15.5t-131 59.5q-6 -3 -17.5 -8t-46.5 -18t-70 -23t-84.5 -18t-94.5 -8q-166 0 -248.5 89t-82.5 260q0 89 25 150t75.5 97.5t115.5 54.5t158 25l227 17v66q0 66 -29 90.5t-96 24.5q-63 0 -163 -4.5t-169 -8.5 l-69 -4l-8 198q25 7 68.5 17t158.5 27.5t206 17.5q206 0 296 -84.5t90 -273.5zM662 469l-193 -18q-120 -10 -120 -119q0 -125 104 -125q41 0 93.5 8.5t84.5 16.5l31 8v229z" />
<glyph unicode="b" horiz-adv-x="1158" d="M648 1091q112 0 190 -27.5t133 -91t80.5 -168t25.5 -257.5q0 -115 -12.5 -201.5t-41.5 -150.5t-70 -106t-102.5 -68t-134 -36.5t-169.5 -10.5q-45 0 -149 7.5t-185 15.5l-81 7v1487h285v-458q15 6 40.5 16t87 26t103.5 16zM547 230q74 0 120.5 16.5t73.5 56.5t37 97 t10 147q0 155 -45.5 221.5t-133.5 66.5q-37 0 -85.5 -7t-77.5 -14l-29 -7v-569q98 -8 130 -8z" />
<glyph unicode="c" horiz-adv-x="949" d="M530 1091q55 0 140.5 -11.5t143.5 -23.5l58 -12l-10 -227q-167 18 -248 18q-62 0 -104.5 -10.5t-70 -30.5t-42.5 -56.5t-21 -81.5t-6 -113q0 -63 4 -106.5t14.5 -80.5t27.5 -59.5t45 -38t65.5 -22t89.5 -6.5q36 0 97.5 4.5t105.5 8.5l43 5l10 -229q-228 -45 -348 -45 q-237 0 -340 133.5t-103 435.5q0 284 106.5 416t342.5 132z" />
<glyph unicode="d" horiz-adv-x="1168" d="M1037 1491v-1491h-283v45q-17 -8 -44.5 -20t-96.5 -31.5t-117 -19.5q-96 0 -166.5 23t-118 66.5t-76.5 113.5t-41.5 157t-12.5 203q0 287 110 420.5t331 133.5q22 0 54 -3t61.5 -7.5t56 -9t42.5 -7.5l16 -3v430h285zM545 230q44 0 96 8t81 16l30 8v561q-118 20 -209 20 q-83 0 -128 -75t-45 -231q0 -167 38 -237t137 -70z" />
<glyph unicode="e" horiz-adv-x="1085" d="M581 226q78 0 176.5 5t158.5 10l60 4l4 -211q-28 -6 -74 -16t-164 -27t-205 -17q-242 0 -350 128t-108 416q0 285 118.5 429t351.5 144q234 0 349.5 -120t115.5 -362l-22 -198h-626q2 -97 52 -141t163 -44zM364 628h369q0 128 -41 178t-143 50q-101 0 -142 -52.5 t-43 -175.5z" />
<glyph unicode="f" horiz-adv-x="760" d="M469 823v-823h-286v823h-114v242h114v47q0 155 30 242t96.5 124.5t184.5 37.5q31 0 92 -6.5t106 -13.5l45 -7l-4 -233q-94 4 -162 4q-59 0 -80.5 -33.5t-21.5 -116.5v-45h257v-242h-257z" />
<glyph unicode="g" horiz-adv-x="1136" d="M592 -490q-98 0 -173.5 8t-141 28t-108 53t-66.5 85t-24 123q0 72 36 130.5t117 121.5q-35 25 -57 69.5t-22 93.5q0 23 20.5 65.5t41.5 73.5l21 31q-31 22 -54.5 46.5t-45.5 61.5t-33 90t-11 119q0 81 22.5 145t62.5 107t97 71.5t122.5 41t142.5 12.5q41 0 95 -7t87 -14 l33 -6l343 10v-228l-160 13q47 -76 47 -145q0 -88 -19 -153t-54.5 -107.5t-92 -68t-124.5 -35.5t-159 -10q-50 0 -88 8q-21 -55 -21 -83q0 -29 14.5 -43t57 -20.5t134.5 -7.5q138 -1 226 -17t142 -55t75.5 -98t21.5 -151q0 -76 -26.5 -137t-72 -101.5t-110.5 -68 t-138.5 -39.5t-157.5 -12zM609 -57q-26 0 -74 3.5t-83 7.5l-35 3q-30 -29 -43.5 -56.5t-13.5 -64.5q0 -92 234 -92q107 0 161 25.5t54 81.5q0 59 -37.5 74.5t-162.5 17.5zM541 551q162 0 162 158q0 77 -39 116t-123 39q-165 0 -165 -155q0 -158 165 -158z" />
<glyph unicode="h" horiz-adv-x="1177" d="M417 0h-285v1491h285v-477q6 3 16.5 8.5t42 18.5t62 23t70.5 18.5t73 8.5q89 0 154 -22.5t107.5 -64t68 -106.5t36 -142t10.5 -179v-577h-286v571q0 53 -3.5 89.5t-13 72t-27 56.5t-46.5 33.5t-69 12.5q-42 0 -90.5 -8.5t-76.5 -17.5l-28 -8v-801z" />
<glyph unicode="i" horiz-adv-x="549" d="M132 0v1065h285v-1065h-285zM132 1201v290h285v-290h-285z" />
<glyph unicode="j" horiz-adv-x="551" d="M134 51v1014h285v-1016q0 -76 -7 -132.5t-25.5 -106t-45 -86.5t-71.5 -74t-98 -69t-131 -71l-114 211q49 33 76.5 52.5t54.5 44t39 44t22 49t12.5 61.5t2.5 79zM134 1201v290h285v-290h-285z" />
<glyph unicode="k" horiz-adv-x="1096" d="M417 0h-285v1491h285v-848l109 19l211 403h320l-277 -504l291 -561h-321l-215 415l-118 -19v-396z" />
<glyph unicode="l" horiz-adv-x="574" d="M145 0v1491h286v-1491h-286z" />
<glyph unicode="m" horiz-adv-x="1786" d="M417 0h-285v1065h283v-59q6 3 16.5 9t41.5 20.5t60.5 26t67 20.5t66.5 9q173 0 266 -101l22 11t56.5 24.5t83.5 30.5t95.5 24t100.5 11q108 0 181 -31t115.5 -98t60.5 -159t18 -226v-577h-286v569q0 53 -3 90.5t-12.5 72.5t-25.5 56.5t-43 34t-65 12.5t-87.5 -10 t-80.5 -20l-30 -10q8 -161 8 -244v-551h-285v547q0 63 -2.5 104t-11.5 79.5t-25 59.5t-43 33t-67 12q-41 0 -88.5 -9.5t-74.5 -19.5l-27 -9v-797z" />
<glyph unicode="n" horiz-adv-x="1177" d="M417 0h-285v1065h283v-59q6 3 16.5 9t42 20.5t62 26t71 20.5t74.5 9q89 0 154 -22.5t107.5 -64t68 -106.5t36 -142t10.5 -179v-577h-286v569q0 53 -3.5 90.5t-13 73t-27 56.5t-46.5 33.5t-69 12.5q-45 0 -93.5 -9.5t-75.5 -19.5l-26 -9v-797z" />
<glyph unicode="o" horiz-adv-x="1132" d="M567 1091q109 0 193 -27t139.5 -74.5t91 -118t51 -153t15.5 -184t-15.5 -184.5t-51 -154t-91 -119.5t-139.5 -75.5t-193 -27t-193 27t-139.5 75.5t-91.5 119.5t-51 154t-15 184.5t15 184t51 153t91.5 118t139.5 74.5t193 27zM566.5 217q113.5 0 156.5 76.5t43 241.5 q0 163 -43 238t-156.5 75t-157 -75t-43.5 -238q0 -164 43.5 -241t157 -77z" />
<glyph unicode="p" horiz-adv-x="1158" d="M132 -447v1512h283v-57q6 3 16 8.5t39.5 20t57.5 25.5t64.5 20t65.5 9q143 0 234.5 -54.5t138 -177t46.5 -318.5q0 -136 -19.5 -233.5t-56 -162t-97 -102.5t-134.5 -53.5t-176 -15.5q-35 0 -79.5 4.5t-70.5 8.5l-27 5v-439h-285zM603 835q-39 0 -85.5 -10.5t-73.5 -21.5 l-27 -11v-558q97 -12 156 -12q64 0 105.5 17.5t66 58t34 98t9.5 145.5q0 155 -47.5 224.5t-137.5 69.5z" />
<glyph unicode="q" horiz-adv-x="1156" d="M509 -26q-112 0 -190 27.5t-132.5 91t-80 168t-25.5 257.5q0 115 13 201.5t41.5 150.5t69 106t101.5 68t133.5 36.5t169.5 10.5q55 0 159 -7t180 -14l76 -7v-1510h-285v479q-15 -6 -40.5 -16t-87 -26t-102.5 -16zM609 843q-73 0 -120 -17.5t-74.5 -59t-38 -100 t-10.5 -148.5q0 -154 46.5 -221t134.5 -67q38 0 86 7t77 14l29 7v577q-79 8 -130 8z" />
<glyph unicode="r" horiz-adv-x="791" d="M132 0v1065h283v-113q7 4 20 11.5t53 27.5t78.5 37t91.5 35.5t98 27.5v-288q-83 -16 -168 -38.5t-128 -36.5l-43 -15v-713h-285z" />
<glyph unicode="s" horiz-adv-x="1004" d="M901 1035l-5 -236q-264 34 -387 34q-61 0 -94 -10t-44 -27.5t-11 -47.5q0 -36 41.5 -51.5t194.5 -44.5q96 -17 157 -40.5t102.5 -62t58.5 -93.5t17 -137q0 -181 -110 -263t-319 -82q-70 0 -172 13t-169 26l-67 13l8 238q265 -34 373 -34q98 0 135.5 20t37.5 63 q0 26 -14 40.5t-61.5 29t-144.5 30.5q-61 10 -105.5 21.5t-87 28.5t-69.5 41t-48.5 57t-31 78t-9.5 103q0 89 32.5 157.5t89.5 109t129.5 60.5t159.5 20q68 0 171 -13.5t172 -27.5z" />
<glyph unicode="t" horiz-adv-x="774" d="M722 823h-262v-437v-38t1 -31t3.5 -27.5t6.5 -21t10.5 -17.5t16 -11t22 -8t29.5 -2l162 4l13 -228q-143 -32 -218 -32q-98 0 -160.5 19.5t-101.5 68.5t-54 124t-15 194v443h-126v242h126v296h285v-296h262v-242z" />
<glyph unicode="u" horiz-adv-x="1177" d="M760 1065h286v-1065h-284v59q-6 -3 -17 -9t-43.5 -20.5t-63 -26t-70.5 -20.5t-72 -9q-66 0 -118.5 11t-91.5 31.5t-67.5 54t-47.5 75t-29.5 98.5t-15 119.5t-4.5 142.5v559h285v-563q0 -46 1 -75t4 -61t9.5 -51t17 -37t26.5 -27.5t38.5 -15t52.5 -5.5q48 0 98.5 9.5 t78.5 19.5l27 9v797z" />
<glyph unicode="v" horiz-adv-x="1059" d="M32 1065h298l170 -823h61l178 823h290l-256 -1065h-486z" />
<glyph unicode="w" horiz-adv-x="1644" d="M51 1065h281l130 -823h52l161 802h294l161 -802h52l130 823h281l-203 -1065h-447l-120 652l-122 -652h-447z" />
<glyph unicode="x" horiz-adv-x="1008" d="M30 1065h305l169 -330l173 330h305l-303 -522l303 -543h-305l-173 326l-169 -326h-305l291 535z" />
<glyph unicode="y" horiz-adv-x="1064" d="M34 1065h281l194 -823h49l194 823h281l-375 -1512h-278l116 447h-200z" />
<glyph unicode="z" horiz-adv-x="966" d="M87 809v256h791v-256l-447 -553h447v-256h-791v256l448 553h-448z" />
<glyph unicode="{" horiz-adv-x="768" d="M551 366q0 -29 -7 -120.5t-7 -127.5t5.5 -60.5t21 -47.5t46.5 -36t78 -17v-242q-235 8 -332.5 91.5t-97.5 274.5q0 45 7 140t7 118q0 75 -59 130.5t-179 86.5v222q123 29 180.5 77.5t57.5 122.5q0 27 -7 127.5t-7 142.5q0 104 23 173t76.5 112.5t133.5 63.5t202 24v-243 q-92 -7 -125 -44t-33 -107q0 -36 7 -139.5t7 -132.5q0 -46 -3 -77.5t-12 -61t-25.5 -49.5t-43 -39t-64 -32.5t-90.5 -26.5q63 -16 105.5 -35.5t69.5 -43.5t41 -59t19 -72.5t5 -92.5z" />
<glyph unicode="|" horiz-adv-x="569" d="M142 -447v1938h286v-1938h-286z" />
<glyph unicode="}" horiz-adv-x="768" d="M217 366q0 55 5 92.5t19.5 72.5t41.5 59t69.5 43.5t105.5 35.5q-53 13 -90.5 26.5t-64.5 32.5t-43 39t-25 49.5t-12.5 61t-3.5 77.5q0 29 7.5 132.5t7.5 139.5q0 70 -33 107t-124 44v243q121 -4 201 -24t134 -63.5t77 -112.5t23 -173q0 -42 -8 -142.5t-8 -127.5 q0 -74 58 -122.5t181 -77.5v-222q-119 -31 -179 -86.5t-60 -130.5q0 -23 8 -118t8 -140q0 -191 -97.5 -274.5t-333.5 -91.5v242q47 4 78 17t46.5 36t21 47.5t5.5 60.5t-7.5 127.5t-7.5 120.5z" />
<glyph unicode="~" d="M1041 699l18 -228q-5 -4 -13.5 -11.5t-35 -26.5t-53.5 -33t-65.5 -26t-74.5 -12q-49 0 -140 23.5t-175.5 47t-117.5 23.5q-46 0 -104 -21t-94 -42l-35 -21l-21 229q5 5 15 12t40 26t60 34t70.5 26.5t76.5 11.5q49 0 135.5 -23t171 -46.5t126.5 -23.5q37 0 91 20t89 41z " />
<glyph unicode="&#xa1;" horiz-adv-x="561" d="M435 1065v-343h-307v343h307zM407 532l28 -916h-309l30 916h251z" />
<glyph unicode="&#xa2;" d="M575 -160v221q-388 27 -388 471q0 225 101.5 340t286.5 130v214h234v-224q39 -4 81 -10.5t65 -11.5l23 -5l-9 -213q-168 6 -249 6q-134 0 -188.5 -52t-54.5 -174t55 -174.5t190 -52.5q36 0 98 2t105 4l44 2l9 -213q-84 -21 -169 -27v-233h-234z" />
<glyph unicode="&#xa3;" d="M996 1378l-8 -222q-145 17 -279 17q-57 0 -84 -33t-27 -105v-113h327v-243h-327v-437h264l148 35l45 -239l-173 -38h-722v242h157v437h-136v243h136v126q0 92 15.5 159t43 109.5t73 68t98 35t124.5 9.5q71 0 152.5 -13t127.5 -25z" />
<glyph unicode="&#xa4;" d="M933 4l-155 156q-84 -42 -182 -42q-97 0 -181 42l-155 -156l-197 197l154 153q-40 86 -40 183q0 95 40 181l-154 156l197 195l153 -155q84 43 183 43q98 0 182 -43l155 155l195 -195l-155 -156q43 -84 43 -181q0 -100 -43 -183l155 -153zM596 354q75 0 129.5 54 t54.5 128.5t-54.5 129t-129.5 54.5t-129 -54t-54 -129t54 -129t129 -54z" />
<glyph unicode="&#xa5;" d="M124 620v238h195l-309 548h327l261 -449l260 449h327l-305 -548h189v-238h-321v-96h321v-239h-321v-285h-295v285h-329v239h329v96h-329z" />
<glyph unicode="&#xa6;" horiz-adv-x="579" d="M147 1491h286v-792h-286v792zM147 362h286v-809h-286v809z" />
<glyph unicode="&#xa7;" horiz-adv-x="1100" d="M959 1307l-14 -230q-240 35 -342 35q-84 0 -128 -14t-60.5 -42.5t-16.5 -82.5q0 -12 3.5 -22t13 -19.5t20 -17t31.5 -16t38.5 -14.5t51 -15t60 -16t72.5 -18q66 -16 110 -30t83 -33t62 -41.5t39.5 -54t23 -70.5t6.5 -92q0 -69 -30 -149t-77 -148q29 -26 44.5 -50t26 -69 t10.5 -113q0 -206 -110 -298t-352 -92q-66 0 -165 12.5t-165 24.5l-66 12l28 230q229 -32 346 -32q110 0 160.5 28.5t50.5 93.5q0 57 -52.5 82.5t-235.5 71.5q-9 2 -14 4q-75 19 -125.5 37.5t-92.5 44.5t-65.5 60t-36 80.5t-12.5 108.5q0 74 42.5 159.5t93.5 126.5 q-48 36 -70.5 88t-22.5 142q0 390 461 390q67 0 161 -13t155 -26zM549 607q-17 5 -70 17t-77 19q-13 -21 -24.5 -62.5t-11.5 -74.5q0 -61 24.5 -84.5t103.5 -45.5q73 -19 189 -59q16 21 27.5 69t11.5 87q0 54 -34 80.5t-139 53.5z" />
<glyph unicode="&#xa8;" horiz-adv-x="569" d="M-63 1270v281h272v-281h-272zM396 1270v281h273v-281h-273z" />
<glyph unicode="&#xa9;" horiz-adv-x="1368" d="M98 925q0 129 44 241t121.5 192t186.5 125.5t235 45.5q131 0 242.5 -48.5t186 -131t116.5 -192.5t42 -232q0 -129 -42 -240t-117.5 -192t-187 -127.5t-244.5 -46.5q-123 0 -232 47t-185.5 127.5t-121 192.5t-44.5 239zM230 925q0 -129 58 -238.5t162 -174.5t231 -65 q130 0 236 64.5t164.5 173.5t58.5 240q0 96 -35 183.5t-95.5 152t-145.5 103t-180.5 38.5t-180.5 -38.5t-144.5 -103t-94 -152t-34.5 -183.5zM867 786l15 -174q-7 -5 -20 -11.5t-59.5 -17t-99.5 -10.5q-74 0 -122.5 16t-83.5 56t-50.5 111t-15.5 179q0 129 30 203.5 t89.5 105t160.5 30.5q46 0 88.5 -8t62.5 -16l20 -8l-15 -183q-75 12 -143 12q-42 0 -58 -29t-16 -107q0 -85 17 -122.5t57 -37.5q30 0 66 3t57 5z" />
<glyph unicode="&#xaa;" horiz-adv-x="885" d="M748 1159v-301q16 -12 38 -17l-4 -174q-77 0 -126.5 4t-77.5 14.5t-40.5 21.5t-25.5 30q-4 -2 -10.5 -7t-27.5 -16.5t-42.5 -20.5t-52 -16.5t-58.5 -7.5q-112 0 -172 62.5t-60 171.5q0 104 67 156.5t204 58.5l142 6v47q0 32 -93 32q-42 0 -111.5 -3.5t-118.5 -7.5l-49 -3 l-6 159q17 6 46 15.5t108 25t146 15.5q64 0 111.5 -6t89 -22.5t67.5 -44t41 -70.5t15 -102zM502 976l-100 -7q-34 -3 -50.5 -16t-16.5 -41q0 -30 15.5 -43t49.5 -13q19 0 44.5 8.5t41.5 17.5l16 8v86z" />
<glyph unicode="&#xab;" horiz-adv-x="1279" d="M561 679l-233 -159l233 -183v-288l-476 364v205l476 349v-288zM1163 679l-232 -159l232 -183v-288l-475 364v205l475 349v-288z" />
<glyph unicode="&#xac;" d="M122 762h928v-540h-255v284h-673v256z" />
<glyph unicode="&#xad;" horiz-adv-x="868" d="M120 437v260h630v-260h-630z" />
<glyph unicode="&#xae;" horiz-adv-x="1368" d="M98 925q0 129 44 241t121 192t186 125.5t234 45.5q132 0 243.5 -48.5t186.5 -131t117 -192.5t42 -232q0 -128 -42 -239.5t-117 -192.5t-186 -127.5t-244 -46.5q-124 0 -233 47t-186 127.5t-121.5 192.5t-44.5 239zM230 925q0 -96 35.5 -184t95.5 -152.5t144.5 -103 t177.5 -38.5q130 0 235 64.5t163.5 174t58.5 239.5q0 96 -35 183.5t-95.5 152t-145.5 103t-181 38.5q-94 0 -179 -38.5t-144.5 -103t-94.5 -152t-35 -183.5zM754 588l-59 198h-63v-198h-204v670h290q111 0 177 -54t66 -169q0 -83 -17.5 -128.5t-63.5 -83.5l87 -235h-213z M630 1106v-169h61q34 0 52.5 23t18.5 60q0 40 -18.5 63t-55.5 23h-58z" />
<glyph unicode="&#xaf;" horiz-adv-x="569" d="M-10 1272v212h611v-212h-611z" />
<glyph unicode="&#xb0;" d="M277 1154q0 142 88.5 231t230.5 89t231 -89t89 -231q0 -141 -89 -229t-231 -88t-230.5 88t-88.5 229zM437 1154q0 -72 43.5 -117t115.5 -45t118 45.5t46 116.5q0 72 -46 118.5t-118 46.5q-71 0 -115 -46t-44 -119z" />
<glyph unicode="&#xb1;" d="M106 575v256h361v230h255v-230h364v-256h-364v-213h-255v213h-361zM106 296h980v-255h-980v255z" />
<glyph unicode="&#xb2;" horiz-adv-x="595" d="M537 1018h-492v192l156 125q54 43 75.5 70.5t21.5 51.5q0 19 -18.5 25.5t-60.5 6.5q-20 0 -60.5 -3t-71.5 -7l-30 -3l-8 211q156 19 252 19q130 0 183 -49t53 -164q0 -70 -27.5 -118t-92.5 -95l-80 -59h200v-203z" />
<glyph unicode="&#xb3;" horiz-adv-x="595" d="M51 1687q145 19 230 19q129 0 193.5 -46.5t64.5 -143.5q0 -112 -62 -148q38 -16 56 -52.5t18 -103.5q0 -108 -65.5 -163t-184.5 -55q-47 0 -111.5 4.5t-105.5 9.5l-41 4l12 198q130 -13 201 -13q34 0 47.5 7.5t13.5 26.5t-12 24t-43 5h-140v181h136q43 0 43 31 q0 32 -59 32q-35 0 -79.5 -2.5t-71.5 -5.5l-28 -3z" />
<glyph unicode="&#xb4;" horiz-adv-x="569" d="M10 1386l537 218l85 -245l-557 -158z" />
<glyph unicode="&#xb5;" d="M773 1065h286v-1065h-284v59q-6 -3 -17 -9t-43.5 -20.5t-63.5 -26t-71 -20.5t-71 -9q-41 0 -90 7v-428h-285v1512h285v-616q1 -49 4.5 -81t12.5 -60.5t25.5 -44.5t43 -24.5t64.5 -8.5q47 0 98 9.5t78 19.5l28 9v797z" />
<glyph unicode="&#xb6;" horiz-adv-x="1275" d="M846 0v1205h-133v-1205h-242v609h-15q-179 0 -288 116t-109 301q0 122 49.5 218t141 150.5t210.5 54.5h705v-244h-76v-1205h-243z" />
<glyph unicode="&#xb7;" horiz-adv-x="544" d="M120 356v353h306v-353h-306z" />
<glyph unicode="&#xb8;" horiz-adv-x="561" d="M498 -270q0 -122 -62 -183t-174 -61q-41 0 -90.5 6t-78.5 12l-30 6l10 167q65 -3 102 -3q81 0 81 56q0 26 -18.5 36t-62.5 10h-51v226h112v-81q54 -1 92 -5.5t72 -16.5t54.5 -33t32 -55t11.5 -81z" />
<glyph unicode="&#xb9;" horiz-adv-x="595" d="M21 1523l227 160h203v-665h-225v415l-100 -67z" />
<glyph unicode="&#xba;" horiz-adv-x="894" d="M449 1404q180 0 270 -88.5t90 -274.5q0 -372 -360 -372q-364 0 -364 372q0 186 91.5 274.5t272.5 88.5zM449 892q61 0 81.5 34t20.5 113q0 78 -20.5 110.5t-81.5 32.5t-84.5 -33.5t-23.5 -109.5q0 -77 23.5 -112t84.5 -35z" />
<glyph unicode="&#xbb;" horiz-adv-x="1283" d="M952 520l-232 159v288l475 -349v-205l-475 -364v288zM349 520l-231 159v288l474 -349v-205l-474 -364v288z" />
<glyph unicode="&#xbc;" horiz-adv-x="1166" d="M38 1523l226 160h205v-665h-227v415l-100 -67zM61 61l838 1347l113 -75l-837 -1348zM872 -213v75h-282v187l83 402h252l-112 -388h59l29 193h194v-193h23v-201h-23v-75h-223z" />
<glyph unicode="&#xbd;" horiz-adv-x="1154" d="M38 1523l226 160h205v-665h-227v415l-100 -67zM61 61l838 1347l113 -75l-837 -1348zM1091 -213h-493v192l156 125q54 43 76 70t22 52q0 18 -18.5 25t-60.5 7q-21 0 -61.5 -3t-70.5 -6l-29 -4l-9 211q155 19 251 19q131 0 184 -49t53 -164q0 -71 -27.5 -118.5t-92.5 -94.5 l-81 -59h201v-203z" />
<glyph unicode="&#xbe;" horiz-adv-x="1193" d="M85 1687q145 19 230 19q129 0 193.5 -46.5t64.5 -143.5q0 -112 -61 -148q37 -16 55.5 -52.5t18.5 -103.5q0 -108 -66 -163t-185 -55q-46 0 -110.5 4.5t-106.5 9.5l-41 4l12 198q131 -13 201 -13q34 0 48 7.5t14 26.5t-12 24t-44 5h-140v181h136q43 0 43 31q0 32 -58 32 q-35 0 -80 -2.5t-72 -5.5l-27 -3zM92 61l837 1347l112 -75l-836 -1348zM901 -213v75h-281v187l83 402h252l-112 -388h58l30 193h193v-193h24v-201h-24v-75h-223z" />
<glyph unicode="&#xbf;" horiz-adv-x="921" d="M61 -59q0 76 6.5 125.5t26 95t53 81.5t89.5 78q55 43 88.5 74t48.5 56t19 42.5t4 43.5v66h228q3 -3 7.5 -8.5t16 -24.5t20 -40t16 -54t7.5 -67q0 -42 -35 -86.5t-119 -113.5q-82 -65 -118.5 -101.5t-48.5 -65t-12 -70.5q0 -60 40 -92.5t141 -32.5q63 0 139.5 8.5 t121.5 16.5l46 8l14 -215q-7 -3 -20.5 -8t-55 -17.5t-82 -22.5t-97.5 -18t-107 -8q-230 0 -333.5 83t-103.5 267zM671 1065v-343h-307v343h307z" />
<glyph unicode="&#xc0;" horiz-adv-x="1281" d="M36 0l326 1449h558l326 -1449h-294l-58 262h-506l-58 -262h-294zM590 1205l-147 -687h396l-146 687h-103zM390 2012l537 -225l-71 -198l-553 169z" />
<glyph unicode="&#xc1;" horiz-adv-x="1281" d="M36 0l326 1449h558l326 -1449h-294l-58 262h-506l-58 -262h-294zM590 1205l-147 -687h396l-146 687h-103zM345 1787l537 225l87 -254l-554 -169z" />
<glyph unicode="&#xc2;" horiz-adv-x="1281" d="M36 0l326 1449h558l326 -1449h-294l-58 262h-506l-58 -262h-294zM590 1205l-147 -687h396l-146 687h-103zM228 1630l286 317h248l286 -317h-302l-105 118l-111 -118h-302z" />
<glyph unicode="&#xc3;" horiz-adv-x="1281" d="M36 0l326 1449h558l326 -1449h-294l-58 262h-506l-58 -262h-294zM590 1205l-147 -687h396l-146 687h-103zM973 1955l62 -207q-5 -5 -13 -14t-33.5 -32.5t-51.5 -41t-62 -32t-68 -14.5q-47 0 -122 24.5t-142 49.5t-96 25q-16 0 -40 -9.5t-46 -22.5t-41.5 -26t-31.5 -22 l-11 -10l-62 204q5 6 13.5 15t34 32.5t51.5 41.5t61.5 33t67.5 15q56 0 132 -24.5t138.5 -49t85.5 -24.5q24 0 68 22t75 45z" />
<glyph unicode="&#xc4;" horiz-adv-x="1281" d="M36 0l326 1449h558l326 -1449h-294l-58 262h-506l-58 -262h-294zM590 1205l-147 -687h396l-146 687h-103zM275 1628v280h272v-280h-272zM730 1628v280h274v-280h-274z" />
<glyph unicode="&#xc5;" horiz-adv-x="1281" d="M961 1536q0 -63 -32 -126l317 -1410h-294l-58 262h-506l-58 -262h-294l318 1410q-33 57 -33 126q0 84 44 146t115.5 92t160.5 30q87 0 159 -30t116.5 -92t44.5 -146zM590 1205l-147 -687h396l-146 687h-103zM516 1536q0 -38 30 -62t82 -25h13q57 0 91 23.5t34 63.5 t-34 63.5t-91.5 23.5t-91 -23.5t-33.5 -63.5z" />
<glyph unicode="&#xc6;" horiz-adv-x="1854" d="M835 0v248h-453l-63 -248h-293l391 1470h1351v-281h-644v-305h516v-279h-516v-324h644v-281h-933zM624 1189l-171 -659h382l2 659h-213z" />
<glyph unicode="&#xc7;" horiz-adv-x="1156" d="M933 -270q0 -122 -62.5 -183t-173.5 -61q-41 0 -90.5 6t-79.5 12l-29 6l8 167q67 -3 103 -3q82 0 82 56q0 26 -18.5 36t-63.5 10h-51v203q-109 10 -188 46.5t-131 95t-83 149.5t-43.5 199t-12.5 255q0 141 11 246.5t37 191.5t67.5 143t104 96t144 56t190.5 17 q177 0 423 -58l-8 -234q-78 12 -191 22t-181 10q-59 0 -100 -7.5t-75.5 -28.5t-56 -55t-36.5 -89.5t-21 -130.5t-6 -179q0 -102 5 -172t18 -128t34 -92t56 -57t80 -32t110 -9q68 0 180.5 10t183.5 20l6 -240q-79 -18 -196.5 -33.5t-207.5 -16.5v-53q54 -1 91.5 -5.5 t72 -16.5t54.5 -33t32 -55t12 -81z" />
<glyph unicode="&#xc8;" horiz-adv-x="1179" d="M158 0v1449h937v-256h-644v-339h516v-251h-516v-347h644v-256h-937zM384 2012l536 -225l-70 -198l-554 169z" />
<glyph unicode="&#xc9;" horiz-adv-x="1179" d="M158 0v1449h937v-256h-644v-339h516v-251h-516v-347h644v-256h-937zM328 1787l536 225l88 -254l-554 -169z" />
<glyph unicode="&#xca;" horiz-adv-x="1179" d="M158 0v1449h937v-256h-644v-339h516v-251h-516v-347h644v-256h-937zM224 1630l285 317h249l286 -317h-302l-106 118l-110 -118h-302z" />
<glyph unicode="&#xcb;" horiz-adv-x="1179" d="M158 0v1449h937v-256h-644v-339h516v-251h-516v-347h644v-256h-937zM262 1628v280h273v-280h-273zM718 1628v280h272v-280h-272z" />
<glyph unicode="&#xcc;" horiz-adv-x="608" d="M158 0v1449h293v-1449h-293zM36 2012l537 -225l-71 -198l-553 169z" />
<glyph unicode="&#xcd;" horiz-adv-x="608" d="M158 0v1449h293v-1449h-293zM15 1787l536 225l88 -254l-554 -169z" />
<glyph unicode="&#xce;" horiz-adv-x="608" d="M158 0v1449h293v-1449h-293zM-106 1630l285 317h249l285 -317h-302l-104 118l-111 -118h-302z" />
<glyph unicode="&#xcf;" horiz-adv-x="608" d="M158 0v1449h293v-1449h-293zM-59 1628v280h272v-280h-272zM396 1628v280h273v-280h-273z" />
<glyph unicode="&#xd0;" horiz-adv-x="1366" d="M53 590v282h115v598h484q108 0 193 -14.5t149.5 -41t111.5 -70.5t78.5 -99t49.5 -130.5t26 -159.5t8 -193q0 -87 -4 -157.5t-14 -139t-26.5 -122.5t-41.5 -103.5t-59 -86t-80 -66.5t-103.5 -48.5t-129.5 -28.5t-158 -10h-484v590h-115zM965 762q0 55 -1.5 94t-5 80.5 t-11 70t-19 57t-28.5 47t-40 35t-53.5 25.5t-68.5 14.5t-86 5.5h-194v-319h277v-282h-277v-311h194q47 0 86 7t69 19t53 32.5t40 43t28.5 56t18.5 66t11 77t5.5 86t1.5 96.5z" />
<glyph unicode="&#xd1;" horiz-adv-x="1475" d="M158 0v1449h496l350 -1193h20v1193h295v-1449h-484l-362 1193h-22v-1193h-293zM1075 1955l63 -207q-5 -5 -13.5 -14t-34 -32.5t-51.5 -41t-62 -32t-68 -14.5q-47 0 -122 24.5t-142.5 49.5t-95.5 25q-26 0 -68.5 -22.5t-71.5 -44.5l-29 -23l-63 204q5 6 13.5 15t34 32.5 t51.5 41.5t61.5 33t67.5 15q56 0 132 -24.5t138.5 -49t85.5 -24.5q24 0 67.5 22t75.5 45z" />
<glyph unicode="&#xd2;" horiz-adv-x="1388" d="M694.5 230q71.5 0 122.5 19t85 55t54 96.5t28 135.5t8 180q0 104 -8 180.5t-28 140t-53.5 102t-85 59t-122.5 20.5t-122.5 -20.5t-85.5 -59.5t-54 -102t-28.5 -139.5t-8.5 -180.5q0 -105 8.5 -180t28.5 -135.5t54 -96.5t85 -55t122.5 -19zM695 -26q-136 0 -237.5 30.5 t-171 89t-112.5 150t-61.5 206.5t-18.5 266t18.5 267t61.5 210.5t112 155t171 93t237.5 32.5t237.5 -32.5t171 -93t112 -155t61.5 -210.5t18.5 -267.5t-19 -266t-61.5 -206t-111.5 -150t-170.5 -89t-237.5 -30.5zM435 2012l536 -225l-70 -198l-554 169z" />
<glyph unicode="&#xd3;" horiz-adv-x="1388" d="M694.5 230q71.5 0 122.5 19t85 55t54 96.5t28 135.5t8 180q0 104 -8 180.5t-28 140t-53.5 102t-85 59t-122.5 20.5t-122.5 -20.5t-85.5 -59.5t-54 -102t-28.5 -139.5t-8.5 -180.5q0 -105 8.5 -180t28.5 -135.5t54 -96.5t85 -55t122.5 -19zM695 -26q-136 0 -237.5 30.5 t-171 89t-112.5 150t-61.5 206.5t-18.5 266t18.5 267t61.5 210.5t112 155t171 93t237.5 32.5t237.5 -32.5t171 -93t112 -155t61.5 -210.5t18.5 -267.5t-19 -266t-61.5 -206t-111.5 -150t-170.5 -89t-237.5 -30.5zM356 1787l536 225l88 -254l-554 -169z" />
<glyph unicode="&#xd4;" horiz-adv-x="1388" d="M694.5 230q71.5 0 122.5 19t85 55t54 96.5t28 135.5t8 180q0 104 -8 180.5t-28 140t-53.5 102t-85 59t-122.5 20.5t-122.5 -20.5t-85.5 -59.5t-54 -102t-28.5 -139.5t-8.5 -180.5q0 -105 8.5 -180t28.5 -135.5t54 -96.5t85 -55t122.5 -19zM695 -26q-136 0 -237.5 30.5 t-171 89t-112.5 150t-61.5 206.5t-18.5 266t18.5 267t61.5 210.5t112 155t171 93t237.5 32.5t237.5 -32.5t171 -93t112 -155t61.5 -210.5t18.5 -267.5t-19 -266t-61.5 -206t-111.5 -150t-170.5 -89t-237.5 -30.5zM287 1630l286 317h250l285 -317h-303l-104 118l-111 -118 h-303z" />
<glyph unicode="&#xd5;" horiz-adv-x="1388" d="M694.5 230q71.5 0 122.5 19t85 55t54 96.5t28 135.5t8 180q0 104 -8 180.5t-28 140t-53.5 102t-85 59t-122.5 20.5t-122.5 -20.5t-85.5 -59.5t-54 -102t-28.5 -139.5t-8.5 -180.5q0 -105 8.5 -180t28.5 -135.5t54 -96.5t85 -55t122.5 -19zM695 -26q-136 0 -237.5 30.5 t-171 89t-112.5 150t-61.5 206.5t-18.5 266t18.5 267t61.5 210.5t112 155t171 93t237.5 32.5t237.5 -32.5t171 -93t112 -155t61.5 -210.5t18.5 -267.5t-19 -266t-61.5 -206t-111.5 -150t-170.5 -89t-237.5 -30.5zM1041 1955l62 -207q-4 -5 -12.5 -14t-34 -32.5t-51 -41 t-61.5 -32t-68 -14.5q-47 0 -122 24.5t-142.5 49.5t-95.5 25q-27 0 -69.5 -22.5t-71.5 -44.5l-30 -23l-62 204q5 6 13 15t34.5 32.5t52 41.5t61.5 33t68 15q56 0 132 -24.5t138.5 -49t84.5 -24.5q25 0 68.5 22t74.5 45z" />
<glyph unicode="&#xd6;" horiz-adv-x="1388" d="M694.5 230q71.5 0 122.5 19t85 55t54 96.5t28 135.5t8 180q0 104 -8 180.5t-28 140t-53.5 102t-85 59t-122.5 20.5t-122.5 -20.5t-85.5 -59.5t-54 -102t-28.5 -139.5t-8.5 -180.5q0 -105 8.5 -180t28.5 -135.5t54 -96.5t85 -55t122.5 -19zM695 -26q-136 0 -237.5 30.5 t-171 89t-112.5 150t-61.5 206.5t-18.5 266t18.5 267t61.5 210.5t112 155t171 93t237.5 32.5t237.5 -32.5t171 -93t112 -155t61.5 -210.5t18.5 -267.5t-19 -266t-61.5 -206t-111.5 -150t-170.5 -89t-237.5 -30.5zM330 1628v280h273v-280h-273zM786 1628v280h273v-280h-273z " />
<glyph unicode="&#xd7;" d="M303 1008l293 -301l298 305l179 -181l-304 -299l304 -296l-181 -181l-296 303l-295 -301l-181 179l302 296l-300 295z" />
<glyph unicode="&#xd8;" horiz-adv-x="1388" d="M695 -26q-101 0 -205 22l-124 -266l-208 104l123 264q-100 89 -143.5 240t-43.5 378q0 151 18.5 267t61.5 210.5t112 155t171 93t238 32.5q122 0 214 -25l130 276l213 -91l-138 -299q95 -92 138 -245.5t43 -373.5q0 -152 -19 -266.5t-61.5 -206t-111.5 -150t-170.5 -89 t-237.5 -30.5zM396 716q0 -199 32 -303l369 790q-53 15 -102 15q-71 0 -122.5 -20.5t-85.5 -59.5t-54 -102t-28.5 -139.5t-8.5 -180.5zM695 230q71 0 122 19t85 55t54 96.5t28 135.5t8 180q0 188 -29 296l-360 -774q38 -8 92 -8z" />
<glyph unicode="&#xd9;" horiz-adv-x="1392" d="M439 484q0 -129 64 -191.5t194 -62.5q258 0 258 254v965h293v-959q0 -267 -137.5 -391.5t-414 -124.5t-414 124.5t-137.5 391.5v959h294v-965zM460 2012l536 -225l-69 -198l-555 169z" />
<glyph unicode="&#xda;" horiz-adv-x="1392" d="M439 484q0 -129 64 -191.5t194 -62.5q258 0 258 254v965h293v-959q0 -267 -137.5 -391.5t-414 -124.5t-414 124.5t-137.5 391.5v959h294v-965zM372 1787l537 225l87 -254l-553 -169z" />
<glyph unicode="&#xdb;" horiz-adv-x="1392" d="M439 484q0 -129 64 -191.5t194 -62.5q258 0 258 254v965h293v-959q0 -267 -137.5 -391.5t-414 -124.5t-414 124.5t-137.5 391.5v959h294v-965zM287 1630l286 317h250l285 -317h-303l-104 118l-111 -118h-303z" />
<glyph unicode="&#xdc;" horiz-adv-x="1392" d="M439 484q0 -129 64 -191.5t194 -62.5q258 0 258 254v965h293v-959q0 -267 -137.5 -391.5t-414 -124.5t-414 124.5t-137.5 391.5v959h294v-965zM332 1628v280h273v-280h-273zM788 1628v280h273v-280h-273z" />
<glyph unicode="&#xdd;" horiz-adv-x="1185" d="M742 586v-586h-295v586l-447 863h326l266 -577l266 577h327zM283 1787l537 225l87 -254l-553 -169z" />
<glyph unicode="&#xde;" horiz-adv-x="1268" d="M688 496q109 0 166.5 67t57.5 189q0 117 -56 172.5t-168 55.5h-237v-484h237zM691 211h-240v-211h-293v1470h293v-210h240q257 0 388 -127t131 -381q0 -259 -133 -400t-386 -141z" />
<glyph unicode="&#xdf;" horiz-adv-x="1301" d="M417 0h-285v1112q0 218 114.5 311t377.5 93q247 0 368.5 -78t121.5 -256q0 -60 -12 -102.5t-40 -73t-60.5 -50.5t-87.5 -44q-78 -35 -102 -54t-24 -47q0 -22 12.5 -37.5t54 -39t133.5 -65.5q61 -29 100 -51t73.5 -49.5t52.5 -57.5t28 -70t10 -92q0 -110 -23 -181.5 t-76.5 -115t-132 -61t-197.5 -17.5q-63 0 -145 12.5t-133 24.5l-51 13l8 228q207 -26 286 -26q96 0 133.5 21.5t37.5 59.5q0 25 -5 40t-27.5 33t-57.5 35t-105 47q-150 64 -210 135.5t-60 186.5q0 103 38.5 162.5t125.5 94.5q100 41 131 64t31 56q0 57 -43 81t-153 24 q-118 0 -162.5 -37.5t-44.5 -122.5v-1106z" />
<glyph unicode="&#xe0;" horiz-adv-x="1087" d="M947 733v-443q4 -51 17 -72t54 -29l-8 -215q-109 0 -174 15.5t-131 59.5q-6 -3 -17.5 -8t-46.5 -18t-70 -23t-84.5 -18t-94.5 -8q-166 0 -248.5 89t-82.5 260q0 89 25 150t75.5 97.5t115.5 54.5t158 25l227 17v66q0 66 -29 90.5t-96 24.5q-63 0 -163 -4.5t-169 -8.5 l-69 -4l-8 198q25 7 68.5 17t158.5 27.5t206 17.5q206 0 296 -84.5t90 -273.5zM662 469l-193 -18q-120 -10 -120 -119q0 -125 104 -125q41 0 93.5 8.5t84.5 16.5l31 8v229zM305 1604l536 -218l-63 -185l-559 158z" />
<glyph unicode="&#xe1;" horiz-adv-x="1087" d="M947 733v-443q4 -51 17 -72t54 -29l-8 -215q-109 0 -174 15.5t-131 59.5q-6 -3 -17.5 -8t-46.5 -18t-70 -23t-84.5 -18t-94.5 -8q-166 0 -248.5 89t-82.5 260q0 89 25 150t75.5 97.5t115.5 54.5t158 25l227 17v66q0 66 -29 90.5t-96 24.5q-63 0 -163 -4.5t-169 -8.5 l-69 -4l-8 198q25 7 68.5 17t158.5 27.5t206 17.5q206 0 296 -84.5t90 -273.5zM662 469l-193 -18q-120 -10 -120 -119q0 -125 104 -125q41 0 93.5 8.5t84.5 16.5l31 8v229zM205 1386l537 218l85 -245l-559 -158z" />
<glyph unicode="&#xe2;" horiz-adv-x="1087" d="M947 733v-443q4 -51 17 -72t54 -29l-8 -215q-109 0 -174 15.5t-131 59.5q-6 -3 -17.5 -8t-46.5 -18t-70 -23t-84.5 -18t-94.5 -8q-166 0 -248.5 89t-82.5 260q0 89 25 150t75.5 97.5t115.5 54.5t158 25l227 17v66q0 66 -29 90.5t-96 24.5q-63 0 -163 -4.5t-169 -8.5 l-69 -4l-8 198q25 7 68.5 17t158.5 27.5t206 17.5q206 0 296 -84.5t90 -273.5zM662 469l-193 -18q-120 -10 -120 -119q0 -125 104 -125q41 0 93.5 8.5t84.5 16.5l31 8v229zM177 1236l268 321h179l272 -321h-262l-97 142l-98 -142h-262z" />
<glyph unicode="&#xe3;" horiz-adv-x="1087" d="M947 733v-443q4 -51 17 -72t54 -29l-8 -215q-109 0 -174 15.5t-131 59.5q-6 -3 -17.5 -8t-46.5 -18t-70 -23t-84.5 -18t-94.5 -8q-166 0 -248.5 89t-82.5 260q0 89 25 150t75.5 97.5t115.5 54.5t158 25l227 17v66q0 66 -29 90.5t-96 24.5q-63 0 -163 -4.5t-169 -8.5 l-69 -4l-8 198q25 7 68.5 17t158.5 27.5t206 17.5q206 0 296 -84.5t90 -273.5zM662 469l-193 -18q-120 -10 -120 -119q0 -125 104 -125q41 0 93.5 8.5t84.5 16.5l31 8v229zM778 1540l61 -162q-4 -5 -12.5 -14t-34 -32t-51 -40.5t-60 -31.5t-65.5 -14q-38 0 -92 19t-104 38.5 t-79 19.5q-26 0 -67 -16.5t-69 -33.5l-28 -17l-62 160q5 6 13 14.5t33.5 30.5t50.5 39t59.5 30.5t65.5 13.5q37 0 92 -19t104.5 -38.5t73.5 -19.5q25 0 67.5 18.5t73.5 36.5z" />
<glyph unicode="&#xe4;" horiz-adv-x="1087" d="M947 733v-443q4 -51 17 -72t54 -29l-8 -215q-109 0 -174 15.5t-131 59.5q-6 -3 -17.5 -8t-46.5 -18t-70 -23t-84.5 -18t-94.5 -8q-166 0 -248.5 89t-82.5 260q0 89 25 150t75.5 97.5t115.5 54.5t158 25l227 17v66q0 66 -29 90.5t-96 24.5q-63 0 -163 -4.5t-169 -8.5 l-69 -4l-8 198q25 7 68.5 17t158.5 27.5t206 17.5q206 0 296 -84.5t90 -273.5zM662 469l-193 -18q-120 -10 -120 -119q0 -125 104 -125q41 0 93.5 8.5t84.5 16.5l31 8v229zM138 1270v281h273v-281h-273zM598 1270v281h274v-281h-274z" />
<glyph unicode="&#xe5;" horiz-adv-x="1087" d="M947 733v-443q4 -51 17 -72t54 -29l-8 -215q-109 0 -174 15.5t-131 59.5q-6 -3 -17.5 -8t-46.5 -18t-70 -23t-84.5 -18t-94.5 -8q-166 0 -248.5 89t-82.5 260q0 89 25 150t75.5 97.5t115.5 54.5t158 25l227 17v66q0 66 -29 90.5t-96 24.5q-63 0 -163 -4.5t-169 -8.5 l-69 -4l-8 198q25 7 68.5 17t158.5 27.5t206 17.5q206 0 296 -84.5t90 -273.5zM662 469l-193 -18q-120 -10 -120 -119q0 -125 104 -125q41 0 93.5 8.5t84.5 16.5l31 8v229zM315 1359q0 105 71.5 177t178.5 72q103 0 175.5 -72.5t72.5 -176.5q0 -106 -72 -177.5t-176 -71.5 q-107 0 -178.5 71t-71.5 178zM469 1359q0 -43 27.5 -71t70.5 -28q41 0 68 28t27 71q0 42 -27 69t-68 27q-43 0 -70.5 -27t-27.5 -69z" />
<glyph unicode="&#xe6;" horiz-adv-x="1669" d="M1163 236q77 0 175.5 5t158.5 10l60 5l4 -222q-27 -6 -73.5 -16t-164 -27t-205.5 -17q-217 0 -326 103l-48 -24q-179 -79 -364 -79q-156 0 -237.5 93t-81.5 256q0 88 25 150t75 99.5t116 56t156 23.5l229 15v53q0 42 -29.5 68.5t-76.5 26.5q-70 0 -173.5 -5.5 t-171.5 -11.5l-69 -6l-8 249q283 48 439 48q184 0 275 -79q113 79 282 79q235 0 350 -119t115 -361l-21 -200h-627q2 -92 52 -132.5t164 -40.5zM437 219q39 0 95 8.5t93 16.5l37 8q0 32 -1 98.5t-1 98.5l-191 -8q-59 -3 -89.5 -28.5t-30.5 -80.5q0 -113 88 -113zM947 628 h368q0 113 -42 160t-143 47t-142 -49t-41 -158z" />
<glyph unicode="&#xe7;" horiz-adv-x="949" d="M805 -270q0 -122 -62 -183t-174 -61q-41 0 -90.5 6t-78.5 12l-30 6l10 167q65 -3 102 -3q81 0 81 56q0 26 -18.5 36t-62.5 10h-51v205q-186 24 -268 157.5t-82 404.5q0 284 106.5 416t342.5 132q55 0 140.5 -11.5t143.5 -23.5l58 -12l-10 -227q-167 18 -248 18 q-62 0 -104.5 -10.5t-70 -30.5t-42.5 -56.5t-21 -81.5t-6 -113q0 -63 4 -106.5t14.5 -80.5t27.5 -59.5t45 -38t65.5 -22t89.5 -6.5q36 0 97.5 4.5t105.5 8.5l43 5l10 -229q-208 -41 -329 -45v-53q54 -1 91.5 -5.5t72 -16.5t54.5 -33t32 -55t12 -81z" />
<glyph unicode="&#xe8;" horiz-adv-x="1085" d="M581 226q78 0 176.5 5t158.5 10l60 4l4 -211q-28 -6 -74 -16t-164 -27t-205 -17q-242 0 -350 128t-108 416q0 285 118.5 429t351.5 144q234 0 349.5 -120t115.5 -362l-22 -198h-626q2 -97 52 -141t163 -44zM364 628h369q0 128 -41 178t-143 50q-101 0 -142 -52.5 t-43 -175.5zM319 1604l537 -218l-64 -185l-558 158z" />
<glyph unicode="&#xe9;" horiz-adv-x="1085" d="M581 226q78 0 176.5 5t158.5 10l60 4l4 -211q-28 -6 -74 -16t-164 -27t-205 -17q-242 0 -350 128t-108 416q0 285 118.5 429t351.5 144q234 0 349.5 -120t115.5 -362l-22 -198h-626q2 -97 52 -141t163 -44zM364 628h369q0 128 -41 178t-143 50q-101 0 -142 -52.5 t-43 -175.5zM224 1386l536 218l86 -245l-559 -158z" />
<glyph unicode="&#xea;" horiz-adv-x="1085" d="M581 226q78 0 176.5 5t158.5 10l60 4l4 -211q-28 -6 -74 -16t-164 -27t-205 -17q-242 0 -350 128t-108 416q0 285 118.5 429t351.5 144q234 0 349.5 -120t115.5 -362l-22 -198h-626q2 -97 52 -141t163 -44zM364 628h369q0 128 -41 178t-143 50q-101 0 -142 -52.5 t-43 -175.5zM189 1236l269 321h178l273 -321h-261l-99 142l-98 -142h-262z" />
<glyph unicode="&#xeb;" horiz-adv-x="1085" d="M581 226q78 0 176.5 5t158.5 10l60 4l4 -211q-28 -6 -74 -16t-164 -27t-205 -17q-242 0 -350 128t-108 416q0 285 118.5 429t351.5 144q234 0 349.5 -120t115.5 -362l-22 -198h-626q2 -97 52 -141t163 -44zM364 628h369q0 128 -41 178t-143 50q-101 0 -142 -52.5 t-43 -175.5zM179 1270v281h272v-281h-272zM639 1270v281h273v-281h-273z" />
<glyph unicode="&#xec;" horiz-adv-x="549" d="M132 0v1065h285v-1065h-285zM-41 1604l537 -218l-63 -185l-559 158z" />
<glyph unicode="&#xed;" horiz-adv-x="549" d="M66 1386l537 218l85 -245l-558 -158zM132 1065v-1065h285v1065h-285z" />
<glyph unicode="&#xee;" horiz-adv-x="549" d="M132 1065v-1065h285v1065h-285zM-96 1236l269 321h179l272 -321h-262l-98 142l-98 -142h-262z" />
<glyph unicode="&#xef;" horiz-adv-x="549" d="M132 1065v-1065h285v1065h-285zM-102 1270v281h273v-281h-273zM358 1270v281h272v-281h-272z" />
<glyph unicode="&#xf0;" horiz-adv-x="1207" d="M358 994l-116 162l163 110q-114 28 -230 51l38 199q255 -18 445 -83l204 136l116 -161l-116 -77q262 -187 262 -592q0 -390 -127.5 -574t-415.5 -184q-246 0 -373 119t-127 360q0 108 28.5 194t84.5 149t145 96.5t206 33.5q65 0 134.5 -13t106.5 -25l37 -13 q-10 100 -53 171.5t-138 124.5zM563 681q-46 0 -81 -19t-56 -50.5t-31.5 -70.5t-10.5 -81q0 -224 197 -224q120 0 181 94t61 304q-12 6 -34 13.5t-90 20.5t-136 13z" />
<glyph unicode="&#xf1;" horiz-adv-x="1177" d="M132 0h285v797q11 4 29.5 10.5t69.5 17t96 10.5q40 0 69 -12.5t46.5 -33.5t27 -56.5t13 -73t3.5 -90.5v-569h286v577q0 102 -10.5 179t-36 142t-68 106.5t-107.5 64t-154 22.5q-54 0 -120.5 -21.5t-106.5 -42.5l-39 -21v59h-283v-1065zM899 1540l62 -162q-5 -5 -13 -14 t-33.5 -32t-51 -40.5t-60.5 -31.5t-66 -14q-37 0 -91 19t-104.5 38.5t-79.5 19.5q-27 0 -67.5 -16.5t-68.5 -33.5l-28 -17l-62 160q5 6 13 14.5t33 30.5t50 39t60 30.5t66 13.5q37 0 92 -19t104.5 -38.5t73.5 -19.5t67 18.5t73 36.5z" />
<glyph unicode="&#xf2;" horiz-adv-x="1132" d="M567 1091q109 0 193 -27t139.5 -74.5t91 -118t51 -153t15.5 -184t-15.5 -184.5t-51 -154t-91 -119.5t-139.5 -75.5t-193 -27t-193 27t-139.5 75.5t-91.5 119.5t-51 154t-15 184.5t15 184t51 153t91.5 118t139.5 74.5t193 27zM566.5 217q113.5 0 156.5 76.5t43 241.5 q0 163 -43 238t-156.5 75t-157 -75t-43.5 -238q0 -164 43.5 -241t157 -77zM347 1604l537 -218l-64 -185l-558 158z" />
<glyph unicode="&#xf3;" horiz-adv-x="1132" d="M567 1091q-109 0 -193 -27t-139.5 -74.5t-91.5 -118t-51 -153t-15 -184t15 -184.5t51 -154t91.5 -119.5t139.5 -75.5t193 -27t193 27t139.5 75.5t91 119.5t51 154t15.5 184.5t-15.5 184t-51 153t-91 118t-139.5 74.5t-193 27zM566.5 217q-113.5 0 -157 77t-43.5 241 q0 163 43.5 238t157 75t156.5 -75t43 -238q0 -165 -43 -241.5t-156.5 -76.5zM248 1386l536 218l85 -245l-558 -158z" />
<glyph unicode="&#xf4;" horiz-adv-x="1132" d="M567 1091q-109 0 -193 -27t-139.5 -74.5t-91.5 -118t-51 -153t-15 -184t15 -184.5t51 -154t91.5 -119.5t139.5 -75.5t193 -27t193 27t139.5 75.5t91 119.5t51 154t15.5 184.5t-15.5 184t-51 153t-91 118t-139.5 74.5t-193 27zM566.5 217q-113.5 0 -157 77t-43.5 241 q0 163 43.5 238t157 75t156.5 -75t43 -238q0 -165 -43 -241.5t-156.5 -76.5zM193 1236l269 321h179l273 -321h-262l-99 142l-97 -142h-263z" />
<glyph unicode="&#xf5;" horiz-adv-x="1132" d="M567 1091q-109 0 -193 -27t-139.5 -74.5t-91.5 -118t-51 -153t-15 -184t15 -184.5t51 -154t91.5 -119.5t139.5 -75.5t193 -27t193 27t139.5 75.5t91 119.5t51 154t15.5 184.5t-15.5 184t-51 153t-91 118t-139.5 74.5t-193 27zM566.5 217q-113.5 0 -157 77t-43.5 241 q0 163 43.5 238t157 75t156.5 -75t43 -238q0 -165 -43 -241.5t-156.5 -76.5zM856 1540l62 -162q-4 -5 -12.5 -14t-34 -32t-50.5 -40.5t-60 -31.5t-66 -14q-38 0 -92 19t-104.5 38.5t-79.5 19.5q-26 0 -67 -16.5t-69 -33.5l-27 -17l-63 160q5 6 13 14.5t33.5 30.5t50.5 39 t59.5 30.5t65.5 13.5q37 0 92 -19t104.5 -38.5t73.5 -19.5q25 0 67.5 18.5t73.5 36.5z" />
<glyph unicode="&#xf6;" horiz-adv-x="1132" d="M567 1091q-109 0 -193 -27t-139.5 -74.5t-91.5 -118t-51 -153t-15 -184t15 -184.5t51 -154t91.5 -119.5t139.5 -75.5t193 -27t193 27t139.5 75.5t91 119.5t51 154t15.5 184.5t-15.5 184t-51 153t-91 118t-139.5 74.5t-193 27zM566.5 217q-113.5 0 -157 77t-43.5 241 q0 163 43.5 238t157 75t156.5 -75t43 -238q0 -165 -43 -241.5t-156.5 -76.5zM198 1270v281h273v-281h-273zM658 1270v281h273v-281h-273z" />
<glyph unicode="&#xf7;" d="M453 750v281h282v-281h-282zM106 407v255h980v-255h-980zM453 36v281h282v-281h-282z" />
<glyph unicode="&#xf8;" horiz-adv-x="1132" d="M567 1091q52 0 118 -11l86 213l172 -64l-87 -209q201 -125 201 -485q0 -102 -15.5 -185t-51 -154t-91 -119.5t-139.5 -75.5t-193 -27q-68 0 -134 14l-88 -218l-170 64l91 219q-189 128 -189 482q0 101 15 183.5t51 153t91.5 118t139.5 74.5t193 27zM567 217 q113 0 156 76.5t43 241.5q0 139 -29 211l-213 -527q13 -2 43 -2zM567 848q-114 0 -157.5 -75t-43.5 -238q0 -132 26 -203l202 514q-4 0 -13.5 1t-13.5 1z" />
<glyph unicode="&#xf9;" horiz-adv-x="1177" d="M760 1065h286v-1065h-284v59q-6 -3 -17 -9t-43.5 -20.5t-63 -26t-70.5 -20.5t-72 -9q-66 0 -118.5 11t-91.5 31.5t-67.5 54t-47.5 75t-29.5 98.5t-15 119.5t-4.5 142.5v559h285v-563q0 -46 1 -75t4 -61t9.5 -51t17 -37t26.5 -27.5t38.5 -15t52.5 -5.5q48 0 98.5 9.5 t78.5 19.5l27 9v797zM294 1604l537 -218l-65 -185l-557 158z" />
<glyph unicode="&#xfa;" horiz-adv-x="1177" d="M1046 1065h-286v-797q-11 -4 -30 -10.5t-72.5 -17t-101.5 -10.5q-30 0 -52.5 5.5t-38.5 15t-26.5 27.5t-17 37t-9.5 51t-4 61t-1 75v563h-285v-559q0 -80 4.5 -142.5t15 -119.5t29.5 -98.5t47.5 -75t67.5 -54t91.5 -31.5t118.5 -11q50 0 117 21.5t108 42.5l41 21v-59h284 v1065zM277 1386l536 218l86 -245l-558 -158z" />
<glyph unicode="&#xfb;" horiz-adv-x="1177" d="M1046 1065h-286v-797q-11 -4 -30 -10.5t-72.5 -17t-101.5 -10.5q-30 0 -52.5 5.5t-38.5 15t-26.5 27.5t-17 37t-9.5 51t-4 61t-1 75v563h-285v-559q0 -80 4.5 -142.5t15 -119.5t29.5 -98.5t47.5 -75t67.5 -54t91.5 -31.5t118.5 -11q50 0 117 21.5t108 42.5l41 21v-59h284 v1065zM175 1236l268 321h179l272 -321h-262l-97 142l-98 -142h-262z" />
<glyph unicode="&#xfc;" horiz-adv-x="1177" d="M1046 1065h-286v-797q-11 -4 -30 -10.5t-72.5 -17t-101.5 -10.5q-30 0 -52.5 5.5t-38.5 15t-26.5 27.5t-17 37t-9.5 51t-4 61t-1 75v563h-285v-559q0 -80 4.5 -142.5t15 -119.5t29.5 -98.5t47.5 -75t67.5 -54t91.5 -31.5t118.5 -11q50 0 117 21.5t108 42.5l41 21v-59h284 v1065zM226 1270v281h272v-281h-272zM685 1270v281h274v-281h-274z" />
<glyph unicode="&#xfd;" horiz-adv-x="1064" d="M34 1065h281l194 -823h49l194 823h281l-375 -1512h-278l116 447h-200zM260 1386l537 218l85 -245l-559 -158z" />
<glyph unicode="&#xfe;" horiz-adv-x="1158" d="M573 222q64 0 105.5 17.5t66 58t34 98.5t9.5 147q0 154 -46 223t-133 69q-37 0 -85.5 -7t-77.5 -14l-29 -7v-573q97 -12 156 -12zM648 1091q112 0 190 -27.5t133 -91.5t80.5 -169.5t25.5 -259.5q0 -136 -19.5 -234t-56 -163t-97 -103t-134.5 -53.5t-176 -15.5 q-35 0 -79.5 4.5t-70.5 8.5l-27 5v-439h-285v1938h285v-458q15 6 40.5 16t87 26t103.5 16z" />
<glyph unicode="&#xff;" horiz-adv-x="1064" d="M34 1065h281l194 -823h49l194 823h281l-375 -1512h-278l116 447h-200zM168 1270v281h273v-281h-273zM628 1270v281h273v-281h-273z" />
<glyph unicode="&#x152;" horiz-adv-x="1920" d="M1834 0h-929q-169 -26 -253 -26q-95 0 -171 15.5t-134 45.5t-100.5 78t-71 107.5t-46 140.5t-24.5 170.5t-7 203.5q0 211 28.5 353t95 234.5t171 133t259.5 40.5q84 0 249 -26h933v-281h-643v-305h515v-279h-515v-324h643v-281zM703 264q52 0 198 13v916q-150 12 -206 12 q-59 0 -100 -7.5t-75.5 -28.5t-56 -54t-36.5 -86.5t-21 -124.5t-6 -169q0 -95 5 -161.5t18 -122t34 -89t55.5 -56.5t80.5 -32.5t110 -9.5z" />
<glyph unicode="&#x153;" horiz-adv-x="1776" d="M1270 236q77 0 175.5 5t158.5 10l59 5l5 -222q-27 -6 -73.5 -16t-164 -27t-205.5 -17q-115 0 -194 32.5t-132 113.5q-56 -79 -136.5 -112.5t-195.5 -33.5q-109 0 -193 27t-139.5 75t-91.5 119t-51 153.5t-15 184t15 184t51 153t91.5 118t139.5 74.5t193 27 q123 0 206 -39.5t139 -133.5q56 96 135.5 134.5t190.5 38.5q234 0 348.5 -119t114.5 -361l-20 -200h-626q1 -92 51 -132.5t164 -40.5zM566.5 232q113.5 0 156.5 72.5t43 227.5q0 156 -43 227.5t-156.5 71.5t-157 -72t-43.5 -227t43.5 -227.5t157 -72.5zM1052 628h369 q0 113 -41.5 160t-141.5 47t-143 -50t-43 -157z" />
<glyph unicode="&#x178;" horiz-adv-x="1185" d="M742 586v-586h-295v586l-447 863h326l266 -577l266 577h327zM224 1628v280h272v-280h-272zM679 1628v280h273v-280h-273z" />
<glyph unicode="&#x2c6;" horiz-adv-x="569" d="M-51 1236l268 321h179l273 -321h-262l-98 142l-98 -142h-262z" />
<glyph unicode="&#x2dc;" horiz-adv-x="569" d="M616 1540l61 -162q-5 -5 -13 -14t-33.5 -32t-51 -40.5t-60.5 -31.5t-66 -14q-37 0 -91 19t-104 38.5t-79 19.5q-26 0 -67.5 -16.5t-69.5 -33.5l-27 -17l-62 160q5 6 13 14.5t33 30.5t50 39t60 30.5t66 13.5q37 0 92 -19t104.5 -38.5t73.5 -19.5q25 0 67.5 18.5t72.5 36.5 z" />
<glyph unicode="&#x2000;" horiz-adv-x="1006" />
<glyph unicode="&#x2001;" horiz-adv-x="2012" />
<glyph unicode="&#x2002;" horiz-adv-x="1006" />
<glyph unicode="&#x2003;" horiz-adv-x="2012" />
<glyph unicode="&#x2004;" horiz-adv-x="670" />
<glyph unicode="&#x2005;" horiz-adv-x="503" />
<glyph unicode="&#x2006;" horiz-adv-x="335" />
<glyph unicode="&#x2007;" horiz-adv-x="335" />
<glyph unicode="&#x2008;" horiz-adv-x="251" />
<glyph unicode="&#x2009;" horiz-adv-x="402" />
<glyph unicode="&#x200a;" horiz-adv-x="111" />
<glyph unicode="&#x2010;" horiz-adv-x="868" d="M120 437v260h630v-260h-630z" />
<glyph unicode="&#x2011;" horiz-adv-x="868" d="M120 437v260h630v-260h-630z" />
<glyph unicode="&#x2012;" horiz-adv-x="868" d="M120 437v260h630v-260h-630z" />
<glyph unicode="&#x2013;" horiz-adv-x="1307" d="M122 688h1065v-243h-1065v243z" />
<glyph unicode="&#x2014;" horiz-adv-x="2372" d="M122 688h2130v-243h-2130v243z" />
<glyph unicode="&#x2018;" horiz-adv-x="551" d="M475 1447l-103 -527h-297l181 527h219z" />
<glyph unicode="&#x2019;" horiz-adv-x="540" d="M87 922l100 527h301l-181 -527h-220z" />
<glyph unicode="&#x201a;" horiz-adv-x="544" d="M49 -250l100 527h300l-181 -527h-219z" />
<glyph unicode="&#x201c;" horiz-adv-x="943" d="M867 1447l-103 -527h-297l181 527h219zM475 1447l-103 -527h-297l181 527h219z" />
<glyph unicode="&#x201d;" horiz-adv-x="934" d="M87 925l100 526h301l-183 -526h-218zM479 925l100 526h301l-181 -526h-220z" />
<glyph unicode="&#x201e;" horiz-adv-x="896" d="M386 250l-103 -527h-298l181 527h220zM790 250l-102 -527h-298l181 527h219z" />
<glyph unicode="&#x2022;" horiz-adv-x="957" d="M213 213v596h533v-596h-533z" />
<glyph unicode="&#x2026;" horiz-adv-x="1630" d="M120 0v354h306v-354h-306zM662 0v354h307v-354h-307zM1205 0v354h307v-354h-307z" />
<glyph unicode="&#x202f;" horiz-adv-x="402" />
<glyph unicode="&#x2039;" horiz-adv-x="677" d="M561 679l-233 -159l233 -183v-288l-476 364v205l476 349v-288z" />
<glyph unicode="&#x203a;" horiz-adv-x="677" d="M347 541l-232 160v287l475 -349v-204l-475 -364v287z" />
<glyph unicode="&#x2044;" horiz-adv-x="20" d="M-477 61l837 1347l113 -75l-837 -1348z" />
<glyph unicode="&#x205f;" horiz-adv-x="503" />
<glyph unicode="&#x2070;" horiz-adv-x="595" d="M298.5 1706q93.5 0 152.5 -33t90.5 -113t31.5 -214q0 -101 -17 -170t-53 -108.5t-85 -56.5t-119.5 -17t-119.5 17t-85 56.5t-53 108.5t-17 170q0 134 31.5 214t90.5 113t152.5 33zM298 1504q-15 0 -23 -10t-12.5 -45t-4.5 -103t4.5 -100.5t12.5 -40.5t23 -8q17 0 24.5 8 t12 40t4.5 101q0 70 -4 104t-12 44t-25 10z" />
<glyph unicode="&#x2074;" horiz-adv-x="595" d="M311 1018v75h-281v187l83 403h251l-110 -388h57l30 192h194v-192h23v-202h-23v-75h-224z" />
<glyph unicode="&#x2075;" horiz-adv-x="595" d="M94 1683h441v-192h-265l-6 -54q60 14 94 14q98 0 148 -50t50 -161q0 -236 -251 -236q-49 0 -112 7t-102 14l-38 8l18 181q118 -19 197 -19q53 0 53 32q0 18 -6.5 25.5t-22.5 7.5q-8 0 -22 -2t-24 -4l-10 -2l-165 24z" />
<glyph unicode="&#x2076;" horiz-adv-x="595" d="M547 1681l-12 -185q-141 12 -200 12q-71 0 -71 -55q0 -1 13 1.5t33.5 5.5t34.5 3q116 0 169 -55.5t53 -167.5q0 -115 -71.5 -180.5t-182.5 -65.5q-279 0 -279 331q0 93 14 160.5t47 118.5t90 76.5t141 25.5q34 0 89 -6.5t94 -12.5zM305 1280q-12 0 -22 -4.5t-14 -8.5 l-5 -4q0 -32 10.5 -52t28.5 -20q16 0 26 12t10 33q0 44 -34 44z" />
<glyph unicode="&#x2077;" horiz-adv-x="595" d="M55 1459v224h484v-216l-202 -471l-258 41l193 394v28h-217z" />
<glyph unicode="&#x2078;" horiz-adv-x="595" d="M298 1706q265 0 265 -192q0 -27 -6 -52t-14.5 -42.5t-17.5 -30.5t-15 -19l-6 -7q3 -1 7.5 -4.5t16 -16t20.5 -27.5t16 -41t7 -56q0 -122 -67.5 -173t-205.5 -51t-205 51t-67 173q0 27 7 52t17 41.5t20 29.5t17 19l7 6q-3 1 -6.5 4.5t-13.5 17t-17.5 29t-14 42.5t-6.5 57 q0 190 262 190zM298.5 1175q40.5 0 40.5 48q0 12 -8 27.5t-18 25.5h-30q-10 -10 -17.5 -25.5t-7.5 -27.5q0 -48 40.5 -48zM298.5 1525q-38.5 0 -38.5 -41q0 -26 23 -53h30q24 29 24 53q0 41 -38.5 41z" />
<glyph unicode="&#x2079;" horiz-adv-x="595" d="M55 1024l14 186q104 -13 185 -13q38 0 53.5 14.5t15.5 34.5q0 1 -10 -1t-29 -4.5t-34 -2.5q-218 0 -218 221q0 117 68.5 182t184.5 65q145 0 212.5 -88t67.5 -263q0 -184 -64.5 -272.5t-215.5 -88.5q-45 0 -102.5 7.5t-92.5 15.5zM294 1412q8 0 18 3.5t16 6.5l7 3 q0 83 -41 83q-15 0 -24.5 -13t-9.5 -36q0 -21 10.5 -34t23.5 -13z" />
<glyph unicode="&#x2081;" horiz-adv-x="595" d="M53 292l226 159h205v-664h-226v416l-100 -69z" />
<glyph unicode="&#x2082;" horiz-adv-x="595" d="M547 -213h-492v192l156 125q54 43 76 70t22 52q0 18 -18.5 25t-60.5 7q-21 0 -61.5 -3t-69.5 -6l-30 -4l-10 211q156 19 252 19q131 0 183.5 -49t52.5 -164q0 -71 -27 -119t-92 -94l-81 -59h200v-203z" />
<glyph unicode="&#x2083;" horiz-adv-x="595" d="M49 456q145 19 230 19q258 0 258 -190q0 -113 -62 -149q38 -16 56 -52t18 -103q0 -108 -65.5 -162.5t-185.5 -54.5q-46 0 -110.5 4t-105.5 8l-41 5l12 198q130 -13 201 -13q34 0 47.5 7.5t13.5 26.5t-12 24.5t-43 5.5h-140v181h136q42 0 42 29q0 32 -58 32 q-35 0 -79.5 -2.5t-71.5 -4.5l-28 -3z" />
<glyph unicode="&#x20ac;" d="M55 756v217h132q22 168 80 266.5t164.5 145t277.5 46.5q160 0 411 -55l-8 -228q-73 11 -183 20.5t-177 9.5q-62 0 -103.5 -8.5t-75.5 -31t-55.5 -62.5t-33.5 -103h500v-217h-517v-53v-87h517v-218h-492q25 -97 85 -133.5t181 -36.5q135 0 354 28l6 -232 q-82 -18 -201.5 -34t-207.5 -16q-124 0 -214 26t-151.5 80t-98 131.5t-54.5 186.5h-136v218h118v87v53h-118z" />
<glyph unicode="&#x2122;" horiz-adv-x="1405" d="M171 1203v169h425v-169h-87v-496h-188v496h-150zM650 705v667h219l88 -337l95 337h218v-667h-175v370l-73 -325h-117l-80 325v-370h-175z" />
<glyph unicode="&#x25fc;" horiz-adv-x="1064" d="M0 1065h1065v-1065h-1065v1065z" />
<glyph horiz-adv-x="904" d="M55 323q0 77 6.5 126.5t26 95t53 82t89.5 78.5q55 42 88 73t48.5 56.5t19.5 42.5t4 43v66h228q2 -3 6.5 -8.5t16 -24.5t20 -40t15.5 -53.5t7 -67.5q0 -41 -34 -86.5t-119 -113.5q-81 -65 -117.5 -101.5t-48.5 -64.5t-12 -70q0 -60 40 -93t140 -33q64 0 140.5 8.5 t121.5 17.5l45 8l15 -215q-8 -3 -21 -8t-54.5 -18t-82.5 -23t-97.5 -18t-106.5 -8q-230 0 -333.5 82.5t-103.5 266.5zM665 1449v-343h-307v343h307z" />
<glyph horiz-adv-x="1315" d="M126 752h1065v-243h-1065v243z" />
<glyph horiz-adv-x="2380" d="M126 752h2130v-243h-2130v243z" />
<glyph horiz-adv-x="544" d="M120 522v354h306v-354h-306z" />
<glyph horiz-adv-x="595" d="M451 1451v-343h-306v343h306zM424 918l27 -916h-309l31 916h251z" />
<glyph horiz-adv-x="655" d="M328 1661h270q-8 -22 -21.5 -60t-48.5 -153t-61.5 -224.5t-48.5 -254.5t-22 -264t21 -256t50.5 -248t59 -205t50.5 -146l21 -53h-270q-10 16 -27 46t-59.5 126.5t-75 197t-59 248.5t-26.5 290.5t25.5 293t61.5 264t72.5 207t61.5 142.5z" />
<glyph horiz-adv-x="655" d="M328 -191h-271q8 21 22 59.5t49 153t61.5 224.5t48.5 255t22 263.5t-21 256t-50.5 248.5t-59.5 205t-51 146l-21 52h271q10 -16 26.5 -46t59 -126.5t75.5 -196.5t59.5 -248t26.5 -290.5t-25.5 -293.5t-62 -264.5t-72.5 -206.5t-62 -142z" />
<glyph horiz-adv-x="756" d="M681 1659v-255h-244v-1347h244v-255h-536v1857h536z" />
<glyph horiz-adv-x="756" d="M75 1404v255h537v-1857h-537v255h244v1347h-244z" />
<glyph horiz-adv-x="768" d="M551 431q0 -30 -7 -122t-7 -128q0 -35 5.5 -60t21 -47.5t46.5 -35.5t78 -17v-243q-235 8 -332.5 91.5t-97.5 275.5q0 45 7 140t7 117q0 75 -59 130.5t-179 87.5v221q123 29 180.5 77.5t57.5 122.5q0 27 -7 128t-7 143q0 104 23 173t76.5 112.5t133.5 63.5t202 24v-244 q-92 -7 -125 -43.5t-33 -106.5q0 -37 7 -140t7 -133q0 -46 -3 -77t-12 -61t-25.5 -49.5t-43 -38t-64 -32.5t-90.5 -27q63 -15 105.5 -35t69.5 -43.5t41 -59t19 -72.5t5 -92z" />
<glyph horiz-adv-x="770" d="M217 1024q0 30 7.5 121.5t7.5 128.5q0 35 -5.5 60t-21 47.5t-46.5 35t-78 16.5v243q236 -7 333.5 -91t97.5 -275q0 -45 -8 -140t-8 -118q0 -74 60 -129.5t179 -87.5v-221q-122 -29 -180.5 -78t-58.5 -123q0 -27 8 -128t8 -143q0 -103 -23 -172t-77 -112.5t-134 -63.5 t-201 -24v242q91 8 124 45t33 107q0 37 -7.5 140t-7.5 133q0 46 3.5 77t12.5 61t25 49.5t43 38t64.5 32.5t90.5 27q-63 15 -105.5 35t-69.5 43.5t-41.5 58.5t-19.5 72.5t-5 92.5z" />
</font>
</defs>
</svg>
