<?xml version="1.0" standalone="no"?>
<!DOCTYPE svg PUBLIC "-//W3C//DTD SVG 1.1//EN" "http://www.w3.org/Graphics/SVG/1.1/DTD/svg11.dtd" >
<svg xmlns="http://www.w3.org/2000/svg" xmlns:xlink="http://www.w3.org/1999/xlink" version="1.1">
<metadata></metadata>
<defs>
<font id="budidayaregular" horiz-adv-x="784" >
<font-face units-per-em="2048" ascent="1638" descent="-410" />
<missing-glyph horiz-adv-x="502" />
<glyph unicode="__" horiz-adv-x="0" d="M-924 -446q1 59 76 73q16 10 63 12l145 9q72 -1 156 -1l566 49q437 27 554 27q245 13 277 28q97 7 257 35q54 0 83 12q21 -4 24 -4l24 4q43 -15 43 -51q0 -56 -122 -56q-8 -10 -107 -24q-35 -14 -242 -27l-280 -31q-111 -13 -192.5 -22t-364.5 -37q-260 -42 -290 -42 q-81 -12 -142 -24t-186 -17q-74 -10 -169 -11q-109 0 -109 20q-63 17 -64 78z" />
<glyph unicode="___" horiz-adv-x="0" d="M-1202 -428q1 70 76 85q17 12 64 14h166q51 6 135 6l566 30q437 39 1237 61q246 15 278 33q97 9 257 42q54 0 83 13q21 -4 24 -4l24 4q43 -16 43 -60q0 -64 -122 -64q-8 -12 -107 -29q-35 -17 -242 -32l-280 -36q-795 -38 -876.5 -42t-365.5 -57q-259 -44 -290 -44 q-80 -14 -141 -17q-70 -20 -299 -22q-166 1 -166 28q-62 20 -64 91z" />
<glyph unicode="____" horiz-adv-x="0" d="M-2401 -540q0 69 75 86q17 10 64 13q139 24 323 29q64 1 162 17.5t144 18.5l140 8q77 8 161 8l567 10q486 7 1237 30q1114 72 1146 88q97 10 356 49q54 0 83 14q21 -5 24 -5l24 5q43 -18 43 -61q0 -65 -122 -65q-8 -12 -107 -28q-134 -23 -341 -38l-1148 -91 q-746 -39 -852.5 -43t-389.5 -28q-259 -23 -290 -23q-80 -14 -141.5 -16.5t-178.5 -17.5q-52 -16 -120 -17q-114 -17 -252.5 -31.5t-377.5 -31.5q-165 1 -165 28q-63 20 -64 92z" />
<glyph unicode="_____" horiz-adv-x="0" d="M-2401 -540q0 69 75 86q17 10 64 13q203 26 497 30q617 26 1150 52q582 8 1075 14q419 54 765 68q585 52 962 86q97 9 356 47q54 0 83 14q21 -4 24 -4l24 4q44 -17 44 -60q0 -64 -123 -64q-8 -12 -107 -28q-134 -24 -341 -39l-891 -95l-780 -61l-1061 -63l-975 -77 q-213 -14 -612 -43q-165 1 -165 28q-63 20 -64 92z" />
<glyph unicode="Budidaya" horiz-adv-x="6214" d="M74 550q8 36 8 52v234q6 158 17 195v4q5 31 9 64q-5 16 -5 38l12 75l-4 24v19q1 9 3 18h-2q13 114 19 228q11 119 67 119h16q39 -7 64 -52q19 15 43 31q40 16 111 16h8q63 0 158 -79q13 -23 19 -38q16 -21 31 -50q47 -68 57 -168q5 -13 8 -29v-122q-2 -12 -6 -21 q1 -12 1 -27v-59q0 -98 -56 -151q0 -11 -71 -75q-17 -16 -63 -36q38 0 120 -63q50 -45 77 -111q54 -104 62 -257v-7q7 -18 7 -45q4 -30 4 -63q0 -45 -13 -75q-10 -99 -73 -191q-7 -7 -32 -29l-8 -7q-68 -56 -87 -56q-32 -20 -65 -39h-119q-50 0 -131 39q-60 -59 -91 -59 q-12 0 -63 28q-20 18 -20 43q-6 168 -9 294h2v44q0 44 -3 150q-2 105 -2 194zM113 -540q0 69 75 86q17 10 63 13q140 24 323 29q65 1 163 18q98 16 144 18l140 8q77 8 161 8l566 10q487 7 1239 30q1114 72 1145 88q97 10 357 49q53 0 83 14q21 -5 24 -5l23 5q13 -5 21 -12 q9 85 36 118q29 12 47 12q32 0 48 -44q8 0 8 -28q-40 -101 -40 -162v-16q0 -63 32 -63q0 -4 20 -12q122 16 134 55q11 19 23 32q18 38 42 98q27 95 34 189q11 17 18 196l8 99q-128 -171 -241 -178q-45 0 -89 33q-75 53 -82 149q-13 20 -15 54l-7 99q-2 25 -2 52q0 85 17 200 q5 34 28 160q7 38 14 66q8 80 78 137q21 13 40 13h23q115 -12 115 -112v-12q0 -45 -10 -72q0 -19 -1 -40v-1q-36 -160 -58 -473l2 -27q4 -60 25 -75q148 94 159 392q7 165 15 244q-1 10 -1 21q-8 0 -8 47q0 136 75 136h4q86 0 155 -108q23 -72 23 -95q0 -10 -4 -18l7 -117 l9 -119v-186l-10 -239q-20 -164 -24 -180l-29 -157q-29 -135 -70 -187q-37 -86 -148 -161q-15 -12 -31 -21q-29 -24 -76 -33q-22 -4 -35 -4h-16q-115 0 -151 24q-43 28 -43 32q-51 67 -52 187q-30 -19 -96 -19q-8 -12 -107 -28q-133 -23 -340 -38l-1149 -91 q-746 -39 -852 -43q-107 -4 -389 -28q-260 -23 -291 -23q-80 -14 -142 -17q-61 -2 -178 -17q-52 -16 -121 -17q-114 -17 -252 -32q-139 -14 -377 -31q-166 1 -166 28q-62 20 -63 92zM319 1463l7 -49q6 -51 11 -91q2 -13 3 -25q7 -19 12 -47q0 -20 -7 -95q3 -34 3 -39 q-2 -11 -8 -20v-71q0 -5 7 -64v-154l28 -4h8q68 0 119 119q12 16 12 75v112q-3 9 -3 19v11q0 25 4 60q-4 35 -4 88q1 5 3 10v36q0 51 -43 109q-15 20 -31 45q-18 11 -32 28q-52 0 -89 -53zM320 -1q41 -36 75 -36q62 2 109 103q18 26 35 85v31l11 79v32q0 26 1 67v147 q-16 89 -62 128q-25 30 -53 42q-54 23 -89 24v-103l-27 -242v-22q1 -35 1 -54q4 -6 4 -24q-5 -59 -5 -95v-162zM906 467q20 282 35 317q31 136 61 183q1 3 1 7q26 56 75 56q131 0 139 -107v-16q-19 -131 -44 -258q-21 -112 -35 -332q-4 -46 -4 -87q0 -60 7 -111 q3 -20 12 -20q61 50 107 238q27 64 62 328l22 176q62 187 135 201q26 2 52 3q75 -7 75 -55v-24q-13 -44 -25 -158q-4 0 -4 -16v-12q8 -13 8 -32q-28 -224 -28 -336v-111q12 -49 24 -143q1 -27 59 -110v-12q-11 -52 -67 -52q-38 0 -119 40q-101 120 -113 216l-30 -64 q-29 -64 -74 -136q-65 -68 -111 -68h-60q-73 0 -115 103q-5 24 -7 47q-13 33 -22 88q-10 8 -12 51q0 85 -4 206zM1778 246q0 153 15 226q31 198 35 253q8 1 27 91q86 178 186 178q0 4 24 4h44q42 0 104 -17l5 -7q4 25 10 64l26 251q16 55 24 127q12 54 79 185q39 83 107 83 q48 -10 48 -55q0 -71 -32 -234q0 -36 -16 -103l-26 -278q-19 -143 -19 -230q0 -64 -12 -94q-5 -184 -7 -290q-1 -43 -2 -73v-147q0 -109 31 -179q20 -45 34 -70q4 -5 5 -13q-1 -11 -6 -22q-6 -10 -17 -17q-25 -24 -51 -24h-8q-122 0 -166 135q-10 12 -24 111v139h-4 q-64 -140 -88 -226q-11 -17 -35 -87q-44 -75 -95 -75h-32q-82 0 -138 67q-25 52 -25 95v123q-1 58 -1 109zM1982 57q4 -51 12 -51q28 71 51 150l80 171q9 9 55 154q16 181 20 220v20q0 83 8 130l-24 36q-27 -4 -44 -4q-87 -188 -87 -238q-11 -8 -28 -190q-12 -50 -15 -180 q-20 -93 -20 -154q0 -53 -8 -64zM2592 636q7 58 7 63l-3 55q1 23 3 44l-1 24q16 116 62 118q0 6 106 19q73 -3 101 -51q18 -40 19 -55q-6 -120 -34 -251q-9 -56 -12 -119l4 -83q-4 -36 -6 -73l3 -58l2 -16q10 -27 14 -75q0 -50 36 -174q0 -5 31 -28q12 -17 12 -31 q-15 -56 -79 -56q-124 14 -177 136q-15 33 -47 138q-19 131 -22 167q-12 164 -13 187zM2606 1237v8q0 66 92 102q5 4 27 4h80q51 0 79 -55q28 -18 28 -51v-55q0 -44 -60 -108q-30 -19 -107 -19q-46 3 -99 43q-40 47 -40 131zM3031 135v122q0 254 28 313q20 100 24 155 q9 1 28 91q86 178 186 178q0 4 23 4h44q43 0 104 -17l5 -7q4 25 11 64v47q16 56 24 127q11 55 79 187q38 83 107 83q47 -10 47 -55q0 -73 -31 -235q0 -37 -16 -103v-75q-20 -143 -20 -230q0 -64 -12 -94q-10 -138 -13 -243v-146q0 -109 32 -179q20 -45 33 -71q4 -4 5 -12 q-1 -11 -6 -22q-5 -10 -16 -17q-26 -24 -52 -24h-8q-122 0 -166 135q-10 12 -24 111v138h-4q-63 -139 -87 -225q-12 -17 -36 -87q-43 -76 -95 -76h-31q-82 0 -139 68q-24 52 -24 95zM3233 178q4 -51 12 -51q28 71 52 150l79 170q11 9 55 155q20 60 24 99v20q0 83 8 130 l-24 36q-26 -4 -43 -4q-87 -188 -87 -238q-10 -7 -16 -83q-14 0 -32 -166q-20 -93 -20 -154q0 -53 -8 -64zM3816 210v265q44 237 92 325q72 141 87 151q66 50 142 59h36q59 0 117 -62q75 90 136 90q60 -5 60 -59q0 -14 -12 -92q-12 -33 -12 -123l-8 -49l-13 -191l-3 -203 q0 -21 -7 -79q12 -26 17 -72q28 -60 28 -119v-3q-8 -60 -60 -60h-4q-10 0 -18 4h-13q-61 0 -95 67q-29 45 -41 110q-16 53 -20 121l-17 -41l-67 -138q-39 -74 -81 -98q-43 -25 -69 -25h-60q-50 0 -79 52q-27 0 -36 170zM4042 158q2 -6 3 -11q4 5 9 11q74 170 122 275 q47 104 50 190l14 110q0 46 16 130q-13 24 -61 37q-31 -4 -58 -75q-12 -40 -51 -191q-7 -136 -24 -187q-12 0 -20 -170v-119zM5457 239v265q43 237 90 325q73 141 88 150q66 51 143 60h34q61 0 118 -62q75 89 136 89q60 -5 60 -59q0 -13 -12 -91q-12 -34 -12 -123l-9 -50 l-11 -191l-3 -203q0 -20 -7 -79q11 -25 16 -71q17 -37 24 -72q28 -56 51 -175q-11 -47 -56 -47q-84 24 -115 71q-39 57 -55 93q-6 9 -12 19q-28 45 -40 110q-8 30 -14 65l-3 49q-14 -36 -30 -82q-12 -17 -26 -26l-30 -64q-40 -75 -83 -98q-41 -25 -69 -25h-58q-52 0 -80 51 q-27 0 -35 171zM5683 187q2 -6 3 -12q3 6 8 12q32 73 60 129q28 54 52 124q22 36 57 133l18 188q0 47 15 131q-12 25 -61 37q-31 -4 -57 -76q-12 -39 -52 -191q-8 -135 -25 -186q-10 0 -18 -170v-119z" />
<glyph unicode="&#xd;" horiz-adv-x="502" />
<glyph horiz-adv-x="0" />
<glyph unicode=" "  horiz-adv-x="502" />
<glyph unicode="&#x09;" horiz-adv-x="502" />
<glyph unicode="&#xa0;" horiz-adv-x="502" />
<glyph unicode="!" horiz-adv-x="521" d="M129 816v79q0 13 12 87v147q0 102 31 225q0 85 56 103h27q106 0 139 -75q8 -51 8 -139v-435q0 -170 -20 -222q0 -27 -20 -91q0 -8 -27 -226q-18 -39 -56 -39h-16q-83 0 -95 174q-19 63 -27 234q-4 0 -4 15v36q-8 117 -8 127zM133 -4v16q0 88 67 123q27 12 32 12 q103 0 138 -40q32 -57 32 -95q0 -77 -48 -111q-50 -19 -67 -32h-39q-62 0 -111 91q-4 22 -4 36z" />
<glyph unicode="&#x22;" horiz-adv-x="662" d="M80 1354q0 79 87 111q3 10 40 12q19 0 40 -24q79 -24 79 -79v-83q-28 -222 -52 -329q-30 -119 -87 -119h-4q-55 0 -71 88q-32 267 -32 423zM408 1354q0 79 87 111q4 10 40 12q18 0 39 -24q79 -24 79 -79v-83q-27 -222 -51 -329q-31 -119 -87 -119h-4q-55 0 -71 88 q-32 267 -32 423z" />
<glyph unicode="#" horiz-adv-x="985" d="M39 527q10 47 55 47h83q24 112 44 167h-48q-8 0 -39 -8q-48 9 -48 55q18 67 67 67q103 0 103 16q16 65 40 131q48 178 63 253q4 28 4 80v63q6 55 52 55q24 -4 24 -12q23 16 43 16h24q95 0 95 -87v-24q0 -25 -28 -130q0 -14 -24 -83q-23 -93 -39 -119q-4 -30 -44 -155h119 q7 0 59 198q20 35 68 202q27 55 67 182q24 16 40 16q83 -12 83 -55v-16q0 -8 -16 -59q0 -55 -44 -187q-23 -66 -39 -138l-44 -143h68q22 0 63 4q44 -14 44 -51q0 -23 -40 -52q-14 -19 -44 -19h-118q-36 -122 -44 -167h4q55 4 95 4h32q55 -6 55 -51q0 -16 -32 -52 q-10 -35 -51 -35h-147q0 -28 -79 -266q-11 -13 -31 -75q-9 -4 -64 -107q-21 -16 -43 -16h-12q-56 0 -56 56v8q0 48 60 213q27 80 55 187h-138q-56 -217 -91 -286q-64 -150 -92 -150q-14 -8 -31 -8h-4q-68 12 -68 67v20q0 42 68 258q4 0 20 99h-32q-52 0 -63 71q-4 0 -4 16z M371 574h139q0 13 39 167h-122q-7 0 -32 -88z" />
<glyph unicode="$" horiz-adv-x="787" d="M43 483q13 44 51 44q52 0 52 -111v-71q0 -17 39 -127q28 -79 95 -79h16q73 0 135 114v56q0 51 -44 218q-71 154 -111 206q-75 91 -119 257v63q-8 68 -8 76v47q28 143 44 143q84 114 145 131q1 73 27 233q21 28 52 28h16q59 0 59 -87v-52q0 -46 -12 -127q3 -5 4 -9 q25 -6 54 -10q37 0 87 -56q40 -51 63 -170v-135q-7 -91 -59 -91h-4q-48 8 -48 60q12 35 12 59v91q-23 147 -95 147l-20 4q-40 -25 -55 -40q-16 -43 -28 -155q27 -139 59 -201q22 -44 52 -88q50 -94 127 -265q35 -62 47 -166v-182q0 -67 -63 -171q-92 -71 -99 -71 q-18 -8 -41 -12q-9 -27 -9 -35q12 -50 12 -64q0 -41 8 -261q-23 -71 -75 -71h-20q-45 0 -71 47v389q-76 17 -153 66q-58 73 -83 159q-35 63 -35 190q-4 53 -4 79z" />
<glyph unicode="%" horiz-adv-x="1064" d="M40 1014v71q0 111 39 198q32 91 107 131q10 8 48 23q20 20 63 20h28q66 0 146 -31q52 -57 52 -99v-76q0 -115 -115 -277q-14 -3 -48 -47q-61 -56 -99 -56h-75q-38 0 -91 40q-39 27 -55 103zM150 -40q19 79 48 139q0 13 28 71q0 17 20 68q22 86 83 221q0 10 47 107 q0 10 79 198q29 127 103 277q0 17 32 76q8 37 71 162q16 34 24 147q25 40 52 43q26 -4 43 -4q25 8 40 8q45 0 71 -71q0 -67 -24 -135q0 -65 -130 -285q-32 -59 -84 -131q-35 -121 -75 -217q-67 -187 -67 -198q-24 -81 -48 -135l-103 -257q-29 -139 -126 -139h-28 q-56 0 -56 55zM289 1010q80 44 131 206l4 23v72q0 30 -40 35q-75 -65 -75 -170q-17 0 -20 -166zM523 48v71q19 117 43 170q14 48 68 103q96 75 154 75h71q65 -20 87 -20q42 -21 56 -91l4 -27v-123q-46 -169 -83 -214q-46 -91 -190 -91h-32q-15 -12 -36 -12h-4q-58 0 -130 99 q0 2 -8 60zM756 32q0 -17 8 -32q64 0 107 107q28 68 36 127v55q0 63 -12 63h-48q-55 -46 -55 -99q-36 -78 -36 -154v-67z" />
<glyph unicode="&#x26;" horiz-adv-x="1013" d="M79 273v36q0 90 91 325q60 104 87 162q-71 173 -71 281v162q0 143 115 222q21 12 40 12h43q69 0 131 -67q63 -70 63 -127v-40q0 -129 -87 -253q-50 -60 -51 -79q55 -139 114 -218q26 -56 52 -87q19 -54 75 -123q0 19 83 178q0 19 40 107q0 60 55 60h12q56 0 56 -56v-47 q0 -36 -28 -83q-79 -185 -135 -262l-4 -20v-4q143 -167 143 -178q44 -45 67 -123v-43q-10 -59 -47 -59q-12 -36 -48 -36q-21 0 -79 51l-87 60q-23 17 -36 39q-12 0 -67 64v4q-91 -74 -115 -99q-93 -56 -107 -56q-62 -8 -83 -8h-52q-38 0 -110 68q-56 85 -56 154q-4 38 -4 83 zM238 309q0 -23 71 -143q61 -31 83 -31h4q65 14 119 75q10 0 20 24q-70 127 -103 174q-21 55 -68 119q-39 89 -51 126q-28 -20 -56 -126q-9 0 -19 -83v-135zM368 1160q12 -93 24 -126h8l40 55q39 79 39 150v40q0 21 -63 83l-8 4q-23 0 -40 -190v-16z" />
<glyph unicode="'" horiz-adv-x="347" d="M84 1354q0 79 87 111q3 10 40 12q19 0 39 -24q80 -24 80 -79v-83q-28 -222 -52 -329q-30 -119 -87 -119h-4q-55 0 -71 88q-32 267 -32 423z" />
<glyph unicode="(" horiz-adv-x="556" d="M120 387v162q0 28 12 136v31q16 46 16 93q32 275 51 275l28 128l71 197q10 72 51 135q96 117 96 132q0 33 83 55q39 0 55 -59q0 -7 -32 -61q-6 -35 -35 -63q0 -42 -64 -259q-7 -31 -27 -162q-16 -73 -36 -252q-12 -42 -12 -66v-492q0 -76 16 -151q0 -176 59 -364 q5 0 20 -69q9 -7 28 -63q44 -34 67 -77q10 0 16 -35q0 -36 -51 -46q-8 0 -84 31l-91 50q0 13 -19 28q-17 16 -48 81q-75 128 -79 185q-26 47 -48 233q0 4 -31 116q-4 102 -12 151z" />
<glyph unicode=")" horiz-adv-x="584" d="M8 1672q10 47 55 47q20 0 20 -8l8 4h12q54 0 115 -93q58 -44 182 -363q32 -51 32 -117q19 -66 35 -266v-142q0 -11 -8 -136v-35q-12 -61 -31 -213q-9 0 -16 -96q-10 0 -24 -212l-43 -159l-52 -112q-6 -1 -40 -73q-76 -111 -83 -113q-71 -61 -111 -61q-47 10 -47 54 q0 12 51 135q0 15 40 109q0 26 51 220q0 35 28 101q16 68 16 211v495q0 142 -24 248q-31 277 -63 324q-27 93 -99 216q-4 21 -4 35z" />
<glyph unicode="*" horiz-adv-x="782" d="M2 1160v32q0 79 59 79h28q19 0 83 -39q70 -28 111 -36q0 -4 28 -16q-12 39 -12 103v67q15 143 127 143q71 -14 71 -71v-44q0 -17 -59 -186h4q64 55 134 87l60 36q52 35 95 35q67 -15 67 -67v-32q0 -64 -139 -99q-1 -7 -71 -43q-54 -24 -79 -44q72 -69 107 -126 q107 -81 107 -131q0 -41 -72 -60q0 -7 -23 -7q-72 7 -151 67q-91 114 -91 154q-4 0 -4 8h-4q-55 -97 -55 -115q-43 -134 -95 -134h-20q-107 0 -107 99v4q0 64 63 91q51 50 68 79q39 34 39 59q-67 36 -198 36q-71 23 -71 71z" />
<glyph unicode="+" horiz-adv-x="793" d="M-6 614q6 40 36 63q136 28 174 28h63l40 -4q0 26 4 79q-4 121 -4 178q0 38 51 48q23 -7 91 -12q28 -21 28 -52v-241h99q214 0 214 -20q12 -25 12 -43q-10 -48 -56 -48h-11q-68 0 -226 -24h-40v-27q-16 -41 -23 -230q-18 -48 -60 -48h-4q-75 17 -75 52q-4 7 -4 20v229 h-253q-56 6 -56 52z" />
<glyph unicode="," horiz-adv-x="397" d="M8 -405q0 37 59 53q41 75 57 128q45 35 45 144v7q-94 20 -112 52q-28 34 -28 73q0 95 42 137q13 42 53 42q7 -3 10 -3q0 10 35 14h35q75 -19 105 -53q38 -28 38 -108q3 0 3 -15v-59q0 -87 -111 -293l-42 -57q-12 -2 -39 -55q-63 -52 -94 -52h-7q-49 4 -49 45z" />
<glyph unicode="-" horiz-adv-x="595" d="M5 550q19 76 75 76h167q57 8 63 8h154q43 0 76 -60q4 -7 4 -20v-27q0 -80 -131 -80q0 -7 -40 -7h-269q-87 13 -87 51z" />
<glyph unicode="." horiz-adv-x="356" d="M17 36v50q0 59 69 106q40 18 59 18h68q64 0 102 -72l22 -91v-11l-26 -102q-38 -29 -65 -29h-22q-169 0 -203 102q-4 14 -4 29z" />
<glyph unicode="/" horiz-adv-x="491" d="M49 44q0 63 19 158q36 225 36 265q12 0 16 91q16 48 67 293q12 0 24 135q9 0 20 59q43 82 43 163q36 100 72 237q23 20 51 20q24 0 75 -59l4 -24q0 -49 -20 -178q-19 -139 -47 -246q0 -18 -40 -134q0 -10 -43 -151q-48 -145 -48 -222q-11 0 -24 -106q-6 -9 -27 -155 q-12 0 -16 -99q-16 -22 -28 -71q-39 -36 -71 -36h-8q-55 0 -55 60z" />
<glyph unicode="0" horiz-adv-x="875" d="M121 384v119q0 5 8 43v56q0 35 19 99q15 225 36 265q28 80 28 103q9 12 24 68q39 108 79 178q0 20 79 95q57 35 83 35h75q80 -9 107 -27q56 -63 91 -206q4 -73 24 -139q0 -35 8 -99v-202q-28 -252 -36 -293q-6 -17 -15 -103q-9 -12 -20 -111q-6 0 -24 -91 q-12 -21 -47 -111q-85 -118 -171 -118h-55q-108 0 -135 43q0 7 -28 28q-68 97 -83 182q-47 152 -47 186zM390 376q12 -48 16 -115q36 -127 75 -158q0 -12 52 -16q75 120 75 210q12 0 16 87q14 1 20 103q8 0 23 158v36q16 53 16 91v222q-19 26 -32 127q-41 130 -67 130 q-9 0 -16 4q-16 0 -47 -87q-23 0 -48 -174q-11 -2 -47 -154q-16 -31 -36 -250v-214z" />
<glyph unicode="1" horiz-adv-x="598" d="M31 1049q0 29 55 68q0 10 60 75l146 230q0 21 59 35h28q57 0 67 -83q8 -61 8 -162v-40q16 -66 16 -95q4 -434 4 -558q0 -39 -8 -68q4 -82 4 -134v-242q0 -69 -71 -103q0 -12 -52 -20h-27q-63 0 -87 64q-16 0 -20 329q4 251 4 396q20 86 20 114q4 234 4 297l-44 -59 q-9 -1 -59 -67q-42 -32 -60 -32q-47 10 -47 55z" />
<glyph unicode="2" horiz-adv-x="707" d="M71 4v32q0 37 40 55q36 24 36 32q77 73 110 150l60 115q0 12 24 56q0 7 39 99l36 150v214q-20 145 -20 170q-5 41 -79 162q-34 44 -40 44h-35q-30 0 -64 -154q0 -147 -28 -147q-15 -8 -27 -8q-38 0 -48 52q0 124 20 182q7 67 83 182q53 32 56 32q17 0 55 8h24 q97 0 194 -84q37 -13 75 -95q22 -11 44 -111q27 -40 27 -142q5 0 8 -40q-4 -102 -4 -174v-24q0 -72 -47 -206q0 -19 -56 -126q-31 -82 -142 -186q-5 -21 -95 -119q0 -8 -48 -52v-4h36q50 0 202 -19h28q4 0 4 -4q4 0 4 4q118 0 118 -48v-8q-10 -47 -55 -47h-20 q-81 0 -139 -16h-59q-114 0 -289 23q-28 21 -28 52z" />
<glyph unicode="3" horiz-adv-x="748" d="M68 313v43q6 56 52 56q47 -8 47 -60q0 -22 12 -110q34 -139 56 -139q15 -12 15 -16l20 4l40 -4q44 42 59 71q17 0 44 135v71q-17 202 -40 202q0 23 -63 68q-55 0 -71 63q0 43 75 55q47 22 47 28q60 49 60 127q8 0 8 47v87q0 88 -68 202l-51 40h-16q-48 0 -95 -67 q0 -18 -16 -40v-138q-6 -56 -51 -56q-48 10 -48 56v134q11 91 64 166q34 62 154 92q47 7 75 7l62 -19q74 0 134 -83q48 -111 70 -198v-123q-11 -106 -80 -210q-34 -36 -83 -60q0 -6 -55 -55q85 -30 166 -143q43 -27 63 -130q8 -40 8 -71v-64q0 -82 -19 -123 q-44 -142 -103 -170q0 -12 -99 -32h-123q-12 0 -79 28q-32 0 -76 44q-59 40 -95 285z" />
<glyph unicode="4" horiz-adv-x="856" d="M42 455q0 39 67 230q66 119 123 250q6 0 35 63q11 1 32 75q14 7 71 119q23 20 64 111q68 150 103 150h55q53 0 67 -75q7 -20 24 -190q12 -21 12 -55v-630h67q56 -6 56 -52q-10 -47 -56 -47h-67v-79q0 -166 -59 -333q-41 -47 -84 -47h-15q-64 0 -84 95q-10 13 -23 154 q-11 27 -12 111v103h-321q-46 0 -55 47zM204 507h222v28q0 6 8 63v174q0 173 23 246q0 60 20 142v4h-4q-95 -147 -95 -190q-63 -124 -63 -174q-22 -24 -52 -147q-5 0 -23 -51q-4 0 -36 -79v-16z" />
<glyph unicode="5" horiz-adv-x="826" d="M80 281v8q0 151 28 151q15 7 36 7q51 0 51 -106q47 -198 75 -198q28 -35 64 -44q54 0 87 83q0 11 27 87q8 64 8 68q-4 197 -4 253q-33 158 -95 158q0 10 -71 24h-107q-55 6 -55 52q15 43 35 166q35 71 52 222q11 0 43 138q7 0 20 72q21 24 44 35l47 -4h83q317 0 317 -23 q12 -27 12 -32q-24 -115 -107 -115h-297q-16 -57 -47 -206q-36 -98 -56 -202l28 -4h59q70 0 163 -51q7 -12 51 -28q39 -50 72 -115q46 -54 67 -127q0 -22 8 -59v-119q0 -95 -64 -265q-29 -50 -67 -91q-87 -67 -142 -67h-84q-166 13 -166 35q-90 32 -115 297z" />
<glyph unicode="6" horiz-adv-x="833" d="M115 135v134q0 116 47 376q20 63 56 206l111 301q66 94 134 222q55 83 83 83q127 0 127 -51v-12q0 -45 -67 -162q-12 0 -56 -92q-68 -89 -83 -229q-12 -9 -31 -91q-10 -2 -16 -56h31q131 -19 131 -35q42 0 115 -76l63 -138q8 -28 8 -48v-214q0 -88 -59 -205 q-50 -69 -111 -103q-54 -72 -115 -72q-7 -4 -20 -4h-51q-38 0 -123 32q-62 0 -146 127q-20 73 -20 79q-7 0 -8 28zM341 147q0 -35 55 -123q37 -20 79 -20h12q74 5 103 234v87q-12 116 -40 202q-6 0 -19 71q-25 30 -72 55q0 12 -8 12h-63q-20 -69 -32 -202q-11 -5 -15 -126 v-190z" />
<glyph unicode="7" horiz-adv-x="677" d="M32 1390q0 28 39 47q138 -3 198 -3h246q51 11 55 11h32q22 0 55 4q44 -13 44 -55v-67q0 -30 -32 -99q-43 -114 -43 -123q-16 -68 -68 -178q-55 -183 -55 -194q-8 -64 -32 -147q-15 0 -43 -206q0 -40 -16 -75q-28 -137 -28 -202v-55q-16 -53 -16 -80q-33 -63 -107 -63 q-85 0 -114 79q-11 22 -20 91q16 150 23 190q4 55 24 119q0 27 40 143q0 31 71 210q75 275 123 388q10 10 28 79q19 23 75 131h-242q-225 0 -225 19q-12 27 -12 36z" />
<glyph unicode="8" horiz-adv-x="849" d="M119 266q2 246 190 486q-18 18 -103 147q-10 0 -28 63q-28 30 -28 131v8q0 195 171 317q39 16 107 27h59q119 -7 119 -35q119 -71 119 -139q17 -70 19 -162q0 -52 -17 -112q-53 -148 -97 -197q-3 0 -32 -59q87 -163 87 -242q15 -33 32 -170q8 0 8 -28v-24 q0 -102 -40 -162q-42 -105 -107 -135q-41 -35 -119 -35q-39 0 -95 4q-20 -4 -39 -4q-31 11 -79 15q-51 21 -60 60q-63 73 -63 107zM246 178q20 -95 47 -95q45 -35 48 -35h11q65 9 92 35q35 59 51 166v12q-20 183 -44 242q-8 0 -27 75q-18 43 -43 71l-52 -79 q-72 -79 -72 -194q-4 0 -4 -24v-15q0 -26 -7 -159zM360 1184q12 -9 16 -83q57 -116 103 -190q35 -67 52 -79q12 34 43 91q28 44 52 118v8q-12 27 -16 147q-7 0 -8 40v19q-65 83 -99 83h-63q-80 -28 -80 -87v-67z" />
<glyph unicode="9" horiz-adv-x="791" d="M77 931v130q20 69 20 95q13 14 28 80q44 117 182 213q46 20 63 20h24q20 0 143 -35q80 0 170 -103q39 -143 39 -218v-115q0 -134 -51 -337q0 -22 -24 -99q-20 -126 -39 -170q-7 -54 -32 -107q-12 -17 -44 -131q-14 -18 -47 -110q-25 -52 -48 -115q-52 -64 -87 -64h-31 q-123 0 -123 95q0 37 47 167q28 113 52 154q0 27 55 147q0 23 32 95l4 23h-4q-26 -7 -36 -7q-107 0 -206 122q-62 78 -79 190q0 26 -8 80zM240 990q0 -50 39 -206q0 -61 87 -127q9 0 76 -12q0 9 31 103q0 14 20 76q16 114 16 158q4 78 4 202v24q0 78 -115 111 q-103 -54 -103 -95q-55 -171 -55 -222v-12z" />
<glyph unicode=":" horiz-adv-x="452" d="M83 36v50q0 59 69 106q40 18 59 18h68q65 0 102 -72l22 -91v-11l-26 -102q-37 -29 -65 -29h-22q-168 0 -203 102q-4 14 -4 29zM83 901v50q0 59 69 106q40 18 58 18h69q65 0 102 -72l22 -91v-11l-26 -102q-38 -29 -65 -29h-22q-168 0 -203 102q-4 14 -4 29z" />
<glyph unicode=";" horiz-adv-x="458" d="M43 -405q0 37 59 53q41 75 56 129q46 34 46 143v7q-94 21 -112 52q-28 34 -28 73q0 95 42 137q13 42 52 42q7 -3 11 -3q0 10 35 14h35q76 -19 105 -53q38 -28 38 -108q3 0 3 -14v-59q0 -88 -112 -294l-41 -57q-12 -2 -39 -55q-62 -52 -94 -52h-7q-49 4 -49 45zM79 901v50 q0 59 69 106q40 18 58 18h69q65 0 102 -72l22 -91v-11l-26 -102q-38 -29 -65 -29h-22q-168 0 -203 102q-4 14 -4 29z" />
<glyph unicode="&#x3c;" horiz-adv-x="765" d="M-7 602v4q17 59 83 59q25 22 79 52q51 46 143 99q0 8 71 67q15 36 107 87l91 75q92 80 135 80q47 -10 47 -56q-11 -64 -35 -91q-131 -63 -139 -63q-9 0 -31 -24q-67 -35 -143 -115q-5 0 -40 -35q-59 -34 -87 -64q7 0 131 -71l186 -111q78 -54 115 -63q32 -30 32 -60v-39 q0 -32 -48 -84q-27 -15 -47 -15q-25 0 -115 55q-19 0 -91 59q-8 0 -143 92q-37 30 -202 103q-99 14 -99 59z" />
<glyph unicode="=" horiz-adv-x="938" d="M43 489q8 63 59 63h107q142 24 190 24h51q122 0 333 -4q75 -13 75 -63v-4q0 -54 -103 -67h-657q-55 5 -55 51zM58 712q0 47 119 95q29 0 174 20q41 4 131 4h325q63 0 63 -84q0 -52 -91 -59q0 -5 -75 -16h-555l-43 -12q-38 0 -48 52z" />
<glyph unicode="&#x3e;" horiz-adv-x="764" d="M45 305v16q0 57 114 87l76 47q84 26 111 60q82 56 106 115q5 0 40 39q-48 23 -143 91q-84 45 -170 123q-45 34 -95 56q-12 26 -12 35q16 36 32 115q30 36 63 36q55 -14 143 -76q195 -114 214 -114q241 -159 261 -159q16 -22 16 -47q0 -34 -83 -76l-226 -150 q-131 -142 -178 -158l-71 -44q0 -7 -84 -44q-31 -39 -63 -39q-51 0 -51 87z" />
<glyph unicode="?" horiz-adv-x="706" d="M40 994q18 176 43 234q23 101 75 158q22 37 115 67q34 4 56 4h91q55 0 134 -75q54 -84 76 -170q27 -113 27 -135v-150q-20 -167 -75 -254q-4 0 -39 -55q-44 -42 -96 -119q-85 -96 -102 -135v-39q-16 -87 -60 -87h-4q-47 10 -47 55v147q0 11 31 106q6 1 44 80q4 0 63 107 q16 74 36 122q4 123 4 210v8q0 39 -32 91q-4 0 -39 52l-32 27l-28 -4h-32q-45 -42 -87 -110l4 -8q-19 -63 -19 -68q-7 -111 -52 -111h-8q-37 0 -47 52zM143 8q0 94 87 150h43q58 0 99 -99q4 -20 4 -39v-16q-15 -119 -83 -119h-51q-84 0 -99 75v48z" />
<glyph unicode="@" horiz-adv-x="1639" d="M83 246l4 47v55q8 58 8 64v79q0 84 16 99v36q0 36 47 166q4 0 68 115q22 23 95 134q102 134 174 210q4 0 55 56q6 0 52 35q111 64 186 64h36q20 0 35 -12h36q127 -13 127 -36q34 -8 134 -99q30 -54 64 -91q0 -8 55 -111q25 -34 52 -126v-155q-20 -129 -28 -281 q-12 -60 -28 -111q0 -56 -75 -190q-97 -75 -139 -75h-51q-157 10 -195 188q-55 -105 -101 -131q-40 -22 -94 -23q-97 5 -153 89q-39 49 -39 106v80q0 86 55 221q110 190 226 202q62 0 115 -51q0 43 115 43h31q55 0 64 -55v-95q-32 -108 -32 -127v-71q8 -97 28 -170 q5 0 35 -36q30 0 103 182q7 0 20 68q23 33 32 154q12 70 12 87v131q0 23 -52 119q0 13 -63 114q-19 18 -40 60l-59 39q-48 52 -151 52h-83q-224 -87 -380 -325q-65 -70 -115 -261q0 -28 -28 -218q-4 -44 -4 -79v-24q0 -67 24 -182q0 -81 91 -218q90 -91 206.5 -136.5 t268.5 -45.5h80q80 5 198 59q102 45 178 127q65 59 127 174q0 9 31 48q0 18 44 91q38 87 79 87q48 -10 48 -55q-17 -104 -139 -289q-29 -50 -115 -135q-10 0 -75 -67q-113 -81 -190 -95q-137 -63 -341 -80q-22 -1 -44 -1q-82 0 -166 9q-104 10 -245 99q-67 71 -75 95 q-43 54 -80 147q-39 58 -39 115q-25 0 -32 111h-4zM626 321q1 -41 41 -48l26 6q50 32 87 216v48q8 37 12 157q-22 22 -43 24q-90 -9 -123 -308v-95z" />
<glyph unicode="A" horiz-adv-x="819" d="M50 4q16 51 21 83q1 11 3 23v5q0 1 1 2q12 92 38 263l55 428q8 0 8 20v27q8 62 20 137l3 -1q38 159 46 252q13 96 31 107q-8 16 -8 28q0 86 52 91q48 -1 92 -31q35 -22 77 -68q91 -157 91 -190q30 -51 60 -333q0 -24 15 -75q12 -156 36 -265q13 -163 26 -243 q15 -22 15 -62q10 -31 39 -214q24 -45 24 -59q0 -44 -95 -64h-12q-57 0 -91 64q-36 23 -87 202q-24 98 -24 118v21q-9 45 -21 107q-6 -1 -12 -1q-126 -3 -213 -4q-16 -258 -43 -396q-33 -43 -75 -43q-72 0 -72 59v12zM244 471q123 0 198 5q-12 62 -12 130q-44 233 -80 495 q-4 0 -13 39q-6 -50 -9 -106q-5 -8 -21 -62h2q-4 -32 -10 -69q-7 -9 -32 -214q-23 -77 -23 -210v-8z" />
<glyph unicode="B" horiz-adv-x="865" d="M74 550q8 36 8 52v234q6 158 17 195v3q24 165 32 324q11 119 67 119h16q39 -7 64 -51q19 15 43 31q40 16 111 16h8q63 0 158 -79q13 -23 19 -39q16 -20 31 -48q60 -87 60 -226v-59q0 -98 -56 -151q0 -12 -71 -75q-17 -16 -63 -36q38 0 120 -63q50 -45 77 -111 q54 -104 62 -257q-3 -116 -75 -222q-8 -8 -40 -36q-68 -55 -87 -55q-32 -21 -65 -40h-119q-50 0 -131 40q-60 -60 -91 -60q-12 0 -63 28q-20 18 -20 44q-12 351 -12 522zM319 1322l7 -51q8 -66 14 -119v-126q0 -5 7 -64v-154l28 -4h8q68 0 119 119q12 16 12 75v194 q0 50 -43 109q-15 20 -31 45q-18 10 -32 28q-52 0 -89 -52zM320 158q41 -35 75 -35q62 2 109 103q24 35 47 134v147q-16 89 -62 128q-25 30 -53 42q-54 23 -89 24v-103l-27 -242v-198z" />
<glyph unicode="C" d="M74 630v372q16 74 28 186q72 194 111 194q22 3 67 44q39 19 56 19h63q21 0 79 -15q7 4 16 4q81 -30 115 -84q0 -14 32 -71q23 -74 23 -107v-24q0 -133 -39 -158q-3 0 -24 -4q-5 0 -10 1q-6 -1 -12 -1q-47 10 -47 55q0 5 8 44v52q0 133 -60 191q-16 7 -41 7h-8 q0 -8 -44 -52q-20 -22 -32 -170q-6 -8 -15 -123v-111q-8 -117 -8 -127v-190q17 -279 65.5 -330t60.5 -58h8q55 0 81 30q56 125 56 184q10 119 79 119h6q16 -1 27 -11q21 -14 21 -45q-8 -97 -40 -174q-17 -29 -34 -63q-10 -27 -21 -45q-12 -26 -24 -54q-117 -119 -167 -119 q-28 0 -63 -8q-143 0 -214 123q-10 8 -24 47q-39 71 -39 95q-31 142 -32 246q-4 73 -4 131z" />
<glyph unicode="D" horiz-adv-x="908" d="M109 127v273q0 54 16 91q4 257 4 400v83q5 25 8 84q-3 10 -3 23q0 180 39 321q13 67 68 67q0 7 27 8q31 0 68 -59q69 47 194 47q128 -29 170 -87q13 -34 20 -60q11 -15 22 -35q111 -156 111 -289q8 -152 8 -257v-80q0 -140 -31 -202q0 -32 -36 -130q0 -19 -75 -151 q-8 -2 -44 -63q-50 -39 -127 -123q-56 -32 -118 -47q0 -17 -115 -20h-87q-87 0 -87 55q0 7 7 24q-39 64 -39 127zM335 59h31q76 9 76 28q64 55 114 285l52 194q16 80 16 135v123q-12 85 -16 178q-12 26 -32 162l-18 35q-21 19 -36 72q-31 37 -91 56h-4q-37 0 -72 -40 q19 -79 25 -195q2 -38 2 -74q0 -78 -8 -151v-317q-12 -62 -16 -360q-9 0 -23 -131z" />
<glyph unicode="E" horiz-adv-x="684" d="M109 1398q12 51 67 51q87 -4 131 -4q8 -2 14 -4h84q70 0 174 4q44 -13 44 -51v-1q4 -10 5 -23q-14 -47 -48 -47q-199 15 -255 15l21 -138q0 -73 7 -277l24 -151h79q53 5 96 16h24q56 -6 56 -51q0 -14 -7 -24q-12 -40 -54 -40h-83q-38 -3 -107 -4v-20q8 -38 8 -43v-400 q-15 -58 -20 -107q114 2 243 16q43 -12 43 -60q0 -10 -5 -20v-7q0 -44 -79 -60q-81 0 -368 4q-83 0 -83 87v183l16 106v135q-12 38 -12 60v213q-8 142 -8 159v368q0 42 9 70q-13 15 -16 45z" />
<glyph unicode="F" horiz-adv-x="664" d="M109 632v445q8 128 8 139v138q1 5 2 11q-9 12 -9 29q0 51 99 51h8q32 0 80 -4h303q54 -5 55 -50q5 -12 5 -29q0 -44 -67 -55q-145 18 -289 31q20 -61 24 -154l22 -249l4 -178q5 -12 5 -28q0 -13 -1 -40q186 16 243 16q38 0 47 -52q0 -10 -4 -19v-8q-10 -48 -56 -48 l-236 1q0 -10 -1 -21q4 -212 4 -261q-19 -64 -27 -170q-10 0 -16 -91q-26 -111 -87 -111q-20 0 -20 8l-8 -4h-4q-55 0 -55 75q0 40 -20 139q-8 43 -8 99v87q0 197 -1 303z" />
<glyph unicode="G" horiz-adv-x="812" d="M74 630v372q2 8 4 17q-2 7 -4 15v4q0 59 27 143q1 3 1 7q13 34 25 62q15 38 34 81q18 54 87 99q53 23 84 23h43q141 0 171 -44q41 -24 63 -59q0 -14 32 -71q23 -74 23 -107v-24q0 -106 -24 -143q-10 -23 -49 -31q-63 13 -63 64v3q14 34 23 88v27q0 26 -16 94 q-17 15 -37 41q-26 12 -40 12h-31q-12 0 -28 -8l-12 -12q-20 -22 -32 -170q-6 -8 -15 -123v-111q-8 -117 -8 -127v-190q17 -279 66 -329q44 -51 117 -52q53 3 81 54q22 103 22 121q0 127 -23 230h-53q-22 0 -56 -4q-43 14 -43 52v3q-2 6 -3 12q0 52 110 52q0 4 119 12 q56 -6 56 -52q-4 -14 -9 -23v-68q8 -141 8 -158v-99q-49 -195 -83 -214q-17 -59 -123 -107q-59 -8 -143 -8q-11 3 -20 6q-119 12 -182 121q-10 8 -24 47q-39 71 -39 95q-31 142 -32 246q-4 73 -4 131z" />
<glyph unicode="H" horiz-adv-x="963" d="M74 400v146q0 99 4 282q8 15 8 43v310q-3 10 -3 23q24 121 28 202l36 95q21 35 59 35h4q45 0 91 -59q20 0 40 -67q8 0 23 -95q0 -68 -5 -108v-15q0 -144 -7 -390q0 -14 1 -61q167 21 222 37q1 42 1 58q13 155 13 257v81l-3 6q4 47 4 67v222q0 46 48 56q76 0 126 -64 q68 -153 68 -182q11 -62 11 -75v-64q7 -70 15 -162v-443q0 -53 -15 -140q4 -22 4 -50v-80q5 -293 24 -293l4 -23q0 -40 -75 -60h-36q-115 32 -115 63q-43 53 -59 151q-8 53 -8 67v182l-8 206q0 63 1 112l-222 -44v-72q-21 -149 -21 -293q-8 -53 -8 -67v-91q-8 -59 -91 -170 q-20 -12 -40 -12h-4q-48 0 -71 79q-20 0 -32 115v186q-12 75 -12 99z" />
<glyph unicode="I" horiz-adv-x="455" d="M74 150v713q12 76 20 76q-4 53 -4 79v225q29 187 52 187q15 7 27 7q32 -2 32 -7l8 4h28q51 0 71 -76q15 0 24 -91v-990q0 -198 -28 -198q0 -97 -71 -111h-16q-4 0 -4 4q-24 -16 -44 -16h-4q-70 0 -83 127q0 33 -8 67z" />
<glyph unicode="J" horiz-adv-x="611" d="M-3 226v158q6 56 52 56q47 -10 47 -56v-135q15 -114 44 -114h27q17 28 36 213q20 64 20 218v175q-8 57 -8 63v150q-20 243 -36 384q-8 27 -8 42q-9 25 -17 57v8q0 70 64 80h4q89 0 178 -107q15 -38 16 -65l1 -7q55 -191 55 -312q12 0 12 -119v-345q0 -31 4 -83 q-12 -40 -16 -146q0 -96 -35 -194q0 -65 -95 -131q0 -18 -76 -32h-55q-39 0 -147 36q-51 39 -51 130q-16 43 -16 76z" />
<glyph unicode="K" horiz-adv-x="923" d="M74 131v257q10 392 24 392v56q8 160 20 237v131q0 6 1 12q-4 20 -4 47v103q29 143 99 143h16q91 0 118 -143v-1q2 -8 3 -19v-79q0 -28 -7 -265v-261h1q17 37 99 126q47 68 154 301q67 141 91 214q23 75 75 75h24q55 0 55 -55v-12q0 -100 -106 -242q-15 -36 -52 -87 q-30 -81 -91 -150q-32 -37 -51 -99q-27 -43 -50 -68q96 -84 112 -114q29 -34 119 -222q1 -17 15 -56q35 -35 61 -154q14 -24 40 -107q4 0 35 -63q28 -14 28 -44q0 -41 -87 -63q-63 0 -119 51q-92 113 -115 214q-39 58 -60 162q-108 208 -175 282h-3v-40q-8 -119 -20 -158 q0 -128 -56 -349q-35 -95 -79 -95q-2 -12 -32 -12h-4q-62 0 -75 99q-4 34 -4 56z" />
<glyph unicode="L" horiz-adv-x="624" d="M74 158v381q12 57 22 279t10 307l20 253q0 17 5 29q14 126 99 126q87 -23 87 -64q27 -39 44 -100q1 -1 2 -3q6 -19 9 -39q4 -1 4 -16v-6q3 -28 3 -58v-154q0 -126 -8 -198v-558q-13 -149 -25 -246q52 -12 81 -16h166q55 0 55 -55q-22 -68 -71 -68q-65 0 -127 4 q-59 -4 -122 -4q-73 8 -139 24q-71 8 -88 51q-22 55 -27 131z" />
<glyph unicode="M" horiz-adv-x="1321" d="M74 28q0 23 40 451l-4 8q7 78 16 301q4 0 12 52v142q6 40 10 69v347q0 55 56 55q32 0 87 -87q14 -16 52 -95q71 -110 71 -154q111 -231 111 -289q17 0 43 -131q12 -3 40 -131q16 -21 28 -142h4q0 69 35 166q0 22 28 83q0 27 32 87q27 131 79 226q12 39 95 234l20 63 q11 31 47 154q26 32 99 32q24 0 79 -55q32 -37 32 -175q4 0 4 -59v-954q8 -96 8 -107v-56q-3 -39 -28 -83q-34 -31 -91 -31h-8q-53 0 -99 110q-10 12 -28 115q-6 13 -19 111v456q0 27 8 75q-20 61 -20 142h-4q-56 -116 -87 -249q-28 -87 -28 -111l-36 -174l-19 -115 q-8 -91 -28 -131q-32 -158 -64 -158q0 -9 -35 -12q-44 0 -79 99q-44 47 -143 313q-63 144 -83 245q-16 22 -56 175h-3v-357q0 -17 -8 -87q0 -190 -8 -364q4 -7 4 -20q-14 -44 -52 -44h-2q-14 -12 -36 -12q-72 14 -72 72z" />
<glyph unicode="N" horiz-adv-x="965" d="M109 170v1184q0 74 95 83h8q48 0 138 -213q32 -54 52 -135q11 0 16 -63q31 -86 59 -214q44 -133 79 -218q23 -81 72 -212h8q-9 90 -10 218v625q0 235 89 240q84 -5 94 -91l13 -67q11 -71 20 -218v-1055q0 -31 -32 -56q-11 -35 -52 -35h-59q-46 4 -134 105 q-53 71 -104 209q-26 48 -103 234q-11 9 -39 87q-10 9 -40 149q-9 1 -16 31h-4v-4q4 -491 4 -718v-8q0 -56 -55 -56q-95 0 -95 87q-4 42 -4 111z" />
<glyph unicode="O" horiz-adv-x="890" d="M44 604q0 116 12 200v75q0 58 38 166q0 101 44 187q14 74 39 114q108 119 163 119h67q147 0 214 -83q26 -13 43 -51q56 -48 56 -64q47 -129 47 -146l32 -159q3 -87 3 -166q0 -555 -140 -719q-128 -132 -255 -132q-70 0 -119 31q-120 57 -184 218q-48 83 -57 283 q-3 67 -3 127zM328 448l31 -162q5 0 36 -75q70 -75 111 -79q151 0 154 695v128q-12 163 -35 209q-14 34 -32 95q-45 63 -79 76h-40q-32 -13 -63 -55q-40 -101 -40 -199q-16 -24 -27 -241q-16 -59 -16 -84v-308z" />
<glyph unicode="P" horiz-adv-x="765" d="M74 333v479q0 76 16 127l-4 27v60q0 97 32 285q4 49 4 51l-4 24q12 44 59 44l8 -4l20 8l55 -4q144 4 206 4q4 0 44 -16q66 0 150 -95q32 -31 72 -179v-170q0 -25 -44 -146q-27 -60 -36 -72q-83 -141 -142 -150q-56 -38 -139 -52q-55 -4 -55 -11q0 -14 -20 -123v-48 q-16 -197 -32 -285q-6 0 -23 -71q-21 -44 -60 -44h-8q-73 0 -83 95q0 8 -8 155v35q-8 68 -8 76zM316 645q62 0 138 48q23 38 24 79q14 0 32 103v265q0 131 -44 171q-5 0 -27 24h-72l-39 -4l4 -8v-68q0 -150 -4 -415q-12 -47 -12 -107v-88z" />
<glyph unicode="Q" horiz-adv-x="957" d="M74 562q0 114 20 242v75q0 58 48 166q0 101 43 187q15 74 40 114q108 119 162 119h67q148 0 214 -83q27 -13 44 -51q55 -48 55 -64q48 -129 48 -146l31 -159q3 -87 3 -166q0 -555 -139 -719q-21 -21 -42 -38q16 -17 36 -63q35 -19 99 -71q55 -6 55 -52q-12 -51 -67 -51 q-99 25 -218 103q-29 26 -45 50q-37 -10 -74 -10q-70 0 -118 31q-120 57 -194 218q-48 83 -48 198q-5 0 -16 154q-4 0 -4 16zM375 449l32 -162q5 0 36 -74q70 -75 110 -79q152 0 155 694v128q-12 162 -36 208q-14 35 -31 95q-45 63 -80 76h-39q-33 -13 -64 -55 q-39 -101 -39 -199q-16 -24 -28 -240q-16 -59 -16 -84v-308z" />
<glyph unicode="R" horiz-adv-x="890" d="M109 685q8 76 8 107q0 128 12 198l-12 103v27h1q-1 6 -1 13v87l28 134q45 123 106 123h8q64 -13 64 -51h4q52 39 119 39h11q81 -11 135 -47q34 -33 52 -61q9 -7 18 -15q0 -4 36 -35q35 -41 51 -119q32 -92 32 -170v-79q0 -151 -71 -234q-52 -85 -159 -134 q79 -77 111 -135q0 -13 56 -155q18 -58 37 -127q73 -125 114 -138q16 -24 16 -40q0 -51 -111 -51h-28q-150 0 -198 150q-15 35 -43 182q-36 110 -75 194v5q-21 37 -29 39q0 12 -8 12q-16 -4 -28 -4v-28q-23 -241 -23 -364v-12q0 -7 -3 -17v-3q0 -87 -56 -123l-28 -4h-7 q-65 0 -87 63q-13 18 -13 44v60l-5 41q-7 23 -7 30v32q-2 34 -5 81.5t-3 52.5v193q-7 13 -7 33q-12 68 -12 103zM349 1307q8 -81 13 -214q15 -155 15 -391q-4 -46 -4 -100q55 10 98 57q33 39 52 91q9 33 11 118t2 158v39q0 6 -8 95v44q-8 24 -16 40q-2 4 -4 9l-2 4 q-6 17 -9 38q-20 59 -79 59q-18 -3 -69 -47z" />
<glyph unicode="S" horiz-adv-x="770" d="M37 483q13 44 51 44q52 0 52 -111v-71q0 -17 39 -127q28 -79 95 -79h16q73 0 135 114v56q0 51 -44 218q-71 154 -111 206q-75 91 -119 257v63q-7 68 -7 76v47q27 143 43 143q100 134 166 134h56q52 -17 123 -27q37 0 87 -56q40 -51 63 -170v-135q-7 -91 -59 -91h-4 q-48 8 -48 60q12 35 12 59v91q-23 147 -95 147l-20 4q-40 -25 -55 -40q-16 -43 -28 -155q27 -139 60 -201q21 -44 51 -88q50 -94 127 -265q35 -62 47 -166v-182q0 -67 -63 -171q-92 -71 -99 -71q-36 -16 -87 -16h-28q-117 0 -234 75q-58 73 -83 159q-35 63 -35 190 q-4 53 -4 79z" />
<glyph unicode="T" horiz-adv-x="628" d="M-14 1358q10 48 56 48h51q106 0 147 -8q6 0 63 16q250 4 348 4q52 -9 52 -52q-13 -75 -48 -75q0 -4 -15 -4h-115q-26 0 -56 8v-329q-12 -123 -20 -293v-83l-19 -222q-12 -41 -28 -233q-11 -19 -20 -87q-45 -76 -71 -76h-4q-91 0 -91 103v28q12 48 12 67v1113 q-40 -4 -60 -4h-111q-50 0 -71 79z" />
<glyph unicode="U" horiz-adv-x="814" d="M74 1045l20 175q13 0 24 103q30 166 138 166q67 0 80 -115q10 -49 19 -119q4 0 4 -16v-35q-11 -45 -19 -88q-3 -70 -5 -177q-7 0 -8 -127v-376q0 -62 51 -230l48 -75l39 -9q8 2 17 5q21 21 37 33q41 87 41 192l6 29q4 172 11 201q-4 42 -4 67l-9 240q2 57 4 62v407 q14 79 76 79q6 -1 11 -3q61 -5 61 -175q0 -133 8 -202q0 -18 -5 -93q-9 -97 -12 -315q-15 -43 -28 -233q-2 -3 -3 -8q-1 -110 -26 -157q-2 -15 -3 -33q-19 -45 -35 -99q-30 -70 -91 -107q-65 -28 -178 -28h-4q-92 0 -151 64q-95 177 -95 300q0 66 -16 155v499q-3 19 -3 43z " />
<glyph unicode="V" horiz-adv-x="779" d="M74 1295v99q0 49 54 70q17 13 43 13h24q67 0 111 -91q36 -191 36 -230v-16q0 -2 -1 -2q12 -83 20 -210q11 -14 32 -127q24 -54 36 -151q18 -41 61 -270l16 -55q10 0 32 182q11 0 11 87v131q0 69 16 111v39q0 23 20 155v87q16 289 32 289q23 63 99 63q39 0 55 -67 q0 -20 -43 -289q0 -55 -44 -313q-16 -67 -24 -170q-16 -115 -39 -234q-8 -74 -44 -261q-45 -123 -63 -123q-16 -24 -71 -24q-101 0 -127 71q-28 98 -71 218q0 45 -40 123q-20 56 -36 174q-15 51 -35 167q-11 30 -20 114q-10 0 -16 206q-15 0 -24 234z" />
<glyph unicode="W" horiz-adv-x="1254" d="M74 1406q0 23 19 35q21 55 70 60q65 0 99 -48q40 -34 87 -225q20 -33 20 -56v-76q1 -1 2 -3q8 -157 44 -356q0 -69 75 -385h4q0 11 24 92q0 16 31 162q0 21 16 63v40q0 27 12 115v134l16 111v171q-4 11 -6 27v4q0 98 63 170q21 12 40 12h28q48 0 95 -63l20 -75v-6 q6 -61 13 -157q24 -117 48 -309q16 -70 24 -150q15 -11 47 -150q32 -91 32 -103h4q20 31 59 368q0 38 16 131q8 83 8 273v40q-4 14 -6 31q0 5 -8 44v63q27 103 107 103q40 -12 54 -35q15 -15 15 -40v-95q0 -21 -19 -139q-40 -235 -40 -368l-32 -174v-127q-8 -87 -23 -147 q-20 -84 -32 -214q-17 -33 -40 -130q-48 -64 -83 -64h-20q-30 0 -79 40q-34 41 -43 79q-14 11 -64 151q-59 234 -59 269q0 19 -40 170v24h-4q0 -149 -35 -238q-12 -78 -36 -118q-8 -32 -8 -68v-35q-28 -96 -44 -198q-37 -64 -130 -64h-40q-81 0 -107 151q-11 15 -35 182 q-15 0 -28 190q-13 0 -28 182q-24 108 -39 242v55q-16 33 -16 83q-19 124 -34 277q-8 16 -8 40q0 4 1 8q-7 13 -7 24z" />
<glyph unicode="X" horiz-adv-x="781" d="M8 20q8 72 79 186q72 115 123 249q24 80 43 80l32 71q-51 103 -51 127q0 15 -32 99q0 13 -71 213q0 16 -32 99q-12 57 -12 80v55q-28 96 -28 111q15 55 80 55h15q73 0 95 -63q70 -110 99 -178q12 -5 36 -83q36 -45 60 -127q5 0 19 51q14 13 80 155q59 110 91 198 q21 55 63 55q55 0 55 -55v-20q0 -44 -174 -340q-51 -114 -59 -151l-16 -16l51 -119q0 -24 68 -174q35 -94 79 -261q39 -87 51 -167q8 -49 8 -83v-27q0 -61 -75 -80q0 -8 -28 -8h-15q-33 0 -96 56q-31 33 -31 87q-10 5 -20 44q-68 97 -103 190q-26 91 -63 142 q-32 -68 -76 -186q-104 -240 -146 -325q-26 -11 -40 -11q-39 0 -59 71z" />
<glyph unicode="Y" horiz-adv-x="743" d="M18 1406v24q0 55 55 55h8q12 -1 23 -3q9 3 21 3q50 0 95 -107q39 -20 39 -71q53 -98 84 -230q0 -8 47 -127l40 -146v-41q7 -34 16 -78v-4q17 51 58 143q0 19 32 107v4q0 15 23 99q0 26 56 162q0 9 39 115q31 134 95 134h8q56 -6 56 -51v-4q-6 -33 -71 -190 q0 -36 -80 -206q0 -17 -27 -71q0 -16 -28 -95q-20 -84 -52 -135q-8 -35 -67 -194q0 -16 -4 -27q16 -91 32 -187q4 -11 4 -59v-14q-1 -26 -1 -59.5v-53.5v-48q-21 -158 -48 -158q0 -17 -79 -32q-54 0 -75 167q-18 131 -23 229q12 127 12 206v12q-40 42 -59 139q-17 11 -28 95 q-14 0 -40 146q-31 76 -103 345q-51 138 -51 162v13q-7 17 -7 31z" />
<glyph unicode="Z" horiz-adv-x="591" d="M8 32v27q16 99 40 159q0 52 27 115q12 86 28 150q0 22 55 210q48 152 48 154q8 0 40 131q34 42 63 218q20 66 28 139q-56 -16 -80 -16h-154q-55 6 -55 51q9 48 55 48h146q126 23 143 23h115q41 0 55 -43q-4 -206 -23 -206q-12 -62 -28 -115q0 -59 -75 -245l-76 -250 q-15 -91 -19 -146q-9 -8 -32 -111q-7 -7 -36 -119q-21 -42 -35 -123v-12h47q22 0 75 12h155q55 -6 55 -51q-10 -48 -55 -48h-119q-108 -12 -119 -12h-115q-36 0 -103 -4q-51 18 -51 64z" />
<glyph unicode="[" horiz-adv-x="564" d="M74 23v501q8 56 8 62v225q0 192 4 512q16 96 24 240v81q0 55 55 55h68q38 8 43 8h75q58 8 64 8h20q55 -6 55 -51q-8 -46 -59 -46l-72 -8h-47v-702q-12 -182 -12 -368v-94l-16 -240v-590h135q55 -6 55 -51q-10 -46 -55 -46h-174q-29 0 -32 12q-15 -8 -32 -8q-50 0 -63 54 q-8 23 -16 81v94q-11 0 -28 271z" />
<glyph unicode="\" horiz-adv-x="576" d="M74 1382l4 24q52 59 75 59q28 0 52 -20q36 -137 71 -237q0 -81 44 -163q11 -59 20 -59q11 -135 23 -135q52 -245 68 -293q4 -91 15 -91q0 -40 36 -265q20 -95 20 -158q0 -60 -56 -60h-7q-32 0 -72 36q-12 49 -27 71q-4 99 -16 99q-21 146 -28 155q-13 106 -24 106 q0 77 -47 222q-44 141 -44 151q-39 116 -39 134q-28 107 -48 246q-20 129 -20 178z" />
<glyph unicode="]" horiz-adv-x="572" d="M74 -427q10 47 56 47h63q22 0 59 8v123q0 20 20 142q20 111 20 268q-4 508 -4 896v331q-8 86 -8 92v88q0 20 -8 47h-71q-23 0 -63 -4q-44 14 -44 50q13 50 63 50h238q67 -9 67 -62q28 -64 28 -142q8 -238 8 -699v-339q0 -182 -4 -522q-20 -73 -20 -196q4 -102 4 -162 q-8 -46 -59 -46q-100 0 -210 -19h-79q-56 6 -56 49z" />
<glyph unicode="^" horiz-adv-x="829" d="M74 645q0 31 36 131q0 26 36 95q11 42 51 139q0 16 32 134q59 93 59 119q44 123 44 174q25 32 71 32q0 4 12 4q37 0 87 -87q16 -31 91 -273q24 -62 48 -155q15 -22 35 -107l48 -95q0 -21 31 -75v-8q0 -19 -23 -39q0 -17 -44 -32q-118 0 -158 135q0 14 -44 114 q-24 62 -40 147q-48 122 -67 194h-4q-12 -40 -24 -170q-18 -21 -47 -171q-9 0 -24 -134q-25 -67 -39 -83q-27 -26 -92 -36h-19q-46 0 -56 47z" />
<glyph unicode="_" horiz-adv-x="980" d="M74 -166q18 67 56 67q100 -4 194 -16h237q92 0 297 8q48 -10 48 -55v-12q-5 -60 -60 -60h-578q-79 -15 -95 -15h-39q-60 0 -60 83z" />
<glyph unicode="`" horiz-adv-x="481" d="M74 1359v10q24 52 75 52h48q84 0 147 -155l63 -113q0 -36 -48 -44h-8q-39 0 -130 90q-147 132 -147 160z" />
<glyph unicode="a" horiz-adv-x="803" d="M47 210v265q43 237 91 325q72 141 87 150q66 51 142 60h36q59 0 117 -62q75 90 136 90q60 -5 60 -60q0 -13 -12 -91q-12 -34 -12 -123l-8 -49l-13 -191l-3 -203q0 -21 -7 -79q12 -26 17 -72q28 -60 28 -119v-3q-8 -60 -60 -60h-3q-11 0 -19 4h-13q-61 0 -95 67 q-29 45 -41 110q-16 53 -20 121l-16 -41l-68 -138q-39 -74 -81 -98.5t-69 -24.5h-60q-50 0 -79 52q-27 0 -35 170zM272 158q2 -6 3 -11q4 5 9 11q74 170 121.5 274.5t50.5 190.5l14 110q0 46 16 130q-13 24 -61 37q-31 -4 -58 -75q-12 -40 -51 -191q-7 -136 -24 -187 q-12 0 -20 -170v-119z" />
<glyph unicode="b" horiz-adv-x="894" d="M69 507v103l24 218v15q0 19 -4 40q12 66 20 170q20 104 32 206q49 171 75 202q48 64 107 64q57 0 79 -95q-13 -55 -32 -84q-10 -49 -19 -126q-4 -4 -7 -68q0 -24 -50 -591q-2 -46 -3 -98q0 -91 9 -197q5 87 56 238q26 97 71 186q5 31 21 52q110 236 240 236 q80 0 119 -182v-196q-17 -166 -23 -190q-26 -98 -72 -176q0 -11 -36 -60q-42 -103 -95 -172q-35 -40 -81 -49q-3 -5 -7 -12q-26 -12 -40 -12h-4q-55 6 -55 51q0 22 75 95q0 10 32 68q14 33 28 56q59 171 78 355v72q-17 122 -26 122q-13 0 -28 -9q-81 -109 -91 -182 q-36 -68 -37 -124q-75 -199 -75 -363q8 -48 8 -82v-8q-3 -48 -70 -56q-38 1 -59 26q-28 10 -60 94q-45 114 -67 223q-4 23 -7 52q-9 31 -14 77q-11 27 -12 111z" />
<glyph unicode="c" horiz-adv-x="647" d="M47 333q3 136 15 178v51q0 61 87 274l88 114q48 29 132 44q0 8 44 8q111 0 134 -44q24 0 48 -118v-28q-6 -45 -14 -72q-15 -61 -51 -79l-8 -4h-32q-32 11 -32 91v9q-2 8 -2 19v87q0 9 -15 40h-40q-95 -174 -95 -321q-11 -23 -24 -198q-7 0 -8 -67v-44q16 -101 44 -154 q0 -32 87 -44q51 15 79 64q59 71 101 71q9 0 18 -3q15 -7 16 -25q0 -36 -68 -123q-56 -77 -158 -107q-43 -7 -55 -7h-76q-120 0 -176 142q-39 127 -39 246z" />
<glyph unicode="d" horiz-adv-x="785" d="M47 135v122q0 254 27 313q20 100 24 155q9 1 28 91q86 178 186 178q0 4 24 4h43q43 0 104 -17l5 -7q4 25 11 64v47q16 56 24 127q12 55 79 186q39 83 107 83q47 -10 47 -55q0 -72 -31 -234q0 -37 -16 -103v-75q-20 -143 -20 -230q0 -64 -12 -94q-10 -138 -13 -243v-146 q0 -109 32 -179q20 -45 34 -71q4 -4 5 -12q-1 -11 -6 -22q-6 -10 -17 -17q-26 -24 -52 -24h-8q-121 0 -166 135q-10 12 -24 111v138h-4q-63 -139 -87 -225q-12 -17 -35 -87q-44 -76 -95 -76h-32q-82 0 -139 68q-23 52 -23 95zM248 178q4 -51 12 -51q28 71 52 150l79 170 q11 9 55 155q20 60 24 99v20q0 83 8 130l-24 36q-26 -4 -43 -4q-87 -188 -87 -238q-10 -8 -16 -83q-14 0 -32 -166q-20 -93 -20 -154q0 -53 -8 -64z" />
<glyph unicode="e" horiz-adv-x="643" d="M47 333q3 136 15 178v51q0 61 87 274l88 114q48 29 132 44q0 8 44 8q111 0 134 -44q24 0 48 -118v-56q-12 -118 -103 -265q-42 -42 -166 -115q-24 -8 -44 -15v-5q-7 0 -8 -67v-44q16 -101 44 -154q0 -32 87 -44q51 15 79 64q58 70 99 71q10 0 20 -3q16 -7 16 -26 q-1 -36 -68 -122q-56 -77 -158 -107q-43 -7 -55 -7h-86q-110 0 -166 142q-39 127 -39 246zM292 499q55 28 81 67q83 93 83 202v95q0 9 -15 40h-40q-95 -174 -95 -321q-7 -14 -14 -83z" />
<glyph unicode="f" horiz-adv-x="630" d="M41 725q0 31 43 47q27 -4 44 -4h12q34 108 47 289q5 0 12 107q74 165 131 230q38 36 99 45l69 -3q29 -6 61 -40q43 -22 68 -77v-8q-10 -48 -56 -48q-25 0 -55 36q-68 -24 -79 -178q-36 -138 -36 -194v-64q0 -53 -8 -87h119q17 0 43 4q44 -14 44 -51q0 -44 -59 -52h-159 v-16q-35 -302 -35 -352q0 -108 -2 -294q2 -7 2 -15l-35 -190q-6 -76 -48 -131q-23 -16 -43 -16h-8q-60 0 -71 91q-16 103 -32 317v56q1 7 2 12l-11 87v174q0 36 16 123v138l4 8q-79 0 -79 56z" />
<glyph unicode="g" horiz-adv-x="910" d="M48 764q7 53 67 151q46 109 158 162q26 8 36 8h71q49 0 131 -55q32 -22 40 -34q27 -16 50 -81q75 148 163 158h4q44 -12 44 -59q11 -83 11 -172q0 -18 -1 -38q-6 -162 -18 -289q0 -56 -8 -167.5t-16 -115.5v-50q0 -97 -28 -142q0 -52 -75 -206l-127 -206q-6 0 -55 -44 q-54 -46 -95 -55q0 -9 -36 -12l-42 -8q-7 -1 -14 -1q-17 0 -31 4q-24 5 -43 5q-45 0 -99 47q-20 0 -56 84q-4 15 -4 31v36q0 43 56 46q43 0 43 -38v-40q0 -28 55 -64q33 1 81 13q35 25 70 57q31 31 66 172q24 29 47 143q16 91 26 178v111l4 28q-3 0 -107 -72 q-39 -32 -119 -55h-55q-115 0 -147 99q-40 91 -40 182q0 79 -7 289zM301 535q23 -163 95 -163q4 0 12 -4q56 27 127 103q8 63 8 107v123q0 26 1 44q-4 16 -7 35q-12 55 -29 96q-22 35 -45 63q-7 3 -16 3h-51q-26 0 -67 -118q0 -10 -28 -167v-122z" />
<glyph unicode="h" horiz-adv-x="809" d="M74 380v115q0 8 8 40q0 226 36 427q3 63 14 122q2 104 59 270q0 41 87 107q15 8 32 8h47q56 0 56 -55v-16q-16 -216 -44 -277l-4 -20v-36q0 -193 -31 -328q-5 -30 -7 -44l5 -17v-10q2 -8 2 -17q0 -8 -3 -16q-3 -101 -15 -209v-4h4q16 77 43 154q102 268 151 309 q17 48 71 79q0 12 79 32h20q60 0 83 -83v-380q0 -27 -4 -67q1 -3 2 -5q-4 -93 -4 -138v-238q0 -33 24 -142q-10 -48 -55 -48q-93 27 -143 83q-63 86 -63 226q-7 0 -8 47v24q0 167 15 190q7 71 7 159v12l6 85l-26 -34q-56 -112 -99 -269q-44 -164 -68 -218q-41 -98 -43 -174 q-44 -52 -83 -52h-20q-65 0 -79 52q-36 98 -36 194q-16 77 -16 162z" />
<glyph unicode="i" horiz-adv-x="470" d="M78 636q6 57 6 63l-3 55q1 23 3 44l-1 24q16 116 63 118q0 6 105 19q74 -3 101 -51q18 -40 19 -55q-6 -120 -33 -251q-9 -56 -12 -119l4 -83q-4 -36 -6 -73l3 -58l2 -16q10 -27 14 -75q0 -50 35 -174q0 -5 32 -28q12 -17 12 -31q-15 -56 -79 -56q-124 14 -178 136 q-15 33 -46 138q-20 131 -23 167q-12 164 -13 187zM92 1237v7q0 67 91 103q5 4 28 4h79q52 0 79 -55q28 -18 28 -52v-55q0 -44 -59 -107q-30 -20 -107 -20q-47 4 -99 44q-40 47 -40 131z" />
<glyph unicode="j" horiz-adv-x="521" d="M-41 -289q0 91 56 91q47 -10 47 -55v-36q0 -16 37 -31q50 17 53 47q5 8 17 67q0 33 -3 67q-30 216 -30 238v40q10 265 10 320l-10 99q-8 68 -8 76v158q4 48 49 111q14 20 44 20h51q76 0 99 -64q40 -117 40 -225q4 0 12 -84v-39q-14 -187 -28 -297q12 -56 12 -60v-11 q0 -64 4 -131q-4 -61 -16 -115v-67q0 -11 -24 -72q0 -71 -99 -150q-72 -37 -142 -45q-13 -7 -28 -7h-20q-41 2 -95 52q-28 82 -28 103zM74 1173v40q13 126 64 126q0 4 15 4q24 -4 24 -11q39 23 75 23q88 0 139 -87l4 -28q0 -95 -32 -114q-45 -84 -130 -84h-20q-92 0 -131 88 q-8 15 -8 43z" />
<glyph unicode="k" horiz-adv-x="814" d="M69 289v333q12 103 36 225q0 70 16 103q44 357 71 357q14 62 40 96q19 56 116 94q22 8 56 8q31 0 52 -60l-16 -72q-28 -33 -28 -66q-8 -2 -21 -36q-7 -40 -21 -87q-6 -41 -16 -174q-7 0 -15 -200l-20 -184l5 -108l-5 -154h4l138 325q25 62 68 127q0 19 79 99q37 47 43 47 q31 60 84 60q51 0 51 -91q0 -32 -63 -72q-102 -72 -139 -142q-19 -31 -43 -103v-8q38 -41 71 -143l75 -261q19 -48 35 -78q9 -14 22 -29l31 -27q-51 -48 -104 -48h-8q-51 0 -111 47q-65 38 -103 167q-31 89 -31 99h-4q-20 -67 -56 -151q-12 -33 -31 -63q0 -45 -36 -115 q-39 -48 -75 -48h-4q-77 0 -107 119q-15 49 -36 214z" />
<glyph unicode="l" horiz-adv-x="460" d="M74 416v138q0 51 12 127v91q0 15 10 53q2 107 32 185q0 22 35 198q0 16 36 99q11 34 28 55q31 90 95 127q74 16 111 16q8 0 19 -40l-23 -66q-19 -17 -40 -112q-3 -5 -7 -12q-26 -110 -27 -135q4 -21 4 -43q-19 -80 -23 -190q-3 0 -23 -123q3 -6 5 -12q0 -16 -4 -31 q4 -67 4 -103q-16 -236 -16 -309v-20q0 -200 47 -242q8 -34 8 -47q0 -11 -4 -20q-7 -55 -59 -55h-28q-38 0 -50 26q-30 10 -67 45q-47 53 -47 131q-28 44 -28 269z" />
<glyph unicode="m" horiz-adv-x="1232" d="M85 867v52q20 95 79 95q54 0 99 -44q36 -59 36 -158q12 0 28 -174q8 0 8 -40v-83q0 -14 -4 -36v-4h4q27 57 39 131q21 8 32 142q51 167 51 175q52 87 111 87h20q107 -22 107 -71q16 -19 36 -195v-67q-20 -53 -20 -261v-4h4q27 56 55 138q28 34 87 234q61 103 99 103 q29 32 80 32q102 0 102 -246v-305q-15 -141 -25 -195q2 -7 4 -15q-4 -68 -4 -79q25 -68 31 -127q-24 -102 -87 -102h-12q-31 0 -44 17q-8 -1 -17 -2q-45 0 -99 107q-4 83 -4 135v166q0 5 -8 44v210h-4q-36 -99 -63 -155q-64 -136 -64 -162q-56 -86 -87 -234q-6 -4 -23 -47 q-36 -24 -56 -24q-66 0 -83 79q-12 27 -12 44v158q0 34 20 135q0 54 12 336v4q0 26 -4 80h-4q-10 -117 -32 -171q-10 0 -20 -75q-48 -92 -83 -234q-7 -7 -35 -103q-7 0 -40 -110q-52 -88 -107 -88q-51 0 -87 84q-8 94 -8 170q1 75 8 75q-4 47 -4 67v317q0 17 4 44 q-16 67 -16 150z" />
<glyph unicode="n" horiz-adv-x="903" d="M85 123q0 106 4 586q17 209 48 281q24 28 43 28q73 0 99 -32q42 -83 42 -184q8 0 8 -152q0 -147 -39 -334l17 39q63 222 127 382q13 16 35 75q71 124 79 127q47 55 135 55h24q45 0 75 -59q8 -16 8 -44v-40q12 -14 12 -35v-95q-20 -128 -20 -143v-79q-6 -79 -14 -119 l-4 -47v-36q0 -206 24 -246q28 -72 28 -87q-10 -47 -56 -47h-12q-94 26 -126 87q-64 132 -64 182l-19 147q0 6 2 11h-1q3 17 4 36q0 30 16 127q10 63 10 118q0 32 -10 75q-29 -9 -87 -150l-67 -249q-36 -67 -63 -162q-14 -11 -48 -103q-25 -72 -51 -72q0 -8 -40 -8h-4 q-73 0 -95 64q0 14 -20 103z" />
<glyph unicode="o" d="M47 479q19 42 19 166q24 62 24 119q27 107 83 107v40q0 61 64 138q20 24 83 60q18 20 75 20h44q106 0 229 -151q28 -68 28 -87v-226l-48 -320q-14 -83 -51 -179q0 -47 -87 -150q0 -24 -83 -71q-28 -8 -48 -8h-16q-101 8 -142 27q-87 56 -87 80q-36 28 -64 146 q-8 40 -8 79v163zM272 863q76 -51 81 -104q1 -4 1 -9q-1 -57 -42 -223q0 -46 -8 -270q26 -42 36 -95q24 -32 71 -47h12q0 5 43 39q16 16 40 72q14 0 39 111q12 62 40 308q-9 100 -16 143q-8 0 -31 99q-97 111 -155 111h-39q-29 0 -60 -59q-12 -20 -12 -32v-44z" />
<glyph unicode="p" horiz-adv-x="883" d="M47 -199l5 286q12 80 16 515l12 24q0 143 60 324q44 80 87 80h16q43 -1 72 -66q6 -56 10 -137q2 -25 2 -56q0 -24 -1 -50q42 55 55 99q22 16 87 111q20 7 99 59l40 4h12q170 0 170 -269v-66q6 -10 6 -21q0 -111 -28 -183q0 -48 -51 -229q-15 -37 -28 -66q-9 -46 -74 -109 q-98 -51 -159 -51h-19q-106 9 -166 28q-13 -160 -15 -281q-42 -227 -78 -227q-62 0 -99 103q-31 112 -31 178zM280 135q19 -6 45 -16q24 -4 55 -4q57 0 83 55q23 29 48 94q7 31 15 77q17 18 39 162v91q0 3 1 6q-6 124 -42 160q-78 0 -151 -174q-20 0 -59 -162 q-12 0 -32 -230v-45z" />
<glyph unicode="q" horiz-adv-x="776" d="M47 277v4q0 180 15 230q8 86 48 241q11 11 39 80q7 0 32 59q78 91 87 91q50 28 83 28h52q70 -12 129 -80q47 111 116 115q17 0 44 4q44 -13 44 -55q0 -37 -44 -174q-15 -98 -28 -226q-7 0 -8 -28v-47q-12 -130 -39 -277q-8 -71 -8 -88v-301q0 -42 22 -85l35 -69 q10 0 56 -55q12 -17 12 -32q0 -48 -95 -71q-61 0 -96 42l-1 -1q-16 13 -32 34q-67 73 -67 142q0 25 -24 115q-4 53 -4 111v214h-4q-38 -56 -67 -127q-6 0 -40 -59q-43 -40 -71 -40h-8q-117 0 -155 139q-4 58 -23 166zM272 162h4q0 20 56 95q0 20 75 190l55 139q20 58 28 159 q5 67 6 72q-36 58 -47 60q-10 8 -22 10h-4q-26 -34 -44 -83q-14 -20 -35 -111q-9 0 -28 -111q0 -36 -16 -75q-12 -76 -28 -269v-76z" />
<glyph unicode="r" horiz-adv-x="760" d="M85 182v143q0 6 8 63l-3 55q1 60 8 170.5t15 206.5v51q0 143 35 143q0 7 56 12q36 0 78 -87q20 -39 21 -231q53 203 93 231q29 56 127 87h39q6 0 11 -1q5 1 9 1q82 0 85 -76q16 -51 16 -118v-28q0 -13 -5 -40q6 -45 25 -95q53 -22 53 -47q-9 -52 -75 -52q-21 -4 -79 -4 q-97 13 -127 71q-1 2 -1 4q-9 17 -10 39q-2 10 -3 21v47h-4q-5 61 -7 103q-38 -40 -38 -71q-28 -42 -60 -253q0 -28 -19 -139v-71q-12 -72 -16 -147q-3 -7 -10 -27l-11 -127q-23 -28 -52 -60l-28 -4h-32q-22 0 -67 64q-16 0 -24 119q-7 0 -8 47z" />
<glyph unicode="s" horiz-adv-x="577" d="M58 0q0 46 56 51q32 0 47 -43q-4 -27 -4 -44q19 -107 99 -107h1v1h2l24 3q31 16 31 40q0 20 -16 71q-10 59 -79 200q-115 221 -115 244q-32 81 -32 226l28 174q53 98 107 146q91 68 123 68h4q133 0 162 -40q30 -4 59 -63q28 -68 28 -103v-20q0 -61 -36 -99 q-14 -12 -35 -12q-38 0 -48 51q0 8 4 8l-4 28v52q-9 47 -59 47q-75 -36 -75 -55q-20 0 -20 -83q-4 0 -4 -24v-60q0 -79 71 -229q13 -18 56 -143q8 -24 35.5 -102.5t27.5 -154.5v-99q0 -42 -75 -139q-44 -28 -109 -34q-15 -5 -36 -9h-20q-122 30 -128 51q-70 69 -70 202z" />
<glyph unicode="t" horiz-adv-x="578" d="M29 923q0 25 47 63q43 11 79 20q10 108 28 194q9 59 40 166q41 115 63 115q57 32 63 32q60 -13 60 -60q11 0 24 -79q-12 -287 -32 -340q65 9 76 10q31 16 44 16h20q5 0 23 -23v-24q-4 -56 -68.5 -73t-98.5 -17v-24q-12 -56 -26 -192q-13 -115 -13 -253q-3 -115 -3 -173 q4 -18 4 -41q0 -50 48 -143q46 -44 138 -44q28 -20 28 -51q0 -52 -130 -71h-24q-192 0 -258 146q-43 56 -43 119q-12 3 -12 194q0 65 2 343q0 31 16 130h-20q-71 0 -71 52z" />
<glyph unicode="u" horiz-adv-x="863" d="M41 467q19 282 35 317q31 135 61 183q1 3 1 7q25 56 75 56q131 0 138 -107v-16q-18 -131 -43 -258q-21 -112 -36 -332q-4 -46 -4 -87q0 -60 8 -111q3 -20 12 -20q60 50 107 238q27 64 61 328q13 104 23 176q62 187 135 201q26 2 51 3q75 -7 75 -55v-24q-12 -44 -24 -158 q-4 0 -4 -16v-12q8 -13 8 -32q-28 -224 -28 -336v-111q12 -49 24 -143q1 -27 59 -110v-12q-12 -52 -67 -52q-39 0 -119 40q-101 120 -113 216l-30 -64q-30 -64 -75 -136q-64 -68 -111 -68h-59q-73 0 -115 103q-5 24 -7 47q-14 33 -23 88q-9 8 -11 51q0 85 -4 206z" />
<glyph unicode="v" horiz-adv-x="726" d="M29 1041q0 46 55 52h32q70 -10 120 -73q42 -43 54 -129q18 -50 23 -104l19 -229q10 -86 68 -324q82 272 89 352l36 95q0 19 19 135q0 15 8 83q-11 22 -19 99v24q11 95 94 103q66 -7 92 -115v-79q0 -49 -48 -242q-20 -36 -43 -119q-33 -62 -44 -119q-49 -229 -83 -253 q-38 -74 -75 -154q-39 -78 -121 -94q-11 0 -24 1q-61 6 -61 81q-118 394 -118 471v32q-17 47 -32 202v67q-6 38 -12 108q-8 17 -13 42q-16 0 -16 87z" />
<glyph unicode="w" horiz-adv-x="1168" d="M37 686v107q5 89 21 126q23 107 56 107q41 23 63 23h24q38 0 87 -43q21 -35 22 -76q0 -9 -1 -18q-35 -146 -35 -392v-87q26 -159 44 -159h24q22 0 55 48q11 0 36 87q1 13 3 24q-3 29 -7 63v340q13 53 23 194q67 67 131 67h20q55 0 75 -91v-12q0 -125 8 -444.5t91 -399.5 h12q0 10 55 76q0 25 56 150q0 17 18 44q26 73 68 241q3 36 8 36q-17 165 -52 218q-39 77 -39 95v47q0 56 55 56h28q79 0 123 -123q12 -49 12 -67v-210l-60 -329q-15 -21 -29 -35q-31 -87 -65 -143q-3 -7 -6 -15q-29 -72 -77 -136q-13 -33 -87 -59h-52q-47 3 -126 40 q-111 84 -111 126q-4 0 -33 82q-1 4 -3 6q-19 -21 -35 -67q-4 -1 -52 -75q-79 -83 -115 -83h-55q-65 0 -111 83q-63 154 -63 309q-4 106 -4 269z" />
<glyph unicode="x" horiz-adv-x="730" d="M35 48q0 14 27 47q0 18 44 79q3 20 71 99q0 9 32 56q20 51 51 95q-39 96 -71 190q-86 169 -87 198q-19 18 -54 155q-1 11 -1 21q1 52 31 62q13 2 27 2q82 0 166 -72q46 -53 88 -188q17 -23 44 -115h4q21 40 111 182q12 60 87 163q13 35 63 35q38 0 48 -51q0 -20 -32 -48 l-119 -257q-92 -168 -99 -190q40 -85 72 -166q6 -29 13 -53q35 -35 72 -145q31 -60 91 -103q12 -17 12 -32q-12 -52 -68 -52q0 -5 -15 -8q-90 0 -131 28q-74 21 -155 215q-6 13 -12 32q-3 7 -5 15q-10 1 -20 39q-9 -8 -24 -51q-52 -56 -123 -206q-14 -4 -63 -40l-20 -4 q-40 0 -55 68z" />
<glyph unicode="y" horiz-adv-x="835" d="M41 502q0 85 16 200q5 34 28 160q7 38 14 66q8 80 78 137q21 12 40 12h24q114 -12 114 -111v-12q0 -45 -9 -72q0 -20 -1 -41q-37 -160 -59 -473l2 -27q4 -60 25 -75q148 94 159 392q7 164 15 244q-1 10 -1 21q-8 0 -8 47q0 135 75 135h4q87 0 155 -107q24 -72 24 -95 q0 -10 -4 -18l7 -117l8 -119v-186l-9 -239q-21 -164 -25 -180l-29 -157q-29 -135 -70 -187q-37 -86 -148 -161q-15 -12 -30 -21q-30 -24 -77 -33q-21 -4 -35 -4h-16q-115 0 -151 24q-43 28 -43 32q-52 68 -52 190q0 162 40 210q30 12 47 12q32 0 48 -44q8 0 8 -28 q-40 -101 -40 -162v-16q0 -63 32 -63q0 -4 20 -12q123 16 134 55q11 19 23 32q17 38 42 98q28 95 34 189q11 17 18 196l8 99q-128 -171 -240 -178q-46 0 -89 33q-76 53 -83 149q-13 20 -14 54l-7 99q-2 25 -2 52z" />
<glyph unicode="z" horiz-adv-x="563" d="M17 55v24q19 160 63 285q0 16 52 175q7 26 36.5 116t50.5 129q28 63 47 139h-142q-56 6 -56 51q10 48 56 48q229 8 301 8q91 0 91 -60q0 -4 -4 -4l4 -8v-12q0 -20 -42 -118q-17 -50 -58 -160.5t-80 -231.5q-16 -36 -40 -139q-32 -95 -44 -174q4 -21 40 -24h57q8 2 17 4 q55 20 64 20q47 -10 47 -56q0 -48 -79 -71h-13q-73 -4 -131 -4h-174q-63 0 -63 63z" />
<glyph unicode="{" horiz-adv-x="683" d="M74 689l4 24q0 22 95 45q0 11 32 62v4q-7 69 -16 225v126q0 27 8 27q5 69 16 69q0 79 91 230q59 91 59 99l72 61q56 54 110 54q52 -10 52 -46q0 -15 -12 -31q-40 -30 -40 -46q-33 -56 -79 -222q-51 -125 -51 -279v-138l-20 -114q0 -22 -59 -103l-99 -54l4 -8 q122 -72 122 -145q20 -75 20 -210v-39q0 -27 8 -27q7 -180 20 -180q12 -139 24 -164l118 -245q56 -78 56 -88q0 -53 -56 -53l-8 4q0 -8 -27 -8q-25 0 -68 31q-52 34 -114 137q-48 63 -48 72q-40 89 -51 127q-36 89 -48 168q0 112 4 372q0 5 12 37q0 112 -56 158 q-75 36 -75 68z" />
<glyph unicode="|" horiz-adv-x="378" d="M74 325v784l28 214q4 110 4 213q0 30 55 64q7 4 16 4q55 0 79 -60q4 -7 4 -19v-135q0 -11 8 -107v-16q20 -59 20 -166q4 0 4 -24q0 -73 4 -336q8 -28 8 -48v-586q0 -22 -12 -59v-28q0 -17 -32 -186q0 -14 -15 -147q0 -112 -56 -150q-22 -4 -32 -4q-47 8 -47 59 q0 32 -12 107v119q0 186 -12 257v64q-12 48 -12 186z" />
<glyph unicode="}" horiz-adv-x="683" d="M74 -414q0 10 56 87l118 244q12 25 24 164q13 0 20 179q8 0 8 26v39q0 134 20 210q0 72 123 144l3 7l-99 54q-59 81 -59 102l-20 115v137q0 153 -51 278q-46 164 -79 221q0 15 -40 45q-12 16 -12 31q0 36 52 46q54 0 110 -54l72 -60q0 -8 59 -99q91 -151 91 -229 q11 0 16 -68q8 0 8 -27v-126q-9 -155 -16 -224v-4q32 -51 32 -62q95 -22 95 -45l4 -23q0 -33 -75 -68q-56 -46 -56 -157q12 -32 12 -37q4 -259 4 -370q-12 -79 -48 -168q-10 -39 -51 -126q0 -10 -48 -72q-62 -102 -114 -137q-43 -30 -68 -30q-27 0 -27 8l-8 -4q-56 0 -56 53 z" />
<glyph unicode="~" horiz-adv-x="976" d="M74 533q0 81 64 174q94 47 114 47h131q88 0 285 -122l68 -24h11q36 15 52 59q0 75 55 75q48 -9 48 -55v-8q0 -39 -8 -39l4 -8v-4q-25 -91 -40 -91q-41 -68 -103 -68q-186 0 -348 83q-17 0 -91 44h-91q-48 -11 -48 -36q0 -71 -55 -71q-32 0 -48 44z" />
<glyph unicode="&#xa1;" horiz-adv-x="421" d="M74 119q0 170 20 222q0 26 20 91q0 8 28 225q17 40 55 40h16q83 0 95 -174q19 -64 28 -234q4 0 4 -16v-35q7 -117 7 -127v-79q0 -13 -11 -87v-147q0 -102 -32 -226q0 -85 -56 -103h-27q-106 0 -139 76q-8 51 -8 138v436zM74 915q0 77 48 111q50 18 67 31h40q61 0 111 -91 q4 -22 4 -35v-16q0 -88 -68 -123q-27 -12 -31 -12q-103 0 -139 40q-32 56 -32 95z" />
<glyph unicode="&#xa2;" horiz-adv-x="912" d="M74 333q4 136 16 178v51q0 61 87 274l87 114q39 29 123 44q0 4 10 6q-4 17 -4 38v194q0 63 52 63q35 0 51 -28v-270q53 -10 69 -39q24 0 48 -118v-28q-6 -45 -14 -72q-15 -61 -52 -79l-7 -4h-32q-32 11 -32 91v9q-2 8 -2 19v87q0 9 -16 40h-39q-95 -174 -95 -321 q-11 -23 -24 -198q-7 0 -8 -67v-44q16 -101 44 -154q0 -32 87 -44q51 15 79 64q71 88 142 241q0 11 84 174q0 56 51 76h12q48 -10 48 -56q-11 -50 -99 -222q-72 -166 -171 -293q-46 -64 -124 -95v-182q11 -127 11 -194l-23 -20h-64q-27 13 -27 52v12q0 21 4 67 q-13 0 -24 143v103h-42q-111 0 -166 142q-40 127 -40 246z" />
<glyph unicode="&#xa3;" horiz-adv-x="912" d="M74 721q10 47 56 47h55v44q0 21 4 35q-4 21 -4 40v24q28 206 28 233q16 47 24 111l55 103q0 38 48 64q50 43 79 43h87q18 0 83 -20q29 0 95 -35q79 -73 79 -163q11 0 16 -59v-8q-23 -123 -43 -123q-38 -39 -64 -39q-47 10 -47 55v8q23 156 23 222q-34 38 -71 43h-20 q-31 -4 -79 -47q-20 -34 -51 -147v-198q0 -198 12 -198l23 -4h163q55 -6 55 -51q-10 -48 -55 -48h-171q8 -45 8 -154v-131q0 -87 -79 -241q0 -15 -16 -36h337q0 9 39 44q9 39 48 39q48 -10 48 -55q0 -40 -68 -99q0 -20 -91 -28h-309l-111 -40h-4q-31 0 -47 44q0 36 36 123 v170l-28 210q-28 103 -28 127v43h-59q-56 6 -56 52z" />
<glyph unicode="&#xa4;" horiz-adv-x="849" d="M74 281q0 13 68 107q0 16 63 67l8 12v4q-44 55 -44 131v99q3 79 12 79q-91 139 -91 174v8q0 38 52 48q28 0 99 -99l39 -24q35 20 123 20h32q59 -1 59 -8l20 4h59q38 19 71 59q50 56 84 56q37 0 47 -52q0 -23 -59 -91q-34 -52 -91 -83q39 -75 39 -127v-75 q-25 -139 -51 -139q0 -8 -12 -23q4 0 51 -68q19 -13 56 -71v-16q0 -37 -52 -47q-28 0 -87 67q-59 48 -59 55l-40 -3h-75q-44 0 -115 35h-4q0 -22 -111 -134q-28 -16 -43 -16q-38 0 -48 51zM371 610q2 -52 72 -166h15q41 0 91 91q16 51 16 63v67q-21 103 -63 103 q-20 12 -32 12h-35q-27 0 -52 -47q-12 -56 -12 -60v-63z" />
<glyph unicode="&#xa5;" horiz-adv-x="936" d="M74 1362v20q0 38 40 55l47 -3h76q31 0 75 3q53 0 67 -182q11 -39 24 -118v-44q20 -64 40 -198q16 -24 52 -210v-4q18 51 58 143q0 19 32 107v4q0 15 24 99q0 26 55 162q0 9 40 115q31 134 95 134h8q55 -6 55 -51v-4q-6 -33 -71 -190q0 -36 -79 -206q0 -17 -28 -71 q0 -16 -28 -95q-7 -29 -14 -54q38 2 96 2h31q56 0 56 -55v-12q0 -56 -56 -56h-142q-14 0 -35 -3q-13 -39 -39 -107q168 19 181 19q0 7 27 8h8q56 0 56 -55v-12q0 -67 -127 -67q-84 -1 -157 -2q11 -73 24 -149q4 -11 4 -59v-64q0 -12 12 -75q-3 -16 -8 -16l4 -20v-7 q0 -52 -71 -64h-44q-111 17 -111 52q-7 21 -7 122v103q9 103 11 176q-88 -1 -148 -1l-36 -4q-43 14 -43 55q0 32 43 48q83 2 149 3q-14 33 -24 80q-11 7 -19 42l-110 -7q-43 14 -43 56q0 50 111 59h12q-8 35 -18 91q-32 76 -103 345q-52 138 -52 162z" />
<glyph unicode="&#xa6;" horiz-adv-x="378" d="M74 -71v337l28 91q4 48 4 92q0 13 55 28q7 2 16 2q55 0 79 -26q4 -3 4 -8v-58q0 -5 8 -46v-7q20 -25 20 -72q4 0 4 -10q0 -31 4 -144q8 -12 8 -21v-252q0 -9 -12 -25v-12q0 -8 -32 -80q0 -6 -15 -64q0 -48 -56 -64q-22 -2 -32 -2q-47 4 -47 26q0 14 -12 45v52 q0 80 -12 111v27q-12 20 -12 80zM74 962v338l28 91q4 47 4 92q0 13 55 28q7 2 16 2q55 0 79 -26q4 -3 4 -9v-57q0 -5 8 -47v-7q20 -25 20 -71q4 0 4 -10q0 -32 4 -145q8 -11 8 -20v-253q0 -9 -12 -25v-11q0 -8 -32 -81q0 -6 -15 -63q0 -48 -56 -64q-22 -2 -32 -2 q-47 4 -47 25q0 14 -12 46v51q0 81 -12 111v27q-12 21 -12 80z" />
<glyph unicode="&#xa7;" horiz-adv-x="742" d="M74 428v39q0 149 28 175q11 49 71 102q0 17 83 44v4q-57 73 -67 115q-27 0 -91 226v63q13 83 75 154q44 84 119 84h63q84 -2 147 -32q67 -64 67 -127q8 0 8 -28v-75q-6 -55 -51 -55q-48 10 -48 55v56q-9 103 -79 103q-4 0 -12 4q-67 -14 -67 -36q-8 -1 -12 -28v-119 q0 -27 59 -95q39 -70 72 -103q25 -61 122 -154q23 -33 83 -178q4 -82 4 -135q0 -132 -118 -226q-5 0 -36 -15q119 -93 119 -123q35 -55 47 -171q8 0 8 -39v-52q-21 -142 -51 -142q0 -42 -87 -111q-10 0 -52 -36q-10 0 -55 -19q-22 -4 -36 -4h-47q-67 0 -155 87 q-23 27 -43 99q0 6 -8 63v24q15 48 15 75q6 55 52 55q47 -9 47 -55v-158q0 -53 76 -80h4q24 0 71 44q87 41 87 147v39q0 56 -91 147q-15 28 -67 63q-15 21 -107 83q0 10 -64 83l-67 95q-16 40 -16 68zM209 590q7 -74 71 -178q11 0 91 -87q7 0 20 -8q0 5 24 28q24 47 24 59 v40q-20 123 -111 225q-5 28 -20 28q-56 0 -95 -59q-4 -7 -4 -20v-28z" />
<glyph unicode="&#xa8;" horiz-adv-x="624" d="M74 1204v43q22 88 56 88q17 19 67 19q83 -27 83 -87v-31q0 -56 -75 -107q-26 -8 -36 -8q-95 9 -95 83zM341 1192v59q0 66 103 107h23q71 0 83 -87q-26 -154 -114 -154q-76 0 -95 75z" />
<glyph unicode="&#xa9;" horiz-adv-x="1353" d="M87 990q16 113 56 182q18 36 63 87q0 33 111 103q64 36 79 36q62 20 119 32q67 19 91 19h75q42 16 52 16h23q151 0 214 -59q102 -40 222 -206q55 -86 55 -119q4 -23 4 -63v-416q0 -85 -19 -131q0 -71 -88 -273q-30 -60 -130 -123q0 -4 -72 -51q-74 -60 -174 -60h-190 l-138 40q-61 16 -76 51q-60 27 -91 99q-98 120 -130 290q-52 159 -52 384q-4 113 -4 162zM186 974q0 -351 40 -463q23 -115 79 -234q92 -141 135 -154q0 -22 154 -60h202q64 14 119 68q13 0 91 63q49 0 127 261q0 49 19 111v475q0 72 -142 218q-123 103 -198 103q0 4 -44 4 h-20q-41 -16 -51 -16h-91q-109 -23 -170 -47q-31 0 -115 -60q-12 -7 -64 -83q-71 -92 -71 -186zM430 660v240q12 47 20 120q59 134 101 134q7 1 39 25q37 16 55 16h48q20 0 55 -9q2 1 21 1q73 -22 101 -62q0 -9 24 -45q18 -49 18 -71v-15q0 -90 -42 -112q-7 0 -23 -3 q-42 0 -58 38q9 66 9 95v5q-30 82 -50 82q-22 -1 -46 -23q-13 -12 -22 -107q-4 -5 -12 -77v-71q-6 -76 -6 -82v-122q14 -178 48 -209q10 -9 15 -23q14 -8 29 -9q32 8 41 25q0 13 40 69q10 39 20 95q24 26 58 26q52 -10 52 -46q-6 -63 -29 -114q-30 -45 -61 -105 q-95 -83 -143 -83q-18 0 -45 -6q-125 0 -181 85q-8 6 -19 32q-31 46 -31 64q-22 91 -23 157q-3 48 -3 85z" />
<glyph unicode="&#xaa;" horiz-adv-x="773" d="M74 952v160q29 141 61 195q47 85 57 90q44 31 94 36h24q6 0 54 -17l13 -2q6 28 40 28q20 7 41 7h32q39 -3 39 -35q0 -8 -21 -55q-8 -21 -8 -74l-5 -30l-9 -115l-2 -121q0 -16 -7 -69v-23l2 -24q14 5 64 88q0 14 36 59q0 15 29 72q0 23 36 78q14 7 23 7q25 0 32 -31 q-28 -56 -37 -95q-12 -16 -39 -88q-23 -26 -74 -112q-31 -39 -83 -59h-25q-41 0 -64 40q-19 27 -27 67q-4 31 -5 72l-12 -25l-45 -83q-26 -45 -53.5 -59t-45.5 -14h-39q-33 0 -52 30q-18 0 -24 102zM87 624q9 58 28 58q50 -3 97 -14h119q46 0 148 7q24 -8 24 -47v-11 q-2 -52 -30 -52h-289q-39 -14 -47 -14h-20q-30 0 -30 73zM223 922q2 -4 3 -7q2 3 5 7q49 102 80.5 164t33.5 114l8 66q0 28 11 78q-9 15 -46 22h-3q-21 -9 -21 -50q-7 -5 -42 -109q-4 -81 -15 -112q-8 0 -14 -102v-71z" />
<glyph unicode="&#xab;" horiz-adv-x="789" d="M74 463q0 41 48 80q22 55 35 55q48 88 111 123q46 75 79 75q52 0 60 -48q0 -22 -52 -79q-65 -106 -75 -111q-32 -62 -47 -75q10 -16 15 -16q43 -75 48 -75q0 -17 48 -75q71 -82 71 -111q0 -46 -48 -56q-33 0 -83 68q-36 30 -67 59q-29 0 -56 44q-85 105 -87 142zM374 463 q0 41 48 80q21 55 35 55q48 88 111 123q45 75 79 75q52 0 60 -48q0 -22 -52 -79q-65 -106 -75 -111q-32 -62 -47 -75q9 -16 15 -16q43 -75 48 -75q0 -17 48 -75q71 -82 71 -111q0 -46 -48 -56q-34 0 -83 68q-38 30 -67 59q-29 0 -56 44q-86 105 -87 142z" />
<glyph unicode="&#xac;" horiz-adv-x="928" d="M74 634q0 37 48 51q235 4 372 4h103q74 12 79 12h107q56 0 56 -56v-27q11 -17 11 -32q-4 -88 -4 -95q8 -47 8 -75v-64q0 -55 -55 -55q-46 0 -59 87v63q0 17 3 32q-3 16 -3 32v28q0 8 -52 19h-329q-38 -15 -138 -15h-79q-51 0 -60 63q-8 16 -8 28z" />
<glyph unicode="&#xad;" horiz-adv-x="595" d="M5 550q19 76 75 76h167q57 8 63 8h154q43 0 76 -60q4 -7 4 -20v-27q0 -80 -131 -80q0 -7 -40 -7h-269q-87 13 -87 51z" />
<glyph unicode="&#xae;" horiz-adv-x="1312" d="M74 990q16 113 56 182q18 36 63 87q0 33 111 103q64 36 79 36q63 20 119 32q67 19 91 19h75q42 16 52 16h23q151 0 214 -59q102 -40 222 -206q56 -86 56 -119q3 -23 3 -63v-416q0 -85 -19 -131q0 -71 -87 -273q-31 -60 -131 -123q0 -4 -71 -51q-75 -60 -175 -60h-190 l-138 40q-61 16 -76 51q-60 27 -91 99q-98 120 -130 290q-52 159 -52 384q-4 113 -4 162zM173 974q0 -351 40 -463q24 -115 79 -234q92 -141 135 -154q0 -22 154 -60h202q64 14 119 68q13 0 91 63q49 0 127 261q0 49 19 111v475q0 72 -142 218q-123 103 -198 103q0 4 -44 4 h-19q-42 -16 -52 -16h-91q-109 -23 -170 -47q-31 0 -115 -60q-12 -7 -63 -83q-72 -92 -72 -186zM409 484v156q15 60 15.5 260.5t-6.5 238.5q10 40 61 40q23 0 23 7q9 3 131 3q22 0 39 -10h15q85 0 162 -58q0 -3 25 -21q28 -29 41 -80q24 -60 24 -110v-52q0 -99 -54 -152 q0 -10 -85 -71q25 -61 49 -99q0 -8 27 -56q18 -36 68 -118q1 -6 48 -74v-9q-6 -25 -23 -37q-22 -13 -79 -13q-35 9 -55 54q-45 66 -81 98q-8 19 -77 95l-53 98q-15 -170 -15 -248v-8q0 -14 -21 -45q0 -30 -59 -36h-34q-71 9 -71 55v54q-9 24 -9 30v60q-6 42 -6 48zM636 675 q32 6 51 32q22 30 25 95.5t3 112.5v25q0 3 -6 61v28q-19 46 -27 46q-13 13 -46 21v-421z" />
<glyph unicode="&#xaf;" horiz-adv-x="595" d="M74 1333q0 51 64 51h269q57 0 71 -32q0 -64 -24 -79l-15 -12h-329q-36 22 -36 72z" />
<glyph unicode="&#xb0;" horiz-adv-x="595" d="M74 1129v23q20 97 20 143q13 51 75 123q0 19 91 47h76q10 0 59 -20q38 0 55 -39q25 0 72 -103v-190q0 -51 -60 -163q-54 -59 -118 -59h-56q-60 0 -139 48q-75 51 -75 190zM260 1049q8 -21 64 -51v-8h20q49 0 79 131v146q0 26 -32 56h-12q-57 -32 -71 -68 q-48 -84 -48 -111v-95z" />
<glyph unicode="&#xb1;" horiz-adv-x="956" d="M74 614q6 40 36 63q137 28 174 28h63l40 -4q0 26 4 79q-4 121 -4 178q0 38 52 48q22 -7 91 -12q27 -21 27 -52v-241h99q214 0 214 -20q12 -25 12 -43q-10 -48 -55 -48h-12q-68 0 -226 -24h-40v-27q-15 -41 -23 -230q-18 -48 -60 -48h-4q-75 17 -75 52q-4 7 -4 20v229 h-253q-56 6 -56 52zM76 63q0 76 79 76q0 6 107 15h139l234 -19q67 0 162 -8q16 8 28 8q47 -10 47 -56v-8q0 -55 -55 -55h-333q-51 -12 -55 -12h-12q-97 0 -269 -4q-72 11 -72 63z" />
<glyph unicode="&#xb2;" horiz-adv-x="583" d="M74 554v19q0 35 38 51q11 7 11 9q53 46 74 90l37 66q0 7 15 33q0 5 27 60l22 87v126q-13 87 -13 102q-3 21 -47 89l-20 16q-9 -10 -23 -74q0 -106 -37 -106q-10 -5 -24 -5q-47 0 -57 49q0 78 13 114q5 43 59 120q47 25 57 25q8 0 33 5h18q74 0 141 -54q29 -10 54 -60 q17 -8 33 -74q19 -25 19 -72q2 0 5 -42q-2 -63 -2 -105v-15q0 -46 -31 -126q0 -13 -37 -80q-22 -52 -93 -114q-3 -12 -61 -69q0 -5 -12 -16q26 -1 90 -2l90 -6q56 -11 56 -43v-7q-10 -46 -62 -46h-12q-50 0 -87 -10h-42q-76 0 -199 16q-33 23 -33 49z" />
<glyph unicode="&#xb3;" horiz-adv-x="586" d="M74 742v28q6 52 62 52q54 -8 54 -56q0 -12 8 -63q17 -66 20 -66q3 -2 5 -3l7 -4q20 2 24 6q13 13 24 34q7 0 20 63v40q-9 102 -26 102q0 25 -24 41q-47 0 -63 55q0 44 65 55l14 6q39 28 39 87q6 0 6 9v52q0 49 -40 109l-21 16h-1q-17 0 -36 -25q0 -12 -11 -25v-78 q-6 -52 -61 -52q-55 11 -55 53v81q8 60 45 108q27 45 117 66q34 4 59 4l41 -11q57 0 105 -62q33 -70 48 -126v-76q-7 -68 -55 -135q-28 -26 -51 -36q0 -1 -17 -15q28 -10 83 -80q32 -19 47 -88q6 -26 6 -46v-38q0 -54 -14 -80q-31 -93 -66 -107q0 -11 -87 -28h-83 q-14 0 -57 17q-27 0 -61 31q-45 29 -70 185z" />
<glyph unicode="&#xb4;" horiz-adv-x="481" d="M74 1153l64 113q62 155 146 155h48q51 0 75 -52v-10q0 -28 -147 -160q-91 -90 -130 -90h-8q-48 8 -48 44z" />
<glyph unicode="&#xb5;" horiz-adv-x="1118" d="M74 135v63q0 24 12 59q0 18 -4 175q3 74 13 122q8 89 17 222q9 14 20 71q7 5 20 55q2 34 5 72q26 56 76 56h75q55 0 55 -68q8 0 8 -39v-16q-19 -131 -43 -258q-21 -112 -36 -332q-4 -46 -4 -87q0 -60 8 -111q3 -20 12 -20q60 50 107 238q27 64 61 328t42 317q17 31 59 56 q0 6 28 7h87q4 0 4 -4l8 4q55 0 55 -55v-24q-12 -44 -23 -158q-4 0 -4 -16v-147q0 -9 -12 -47v-36q0 -191 -20 -332v-76q5 0 36 52q44 57 63 107l32 59q20 49 59 99q32 44 51 143q19 31 56 31q38 0 47 -51q-43 -148 -71 -174q0 -10 -35 -56q-35 -75 -52 -99q0 -26 -143 -225 q-34 -48 -51 -48q-16 -8 -44 -8h-31q-57 0 -103 79q-13 0 -28 163q-33 -84 -95 -186q-64 -68 -111 -68h-32v-12q0 -78 -23 -233q-28 -182 -48 -182q-25 -8 -31 -8q-52 0 -52 111v138q-8 93 -20 349z" />
<glyph unicode="&#xb6;" horiz-adv-x="813" d="M74 978q0 222 52 317q10 52 59 115q73 55 103 55h198q45 -4 71 -14q23 -2 36 -2h87q60 0 60 -63q0 -41 -76 -55v-266q0 -89 -4 -253q-12 -25 -12 -119v-277q-7 -42 -15 -333q-15 -34 -20 -103q-23 -28 -48 -28q-47 10 -47 56v1208q-3 119 -16 119h-103q12 -49 12 -254 v-938q0 -71 4 -175q-14 -43 -52 -43q-47 0 -47 83q-4 29 -4 135v474q-11 -2 -24 -3q-29 0 -139 99q-29 23 -51 150q-24 100 -24 115z" />
<glyph unicode="&#xb7;" horiz-adv-x="420" d="M74 707v42q0 50 59 91q33 14 49 14h59q55 0 87 -61l18 -77v-9l-21 -87q-33 -25 -56 -25h-19q-143 0 -173 87q-3 12 -3 25z" />
<glyph unicode="&#xb8;" horiz-adv-x="481" d="M74 -416q13 28 52 28q126 23 126 83q12 0 12 56q0 43 -103 59q-14 0 -27 40q37 178 83 178q26 0 43 -28v-28q-15 -18 -35 -95q52 0 126 -27q56 -43 56 -76v-71q0 -52 -91 -139q-77 -31 -131 -31h-87q-16 8 -24 23v28z" />
<glyph unicode="&#xb9;" horiz-adv-x="488" d="M74 1193q0 26 36 49q0 3 42 47l93 132q0 22 60 36h22q59 0 69 -67q5 -39 5 -100v-22q11 -39 11 -58q2 -262 2 -336q0 -26 -5 -41q3 -48 3 -80v-145q0 -53 -47 -72q0 -13 -57 -21h-20q-59 0 -75 37q-18 0 -20 218q2 151 2 239q13 52 13 67l3 118l-22 -28q-37 -27 -61 -27 q-54 11 -54 54z" />
<glyph unicode="&#xba;" horiz-adv-x="563" d="M47 1059q13 26 13 100q15 37 15 71q18 65 55 65v24q0 36 42 82q14 15 55 36q12 12 50 12h29q70 0 151 -90q18 -41 18 -52v-136l-31 -192q-10 -50 -34 -107q0 -29 -57 -90q0 -15 -55 -43q-19 -5 -32 -5h-10q-67 5 -94 16q-58 34 -58 48q-23 17 -42 88q-5 24 -5 47v98z M53 517q9 67 28 67q50 -4 97 -16h118q46 0 149 8q24 -10 24 -55v-12q-3 -60 -30 -60h-289q-40 -15 -48 -15h-19q-30 0 -30 83zM196 1290q50 -31 53 -63q1 -2 1 -5q-1 -34 -28 -134q0 -27 -5 -162q17 -25 23 -57q16 -19 47 -28h8q0 3 29 23q10 10 26 44q9 0 26 66 q8 37 26 185q-6 60 -10 86q-6 0 -21 59q-64 67 -102 67h-26q-19 0 -40 -36q-7 -12 -7 -19v-26z" />
<glyph unicode="&#xbb;" horiz-adv-x="789" d="M74 206q0 29 72 111q47 58 47 75q5 0 48 75q6 0 15 16q-15 13 -47 75q-10 5 -75 111q-52 57 -52 79q8 48 60 48q34 0 79 -75q63 -35 111 -123q14 0 35 -55q48 -39 48 -80q-2 -37 -87 -142q-27 -44 -56 -44q-30 -29 -67 -59q-50 -68 -83 -68q-48 10 -48 56zM374 206 q0 29 72 111q47 58 47 75q5 0 48 75q5 0 15 16q-15 13 -47 75q-10 5 -75 111q-52 57 -52 79q8 48 60 48q33 0 79 -75q63 -35 111 -123q13 0 35 -55q48 -39 48 -80q-2 -37 -87 -142q-28 -44 -56 -44q-30 -29 -67 -59q-50 -68 -83 -68q-48 10 -48 56z" />
<glyph unicode="&#xbc;" horiz-adv-x="1512" d="M74 1193q0 26 36 49q0 3 42 47l93 132q0 22 60 36h22q59 0 69 -67q5 -39 5 -100v-22q11 -39 11 -58q2 -262 2 -336q0 -26 -5 -41q3 -48 3 -80v-145q0 -53 -47 -72q0 -13 -57 -21h-20q-59 0 -75 37q-18 0 -20 218q2 151 2 239q13 52 13 67l3 118l-22 -28q-37 -27 -61 -27 q-54 11 -54 54zM214 -16q0 48 107 198q8 36 39 64q34 92 107 198q0 21 91 146q0 19 103 182q0 16 56 75q24 43 67 155q11 9 48 75q42 41 126 190q6 4 52 83q28 21 63 107q29 28 56 28h8q55 0 55 -55v-4q0 -36 -95 -179q-23 -16 -87 -130q0 -16 -52 -83q-51 -84 -95 -139 q-14 -40 -55 -91q-41 -57 -151 -230q0 -40 -126 -229q-60 -89 -84 -163q-5 0 -19 -43q-71 -106 -111 -159q-21 -47 -56 -47q-37 0 -47 51zM882 325q0 26 46 145q42 72 86 164q4 0 23 36q3 0 15 39q12 6 48 70q14 11 38 62q51 103 92 103h35q58 0 70 -61q4 -12 15 -113 q8 -13 8 -37v-359h20q60 -6 60 -52q-10 -47 -62 -47h-18v-27q0 -102 -40 -208q-38 -40 -79 -40h-9q-64 0 -69 69q-8 10 -17 96q-6 17 -7 71v41h-194q-50 0 -61 48zM1045 376h96q0 2 5 37v103q0 58 5 97q-40 -59 -40 -87q-16 -16 -38 -100q-5 0 -18 -32q-2 0 -10 -18z" />
<glyph unicode="&#xbd;" horiz-adv-x="1390" d="M74 1193q0 26 36 49q0 3 42 47l93 132q0 22 60 36h22q59 0 69 -67q5 -39 5 -100v-22q11 -39 11 -58q2 -262 2 -336q0 -26 -5 -41q3 -48 3 -80v-145q0 -53 -47 -72q0 -13 -57 -21h-20q-59 0 -75 37q-18 0 -20 218q2 151 2 239q13 52 13 67l3 118l-22 -28q-37 -27 -61 -27 q-54 11 -54 54zM214 -16q0 48 107 198q8 36 39 64q34 92 107 198q0 21 91 146q0 19 103 182q0 16 56 75q24 43 67 155q11 9 48 75q42 41 126 190q6 4 52 83q28 21 63 107q29 28 56 28h8q55 0 55 -55v-4q0 -36 -95 -179q-23 -16 -87 -130q0 -16 -52 -83q-51 -84 -95 -139 q-14 -40 -55 -91q-41 -57 -151 -230q0 -40 -126 -229q-60 -89 -84 -163q-5 0 -19 -43q-71 -106 -111 -159q-21 -47 -56 -47q-37 0 -47 51zM882 65v19q0 35 38 51q11 7 11 9q53 46 74 90l36 66q0 7 16 33q0 5 27 60l22 87v126q-13 87 -13 102q-3 21 -48 89l-19 16 q-9 -10 -23 -74q0 -106 -37 -106q-10 -5 -25 -5q-46 0 -56 49q0 78 13 114q5 43 59 120q47 25 57 25q8 0 32 4h19q73 0 141 -53q29 -10 54 -60q17 -8 33 -74q19 -25 19 -72q2 0 5 -42q-2 -63 -2 -105v-15q0 -46 -31 -126q0 -13 -38 -80q-21 -52 -93 -114q-3 -12 -60 -69 q0 -5 -12 -16q26 -1 90 -2l90 -6q56 -11 56 -43v-7q-10 -46 -62 -46h-13q-49 0 -86 -10h-42q-76 0 -199 16q-33 23 -33 49z" />
<glyph unicode="&#xbe;" horiz-adv-x="1610" d="M74 742v28q6 52 62 52q54 -8 54 -56q0 -12 8 -63q17 -66 20 -66q3 -2 5 -3l7 -4q20 2 24 6q13 13 24 34q7 0 20 63v40q-9 102 -26 102q0 25 -24 41q-47 0 -63 55q0 44 65 55l14 6q39 28 39 87q6 0 6 9v52q0 49 -40 109l-21 16h-1q-17 0 -36 -25q0 -12 -11 -25v-78 q-6 -52 -61 -52q-55 11 -55 53v81q8 60 45 108q27 45 117 66q34 4 59 4l41 -11q57 0 105 -62q33 -70 48 -126v-76q-7 -68 -55 -135q-28 -26 -51 -36q0 -1 -17 -15q28 -10 83 -80q32 -19 47 -88q6 -26 6 -46v-38q0 -54 -14 -80q-31 -93 -66 -107q0 -11 -87 -28h-83 q-14 0 -57 17q-27 0 -61 31q-45 29 -70 185zM312 -16q0 48 107 198q8 36 39 64q34 92 107 198q0 21 91 146q0 19 103 182q0 16 56 75q24 43 67 155q11 9 48 75q42 41 126 190q6 4 52 83q28 21 63 107q29 28 56 28h8q55 0 55 -55v-4q0 -36 -95 -179q-23 -16 -87 -130 q0 -16 -52 -83q-51 -84 -95 -139q-14 -40 -55 -91q-41 -57 -151 -230q0 -40 -126 -229q-60 -89 -84 -163q-5 0 -19 -43q-71 -106 -111 -159q-21 -47 -56 -47q-37 0 -47 51zM980 325q0 26 46 145q42 72 86 164q4 0 23 36q3 0 15 39q12 6 48 70q14 11 39 62q50 103 91 103h35 q58 0 70 -61q4 -12 15 -113q8 -13 8 -37v-359h20q60 -6 60 -52q-10 -47 -62 -47h-18v-27q0 -102 -40 -208q-38 -40 -79 -40h-9q-64 0 -69 69q-8 10 -17 96q-6 17 -7 71v41h-194q-50 0 -61 48zM1143 376h96q0 2 5 37v103q0 58 5 97q-40 -59 -40 -87q-16 -16 -38 -100 q-5 0 -18 -32q-2 0 -10 -18z" />
<glyph unicode="&#xbf;" horiz-adv-x="706" d="M40 15q20 167 75 254q4 0 39 55q44 42 96 119q85 96 102 135v39q16 87 60 87h4q47 -10 47 -55v-147q0 -11 -31 -106q-6 -1 -44 -80q-4 0 -63 -107q-16 -74 -36 -122q-4 -123 -4 -210v-8q0 -39 32 -91q4 0 39 -52l32 -27l28 4h32q45 42 87 110l-4 8q19 63 19 68 q7 111 52 111h8q37 0 47 -52q-18 -176 -43 -234q-23 -101 -75 -158q-22 -37 -115 -67q-34 -4 -56 -4h-91q-55 0 -134 75q-54 84 -76 170q-27 113 -27 135v150zM321 922v16q15 119 83 119h51q84 0 99 -75v-48q0 -94 -87 -150h-43q-58 0 -99 99q-4 20 -4 39z" />
<glyph unicode="&#xc0;" horiz-adv-x="819" d="M50 4q16 51 21 83q1 11 3 23v5q0 1 1 2q12 92 38 263l55 428q8 0 8 20v27q8 62 20 137l3 -1q38 159 46 252q13 96 31 107q-8 16 -8 28q0 86 52 91q48 -1 92 -31q35 -22 77 -68q91 -157 91 -190q30 -51 60 -333q0 -24 15 -75q12 -156 36 -265q13 -163 26 -243 q15 -22 15 -62q10 -31 39 -214q24 -45 24 -59q0 -44 -95 -64h-12q-57 0 -91 64q-36 23 -87 202q-24 98 -24 118v21q-9 45 -21 107q-6 -1 -12 -1q-126 -3 -213 -4q-16 -258 -43 -396q-33 -43 -75 -43q-72 0 -72 59v12zM201 1751v10q24 52 75 52h48q84 0 147 -155l63 -113 q0 -36 -48 -44h-8q-39 0 -130 90q-147 132 -147 160zM244 471q123 0 198 5q-12 62 -12 130q-44 233 -80 495q-4 0 -13 39q-6 -50 -9 -106q-5 -8 -21 -62h2q-4 -32 -10 -69q-7 -9 -32 -214q-23 -77 -23 -210v-8z" />
<glyph unicode="&#xc1;" horiz-adv-x="819" d="M50 4q16 51 21 83q1 11 3 23v5q0 1 1 2q12 92 38 263l55 428q8 0 8 20v27q8 62 20 137l3 -1q38 159 46 252q13 96 31 107q-8 16 -8 28q0 86 52 91q48 -1 92 -31q35 -22 77 -68q91 -157 91 -190q30 -51 60 -333q0 -24 15 -75q12 -156 36 -265q13 -163 26 -243 q15 -22 15 -62q10 -31 39 -214q24 -45 24 -59q0 -44 -95 -64h-12q-57 0 -91 64q-36 23 -87 202q-24 98 -24 118v21q-9 45 -21 107q-6 -1 -12 -1q-126 -3 -213 -4q-16 -258 -43 -396q-33 -43 -75 -43q-72 0 -72 59v12zM244 471q123 0 198 5q-12 62 -12 130q-44 233 -80 495 q-4 0 -13 39q-6 -50 -9 -106q-5 -8 -21 -62h2q-4 -32 -10 -69q-7 -9 -32 -214q-23 -77 -23 -210v-8zM312 1545l64 113q62 155 146 155h48q51 0 75 -52v-10q0 -28 -147 -160q-91 -90 -130 -90h-8q-48 8 -48 44z" />
<glyph unicode="&#xc2;" horiz-adv-x="819" d="M50 4q16 51 21 83q1 11 3 23v5q0 1 1 2q12 92 38 263l55 428q8 0 8 20v27q8 62 20 137l3 -1q38 159 46 252q13 96 31 107q-8 16 -8 28q0 86 52 91q48 -1 92 -31q35 -22 77 -68q91 -157 91 -190q30 -51 60 -333q0 -24 15 -75q12 -156 36 -265q13 -163 26 -243 q15 -22 15 -62q10 -31 39 -214q24 -45 24 -59q0 -44 -95 -64h-12q-57 0 -91 64q-36 23 -87 202q-24 98 -24 118v21q-9 45 -21 107q-6 -1 -12 -1q-126 -3 -213 -4q-16 -258 -43 -396q-33 -43 -75 -43q-72 0 -72 59v12zM132 1544q0 28 167 214q21 40 59 40h4q89 0 190 -194 q32 -24 32 -52q-10 -47 -56 -47q-32 0 -91 75q-5 0 -43 40l-24 19h-4q-27 -26 -123 -103q-26 -43 -63 -43q-38 0 -48 51zM244 471q123 0 198 5q-12 62 -12 130q-44 233 -80 495q-4 0 -13 39q-6 -50 -9 -106q-5 -8 -21 -62h2q-4 -32 -10 -69q-7 -9 -32 -214q-23 -77 -23 -210 v-8z" />
<glyph unicode="&#xc3;" horiz-adv-x="819" d="M50 4q16 51 21 83q1 11 3 23v5q0 1 1 2q12 92 38 263l55 428q8 0 8 20v27q8 62 20 137l3 -1q38 159 46 252q13 96 31 107q-8 16 -8 28q0 86 52 91q48 -1 92 -31q35 -22 77 -68q91 -157 91 -190q30 -51 60 -333q0 -24 15 -75q12 -156 36 -265q13 -163 26 -243 q15 -22 15 -62q10 -31 39 -214q24 -45 24 -59q0 -44 -95 -64h-12q-57 0 -91 64q-36 23 -87 202q-24 98 -24 118v21q-9 45 -21 107q-6 -1 -12 -1q-126 -3 -213 -4q-16 -258 -43 -396q-33 -43 -75 -43q-72 0 -72 59v12zM116 1529v23q26 99 91 143q49 12 68 12h27q54 0 74 -28 q23 0 97 -40l39 -4q14 13 28 95l20 16h27q6 0 24 -23v-72q-11 -52 -75 -119q-33 -7 -44 -15h-104q-7 0 -78 27l-95 44v-4q-30 -79 -47 -79h-28q-16 8 -24 24zM244 471q123 0 198 5q-12 62 -12 130q-44 233 -80 495q-4 0 -13 39q-6 -50 -9 -106q-5 -8 -21 -62h2 q-4 -32 -10 -69q-7 -9 -32 -214q-23 -77 -23 -210v-8z" />
<glyph unicode="&#xc4;" horiz-adv-x="819" d="M50 4q16 51 21 83q1 11 3 23v5q0 1 1 2q12 92 38 263l55 428q8 0 8 20v27q8 62 20 137l3 -1q38 159 46 252q13 96 31 107q-8 16 -8 28q0 86 52 91q48 -1 92 -31q35 -22 77 -68q91 -157 91 -190q30 -51 60 -333q0 -24 15 -75q12 -156 36 -265q13 -163 26 -243 q15 -22 15 -62q10 -31 39 -214q24 -45 24 -59q0 -44 -95 -64h-12q-57 0 -91 64q-36 23 -87 202q-24 98 -24 118v21q-9 45 -21 107q-6 -1 -12 -1q-126 -3 -213 -4q-16 -258 -43 -396q-33 -43 -75 -43q-72 0 -72 59v12zM185 1596v43q22 88 56 88q17 19 67 19q83 -27 83 -87 v-31q0 -56 -75 -107q-26 -8 -36 -8q-95 9 -95 83zM244 471q123 0 198 5q-12 62 -12 130q-44 233 -80 495q-4 0 -13 39q-6 -50 -9 -106q-5 -8 -21 -62h2q-4 -32 -10 -69q-7 -9 -32 -214q-23 -77 -23 -210v-8zM452 1584v59q0 66 103 107h23q71 0 83 -87q-26 -154 -114 -154 q-76 0 -95 75z" />
<glyph unicode="&#xc5;" horiz-adv-x="819" d="M50 4q16 51 21 83q1 11 3 23v5q0 1 1 2q12 92 38 263l55 428q8 0 8 20v27q8 62 20 137l3 -1q38 159 46 252q13 96 31 107q-8 16 -8 28q0 42 12 64q-66 34 -99 133q-8 0 -8 43v13q0 109 107 150q18 21 64 21q80 0 137 -52q43 -55 43 -94q0 -170 -105 -222q32 -22 70 -64 q91 -157 91 -190q30 -51 60 -333q0 -24 15 -75q12 -156 36 -265q13 -163 26 -243q15 -22 15 -62q10 -31 39 -214q24 -45 24 -59q0 -44 -95 -64h-12q-57 0 -91 64q-36 23 -87 202q-24 98 -24 118v21q-9 45 -21 107q-6 -1 -12 -1q-126 -3 -213 -4q-16 -258 -43 -396 q-33 -43 -75 -43q-72 0 -72 59v12zM244 471q123 0 198 5q-12 62 -12 130q-44 233 -80 495q-4 0 -13 39q-6 -50 -9 -106q-5 -8 -21 -62h2q-4 -32 -10 -69q-7 -9 -32 -214q-23 -77 -23 -210v-8zM284 1567q20 -56 68 -56h17q54 0 69 141q-21 65 -94 65q-38 0 -60 -94v-56z" />
<glyph unicode="&#xc6;" horiz-adv-x="1027" d="M50 4q16 51 21 83q1 11 3 23v5q0 1 1 2q12 92 38 263l55 428q8 0 8 20v27q8 62 20 137l3 -1q38 159 46 252q7 55 16 82v13q3 19 7 34v6q0 86 52 91q43 -1 83 -25q6 -3 27 -3q16 0 107 12q8 0 16 -5q63 -3 97 -3q8 -2 14 -4h84q71 0 175 4q43 -13 43 -51v-1q4 -10 5 -23 q-14 -47 -47 -47q-199 15 -256 15l21 -138q0 -73 8 -277l24 -151h79q52 5 96 16h24q55 -6 55 -51q0 -14 -7 -24q-12 -40 -53 -40h-83q-38 -3 -107 -4v-20q8 -38 8 -43v-400q-15 -58 -20 -107q114 2 242 16q44 -12 44 -60q0 -10 -5 -20v-7q0 -44 -79 -60q-81 0 -369 4 q-83 0 -83 87v183l16 106v27q-170 -2 -239 -3q-16 -258 -43 -396q-33 -43 -75 -43q-72 0 -72 59v12zM244 471q100 0 235 3v9q-12 38 -12 60v213q-8 142 -8 159v368q0 34 6 59h-73l-64 -308q-5 -8 -21 -62h2q-4 -32 -10 -69q-7 -9 -32 -214q-23 -77 -23 -210v-8z" />
<glyph unicode="&#xc7;" d="M74 630v372q16 74 28 186q72 194 111 194q22 3 67 44q39 19 56 19h63q21 0 79 -15q7 4 16 4q81 -30 115 -84q0 -14 32 -71q23 -74 23 -107v-24q0 -133 -39 -158q-3 0 -24 -4q-5 0 -10 1q-6 -1 -12 -1q-47 10 -47 55q0 5 8 44v52q0 133 -60 191q-16 7 -41 7h-8 q0 -8 -44 -52q-20 -22 -32 -170q-6 -8 -15 -123v-111q-8 -117 -8 -127v-190q17 -279 65.5 -330t60.5 -58h8q55 0 81 30q56 125 56 184q10 119 79 119h6q16 -1 27 -11q21 -14 21 -45q-8 -97 -40 -174q-17 -29 -34 -63q-10 -27 -21 -45q-12 -26 -24 -54q-117 -119 -167 -119 q-17 0 -38 -3q-11 -25 -23 -73q52 0 127 -28q55 -42 55 -75v-71q0 -52 -91 -139q-77 -32 -131 -32h-87q-15 8 -23 24v28q12 27 51 27q127 23 127 84q12 0 12 55q0 44 -103 59q-15 0 -28 40q13 62 27 103q-97 21 -152 116q-10 8 -24 47q-39 71 -39 95q-31 142 -32 246 q-4 73 -4 131z" />
<glyph unicode="&#xc8;" horiz-adv-x="684" d="M109 1398q12 51 67 51q87 -4 131 -4q8 -2 14 -4h84q70 0 174 4q44 -13 44 -51v-1q4 -10 5 -23q-14 -47 -48 -47q-199 15 -255 15l21 -138q0 -73 7 -277l24 -151h79q53 5 96 16h24q56 -6 56 -51q0 -14 -7 -24q-12 -40 -54 -40h-83q-38 -3 -107 -4v-20q8 -38 8 -43v-400 q-15 -58 -20 -107q114 2 243 16q43 -12 43 -60q0 -10 -5 -20v-7q0 -44 -79 -60q-81 0 -368 4q-83 0 -83 87v183l16 106v135q-12 38 -12 60v213q-8 142 -8 159v368q0 42 9 70q-13 15 -16 45zM160 1751v10q24 52 75 52h48q84 0 147 -155l63 -113q0 -36 -48 -44h-8 q-39 0 -130 90q-147 132 -147 160z" />
<glyph unicode="&#xc9;" horiz-adv-x="684" d="M109 1398q12 51 67 51q87 -4 131 -4q8 -2 14 -4h84q70 0 174 4q44 -13 44 -51v-1q4 -10 5 -23q-14 -47 -48 -47q-199 15 -255 15l21 -138q0 -73 7 -277l24 -151h79q53 5 96 16h24q56 -6 56 -51q0 -14 -7 -24q-12 -40 -54 -40h-83q-38 -3 -107 -4v-20q8 -38 8 -43v-400 q-15 -58 -20 -107q114 2 243 16q43 -12 43 -60q0 -10 -5 -20v-7q0 -44 -79 -60q-81 0 -368 4q-83 0 -83 87v183l16 106v135q-12 38 -12 60v213q-8 142 -8 159v368q0 42 9 70q-13 15 -16 45zM271 1545l64 113q62 155 146 155h48q51 0 75 -52v-10q0 -28 -147 -160 q-91 -90 -130 -90h-8q-48 8 -48 44z" />
<glyph unicode="&#xca;" horiz-adv-x="684" d="M109 1398q12 51 67 51q87 -4 131 -4q8 -2 14 -4h84q70 0 174 4q44 -13 44 -51v-1q4 -10 5 -23q-14 -47 -48 -47q-199 15 -255 15l21 -138q0 -73 7 -277l24 -151h79q53 5 96 16h24q56 -6 56 -51q0 -14 -7 -24q-12 -40 -54 -40h-83q-38 -3 -107 -4v-20q8 -38 8 -43v-400 q-15 -58 -20 -107q114 2 243 16q43 -12 43 -60q0 -10 -5 -20v-7q0 -44 -79 -60q-81 0 -368 4q-83 0 -83 87v183l16 106v135q-12 38 -12 60v213q-8 142 -8 159v368q0 42 9 70q-13 15 -16 45zM156 1544q0 28 167 214q21 40 59 40h4q89 0 190 -194q32 -24 32 -52 q-10 -47 -56 -47q-32 0 -91 75q-5 0 -43 40l-24 19h-4q-27 -26 -123 -103q-26 -43 -63 -43q-38 0 -48 51z" />
<glyph unicode="&#xcb;" horiz-adv-x="684" d="M109 1398q12 51 67 51q87 -4 131 -4q8 -2 14 -4h84q70 0 174 4q44 -13 44 -51v-1q4 -10 5 -23q-14 -47 -48 -47q-199 15 -255 15l21 -138q0 -73 7 -277l24 -151h79q53 5 96 16h24q56 -6 56 -51q0 -14 -7 -24q-12 -40 -54 -40h-83q-38 -3 -107 -4v-20q8 -38 8 -43v-400 q-15 -58 -20 -107q114 2 243 16q43 -12 43 -60q0 -10 -5 -20v-7q0 -44 -79 -60q-81 0 -368 4q-83 0 -83 87v183l16 106v135q-12 38 -12 60v213q-8 142 -8 159v368q0 42 9 70q-13 15 -16 45zM144 1596v43q22 88 56 88q17 19 67 19q83 -27 83 -87v-31q0 -56 -75 -107 q-26 -8 -36 -8q-95 9 -95 83zM411 1584v59q0 66 103 107h23q71 0 83 -87q-26 -154 -114 -154q-76 0 -95 75z" />
<glyph unicode="&#xcc;" horiz-adv-x="455" d="M-19 1751v10q24 52 75 52h48q84 0 147 -155l63 -113q0 -36 -48 -44h-8q-39 0 -130 90q-147 132 -147 160zM74 150v713q12 76 20 76q-4 53 -4 79v225q29 187 52 187q15 7 27 7q32 -2 32 -7l8 4h28q51 0 71 -76q15 0 24 -91v-990q0 -198 -28 -198q0 -97 -71 -111h-16 q-4 0 -4 4q-24 -16 -44 -16h-4q-70 0 -83 127q0 33 -8 67z" />
<glyph unicode="&#xcd;" horiz-adv-x="455" d="M74 150v713q12 76 20 76q-4 53 -4 79v225q29 187 52 187q15 7 27 7q32 -2 32 -7l8 4h28q51 0 71 -76q15 0 24 -91v-990q0 -198 -28 -198q0 -97 -71 -111h-16q-4 0 -4 4q-24 -16 -44 -16h-4q-70 0 -83 127q0 33 -8 67zM92 1545l64 113q62 155 146 155h48q51 0 75 -52v-10 q0 -28 -147 -160q-91 -90 -130 -90h-8q-48 8 -48 44z" />
<glyph unicode="&#xce;" horiz-adv-x="455" d="M-23 1544q0 28 167 214q21 40 59 40h4q89 0 190 -194q32 -24 32 -52q-10 -47 -56 -47q-32 0 -91 75q-5 0 -43 40l-24 19h-4q-27 -26 -123 -103q-26 -43 -63 -43q-38 0 -48 51zM74 150v713q12 76 20 76q-4 53 -4 79v225q29 187 52 187q15 7 27 7q32 -2 32 -7l8 4h28 q51 0 71 -76q15 0 24 -91v-990q0 -198 -28 -198q0 -97 -71 -111h-16q-4 0 -4 4q-24 -16 -44 -16h-4q-70 0 -83 127q0 33 -8 67z" />
<glyph unicode="&#xcf;" horiz-adv-x="455" d="M-35 1596v43q22 88 56 88q17 19 67 19q83 -27 83 -87v-31q0 -56 -75 -107q-26 -8 -36 -8q-95 9 -95 83zM74 150v713q12 76 20 76q-4 53 -4 79v225q29 187 52 187q15 7 27 7q32 -2 32 -7l8 4h28q51 0 71 -76q15 0 24 -91v-990q0 -198 -28 -198q0 -97 -71 -111h-16 q-4 0 -4 4q-24 -16 -44 -16h-4q-70 0 -83 127q0 33 -8 67zM232 1584v59q0 66 103 107h23q71 0 83 -87q-26 -154 -114 -154q-76 0 -95 75z" />
<glyph unicode="&#xd0;" horiz-adv-x="908" d="M-24 701q0 48 72 59l12 -2h68q1 76 1 133v83q5 25 8 84q-3 10 -3 23q0 180 39 321q13 67 68 67q0 7 27 8q31 0 68 -59q69 47 194 47q128 -29 170 -87q13 -34 20 -60q11 -15 22 -35q111 -156 111 -289q8 -152 8 -257v-80q0 -140 -31 -202q0 -32 -36 -130q0 -19 -75 -151 q-8 -2 -44 -63q-50 -39 -127 -123q-56 -32 -118 -47q0 -17 -115 -20h-87q-87 0 -87 55q0 7 7 24q-39 64 -39 127v273q0 54 16 91q1 80 2 149h-73q-8 -2 -18 -2q-60 0 -60 63zM335 59h31q76 9 76 28q64 55 114 285l52 194q16 80 16 135v123q-12 85 -16 178q-12 26 -32 162 l-18 35q-21 19 -36 72q-31 37 -91 56h-4q-37 0 -72 -40q19 -79 25 -195q2 -38 2 -74q0 -78 -8 -151v-105q45 2 97 4q48 -10 48 -55v-12q-5 -59 -60 -59h-85v-90q-12 -62 -16 -360q-9 0 -23 -131z" />
<glyph unicode="&#xd1;" horiz-adv-x="965" d="M109 170v1184q0 74 95 83h8q48 0 138 -213q32 -54 52 -135q11 0 16 -63q31 -86 59 -214q44 -133 79 -218q23 -81 72 -212h8q-9 90 -10 218v625q0 235 89 240q84 -5 94 -91l13 -67q11 -71 20 -218v-1055q0 -31 -32 -56q-11 -35 -52 -35h-59q-46 4 -134 105 q-53 71 -104 209q-26 48 -103 234q-11 9 -39 87q-10 9 -40 149q-9 1 -16 31h-4v-4q4 -491 4 -718v-8q0 -56 -55 -56q-95 0 -95 87q-4 42 -4 111zM227 1529v23q26 99 91 143q49 12 68 12h27q54 0 74 -28q23 0 97 -40l39 -4q14 13 28 95l20 16h27q6 0 24 -23v-72 q-11 -52 -75 -119q-33 -7 -44 -15h-104q-7 0 -78 27l-95 44v-4q-30 -79 -47 -79h-28q-16 8 -24 24z" />
<glyph unicode="&#xd2;" horiz-adv-x="890" d="M44 604q0 116 12 200v75q0 58 38 166q0 101 44 187q14 74 39 114q108 119 163 119h67q147 0 214 -83q26 -13 43 -51q56 -48 56 -64q47 -129 47 -146l32 -159q3 -87 3 -166q0 -555 -140 -719q-128 -132 -255 -132q-70 0 -119 31q-120 57 -184 218q-48 83 -57 283 q-3 67 -3 127zM201 1751v10q24 52 75 52h48q84 0 147 -155l63 -113q0 -36 -48 -44h-8q-39 0 -130 90q-147 132 -147 160zM328 448l31 -162q5 0 36 -75q70 -75 111 -79q151 0 154 695v128q-12 163 -35 209q-14 34 -32 95q-45 63 -79 76h-40q-32 -13 -63 -55 q-40 -101 -40 -199q-16 -24 -27 -241q-16 -59 -16 -84v-308z" />
<glyph unicode="&#xd3;" horiz-adv-x="890" d="M44 604q0 116 12 200v75q0 58 38 166q0 101 44 187q14 74 39 114q108 119 163 119h67q147 0 214 -83q26 -13 43 -51q56 -48 56 -64q47 -129 47 -146l32 -159q3 -87 3 -166q0 -555 -140 -719q-128 -132 -255 -132q-70 0 -119 31q-120 57 -184 218q-48 83 -57 283 q-3 67 -3 127zM312 1545l64 113q62 155 146 155h48q51 0 75 -52v-10q0 -28 -147 -160q-91 -90 -130 -90h-8q-48 8 -48 44zM328 448l31 -162q5 0 36 -75q70 -75 111 -79q151 0 154 695v128q-12 163 -35 209q-14 34 -32 95q-45 63 -79 76h-40q-32 -13 -63 -55 q-40 -101 -40 -199q-16 -24 -27 -241q-16 -59 -16 -84v-308z" />
<glyph unicode="&#xd4;" horiz-adv-x="890" d="M44 604q0 116 12 200v75q0 58 38 166q0 101 44 187q14 74 39 114q108 119 163 119h67q147 0 214 -83q26 -13 43 -51q56 -48 56 -64q47 -129 47 -146l32 -159q3 -87 3 -166q0 -555 -140 -719q-128 -132 -255 -132q-70 0 -119 31q-120 57 -184 218q-48 83 -57 283 q-3 67 -3 127zM197 1544q0 28 167 214q21 40 59 40h4q89 0 190 -194q32 -24 32 -52q-10 -47 -56 -47q-32 0 -91 75q-5 0 -43 40l-24 19h-4q-27 -26 -123 -103q-26 -43 -63 -43q-38 0 -48 51zM328 448l31 -162q5 0 36 -75q70 -75 111 -79q151 0 154 695v128q-12 163 -35 209 q-14 34 -32 95q-45 63 -79 76h-40q-32 -13 -63 -55q-40 -101 -40 -199q-16 -24 -27 -241q-16 -59 -16 -84v-308z" />
<glyph unicode="&#xd5;" horiz-adv-x="890" d="M44 604q0 116 12 200v75q0 58 38 166q0 101 44 187q14 74 39 114q108 119 163 119h67q147 0 214 -83q26 -13 43 -51q56 -48 56 -64q47 -129 47 -146l32 -159q3 -87 3 -166q0 -555 -140 -719q-128 -132 -255 -132q-70 0 -119 31q-120 57 -184 218q-48 83 -57 283 q-3 67 -3 127zM175 1529v23q26 99 91 143q49 12 68 12h27q54 0 74 -28q23 0 97 -40l39 -4q14 13 28 95l20 16h27q6 0 24 -23v-72q-11 -52 -75 -119q-33 -7 -44 -15h-104q-7 0 -78 27l-95 44v-4q-30 -79 -47 -79h-28q-16 8 -24 24zM328 448l31 -162q5 0 36 -75 q70 -75 111 -79q151 0 154 695v128q-12 163 -35 209q-14 34 -32 95q-45 63 -79 76h-40q-32 -13 -63 -55q-40 -101 -40 -199q-16 -24 -27 -241q-16 -59 -16 -84v-308z" />
<glyph unicode="&#xd6;" horiz-adv-x="890" d="M44 604q0 116 12 200v75q0 58 38 166q0 101 44 187q14 74 39 114q108 119 163 119h67q147 0 214 -83q26 -13 43 -51q56 -48 56 -64q47 -129 47 -146l32 -159q3 -87 3 -166q0 -555 -140 -719q-128 -132 -255 -132q-70 0 -119 31q-120 57 -184 218q-48 83 -57 283 q-3 67 -3 127zM185 1596v43q22 88 56 88q17 19 67 19q83 -27 83 -87v-31q0 -56 -75 -107q-26 -8 -36 -8q-95 9 -95 83zM328 448l31 -162q5 0 36 -75q70 -75 111 -79q151 0 154 695v128q-12 163 -35 209q-14 34 -32 95q-45 63 -79 76h-40q-32 -13 -63 -55q-40 -101 -40 -199 q-16 -24 -27 -241q-16 -59 -16 -84v-308zM452 1584v59q0 66 103 107h23q71 0 83 -87q-26 -154 -114 -154q-76 0 -95 75z" />
<glyph unicode="&#xd7;" horiz-adv-x="829" d="M74 891q4 7 4 16q0 4 -4 12q0 43 79 43q9 10 40 16q36 0 87 -71l48 -44q0 -9 91 -107q0 -6 24 -23q0 7 27 27q93 107 111 107l119 107h32q6 0 23 -24v-47q-49 -42 -91 -107q-18 -13 -91 -103q-11 0 -67 -63q42 -38 55 -76q21 -5 48 -55q60 -73 67 -75q64 -43 64 -68v-35 q-38 -50 -56 -56h-67q-95 51 -127 87q-29 31 -79 107q-9 0 -40 52h-4l-55 -48q-37 -32 -83 -67q-13 -29 -48 -75q0 -15 -28 -36h-43q-16 8 -24 24v28q13 14 48 79q34 25 87 103l75 79v4q-143 168 -143 178q-75 90 -79 111z" />
<glyph unicode="&#xd8;" horiz-adv-x="890" d="M44 604q0 116 12 200v75q0 58 38 166q0 101 44 187q14 74 39 114q108 119 163 119h67q147 0 214 -83q26 -13 43 -51q56 -48 56 -64q47 -129 47 -146l32 -159q3 -87 3 -166q0 -555 -140 -719q-128 -132 -255 -132q-70 0 -119 31q-120 57 -184 218q-48 83 -57 283 q-3 67 -3 127zM328 448l10 -50q11 43 18 81q12 0 20 95q75 260 75 281q32 84 76 250q36 105 42 185q-30 36 -55 45h-40q-32 -13 -63 -55q-40 -101 -40 -199q-16 -24 -27 -241q-16 -59 -16 -84v-308zM395 211q70 -75 111 -79q151 0 154 695v128q-9 117 -23 175 q-10 -41 -43 -164q-16 -36 -87 -293q0 -40 -28 -99q-16 -111 -32 -146q0 -17 -27 -107q-11 -67 -25 -110z" />
<glyph unicode="&#xd9;" horiz-adv-x="814" d="M74 1045l20 175q13 0 24 103q30 166 138 166q67 0 80 -115q10 -49 19 -119q4 0 4 -16v-35q-11 -45 -19 -88q-3 -70 -5 -177q-7 0 -8 -127v-376q0 -62 51 -230l48 -75l39 -9q8 2 17 5q21 21 37 33q41 87 41 192l6 29q4 172 11 201q-4 42 -4 67l-9 240q2 57 4 62v407 q14 79 76 79q6 -1 11 -3q61 -5 61 -175q0 -133 8 -202q0 -18 -5 -93q-9 -97 -12 -315q-15 -43 -28 -233q-2 -3 -3 -8q-1 -110 -26 -157q-2 -15 -3 -33q-19 -45 -35 -99q-30 -70 -91 -107q-65 -28 -178 -28h-4q-92 0 -151 64q-95 177 -95 300q0 66 -16 155v499q-3 19 -3 43z M177 1751v10q24 52 75 52h48q84 0 147 -155l63 -113q0 -36 -48 -44h-8q-39 0 -130 90q-147 132 -147 160z" />
<glyph unicode="&#xda;" horiz-adv-x="814" d="M74 1045l20 175q13 0 24 103q30 166 138 166q67 0 80 -115q10 -49 19 -119q4 0 4 -16v-35q-11 -45 -19 -88q-3 -70 -5 -177q-7 0 -8 -127v-376q0 -62 51 -230l48 -75l39 -9q8 2 17 5q21 21 37 33q41 87 41 192l6 29q4 172 11 201q-4 42 -4 67l-9 240q2 57 4 62v407 q14 79 76 79q6 -1 11 -3q61 -5 61 -175q0 -133 8 -202q0 -18 -5 -93q-9 -97 -12 -315q-15 -43 -28 -233q-2 -3 -3 -8q-1 -110 -26 -157q-2 -15 -3 -33q-19 -45 -35 -99q-30 -70 -91 -107q-65 -28 -178 -28h-4q-92 0 -151 64q-95 177 -95 300q0 66 -16 155v499q-3 19 -3 43z M288 1545l64 113q62 155 146 155h48q51 0 75 -52v-10q0 -28 -147 -160q-91 -90 -130 -90h-8q-48 8 -48 44z" />
<glyph unicode="&#xdb;" horiz-adv-x="814" d="M74 1045l20 175q13 0 24 103q30 166 138 166q67 0 80 -115q10 -49 19 -119q4 0 4 -16v-35q-11 -45 -19 -88q-3 -70 -5 -177q-7 0 -8 -127v-376q0 -62 51 -230l48 -75l39 -9q8 2 17 5q21 21 37 33q41 87 41 192l6 29q4 172 11 201q-4 42 -4 67l-9 240q2 57 4 62v407 q14 79 76 79q6 -1 11 -3q61 -5 61 -175q0 -133 8 -202q0 -18 -5 -93q-9 -97 -12 -315q-15 -43 -28 -233q-2 -3 -3 -8q-1 -110 -26 -157q-2 -15 -3 -33q-19 -45 -35 -99q-30 -70 -91 -107q-65 -28 -178 -28h-4q-92 0 -151 64q-95 177 -95 300q0 66 -16 155v499q-3 19 -3 43z M173 1544q0 28 167 214q21 40 59 40h4q89 0 190 -194q32 -24 32 -52q-10 -47 -56 -47q-32 0 -91 75q-5 0 -43 40l-24 19h-4q-27 -26 -123 -103q-26 -43 -63 -43q-38 0 -48 51z" />
<glyph unicode="&#xdc;" horiz-adv-x="814" d="M74 1045l20 175q13 0 24 103q30 166 138 166q67 0 80 -115q10 -49 19 -119q4 0 4 -16v-35q-11 -45 -19 -88q-3 -70 -5 -177q-7 0 -8 -127v-376q0 -62 51 -230l48 -75l39 -9q8 2 17 5q21 21 37 33q41 87 41 192l6 29q4 172 11 201q-4 42 -4 67l-9 240q2 57 4 62v407 q14 79 76 79q6 -1 11 -3q61 -5 61 -175q0 -133 8 -202q0 -18 -5 -93q-9 -97 -12 -315q-15 -43 -28 -233q-2 -3 -3 -8q-1 -110 -26 -157q-2 -15 -3 -33q-19 -45 -35 -99q-30 -70 -91 -107q-65 -28 -178 -28h-4q-92 0 -151 64q-95 177 -95 300q0 66 -16 155v499q-3 19 -3 43z M161 1596v43q22 88 56 88q17 19 67 19q83 -27 83 -87v-31q0 -56 -75 -107q-26 -8 -36 -8q-95 9 -95 83zM428 1584v59q0 66 103 107h23q71 0 83 -87q-26 -154 -114 -154q-76 0 -95 75z" />
<glyph unicode="&#xdd;" horiz-adv-x="743" d="M18 1406v24q0 55 55 55h8q12 -1 23 -3q9 3 21 3q50 0 95 -107q39 -20 39 -71q53 -98 84 -230q0 -8 47 -127l40 -146v-41q7 -34 16 -78v-4q17 51 58 143q0 19 32 107v4q0 15 23 99q0 26 56 162q0 9 39 115q31 134 95 134h8q56 -6 56 -51v-4q-6 -33 -71 -190 q0 -36 -80 -206q0 -17 -27 -71q0 -16 -28 -95q-20 -84 -52 -135q-8 -35 -67 -194q0 -16 -4 -27q16 -91 32 -187q4 -11 4 -59v-14q-1 -26 -1 -59.5v-53.5v-48q-21 -158 -48 -158q0 -17 -79 -32q-54 0 -75 167q-18 131 -23 229q12 127 12 206v12q-40 42 -59 139q-17 11 -28 95 q-14 0 -40 146q-31 76 -103 345q-51 138 -51 162v13q-7 17 -7 31zM305 1545l64 113q62 155 146 155h48q51 0 75 -52v-10q0 -28 -147 -160q-91 -90 -130 -90h-8q-48 8 -48 44z" />
<glyph unicode="&#xde;" horiz-adv-x="765" d="M74 135v479q0 76 16 127l-4 27l-1 151v76q4 122 18 280q21 152 39 152q15 10 27 10q32 -3 32 -10l8 6h28q51 0 71 -104q13 0 22 -145q90 2 136 2q4 0 44 -16q66 0 150 -95q32 -31 72 -178v-170q0 -25 -44 -147q-27 -59 -36 -71q-83 -142 -142 -151q-56 -37 -139 -51 q-55 -4 -75 -10q-10 -63 -10 -123q-6 -197 -22 -285q-6 0 -23 -71q-21 -44 -60 -44h-8q-73 0 -83 95q0 8 -8 155v35q-8 68 -8 76zM316 398q62 0 138 48q23 37 24 79q14 0 32 103v265q0 131 -44 170q-5 0 -27 24h-72l-39 -4l4 -8v-67q0 -151 -4 -416q-12 -47 -12 -107v-87z " />
<glyph unicode="&#xdf;" horiz-adv-x="823" d="M74 182q3 562 20 562v123q0 103 16 198v48q22 124 71 182q60 129 79 131q55 47 103 47h32q22 0 55 4q153 -34 222 -99q64 -106 64 -206v-107q-6 -89 -111 -218q-8 0 -44 -55q-6 0 -16 -16v-4q32 0 87 -83q22 -7 111 -119q36 -68 36 -170v-63q0 -45 -32 -107 q-33 -127 -111 -198q-50 -48 -174 -48q-42 0 -142 52q-32 54 -32 75v28q6 55 51 55q40 0 52 -63h43q49 0 91 99q20 72 20 130v28q-23 182 -31 214q-34 53 -68 91q-11 32 -55 32q-28 22 -28 47q0 38 60 52q67 99 67 178q12 50 12 79v24q0 96 -32 178q-44 83 -71 91 q-40 0 -75 -131q-8 -1 -8 -7v-20q-20 -89 -20 -226q0 -4 -8 -103v-352q-12 -161 -24 -190q8 -33 8 -36q-4 -24 -12 -24l4 -8v-194q-16 -119 -95 -119l-47 20q-60 0 -60 95q-5 0 -8 103z" />
<glyph unicode="&#xe0;" horiz-adv-x="803" d="M47 210v265q43 237 91 325q72 141 87 150q66 51 142 60h36q59 0 117 -62q75 90 136 90q60 -5 60 -60q0 -13 -12 -91q-12 -34 -12 -123l-8 -49l-13 -191l-3 -203q0 -21 -7 -79q12 -26 17 -72q28 -60 28 -119v-3q-8 -60 -60 -60h-3q-11 0 -19 4h-13q-61 0 -95 67 q-29 45 -41 110q-16 53 -20 121l-16 -41l-68 -138q-39 -74 -81 -98.5t-69 -24.5h-60q-50 0 -79 52q-27 0 -35 170zM159 1359v10q24 52 75 52h48q84 0 147 -155l63 -113q0 -36 -48 -44h-8q-39 0 -130 90q-147 132 -147 160zM272 158q2 -6 3 -11q4 5 9 11q74 170 121.5 274.5 t50.5 190.5l14 110q0 46 16 130q-13 24 -61 37q-31 -4 -58 -75q-12 -40 -51 -191q-7 -136 -24 -187q-12 0 -20 -170v-119z" />
<glyph unicode="&#xe1;" horiz-adv-x="803" d="M47 210v265q43 237 91 325q72 141 87 150q66 51 142 60h36q59 0 117 -62q75 90 136 90q60 -5 60 -60q0 -13 -12 -91q-12 -34 -12 -123l-8 -49l-13 -191l-3 -203q0 -21 -7 -79q12 -26 17 -72q28 -60 28 -119v-3q-8 -60 -60 -60h-3q-11 0 -19 4h-13q-61 0 -95 67 q-29 45 -41 110q-16 53 -20 121l-16 -41l-68 -138q-39 -74 -81 -98.5t-69 -24.5h-60q-50 0 -79 52q-27 0 -35 170zM270 1153l64 113q62 155 146 155h48q51 0 75 -52v-10q0 -28 -147 -160q-91 -90 -130 -90h-8q-48 8 -48 44zM272 158q2 -6 3 -11q4 5 9 11q74 170 121.5 274.5 t50.5 190.5l14 110q0 46 16 130q-13 24 -61 37q-31 -4 -58 -75q-12 -40 -51 -191q-7 -136 -24 -187q-12 0 -20 -170v-119z" />
<glyph unicode="&#xe2;" horiz-adv-x="803" d="M47 210v265q43 237 91 325q72 141 87 150q66 51 142 60h36q59 0 117 -62q75 90 136 90q60 -5 60 -60q0 -13 -12 -91q-12 -34 -12 -123l-8 -49l-13 -191l-3 -203q0 -21 -7 -79q12 -26 17 -72q28 -60 28 -119v-3q-8 -60 -60 -60h-3q-11 0 -19 4h-13q-61 0 -95 67 q-29 45 -41 110q-16 53 -20 121l-16 -41l-68 -138q-39 -74 -81 -98.5t-69 -24.5h-60q-50 0 -79 52q-27 0 -35 170zM195 1152q0 28 167 214q21 40 59 40h4q89 0 190 -194q32 -24 32 -52q-10 -47 -56 -47q-32 0 -91 75q-5 0 -43 40l-24 19h-4q-27 -26 -123 -103 q-26 -43 -63 -43q-38 0 -48 51zM272 158q2 -6 3 -11q4 5 9 11q74 170 121.5 274.5t50.5 190.5l14 110q0 46 16 130q-13 24 -61 37q-31 -4 -58 -75q-12 -40 -51 -191q-7 -136 -24 -187q-12 0 -20 -170v-119z" />
<glyph unicode="&#xe3;" horiz-adv-x="803" d="M47 210v265q43 237 91 325q72 141 87 150q66 51 142 60h36q59 0 117 -62q75 90 136 90q60 -5 60 -60q0 -13 -12 -91q-12 -34 -12 -123l-8 -49l-13 -191l-3 -203q0 -21 -7 -79q12 -26 17 -72q28 -60 28 -119v-3q-8 -60 -60 -60h-3q-11 0 -19 4h-13q-61 0 -95 67 q-29 45 -41 110q-16 53 -20 121l-16 -41l-68 -138q-39 -74 -81 -98.5t-69 -24.5h-60q-50 0 -79 52q-27 0 -35 170zM158 1137v23q26 99 91 143q49 12 68 12h27q54 0 74 -28q23 0 97 -40l39 -4q14 13 28 95l20 16h27q6 0 24 -23v-72q-11 -52 -75 -119q-33 -7 -44 -15h-104 q-7 0 -78 27l-95 44v-4q-30 -79 -47 -79h-28q-16 8 -24 24zM272 158q2 -6 3 -11q4 5 9 11q74 170 121.5 274.5t50.5 190.5l14 110q0 46 16 130q-13 24 -61 37q-31 -4 -58 -75q-12 -40 -51 -191q-7 -136 -24 -187q-12 0 -20 -170v-119z" />
<glyph unicode="&#xe4;" horiz-adv-x="803" d="M47 210v265q43 237 91 325q72 141 87 150q66 51 142 60h36q59 0 117 -62q75 90 136 90q60 -5 60 -60q0 -13 -12 -91q-12 -34 -12 -123l-8 -49l-13 -191l-3 -203q0 -21 -7 -79q12 -26 17 -72q28 -60 28 -119v-3q-8 -60 -60 -60h-3q-11 0 -19 4h-13q-61 0 -95 67 q-29 45 -41 110q-16 53 -20 121l-16 -41l-68 -138q-39 -74 -81 -98.5t-69 -24.5h-60q-50 0 -79 52q-27 0 -35 170zM143 1204v43q22 88 56 88q17 19 67 19q83 -27 83 -87v-31q0 -56 -75 -107q-26 -8 -36 -8q-95 9 -95 83zM272 158q2 -6 3 -11q4 5 9 11q74 170 121.5 274.5 t50.5 190.5l14 110q0 46 16 130q-13 24 -61 37q-31 -4 -58 -75q-12 -40 -51 -191q-7 -136 -24 -187q-12 0 -20 -170v-119zM410 1192v59q0 66 103 107h23q71 0 83 -87q-26 -154 -114 -154q-76 0 -95 75z" />
<glyph unicode="&#xe5;" horiz-adv-x="803" d="M47 210v265q43 237 91 325q72 141 87 150q66 51 142 60h36q59 0 117 -62q75 90 136 90q60 -5 60 -60q0 -13 -12 -91q-12 -34 -12 -123l-8 -49l-13 -191l-3 -203q0 -21 -7 -79q12 -26 17 -72q28 -60 28 -119v-3q-8 -60 -60 -60h-3q-11 0 -19 4h-13q-61 0 -95 67 q-29 45 -41 110q-16 53 -20 121l-16 -41l-68 -138q-39 -74 -81 -98.5t-69 -24.5h-60q-50 0 -79 52q-27 0 -35 170zM206 1226v12q0 110 107 150q19 22 64 22q79 0 137 -52q42 -55 42 -94q0 -185 -123 -230h-43q-127 0 -175 149q-8 0 -9 43zM272 158q2 -6 3 -11q4 5 9 11 q74 170 121.5 274.5t50.5 190.5l14 110q0 46 16 130q-13 24 -61 37q-31 -4 -58 -75q-12 -40 -51 -191q-7 -136 -24 -187q-12 0 -20 -170v-119zM317 1174q21 -55 68 -55h18q52 0 68 141q-21 65 -94 65q-38 0 -60 -94v-57z" />
<glyph unicode="&#xe6;" horiz-adv-x="1042" d="M47 210v265q43 237 91 325q72 141 87 150q66 51 142 60h36q59 0 117 -62q75 90 136 90q58 -5 60 -56q25 7 53 12q0 8 44 8q111 0 134 -44q24 0 48 -118v-56q-12 -118 -103 -265q-42 -42 -166 -115q-24 -9 -44 -15v-5q-7 0 -8 -67v-44q16 -101 44 -154q0 -32 87 -44 q51 15 79 64q56 70 98 71q11 -1 21 -4q15 -7 15 -25q0 -37 -67 -122q-56 -77 -158 -107q-43 -7 -55 -7h-86q-110 0 -166 142q-30 96 -38 187l-9 -25l-68 -138q-39 -74 -81 -98.5t-69 -24.5h-60q-50 0 -79 52q-27 0 -35 170zM272 158q2 -6 3 -11q4 5 9 11q74 170 121.5 274.5 t50.5 190.5l14 110q0 46 16 130q-13 24 -61 37q-31 -4 -58 -75q-12 -40 -51 -191q-7 -136 -24 -187q-12 0 -20 -170v-119zM691 499q56 27 82 67q83 93 83 202v95q0 9 -15 40h-40q-95 -174 -95 -321q-7 -14 -15 -83z" />
<glyph unicode="&#xe7;" horiz-adv-x="647" d="M47 333q3 136 15 178v51q0 61 87 274l88 114q48 29 132 44q0 8 44 8q111 0 134 -44q24 0 48 -118v-28q-6 -45 -14 -72q-15 -61 -51 -79l-8 -4h-32q-32 11 -32 91v9q-2 8 -2 19v87q0 9 -15 40h-40q-95 -174 -95 -321q-11 -23 -24 -198q-7 0 -8 -67v-44q16 -101 44 -154 q0 -32 87 -44q51 15 79 64q59 71 101 71q9 0 18 -3q15 -7 16 -25q0 -36 -68 -123q-56 -77 -158 -107q-43 -7 -55 -7q-10 -25 -21 -68q52 0 127 -27q55 -43 55 -76v-71q0 -52 -91 -139q-77 -31 -131 -31h-87q-16 8 -24 23v28q13 28 52 28q127 23 127 83q11 0 11 56 q0 43 -103 59q-14 0 -27 40q12 56 24 95q-111 6 -164 142q-39 127 -39 246z" />
<glyph unicode="&#xe8;" horiz-adv-x="643" d="M47 333q3 136 15 178v51q0 61 87 274l88 114q48 29 132 44q0 8 44 8q111 0 134 -44q24 0 48 -118v-56q-12 -118 -103 -265q-42 -42 -166 -115q-24 -8 -44 -15v-5q-7 0 -8 -67v-44q16 -101 44 -154q0 -32 87 -44q51 15 79 64q58 70 99 71q10 0 20 -3q16 -7 16 -26 q-1 -36 -68 -122q-56 -77 -158 -107q-43 -7 -55 -7h-86q-110 0 -166 142q-39 127 -39 246zM190 1359v10q24 52 75 52h48q84 0 147 -155l63 -113q0 -36 -48 -44h-8q-39 0 -130 90q-147 132 -147 160zM292 499q55 28 81 67q83 93 83 202v95q0 9 -15 40h-40q-95 -174 -95 -321 q-7 -14 -14 -83z" />
<glyph unicode="&#xe9;" horiz-adv-x="643" d="M47 333q3 136 15 178v51q0 61 87 274l88 114q48 29 132 44q0 8 44 8q111 0 134 -44q24 0 48 -118v-56q-12 -118 -103 -265q-42 -42 -166 -115q-24 -8 -44 -15v-5q-7 0 -8 -67v-44q16 -101 44 -154q0 -32 87 -44q51 15 79 64q58 70 99 71q10 0 20 -3q16 -7 16 -26 q-1 -36 -68 -122q-56 -77 -158 -107q-43 -7 -55 -7h-86q-110 0 -166 142q-39 127 -39 246zM292 499q55 28 81 67q83 93 83 202v95q0 9 -15 40h-40q-95 -174 -95 -321q-7 -14 -14 -83zM314 1153l64 113q62 155 146 155h48q51 0 75 -52v-10q0 -28 -147 -160q-91 -90 -130 -90 h-8q-48 8 -48 44z" />
<glyph unicode="&#xea;" horiz-adv-x="643" d="M47 333q3 136 15 178v51q0 61 87 274l88 114q48 29 132 44q0 8 44 8q111 0 134 -44q24 0 48 -118v-56q-12 -118 -103 -265q-42 -42 -166 -115q-24 -8 -44 -15v-5q-7 0 -8 -67v-44q16 -101 44 -154q0 -32 87 -44q51 15 79 64q58 70 99 71q10 0 20 -3q16 -7 16 -26 q-1 -36 -68 -122q-56 -77 -158 -107q-43 -7 -55 -7h-86q-110 0 -166 142q-39 127 -39 246zM177 1152q0 28 167 214q21 40 59 40h4q89 0 190 -194q32 -24 32 -52q-10 -47 -56 -47q-32 0 -91 75q-5 0 -43 40l-24 19h-4q-27 -26 -123 -103q-26 -43 -63 -43q-38 0 -48 51z M292 499q55 28 81 67q83 93 83 202v95q0 9 -15 40h-40q-95 -174 -95 -321q-7 -14 -14 -83z" />
<glyph unicode="&#xeb;" horiz-adv-x="643" d="M47 333q3 136 15 178v51q0 61 87 274l88 114q48 29 132 44q0 8 44 8q111 0 134 -44q24 0 48 -118v-56q-12 -118 -103 -265q-42 -42 -166 -115q-24 -8 -44 -15v-5q-7 0 -8 -67v-44q16 -101 44 -154q0 -32 87 -44q51 15 79 64q58 70 99 71q10 0 20 -3q16 -7 16 -26 q-1 -36 -68 -122q-56 -77 -158 -107q-43 -7 -55 -7h-86q-110 0 -166 142q-39 127 -39 246zM154 1204v43q22 88 56 88q17 19 67 19q83 -27 83 -87v-31q0 -56 -75 -107q-26 -8 -36 -8q-95 9 -95 83zM292 499q55 28 81 67q83 93 83 202v95q0 9 -15 40h-40q-95 -174 -95 -321 q-7 -14 -14 -83zM421 1192v59q0 66 103 107h23q71 0 83 -87q-26 -154 -114 -154q-76 0 -95 75z" />
<glyph unicode="&#xec;" horiz-adv-x="470" d="M28 1359v10q24 52 75 52h48q84 0 147 -155l63 -113q0 -36 -48 -44h-8q-39 0 -130 90q-147 132 -147 160zM78 636q6 57 6 63l-3 55q1 23 3 44l-1 24q16 116 63 118q0 6 105 19q74 -3 101 -51q18 -40 19 -55q-6 -120 -33 -251q-9 -56 -12 -119l4 -83q-4 -36 -6 -73l3 -58 l2 -16q10 -27 14 -75q0 -50 35 -174q0 -5 32 -28q12 -17 12 -31q-15 -56 -79 -56q-124 14 -178 136q-15 33 -46 138q-20 131 -23 167q-12 164 -13 187z" />
<glyph unicode="&#xed;" horiz-adv-x="470" d="M78 636q6 57 6 63l-3 55q1 23 3 44l-1 24q16 116 63 118q0 6 105 19q74 -3 101 -51q18 -40 19 -55q-6 -120 -33 -251q-9 -56 -12 -119l4 -83q-4 -36 -6 -73l3 -58l2 -16q10 -27 14 -75q0 -50 35 -174q0 -5 32 -28q12 -17 12 -31q-15 -56 -79 -56q-124 14 -178 136 q-15 33 -46 138q-20 131 -23 167q-12 164 -13 187zM139 1153l64 113q62 155 146 155h48q51 0 75 -52v-10q0 -28 -147 -160q-91 -90 -130 -90h-8q-48 8 -48 44z" />
<glyph unicode="&#xee;" horiz-adv-x="470" d="M24 1152q0 28 167 214q21 40 59 40h4q89 0 190 -194q32 -24 32 -52q-10 -47 -56 -47q-32 0 -91 75q-5 0 -43 40l-24 19h-4q-27 -26 -123 -103q-26 -43 -63 -43q-38 0 -48 51zM78 636q6 57 6 63l-3 55q1 23 3 44l-1 24q16 116 63 118q0 6 105 19q74 -3 101 -51 q18 -40 19 -55q-6 -120 -33 -251q-9 -56 -12 -119l4 -83q-4 -36 -6 -73l3 -58l2 -16q10 -27 14 -75q0 -50 35 -174q0 -5 32 -28q12 -17 12 -31q-15 -56 -79 -56q-124 14 -178 136q-15 33 -46 138q-20 131 -23 167q-12 164 -13 187z" />
<glyph unicode="&#xef;" horiz-adv-x="470" d="M12 1204v43q22 88 56 88q17 19 67 19q83 -27 83 -87v-31q0 -56 -75 -107q-26 -8 -36 -8q-95 9 -95 83zM78 636q6 57 6 63l-3 55q1 23 3 44l-1 24q16 116 63 118q0 6 105 19q74 -3 101 -51q18 -40 19 -55q-6 -120 -33 -251q-9 -56 -12 -119l4 -83q-4 -36 -6 -73l3 -58 l2 -16q10 -27 14 -75q0 -50 35 -174q0 -5 32 -28q12 -17 12 -31q-15 -56 -79 -56q-124 14 -178 136q-15 33 -46 138q-20 131 -23 167q-12 164 -13 187zM279 1192v59q0 66 103 107h23q71 0 83 -87q-26 -154 -114 -154q-76 0 -95 75z" />
<glyph unicode="&#xf0;" horiz-adv-x="788" d="M47 253v214q0 20 7 48l64 138q73 76 115 76q0 16 130 35h32q-6 54 -16 56q-20 82 -32 91q-12 123 -66 206q-23 -12 -51 -28q-75 -56 -107 -59q-38 0 -48 51q0 34 107 91q6 10 49 33q-16 27 -22 27q-67 117 -67 162v12q-6 33 -6 57q0 55 30 55q51 0 185 -144 q21 -38 41 -74q76 49 99 74q0 13 48 24q37 0 47 -52q-1 -48 -142 -130q21 -34 42 -64l111 -301q36 -143 55 -206q48 -260 48 -376v-134q-1 -28 -8 -28q0 -6 -20 -79q-84 -127 -146 -127q-84 -32 -123 -32h-52q-12 0 -19 4q-60 0 -115 72q-62 34 -111 103q-59 117 -59 205z M225 238q28 -229 103 -234h12q42 0 79 20q55 88 55 123v190q-4 121 -16 126q-12 133 -31 202h-64q-8 0 -8 -12q-46 -25 -71 -55q-13 -71 -20 -71q-27 -86 -39 -202v-87z" />
<glyph unicode="&#xf1;" horiz-adv-x="903" d="M85 123q0 106 4 586q17 209 48 281q24 28 43 28q73 0 99 -32q42 -83 42 -184q8 0 8 -152q0 -147 -39 -334l17 39q63 222 127 382q13 16 35 75q71 124 79 127q47 55 135 55h24q45 0 75 -59q8 -16 8 -44v-40q12 -14 12 -35v-95q-20 -128 -20 -143v-79q-6 -79 -14 -119 l-4 -47v-36q0 -206 24 -246q28 -72 28 -87q-10 -47 -56 -47h-12q-94 26 -126 87q-64 132 -64 182l-19 147q0 6 2 11h-1q3 17 4 36q0 30 16 127q10 63 10 118q0 32 -10 75q-29 -9 -87 -150l-67 -249q-36 -67 -63 -162q-14 -11 -48 -103q-25 -72 -51 -72q0 -8 -40 -8h-4 q-73 0 -95 64q0 14 -20 103zM203 1137v23q26 99 91 143q49 12 68 12h27q54 0 74 -28q23 0 97 -40l39 -4q14 13 28 95l20 16h27q6 0 24 -23v-72q-11 -52 -75 -119q-33 -7 -44 -15h-104q-7 0 -78 27l-95 44v-4q-30 -79 -47 -79h-28q-16 8 -24 24z" />
<glyph unicode="&#xf2;" d="M47 479q19 42 19 166q24 62 24 119q27 107 83 107v40q0 61 64 138q20 24 83 60q18 20 75 20h44q106 0 229 -151q28 -68 28 -87v-226l-48 -320q-14 -83 -51 -179q0 -47 -87 -150q0 -24 -83 -71q-28 -8 -48 -8h-16q-101 8 -142 27q-87 56 -87 80q-36 28 -64 146 q-8 40 -8 79v163zM167 1416v10q24 52 75 52h48q84 0 147 -155l63 -113q0 -36 -48 -44h-8q-39 0 -130 90q-147 132 -147 160zM272 863q76 -51 81 -104q1 -4 1 -9q-1 -57 -42 -223q0 -46 -8 -270q26 -42 36 -95q24 -32 71 -47h12q0 5 43 39q16 16 40 72q14 0 39 111 q12 62 40 308q-9 100 -16 143q-8 0 -31 99q-97 111 -155 111h-39q-29 0 -60 -59q-12 -20 -12 -32v-44z" />
<glyph unicode="&#xf3;" d="M47 479q19 42 19 166q24 62 24 119q27 107 83 107v40q0 61 64 138q20 24 83 60q18 20 75 20h44q106 0 229 -151q28 -68 28 -87v-226l-48 -320q-14 -83 -51 -179q0 -47 -87 -150q0 -24 -83 -71q-28 -8 -48 -8h-16q-101 8 -142 27q-87 56 -87 80q-36 28 -64 146 q-8 40 -8 79v163zM272 863q76 -51 81 -104q1 -4 1 -9q-1 -57 -42 -223q0 -46 -8 -270q26 -42 36 -95q24 -32 71 -47h12q0 5 43 39q16 16 40 72q14 0 39 111q12 62 40 308q-9 100 -16 143q-8 0 -31 99q-97 111 -155 111h-39q-29 0 -60 -59q-12 -20 -12 -32v-44zM352 1235 l64 113q62 155 146 155h48q51 0 75 -52v-10q0 -28 -147 -160q-91 -90 -130 -90h-8q-48 8 -48 44z" />
<glyph unicode="&#xf4;" d="M47 479q19 42 19 166q24 62 24 119q27 107 83 107v40q0 61 64 138q20 24 83 60q18 20 75 20h44q106 0 229 -151q28 -68 28 -87v-226l-48 -320q-14 -83 -51 -179q0 -47 -87 -150q0 -24 -83 -71q-28 -8 -48 -8h-16q-101 8 -142 27q-87 56 -87 80q-36 28 -64 146 q-8 40 -8 79v163zM209 1215q0 28 167 214q21 40 59 40h4q89 0 190 -194q32 -24 32 -52q-10 -47 -56 -47q-32 0 -91 75q-5 0 -43 40l-24 19h-4q-27 -26 -123 -103q-26 -43 -63 -43q-38 0 -48 51zM272 863q76 -51 81 -104q1 -4 1 -9q-1 -57 -42 -223q0 -46 -8 -270 q26 -42 36 -95q24 -32 71 -47h12q0 5 43 39q16 16 40 72q14 0 39 111q12 62 40 308q-9 100 -16 143q-8 0 -31 99q-97 111 -155 111h-39q-29 0 -60 -59q-12 -20 -12 -32v-44z" />
<glyph unicode="&#xf5;" d="M47 479q19 42 19 166q24 62 24 119q27 107 83 107v40q0 61 64 138q20 24 83 60q18 20 75 20h44q106 0 229 -151q28 -68 28 -87v-226l-48 -320q-14 -83 -51 -179q0 -47 -87 -150q0 -24 -83 -71q-28 -8 -48 -8h-16q-101 8 -142 27q-87 56 -87 80q-36 28 -64 146 q-8 40 -8 79v163zM184 1207v23q26 99 91 143q49 12 68 12h27q54 0 74 -28q23 0 97 -40l39 -4q14 13 28 95l20 16h27q6 0 24 -23v-72q-11 -52 -75 -119q-33 -7 -44 -15h-104q-7 0 -78 27l-95 44v-4q-30 -79 -47 -79h-28q-16 8 -24 24zM272 863q76 -51 81 -104q1 -4 1 -9 q-1 -57 -42 -223q0 -46 -8 -270q26 -42 36 -95q24 -32 71 -47h12q0 5 43 39q16 16 40 72q14 0 39 111q12 62 40 308q-9 100 -16 143q-8 0 -31 99q-97 111 -155 111h-39q-29 0 -60 -59q-12 -20 -12 -32v-44z" />
<glyph unicode="&#xf6;" d="M47 479q19 42 19 166q24 62 24 119q27 107 83 107v40q0 61 64 138q20 24 83 60q18 20 75 20h44q106 0 229 -151q28 -68 28 -87v-226l-48 -320q-14 -83 -51 -179q0 -47 -87 -150q0 -24 -83 -71q-28 -8 -48 -8h-16q-101 8 -142 27q-87 56 -87 80q-36 28 -64 146 q-8 40 -8 79v163zM204 1254v43q22 88 56 88q17 19 67 19q83 -27 83 -87v-31q0 -56 -75 -107q-26 -8 -36 -8q-95 9 -95 83zM272 863q76 -51 81 -104q1 -4 1 -9q-1 -57 -42 -223q0 -46 -8 -270q26 -42 36 -95q24 -32 71 -47h12q0 5 43 39q16 16 40 72q14 0 39 111 q12 62 40 308q-9 100 -16 143q-8 0 -31 99q-97 111 -155 111h-39q-29 0 -60 -59q-12 -20 -12 -32v-44zM471 1242v59q0 66 103 107h23q71 0 83 -87q-26 -154 -114 -154q-76 0 -95 75z" />
<glyph unicode="&#xf7;" horiz-adv-x="944" d="M74 622q0 75 79 75q0 6 107 16h139l234 -20q67 0 162 -8q16 8 28 8q47 -10 47 -55v-8q0 -56 -55 -56h-333q-51 -12 -55 -12h-12q-97 0 -269 -4q-72 11 -72 64zM313 182v50q0 59 69 106q40 18 59 18h68q65 0 102 -72l22 -91v-11l-26 -102q-37 -29 -65 -29h-22 q-168 0 -203 102q-4 14 -4 29zM313 1047v50q0 59 69 106q40 18 58 18h69q65 0 102 -72l22 -91v-11l-26 -102q-38 -29 -65 -29h-22q-168 0 -203 102q-4 14 -4 29z" />
<glyph unicode="&#xf8;" d="M47 479q19 42 19 166q24 62 24 119q27 107 83 107v40q0 61 64 138q20 24 83 60q18 20 75 20h44q106 0 229 -151q28 -68 28 -87v-226l-48 -320q-14 -83 -51 -179q0 -47 -87 -150q0 -24 -83 -71q-28 -8 -48 -8h-16q-101 8 -142 27q-87 56 -87 80q-36 28 -64 146 q-8 40 -8 79v163zM272 863q76 -51 81 -104q1 -4 1 -9q-1 -57 -42 -223q0 -32 -4 -148q7 13 17 33q14 59 39 111l28 99q0 16 44 138l35 139v55q-51 44 -88 44h-39q-29 0 -60 -59q-12 -20 -12 -32v-44zM345 155q24 -27 66 -40h12q0 5 43 39q16 16 40 72q14 0 39 111 q12 62 40 308q-9 100 -16 143q-5 0 -15 34q-15 -66 -47 -169q-16 -38 -44 -142q0 -2 -35 -99q0 -10 -68 -186q-6 -43 -15 -71z" />
<glyph unicode="&#xf9;" horiz-adv-x="863" d="M41 467q19 282 35 317q31 135 61 183q1 3 1 7q25 56 75 56q131 0 138 -107v-16q-18 -131 -43 -258q-21 -112 -36 -332q-4 -46 -4 -87q0 -60 8 -111q3 -20 12 -20q60 50 107 238q27 64 61 328q13 104 23 176q62 187 135 201q26 2 51 3q75 -7 75 -55v-24q-12 -44 -24 -158 q-4 0 -4 -16v-12q8 -13 8 -32q-28 -224 -28 -336v-111q12 -49 24 -143q1 -27 59 -110v-12q-12 -52 -67 -52q-39 0 -119 40q-101 120 -113 216l-30 -64q-30 -64 -75 -136q-64 -68 -111 -68h-59q-73 0 -115 103q-5 24 -7 47q-14 33 -23 88q-9 8 -11 51q0 85 -4 206zM186 1359 v10q24 52 75 52h48q84 0 147 -155l63 -113q0 -36 -48 -44h-8q-39 0 -130 90q-147 132 -147 160z" />
<glyph unicode="&#xfa;" horiz-adv-x="863" d="M41 467q19 282 35 317q31 135 61 183q1 3 1 7q25 56 75 56q131 0 138 -107v-16q-18 -131 -43 -258q-21 -112 -36 -332q-4 -46 -4 -87q0 -60 8 -111q3 -20 12 -20q60 50 107 238q27 64 61 328q13 104 23 176q62 187 135 201q26 2 51 3q75 -7 75 -55v-24q-12 -44 -24 -158 q-4 0 -4 -16v-12q8 -13 8 -32q-28 -224 -28 -336v-111q12 -49 24 -143q1 -27 59 -110v-12q-12 -52 -67 -52q-39 0 -119 40q-101 120 -113 216l-30 -64q-30 -64 -75 -136q-64 -68 -111 -68h-59q-73 0 -115 103q-5 24 -7 47q-14 33 -23 88q-9 8 -11 51q0 85 -4 206zM297 1153 l64 113q62 155 146 155h48q51 0 75 -52v-10q0 -28 -147 -160q-91 -90 -130 -90h-8q-48 8 -48 44z" />
<glyph unicode="&#xfb;" horiz-adv-x="863" d="M41 467q19 282 35 317q31 135 61 183q1 3 1 7q25 56 75 56q131 0 138 -107v-16q-18 -131 -43 -258q-21 -112 -36 -332q-4 -46 -4 -87q0 -60 8 -111q3 -20 12 -20q60 50 107 238q27 64 61 328q13 104 23 176q62 187 135 201q26 2 51 3q75 -7 75 -55v-24q-12 -44 -24 -158 q-4 0 -4 -16v-12q8 -13 8 -32q-28 -224 -28 -336v-111q12 -49 24 -143q1 -27 59 -110v-12q-12 -52 -67 -52q-39 0 -119 40q-101 120 -113 216l-30 -64q-30 -64 -75 -136q-64 -68 -111 -68h-59q-73 0 -115 103q-5 24 -7 47q-14 33 -23 88q-9 8 -11 51q0 85 -4 206zM182 1152 q0 28 167 214q21 40 59 40h4q89 0 190 -194q32 -24 32 -52q-10 -47 -56 -47q-32 0 -91 75q-5 0 -43 40l-24 19h-4q-27 -26 -123 -103q-26 -43 -63 -43q-38 0 -48 51z" />
<glyph unicode="&#xfc;" horiz-adv-x="863" d="M41 467q19 282 35 317q31 135 61 183q1 3 1 7q25 56 75 56q131 0 138 -107v-16q-18 -131 -43 -258q-21 -112 -36 -332q-4 -46 -4 -87q0 -60 8 -111q3 -20 12 -20q60 50 107 238q27 64 61 328q13 104 23 176q62 187 135 201q26 2 51 3q75 -7 75 -55v-24q-12 -44 -24 -158 q-4 0 -4 -16v-12q8 -13 8 -32q-28 -224 -28 -336v-111q12 -49 24 -143q1 -27 59 -110v-12q-12 -52 -67 -52q-39 0 -119 40q-101 120 -113 216l-30 -64q-30 -64 -75 -136q-64 -68 -111 -68h-59q-73 0 -115 103q-5 24 -7 47q-14 33 -23 88q-9 8 -11 51q0 85 -4 206zM170 1204 v43q22 88 56 88q17 19 67 19q83 -27 83 -87v-31q0 -56 -75 -107q-26 -8 -36 -8q-95 9 -95 83zM437 1192v59q0 66 103 107h23q71 0 83 -87q-26 -154 -114 -154q-76 0 -95 75z" />
<glyph unicode="&#xfd;" horiz-adv-x="835" d="M41 502q0 85 16 200q5 34 28 160q7 38 14 66q8 80 78 137q21 12 40 12h24q114 -12 114 -111v-12q0 -45 -9 -72q0 -20 -1 -41q-37 -160 -59 -473l2 -27q4 -60 25 -75q148 94 159 392q7 164 15 244q-1 10 -1 21q-8 0 -8 47q0 135 75 135h4q87 0 155 -107q24 -72 24 -95 q0 -10 -4 -18l7 -117l8 -119v-186l-9 -239q-21 -164 -25 -180l-29 -157q-29 -135 -70 -187q-37 -86 -148 -161q-15 -12 -30 -21q-30 -24 -77 -33q-21 -4 -35 -4h-16q-115 0 -151 24q-43 28 -43 32q-52 68 -52 190q0 162 40 210q30 12 47 12q32 0 48 -44q8 0 8 -28 q-40 -101 -40 -162v-16q0 -63 32 -63q0 -4 20 -12q123 16 134 55q11 19 23 32q17 38 42 98q28 95 34 189q11 17 18 196l8 99q-128 -171 -240 -178q-46 0 -89 33q-76 53 -83 149q-13 20 -14 54l-7 99q-2 25 -2 52zM330 1181l64 113q62 155 146 155h48q51 0 75 -52v-10 q0 -28 -147 -160q-91 -90 -130 -90h-8q-48 8 -48 44z" />
<glyph unicode="&#xfe;" horiz-adv-x="883" d="M47 -199l5 286q12 80 16 515l12 24q0 143 51 412q8 48 32 170q0 16 36 99q11 34 28 55q31 90 95 127q74 16 111 16q8 0 19 -40l-23 -66q-19 -17 -40 -112q-3 -5 -7 -12q-26 -110 -27 -135q4 -21 4 -43q-7 -27 -12 -57q-22 -115 -23 -192q0 -10 1 -21q2 -25 2 -56 q0 -24 -1 -50q42 55 55 99q22 16 87 111q20 7 99 59l40 4h12q170 0 170 -269v-66q6 -10 6 -21q0 -111 -28 -183q0 -48 -51 -229q-74 -182 -111 -182q-52 -40 -155 -40q-116 7 -180 50q-13 -184 -15 -307q-42 -227 -78 -227q-62 0 -99 103q-31 112 -31 178zM282 154 q15 -19 77 -43q26 -2 31 -2q83 2 100 97q15 12 36 135q17 18 39 162v91q0 3 1 6q-6 124 -42 160q-78 0 -151 -174q-20 0 -59 -162q-12 0 -32 -230v-40z" />
<glyph unicode="&#xff;" horiz-adv-x="835" d="M41 502q0 85 16 200q5 34 28 160q7 38 14 66q8 80 78 137q21 12 40 12h24q114 -12 114 -111v-12q0 -45 -9 -72q0 -20 -1 -41q-37 -160 -59 -473l2 -27q4 -60 25 -75q148 94 159 392q7 164 15 244q-1 10 -1 21q-8 0 -8 47q0 135 75 135h4q87 0 155 -107q24 -72 24 -95 q0 -10 -4 -18l7 -117l8 -119v-186l-9 -239q-21 -164 -25 -180l-29 -157q-29 -135 -70 -187q-37 -86 -148 -161q-15 -12 -30 -21q-30 -24 -77 -33q-21 -4 -35 -4h-16q-115 0 -151 24q-43 28 -43 32q-52 68 -52 190q0 162 40 210q30 12 47 12q32 0 48 -44q8 0 8 -28 q-40 -101 -40 -162v-16q0 -63 32 -63q0 -4 20 -12q123 16 134 55q11 19 23 32q17 38 42 98q28 95 34 189q11 17 18 196l8 99q-128 -171 -240 -178q-46 0 -89 33q-76 53 -83 149q-13 20 -14 54l-7 99q-2 25 -2 52zM155 1273v43q22 88 56 88q17 19 67 19q83 -27 83 -87v-31 q0 -56 -75 -107q-26 -8 -36 -8q-95 9 -95 83zM422 1261v59q0 66 103 107h23q71 0 83 -87q-26 -154 -114 -154q-76 0 -95 75z" />
<glyph unicode="&#x152;" horiz-adv-x="1222" d="M44 604q0 116 12 200v75q0 58 38 166q0 101 44 187q14 74 39 114q108 119 163 119h67q147 0 214 -83q23 -11 39 -43l4 14q-13 15 -17 45q12 51 68 51q87 -4 130 -4q8 -2 14 -4h84q71 0 175 4q43 -13 43 -51v-1q4 -10 5 -23q-14 -47 -47 -47q-199 15 -256 15l21 -138 q0 -73 8 -277l24 -151h79q52 5 96 16h24q55 -6 55 -51q0 -14 -7 -24q-11 -40 -53 -40h-83q-38 -3 -107 -4v-20q8 -38 8 -43v-400q-15 -57 -19 -107q113 2 241 16q44 -12 44 -60q0 -10 -5 -19v-8q0 -44 -79 -60q-81 0 -368 4q-84 0 -84 87v14q-126 -128 -251 -128 q-70 0 -119 31q-120 57 -184 218q-48 83 -57 283q-3 67 -3 127zM328 448l31 -162q5 0 36 -75q70 -75 111 -79q148 0 154 664q-6 105 -6 119v108q-10 106 -29 141q-14 34 -32 95q-45 63 -79 76h-40q-32 -13 -63 -55q-40 -101 -40 -199q-16 -24 -27 -241q-16 -59 -16 -84v-308 z" />
<glyph unicode="&#x153;" horiz-adv-x="1178" d="M47 479q19 42 19 166q24 62 24 119q27 107 83 107v40q0 61 64 138q20 24 83 60q18 20 75 20h44q106 0 229 -151q28 -68 28 -87v-40l75 99q49 29 133 44q0 8 43 8q111 0 135 -44q24 0 48 -118v-56q-12 -118 -103 -265q-42 -42 -167 -115q-23 -8 -42 -15l-1 -5q-7 0 -8 -67 v-44q16 -101 43 -154q0 -32 88 -44q51 15 79 64q57 70 99 71q11 0 20 -3q15 -7 15 -26q-1 -36 -67 -122q-56 -77 -158 -107q-43 -7 -56 -7h-85q-111 0 -166 142q-13 43 -22 84q-1 -3 -2 -5q0 -47 -87 -150q0 -24 -83 -71q-28 -8 -48 -8h-16q-101 8 -142 27q-87 56 -87 80 q-36 28 -64 146q-8 40 -8 79v163zM272 863q76 -51 81 -104q1 -4 1 -9q-1 -57 -42 -223q0 -46 -8 -270q26 -42 36 -95q24 -32 71 -47h12q0 5 43 39q16 16 40 72q14 0 39 111q12 62 40 308q-9 100 -16 143q-8 0 -31 99q-97 111 -155 111h-39q-29 0 -60 -59q-12 -20 -12 -32 v-44zM827 499q55 28 81 67q83 93 83 202v95q0 9 -16 40h-39q-95 -174 -95 -321q-6 -14 -14 -83z" />
<glyph unicode="&#x178;" horiz-adv-x="743" d="M18 1406v24q0 55 55 55h8q12 -1 23 -3q9 3 21 3q50 0 95 -107q39 -20 39 -71q53 -98 84 -230q0 -8 47 -127l40 -146v-41q7 -34 16 -78v-4q17 51 58 143q0 19 32 107v4q0 15 23 99q0 26 56 162q0 9 39 115q31 134 95 134h8q56 -6 56 -51v-4q-6 -33 -71 -190 q0 -36 -80 -206q0 -17 -27 -71q0 -16 -28 -95q-20 -84 -52 -135q-8 -35 -67 -194q0 -16 -4 -27q16 -91 32 -187q4 -11 4 -59v-14q-1 -26 -1 -59.5v-53.5v-48q-21 -158 -48 -158q0 -17 -79 -32q-54 0 -75 167q-18 131 -23 229q12 127 12 206v12q-40 42 -59 139q-17 11 -28 95 q-14 0 -40 146q-31 76 -103 345q-51 138 -51 162v13q-7 17 -7 31zM177 1596v43q22 88 56 88q17 19 67 19q83 -27 83 -87v-31q0 -56 -75 -107q-26 -8 -36 -8q-95 9 -95 83zM444 1584v59q0 66 103 107h23q71 0 83 -87q-26 -154 -114 -154q-76 0 -95 75z" />
<glyph unicode="&#x2c6;" horiz-adv-x="584" d="M67 1152q0 28 167 214q21 40 59 40h4q89 0 190 -194q32 -24 32 -52q-10 -47 -56 -47q-32 0 -91 75q-5 0 -43 40l-24 19h-4q-27 -26 -123 -103q-26 -43 -63 -43q-38 0 -48 51z" />
<glyph unicode="&#x2dc;" horiz-adv-x="643" d="M74 1137v23q26 99 91 143q49 12 68 12h27q54 0 74 -28q23 0 97 -40l39 -4q14 13 28 95l20 16h27q6 0 24 -23v-72q-11 -52 -75 -119q-33 -7 -44 -15h-104q-7 0 -78 27l-95 44v-4q-30 -79 -47 -79h-28q-16 8 -24 24z" />
<glyph unicode="&#x2000;" horiz-adv-x="906" />
<glyph unicode="&#x2001;" horiz-adv-x="1813" />
<glyph unicode="&#x2002;" horiz-adv-x="906" />
<glyph unicode="&#x2003;" horiz-adv-x="1813" />
<glyph unicode="&#x2004;" horiz-adv-x="604" />
<glyph unicode="&#x2005;" horiz-adv-x="453" />
<glyph unicode="&#x2006;" horiz-adv-x="302" />
<glyph unicode="&#x2007;" horiz-adv-x="302" />
<glyph unicode="&#x2008;" horiz-adv-x="226" />
<glyph unicode="&#x2009;" horiz-adv-x="362" />
<glyph unicode="&#x200a;" horiz-adv-x="100" />
<glyph unicode="&#x2010;" horiz-adv-x="595" d="M5 550q19 76 75 76h167q57 8 63 8h154q43 0 76 -60q4 -7 4 -20v-27q0 -80 -131 -80q0 -7 -40 -7h-269q-87 13 -87 51z" />
<glyph unicode="&#x2011;" horiz-adv-x="595" d="M5 550q19 76 75 76h167q57 8 63 8h154q43 0 76 -60q4 -7 4 -20v-27q0 -80 -131 -80q0 -7 -40 -7h-269q-87 13 -87 51z" />
<glyph unicode="&#x2012;" horiz-adv-x="595" d="M5 550q19 76 75 76h167q57 8 63 8h154q43 0 76 -60q4 -7 4 -20v-27q0 -80 -131 -80q0 -7 -40 -7h-269q-87 13 -87 51z" />
<glyph unicode="&#x2013;" horiz-adv-x="1352" d="M74 527q10 47 56 47h19q58 -8 64 -8h245l210 16h115q44 0 95 12h345q55 0 55 -55v-20q0 -56 -67 -56q0 -4 -40 -4h-202q-74 -12 -79 -12h-87q-5 0 -44 8h-158q-136 0 -356 4q-16 4 -28 4q0 -11 -40 -16h-24q-37 0 -67 52q-9 0 -12 28z" />
<glyph unicode="&#x2014;" horiz-adv-x="1851" d="M74 539q0 42 79 55h4q26 -8 36 -8h194q6 0 95 -8h487q34 0 87 -12q58 0 179 -4q39 0 217 24q36 0 87 8h183q55 0 55 -55q-11 -72 -95 -72q-147 -12 -194 -20h-55q-6 0 -96 -7h-213q-262 0 -262 15h-273q-15 0 -123 20h-182q-198 12 -198 28q-12 27 -12 36z" />
<glyph unicode="&#x2018;" horiz-adv-x="491" d="M74 946v60q0 87 111 294l43 55q12 3 38 57q63 52 94 52h7q50 -5 50 -45q0 -37 -61 -53q-39 -75 -55 -129q-46 -35 -46 -143v-7q94 -21 112 -52q28 -34 28 -75q0 -93 -42 -135q-12 -43 -52 -43q-7 4 -11 4q0 -10 -35 -14h-34q-76 19 -105 53q-39 27 -39 108q-3 0 -3 13z " />
<glyph unicode="&#x2019;" horiz-adv-x="491" d="M74 818q0 36 61 52q39 75 55 130q46 35 46 142v7q-94 21 -112 53q-28 34 -28 74q0 93 42 136q12 42 52 42q7 -4 11 -4q0 10 35 14h34q76 -19 105 -52q39 -28 39 -108q3 0 3 -14v-59q0 -88 -111 -294l-43 -56q-12 -3 -38 -56q-63 -53 -94 -53h-7q-50 5 -50 46z" />
<glyph unicode="&#x201a;" horiz-adv-x="491" d="M74 -405q0 37 60 53q40 75 56 128q46 35 46 144v7q-94 20 -112 52q-29 34 -29 73q0 95 43 137q12 42 52 42q7 -3 10 -3q0 10 36 14h34q76 -19 105 -53q39 -28 39 -108q3 0 3 -15v-59q0 -87 -112 -293l-42 -57q-12 -2 -38 -55q-64 -52 -94 -52h-7q-50 4 -50 45z" />
<glyph unicode="&#x201c;" horiz-adv-x="970" d="M74 946v60q0 87 111 294l43 55q12 3 38 57q63 52 94 52h7q50 -5 50 -45q0 -37 -61 -53q-39 -75 -55 -129q-46 -35 -46 -143v-7q94 -21 112 -52q28 -34 28 -75q0 -93 -42 -135q-12 -43 -52 -43q-7 4 -11 4q0 -10 -35 -14h-34q-76 19 -105 53q-39 27 -39 108q-3 0 -3 13z M553 946v60q0 87 112 294l42 55q12 3 38 57q64 52 95 52h6q50 -5 50 -45q0 -37 -59 -53q-40 -75 -57 -129q-45 -35 -45 -143v-7q94 -21 111 -52q29 -34 29 -75q0 -93 -42 -135q-13 -43 -53 -43q-6 4 -10 4q0 -10 -35 -14h-35q-75 19 -105 53q-39 27 -39 108q-3 0 -3 13z" />
<glyph unicode="&#x201d;" horiz-adv-x="971" d="M74 818q0 36 61 52q39 75 55 130q46 35 46 142v7q-94 21 -112 53q-28 34 -28 74q0 93 42 136q12 42 52 42q7 -4 11 -4q0 10 35 14h34q76 -19 105 -52q39 -28 39 -108q3 0 3 -14v-59q0 -88 -111 -294l-43 -56q-12 -3 -38 -56q-63 -53 -94 -53h-7q-50 5 -50 46zM554 818 q0 36 60 52q39 75 55 130q46 35 46 142v7q-93 21 -112 53q-28 34 -28 74q0 93 42 136q13 42 52 42q7 -4 11 -4q0 10 35 14h35q76 -19 105 -52q38 -28 38 -108q4 0 4 -14v-59q0 -88 -112 -294l-42 -56q-12 -3 -38 -56q-63 -53 -95 -53h-7q-49 5 -49 46z" />
<glyph unicode="&#x201e;" horiz-adv-x="971" d="M74 -300q0 37 61 52q39 75 55 129q46 35 46 144v7q-94 19 -112 52q-28 34 -28 73q0 94 42 137q12 42 52 42q7 -3 11 -3q0 9 35 13h34q76 -18 105 -52q39 -28 39 -109q3 0 3 -14v-59q0 -87 -111 -293l-43 -57q-12 -2 -38 -55q-63 -53 -94 -53h-7q-50 5 -50 46zM554 -300 q0 37 60 52q39 75 55 129q46 35 46 144v7q-93 19 -112 52q-28 34 -28 73q0 94 42 137q13 42 52 42q7 -3 11 -3q0 9 35 13h35q76 -18 105 -52q38 -28 38 -109q4 0 4 -14v-59q0 -87 -112 -293l-42 -57q-12 -2 -38 -55q-63 -53 -95 -53h-7q-49 5 -49 46z" />
<glyph unicode="&#x2022;" horiz-adv-x="679" d="M74 677v91q0 80 87 151q71 37 87 59q30 11 123 32q49 0 163 -83q71 -94 71 -171v-75q0 -82 -20 -111q0 -35 -59 -95q-77 -35 -159 -47q-21 -12 -55 -12h-48q-73 0 -142 83q-28 69 -28 119q-20 19 -20 59z" />
<glyph unicode="&#x2026;" horiz-adv-x="1820" d="M74 36v50q0 59 70 106q39 18 57 18h69q65 0 102 -72l22 -91v-11l-26 -102q-38 -29 -65 -29h-22q-168 0 -203 102q-4 14 -4 29zM750 36v50q0 59 70 106q39 18 57 18h69q65 0 102 -72l22 -91v-11l-26 -102q-38 -29 -65 -29h-22q-168 0 -203 102q-4 14 -4 29zM1427 36v50 q0 59 69 106q39 18 57 18h70q64 0 102 -72l21 -91v-11l-25 -102q-39 -29 -66 -29h-21q-169 0 -203 102q-4 14 -4 29z" />
<glyph unicode="&#x202f;" horiz-adv-x="362" />
<glyph unicode="&#x2039;" horiz-adv-x="489" d="M74 463q0 41 48 80q22 55 35 55q48 88 111 123q46 75 79 75q52 0 60 -48q0 -22 -52 -79q-65 -106 -75 -111q-32 -62 -47 -75q10 -16 15 -16q43 -75 48 -75q0 -17 48 -75q71 -82 71 -111q0 -46 -48 -56q-33 0 -83 68q-36 30 -67 59q-29 0 -56 44q-85 105 -87 142z" />
<glyph unicode="&#x203a;" horiz-adv-x="489" d="M74 206q0 29 72 111q47 58 47 75q5 0 48 75q6 0 15 16q-15 13 -47 75q-10 5 -75 111q-52 57 -52 79q8 48 60 48q34 0 79 -75q63 -35 111 -123q14 0 35 -55q48 -39 48 -80q-2 -37 -87 -142q-27 -44 -56 -44q-30 -29 -67 -59q-50 -68 -83 -68q-48 10 -48 56z" />
<glyph unicode="&#x205f;" horiz-adv-x="453" />
<glyph unicode="&#x20ac;" horiz-adv-x="853" d="M44 614q9 47 55 47h77v60h-49q-56 6 -56 51q10 48 56 48h49v182q16 74 28 186q72 194 111 194q22 3 67 44q39 19 56 19h63q21 0 79 -15q7 4 16 4q81 -30 115 -84q0 -14 31 -71q24 -74 24 -107v-24q0 -133 -39 -158q-3 0 -24 -4q-32 0 -48 44q12 101 12 146v8 q-43 143 -83 143q-16 8 -43 8h-8q0 -8 -44 -52q-20 -22 -32 -170q-6 -8 -15 -123v-111q-2 -35 -4 -59h105q55 -6 55 -52q-10 -47 -55 -47h-109v-60h105q55 -6 55 -51q-10 -48 -55 -48h-105q17 -279 65 -330t61 -58h8q72 0 95 52q0 20 52 107q16 60 27 146q23 28 48 28 q48 -10 48 -56q-8 -97 -40 -174q-40 -70 -79 -162q-117 -119 -167 -119q-28 0 -63 -8q-143 0 -214 123q-10 8 -24 47q-39 71 -39 95q-31 142 -32 246q-2 34 -3 63h-78q-55 6 -55 52z" />
<glyph unicode="&#x2122;" horiz-adv-x="1088" d="M74 1479q5 23 30 23h27q55 0 77 -4q3 0 34 8q132 1 184 1q26 -4 26 -24q-6 -36 -24 -36q0 -2 -9 -2h-61q-12 0 -28 4v-154q-7 -57 -11 -137v-39l-11 -104q-6 -20 -14 -110q-6 -9 -11 -41q-24 -35 -37 -35h-2q-49 0 -49 48v13q7 23 7 32v522q-21 -2 -32 -2h-58 q-27 0 -38 37zM451 859q4 109 4 184q5 26 5 37v430q0 25 29 25q17 0 47 -40q7 -8 26 -45q38 -51 38 -73q58 -108 58 -136q9 0 24 -60q6 -2 21 -61q8 -10 14 -68h3q0 33 19 79q0 9 13 38q0 13 17 42q15 60 42 106q7 18 50 109l11 29q6 15 25 74q14 14 52 14q13 0 42 -26 q17 -17 17 -81q2 0 2 -28v-449q4 -44 4 -49v-27q-1 -18 -15 -39q-18 -14 -48 -14h-4q-28 0 -52 51q-5 6 -15 55q-4 5 -10 51v214q0 13 4 36q-11 28 -11 66h-2q-28 -55 -45 -117q-15 -41 -15 -51l-19 -83l-11 -53q-4 -43 -14 -61q-16 -75 -33 -75q0 -5 -19 -6q-24 0 -42 47 q-23 22 -76 146q-33 68 -43 116q-8 10 -29 81h-3v-167q0 -8 -4 -40q0 -90 -4 -172q2 -3 2 -9q-7 -20 -27 -20q-18 0 -28 20z" />
<glyph unicode="&#x25fc;" horiz-adv-x="1059" d="M0 0v1059h1059v-1059h-1059z" />
<glyph unicode="&#xe020;" horiz-adv-x="819" d="M-75 -139q0 40 79 91q20 23 51 70q12 39 16 65q1 11 3 23v5q0 1 1 2q12 92 38 263l55 428q8 0 8 20v27q8 62 20 137l3 -1q38 159 46 252q13 96 31 107q-8 16 -8 28v3l-62 132q-5 0 -44 63q-55 53 -55 83q10 48 55 48q130 -30 163 -75q31 -25 63 -84l67 -75 q28 -45 48 -103q0 -9 13 -47q64 -115 64 -143q30 -51 60 -333q0 -24 15 -75q12 -156 36 -265q13 -163 26 -243q15 -22 15 -62q10 -31 39 -214q11 -21 17 -36q10 -20 20 -43q68 -84 91 -147q94 -99 154 -99q36 -18 36 -55v-4q0 -55 -55 -55h-48q-35 0 -198 99 q-93 79 -119 142q0 5 -115 194l-2 19q-19 48 -42 128q-24 98 -24 118v21q-9 45 -21 107q-6 -1 -12 -1q-126 -3 -213 -4q-15 -235 -38 -371q-7 -83 -107 -171q-78 -36 -99 -36h-8q-54 0 -63 67zM244 471q123 0 198 5q-12 62 -12 130q-44 233 -80 495q-4 0 -13 39 q-6 -50 -9 -106q-5 -8 -21 -62h2q-4 -32 -10 -69q-7 -9 -32 -214q-23 -77 -23 -210v-8z" />
<glyph unicode="&#xe021;" horiz-adv-x="865" d="M74 550q8 36 8 52v234q6 158 17 195v3q5 32 9 65q-5 16 -5 38l12 75l-4 24v19q1 9 3 17h-2q13 115 19 228q11 119 67 119h16q39 -7 64 -52q19 16 43 32q40 16 111 16h8q63 0 158 -80q13 -22 19 -38q16 -21 31 -49q47 -68 57 -168q5 -13 8 -29v-122q-2 -12 -6 -21 q1 -13 1 -27v-59q0 -98 -56 -151q0 -12 -71 -75q-17 -16 -63 -36q38 0 120 -63q50 -45 77 -111q54 -104 62 -257v-7q7 -18 7 -45q4 -30 4 -63q0 -45 -13 -75q-10 -99 -73 -191q-8 -8 -40 -36q-68 -56 -87 -56q-32 -20 -65 -39h-119q-50 0 -131 39q-60 -59 -91 -59 q-12 0 -63 28q-20 18 -20 43q-6 168 -9 294h2v44q0 44 -2.5 149.5t-2.5 194.5zM319 1463l7 -50q8 -65 14 -115q7 -20 12 -47q0 -20 -7 -95q3 -34 3 -39q-2 -11 -8 -20v-71q0 -5 7 -64v-154l28 -4h8q68 0 119 119q12 16 12 75v112q-3 9 -3 19v11q0 25 4 60q-4 35 -4 87 q1 6 3 11v36q0 50 -43 108q-15 20 -31 46q-18 10 -32 28q-52 0 -89 -53zM320 -1q41 -36 75 -36q62 2 109 103q18 26 35 85v31l11 79v32t1 67v147q-16 89 -62 128q-25 30 -53 42q-54 23 -89 24v-103l-27 -242v-22q1 -35 1 -54q4 -6 4 -24q-5 -59 -5 -95v-162z" />
<glyph unicode="&#xe022;" d="M59 697q8 72 8 123v83q0 20 7 33v204q16 75 28 187q72 194 111 194q22 3 67 43q39 20 56 20h63q21 0 79 -16q7 4 16 4q81 -30 115 -83q0 -14 32 -71q23 -75 23 -107v-24q0 -134 -39 -158q-3 0 -24 -4q-5 0 -10 1q-6 -1 -12 -1q-47 10 -47 55q0 5 8 44v51q0 134 -60 191 q-16 7 -41 7h-8q0 -8 -44 -51q-20 -22 -32 -171q-6 -8 -15 -122v-111q-7 -95 -8 -120l-3 -63l8 -48v-28l-4 -129v-48q0 -12 -1 -23v-176q17 -279 65.5 -330t60.5 -58h8q55 0 81 30q56 124 56 184q10 119 79 119h6q16 -1 27 -11q21 -14 21 -45q-8 -97 -40 -174 q-17 -30 -34 -63q-10 -27 -21 -45l-24 -54q-117 -119 -167 -119q-28 0 -63 -8q-143 0 -214 123q-10 8 -24 47q-39 71 -39 95q-31 142 -32 246q-4 73 -4 130v107q-15 62 -15 140z" />
<glyph unicode="&#xe023;" horiz-adv-x="908" d="M109 8v273q0 55 16 91q2 119 3 214v283q1 106 1 180v84q5 24 8 84q-3 10 -3 22q0 181 39 321q13 68 68 68q0 6 27 7q31 0 68 -59q69 48 194 48q128 -30 170 -88q13 -33 20 -60q11 -15 22 -35q111 -156 111 -289q8 -151 8 -257v-356q0 -141 -31 -202q0 -33 -36 -131 q0 -19 -75 -151q-8 -2 -44 -63q-50 -39 -127 -123q-56 -31 -118 -47q0 -17 -115 -20h-87q-87 0 -87 55q0 7 7 24q-39 65 -39 127zM335 -59h31q76 9 76 27q64 55 114 285l52 194q16 81 16 135v400q-12 85 -16 178q-12 26 -32 163l-18 34q-21 19 -36 73q-31 36 -91 55h-4 q-37 0 -72 -40q19 -79 25 -195q2 -37 2 -74q0 -77 -8 -150v-594q-12 -63 -16 -361q-9 0 -23 -130z" />
<glyph unicode="&#xe024;" horiz-adv-x="684" d="M109 1596q12 51 67 51q87 -4 131 -4q8 -2 14 -4h84q70 0 174 4q44 -13 44 -51v-1q4 -10 5 -23q-14 -47 -48 -47q-199 15 -255 15l21 -138v-60v-223q2 -75 7 -192l24 -151h79q53 5 96 16h24q56 -6 56 -51q0 -14 -7 -24q-12 -40 -54 -40h-83q-38 -3 -107 -4v-20 q8 -38 8 -43v-564q-15 -58 -20 -107q114 2 243 15q43 -11 43 -59q0 -11 -5 -21v-7q0 -43 -79 -59q-81 0 -368 4q-83 0 -83 87v182l16 107v135q-11 34 -12 56v381q-8 142 -8 159v566q0 42 9 70q-13 15 -16 45z" />
<glyph unicode="&#xe025;" horiz-adv-x="664" d="M109 632v638q8 128 8 139v138q1 5 2 11q-9 12 -9 29q0 51 99 51h8q32 0 80 -4h303q54 -5 55 -50q5 -12 5 -29q0 -44 -67 -55q-145 18 -289 32q20 -62 24 -155l15 -171l2 -210l5 -61l4 -178q5 -12 5 -28q0 -13 -1 -40q186 16 243 16q38 0 47 -52q0 -10 -4 -19v-8 q-10 -48 -56 -48l-236 1q0 -10 -1 -21q1 -33 1 -63v-187q3 -146 3 -185q-19 -65 -27 -171q-10 0 -16 -91q-26 -110 -87 -110q-20 0 -20 7l-8 -4h-4q-55 0 -55 76q0 39 -20 138q-8 44 -8 99v428q0 80 -1 137z" />
<glyph unicode="&#xe026;" horiz-adv-x="812" d="M74 630v560q2 8 4 17q-2 7 -4 15v4q0 59 27 143q1 3 1 7q13 34 25 62q15 38 34 81q18 54 87 99q53 23 84 23h43q141 0 171 -44q41 -24 63 -59q0 -13 32 -71q23 -74 23 -107v-24q0 -105 -24 -143q-10 -23 -49 -31q-63 13 -63 64v4q14 33 23 87v27q0 26 -16 94 q-17 15 -37 41q-26 12 -40 12h-31q-12 0 -28 -8l-12 -12q-20 -22 -32 -170q-6 -8 -15 -123v-299q-8 -117 -8 -127v-190q2 -26 4 -50q1 -115 1 -230q19 -214 61 -257q44 -51 117 -52q53 3 81 54q22 103 22 121q0 71 -7 134l-2 224q-5 41 -14 80h-53q-22 0 -56 -4 q-43 14 -43 52v3q-2 6 -3 12q0 52 110 52q0 4 119 12q56 -6 56 -52q-4 -14 -9 -23v-68q2 -32 4 -58q0 -115 1 -230q3 -66 3 -78v-99q-49 -195 -83 -214q-17 -59 -123 -107q-59 -8 -143 -8q-11 3 -20 6q-119 12 -182 121q-10 8 -24 47q-39 71 -39 96q-30 135 -32 236v224 q-4 69 -4 124z" />
<glyph unicode="&#xe027;" horiz-adv-x="963" d="M74 400v146q0 99 4 282q8 15 8 43v434q-3 10 -3 23q24 120 28 202l36 95q21 35 59 35h4q45 0 91 -59q20 0 40 -67q8 0 23 -96q0 -67 -5 -107v-15q0 -95 -3 -236v-139q-2 -65 -4 -139q0 -14 1 -61q167 21 222 37q1 42 1 58q5 56 8 105q0 74 1 139q4 77 4 137v81l-3 6 q4 46 4 67v222q0 45 48 55q76 0 126 -63q68 -153 68 -182q11 -63 11 -75v-64q7 -70 15 -162v-567q0 -53 -15 -140q4 -22 4 -50v-80q3 -194 13 -259q19 -38 35 -109l44 -71q60 -91 162 -91q0 -8 135 -16q27 -23 27 -48q-10 -47 -55 -47h-40l-24 4q-6 -4 -19 -4l-151 20 q-31 11 -138 43q-130 73 -139 111q-28 37 -87 214q-15 22 -24 83v36q-4 29 -4 39v182l-8 206q0 63 1 112l-222 -44v-72q-21 -149 -21 -293q-8 -204 -8 -217v-92q-8 -59 -91 -170q-20 -12 -40 -12h-4q-48 0 -71 80q-20 0 -32 114v337q-12 75 -12 99z" />
<glyph unicode="&#xe028;" horiz-adv-x="455" d="M74 29v862q12 91 20 91q-4 65 -4 96v273q29 225 52 225q15 10 27 10q32 -3 32 -10l8 5h28q51 0 71 -91q15 0 24 -110v-1198q0 -239 -28 -239q0 -118 -71 -134h-16q-4 0 -4 4q-24 -19 -44 -19h-4q-70 0 -83 154q0 38 -8 81z" />
<glyph unicode="&#xe029;" horiz-adv-x="611" d="M-3 20v158q6 56 52 56q47 -10 47 -56v-134q15 -115 44 -115h27q17 28 36 214q20 63 20 217v381q-8 57 -8 63v150q-20 358 -36 499q-8 27 -8 42q-9 25 -17 57v8q0 70 64 79h4q89 0 178 -106q15 -38 16 -65l1 -7q55 -306 55 -427q12 0 12 -119v-551q0 -31 4 -83 q-12 -39 -16 -146q0 -96 -35 -194q0 -65 -95 -131q0 -18 -76 -32h-55q-39 0 -147 36q-51 39 -51 131q-16 42 -16 75z" />
<glyph unicode="&#xe02a;" horiz-adv-x="923" d="M74 -4v257q10 527 24 527v56q8 160 20 237v250q0 6 1 12q-4 19 -4 47v103q29 143 99 143h16q91 0 118 -143v-1q2 -8 3 -19v-79q0 -28 -7 -384v-261h1q17 37 99 126q47 68 154 420q67 141 91 214q23 75 75 75h24q55 0 55 -55v-12q0 -100 -106 -242q-15 -36 -52 -206 q-30 -81 -91 -150q-32 -37 -51 -99q-27 -43 -50 -68q96 -84 112 -114q29 -34 119 -222q1 -17 15 -56q24 -24 44 -88q25 -22 25 -62q26 -91 83 -174q21 -67 174 -238q58 -39 103 -47q7 4 16 4q27 0 40 -27q27 -14 27 -49q0 -38 -111 -103q-37 -12 -47 -12h-91 q-100 0 -214 115q-32 49 -50 81q-67 71 -108 200q-20 38 -60 198q-16 20 -27 111q0 2 1 4q-13 38 -22 83q-108 208 -175 282h-3v-40q-8 -119 -20 -293q0 -128 -56 -348q-35 -96 -79 -96q-2 -11 -32 -11h-4q-62 0 -75 99q-4 33 -4 55z" />
<glyph unicode="&#xe02b;" horiz-adv-x="624" d="M74 28v380q12 57 22 406.5t10 433.5l20 254q0 17 5 29q14 125 99 125q87 -22 87 -63q27 -40 44 -100q1 -1 2 -3q6 -19 9 -40q4 -1 4 -15v-6q3 -28 3 -58v-154q0 -126 -8 -198v-813q-13 -149 -25 -246q52 -11 81 -15h166q55 0 55 -56q-22 -67 -71 -67q-65 0 -127 4 q-59 -4 -122 -4q-73 8 -139 24q-71 7 -88 50q-22 55 -27 132z" />
<glyph unicode="&#xe02c;" horiz-adv-x="1321" d="M55 1453v64q8 115 68 115q36 0 83 -84q57 -140 119 -221q12 -23 12 -40v-3q3 -6 6 -13q71 -110 71 -154q111 -231 111 -289q17 0 43 -131q12 -3 40 -131q16 -21 28 -142h4q0 69 35 166q0 22 28 83q0 27 32 87q27 131 79 226q12 39 95 234l20 63q11 31 47 154q26 32 99 32 q24 0 79 -55q32 -37 32 -175q4 0 4 -59v-939q10 -23 10 -63q36 -225 79 -313q15 -69 107 -134q96 -56 135 -56h83q55 -6 55 -51q0 -46 -91 -56h-95q-74 24 -99 24q-71 0 -182 63q-93 50 -139 139q-11 0 -91 174q-39 171 -39 182v111q1 9 3 17q-1 3 -1 7v456q0 27 8 75 q-20 61 -20 142h-4q-56 -116 -87 -249q-28 -87 -28 -111l-36 -174l-19 -115q-8 -91 -28 -131q-32 -158 -64 -158q0 -9 -35 -12q-44 0 -79 99q-44 47 -143 313q-63 144 -83 245q-16 22 -56 175h-3v-357q0 -17 -8 -87q0 -190 -8 -364q4 -7 4 -20q-14 -44 -52 -44h-2 q-14 -12 -36 -12q-72 14 -72 72q0 23 40 451l-4 8q7 78 16 301q4 0 12 52v142q6 40 10 69v68q-7 17 -17 81q-68 191 -68 226q-7 0 -8 27z" />
<glyph unicode="&#xe02d;" horiz-adv-x="965" d="M-4 -206q0 10 55 95q44 84 44 151q11 52 14 98v1216q0 74 95 83h8q48 0 138 -213q32 -54 52 -135q11 0 16 -63q31 -86 59 -214q44 -133 79 -218q23 -81 72 -212h8q-9 90 -10 218q5 419 47 556q14 134 56 214q35 78 59 147q22 36 99 134q19 36 55 36q38 0 48 -52 q-8 -26 -59 -110q-32 -48 -44 -163q0 -23 -22 -172t-23 -1075q30 -140 65 -198q4 0 35 -64q39 -43 48 -43q89 -63 135 -63h55q46 27 63 27q38 0 48 -51q0 -51 -115 -87q-15 -4 -32 -4h-4q-185 0 -320 119q-29 16 -123 134q0 7 -63 91l-6 7q-28 25 -63 65q-53 71 -104 209 q-26 48 -103 234q-11 9 -39 87q-10 9 -40 149q-9 1 -16 31h-4v-4q3 -357 4 -575q-18 -237 -105 -373q-16 -23 -53 -41q-23 -21 -61 -22q-38 0 -48 51z" />
<glyph unicode="&#xe02e;" horiz-adv-x="890" d="M44 437q0 450 12 534v75q0 58 38 167q0 101 44 186q14 74 39 115q108 119 163 119h67q147 0 214 -84q26 -13 43 -51q56 -48 56 -63q47 -130 47 -147l32 -158q3 -88 3 -167q0 -890 -140 -1053q-128 -133 -255 -133q-70 0 -119 32q-120 56 -184 218q-48 83 -57 283 q-3 67 -3 127zM328 281l31 -162q5 0 36 -75q70 -76 111 -80q151 0 154 1030v129q-12 162 -35 209q-14 33 -32 95q-45 62 -79 75h-40q-32 -13 -63 -55q-40 -101 -40 -199q-16 -23 -27 -241q-16 -59 -16 -83v-643z" />
<glyph unicode="&#xe02f;" horiz-adv-x="765" d="M66 51l8 761q0 76 16 127l-4 27v60q0 287 32 475q4 49 4 51l-4 24q12 44 55 56l8 -4l24 -4q37 -3 73 -94q44 38 114 74q60 20 71 20h32q72 0 123 -64q10 0 19 -23q11 -10 23 -24q32 -31 72 -178v-361q0 -25 -44 -146q-27 -60 -36 -72q-83 -141 -142 -150 q-56 -38 -139 -52q-55 -4 -55 -11q0 -14 -20 -123l-8 -329q-16 -197 -32 -285q-6 0 -23 -71q-21 -44 -60 -44h-8q-73 0 -83 95q0 8 -8 155v35q-8 68 -8 75zM314 1416l2 -6q13 -131 13 -416q0 -72 -1 -154q-12 -47 -12 -107v-88q62 0 138 48q23 38 24 79q14 0 32 103v456 q0 44 -5 78q-9 17 -18 40q-4 0 -32 24q-21 4 -35 4h-16q-55 0 -90 -61z" />
<glyph unicode="&#xe030;" horiz-adv-x="957" d="M74 469q0 374 20 502v75q0 58 48 167q0 101 43 186q15 74 40 115q108 119 162 119h67q148 0 214 -84q27 -13 44 -51q55 -48 55 -63q48 -130 48 -147l31 -158q3 -88 3 -167q0 -815 -139 -979q-21 -21 -42 -38q16 -17 36 -63q35 -19 99 -71q32 -3 44 -20q23 -8 48 -18 q53 -31 166 -63q30 -8 56 -8h87q55 -6 55 -51q-11 -52 -71 -52q0 -8 -79 -16h-40q-174 20 -206 52q-80 15 -207 126q-40 21 -83 50q-29 26 -45 50q-37 -10 -74 -10q-70 0 -118 31q-120 57 -194 218q-48 83 -48 198q-5 0 -16 154q-4 0 -4 16zM375 356l32 -162q5 0 36 -74 q27 -30 51 -49q-7 35 -7 44q0 37 52 47q46 0 60 -96q106 130 109 929v129q-12 161 -36 208q-14 34 -31 95q-45 62 -80 75h-39q-33 -13 -64 -55q-39 -101 -39 -199q-16 -23 -28 -240q-16 -59 -16 -83v-569z" />
<glyph unicode="&#xe031;" horiz-adv-x="890" d="M109 685q8 76 8 107q0 128 12 198l-12 103v27h1q-1 6 -1 13v87l28 134q45 123 106 123h8q64 -13 64 -51h4q52 39 119 39h11q81 -11 135 -47q34 -33 52 -61q9 -7 18 -15q0 -4 36 -35q35 -41 51 -119q32 -92 32 -170v-79q0 -151 -71 -234q-52 -85 -159 -134 q79 -77 111 -135q0 -9 27 -81q24 -27 44 -98q93 -185 126 -237q46 -108 107 -182q33 -27 72 -80q39 -42 110 -55h56q2 0 59 12q38 0 48 -52q0 -48 -87 -55l-72 -16h-75q-115 12 -178 36q-159 70 -234 218l-139 308q-8 30 -19 68q-45 159 -77 229v5q-21 37 -29 39q0 12 -8 12 q-16 -4 -28 -4v-28q-39 -340 -39 -463v-12q0 -7 -3 -17v-3q0 -87 -56 -123l-27 -4h-8q-65 0 -86 63q-14 18 -14 44v60l-5 41q-7 23 -7 30v32q8 228 8 233v193q-7 13 -7 33q-12 68 -12 103zM349 1307q8 -81 13 -214q15 -155 15 -391q-4 -46 -4 -100q55 10 98 57q33 39 52 91 q9 33 11 118t2 158v39q0 6 -8 95v44q-8 24 -16 40q-2 4 -4 9l-2 4q-6 17 -9 38q-20 59 -79 59q-18 -3 -69 -47z" />
<glyph unicode="&#xe032;" horiz-adv-x="770" d="M37 265q13 44 51 44q52 0 52 -111v-71q0 -17 39 -127q28 -79 95 -79h16q73 0 135 115v273q0 51 -44 218q-71 154 -111 206q-75 91 -119 257v63q-7 68 -7 76v206q27 142 43 142q100 135 166 135h56q52 -17 123 -28q37 0 87 -55q40 -52 63 -171v-293q-7 -91 -59 -91h-4 q-48 8 -48 60q12 35 12 59v249q-23 147 -95 147l-20 4q-40 -25 -55 -40q-16 -42 -28 -313q27 -139 60 -201q21 -44 51 -88q50 -94 127 -265q35 -62 47 -166v-400q0 -67 -63 -170q-92 -72 -99 -72q-36 -16 -87 -16h-28q-117 0 -234 76q-58 72 -83 158q-35 63 -35 190 q-4 54 -4 79z" />
<glyph unicode="&#xe033;" horiz-adv-x="628" d="M-14 1532q10 47 56 47h51q106 0 147 -8q6 0 63 16q250 4 348 4q52 -9 52 -52q-13 -75 -48 -75q0 -4 -15 -4h-115q-26 0 -56 8v-799q-12 -123 -20 -293v-83l-19 -222q-12 -41 -28 -233q-11 -19 -20 -87q-45 -76 -71 -76h-4q-91 0 -91 103v28q12 48 12 67v1583 q-40 -4 -60 -4h-111q-50 0 -71 80z" />
<glyph unicode="&#xe034;" horiz-adv-x="814" d="M74 1213l20 174q13 0 24 103q30 166 138 166q67 0 80 -115q10 -49 19 -118q4 0 4 -16v-36q-11 -44 -19 -88q-3 -69 -5 -177q-7 0 -8 -127v-804q0 -61 51 -229l48 -76l39 -9q8 2 17 5q21 21 37 34q41 86 41 192l6 29q4 172 11 201q-4 41 -4 67l-9 667q2 58 4 63v407 q14 79 76 79q6 -2 11 -4q61 -5 61 -174q0 -134 8 -202q0 -19 -5 -93q-9 -97 -12 -743q-15 -43 -28 -234q-2 -3 -3 -7q-1 -110 -26 -157q-2 -16 -3 -34q-19 -44 -35 -99q-30 -70 -91 -106q-65 -28 -178 -28h-4q-92 0 -151 63q-95 177 -95 301q0 65 -16 155v926q-3 19 -3 44z " />
<glyph unicode="&#xe035;" horiz-adv-x="779" d="M74 1443v99q0 50 54 71q17 13 43 13h24q67 0 111 -92q36 -191 36 -229v-16q0 -2 -1 -3q12 -82 20 -210q11 -14 32 -127q24 -53 36 -491q18 -41 61 -270l16 -55q10 0 32 182q11 0 11 87v471q0 69 16 111v40q0 22 20 154v87q16 289 32 289q23 64 99 64q39 0 55 -68 q0 -19 -43 -289q0 -54 -44 -313q-16 -67 -24 -510q-16 -115 -39 -234q-8 -74 -44 -261q-45 -123 -63 -123q-16 -24 -71 -24q-101 0 -127 71q-28 98 -71 218q0 45 -40 123q-20 56 -36 174q-15 51 -35 507q-11 31 -20 115q-10 0 -16 206q-15 0 -24 233z" />
<glyph unicode="&#xe036;" horiz-adv-x="1254" d="M74 1556q0 28 19 44q21 66 70 73q65 0 99 -58q40 -43 87 -278q20 -39 20 -67q10 -291 46 -534q0 -85 67 -559h4q0 13 32 199q0 21 31 199q0 26 16 77v50q0 33 12 140v166l16 135v210q-4 14 -6 33v5q0 121 63 209q21 15 40 15h28q48 0 95 -78l20 -93v-7q6 -74 13 -192 q24 -144 48 -379q16 -86 24 -184q15 -14 47 -185q32 -235 32 -250h4q20 38 59 576q0 47 16 160q8 102 8 336v49q-4 17 -6 38q0 6 -8 53v78q27 126 107 126q40 -15 54 -42q15 -19 15 -50v-117q0 -25 -19 -170q-40 -287 -40 -451l-32 -214v-156q-8 -107 -23 -180 q-20 -103 -32 -262q-17 -41 -40 -160q-48 -78 -83 -78h-20q-30 0 -79 49q-34 49 -43 97q-14 14 -64 185q-59 287 -59 330q0 23 -28 320v30h-4q-12 -294 -47 -404q-12 -95 -36 -145q-8 -39 -8 -83v-43q-28 -118 -44 -244q-37 -77 -130 -77h-40q-81 0 -107 184q-11 19 -35 224 q-15 0 -28 234q-13 0 -28 222q-24 133 -39 297v68q-16 40 -16 102q-19 152 -34 338q-8 21 -8 51q0 5 1 10q-7 14 -7 28z" />
<glyph unicode="&#xe037;" horiz-adv-x="781" d="M-4 1620q8 47 59 47q35 0 52 -55q19 -31 40 -48l63 -119l4 -15q24 -16 35 -48q70 -110 99 -178q12 -5 36 -83q36 -45 60 -127q5 0 19 51q14 13 80 155q59 110 91 198q10 26 24 39q13 39 23 84q35 95 48 111q25 11 39 11q56 -6 56 -51l-4 -36l4 -23q-18 -27 -24 -88 q-27 -63 -53 -89q-24 -73 -169 -318q-51 -114 -59 -151l-16 -16l51 -119q0 -24 68 -174q35 -94 79 -261q39 -86 51 -166q8 -17 16 -40q10 -13 60 -162q65 -119 134 -191q60 -49 151 -83l24 -4q25 4 51 4h8q23 0 43 -16h4q8 0 40 8q48 -10 48 -55q0 -56 -103 -56h-16 q-6 0 -64 8h-63q-45 0 -218 76q-110 56 -170 162q-102 118 -131 182q-9 0 -19 23l-1 1q-29 31 -31 82l-2 6q-9 8 -18 43q-68 97 -103 190q-26 91 -63 142q-32 -68 -76 -186q-104 -240 -146 -325q-26 -11 -40 -11q-39 0 -59 71q8 72 79 186q72 115 123 249q24 80 43 80l32 71 q-51 103 -51 127q0 15 -32 99q0 13 -71 213q0 11 -16 57q-21 20 -32 66q-35 54 -35 159q-44 110 -44 162v24q0 25 4 79q-9 0 -12 28z" />
<glyph unicode="&#xe038;" horiz-adv-x="743" d="M-285 1675q14 48 47 48q35 0 119 -40q11 0 103 -51q105 -44 163 -151l1 -2q37 -18 72 -101q39 -20 39 -71q53 -98 84 -230q0 -8 47 -127l40 -146v-41q7 -34 16 -78v-4q17 51 58 143q0 19 32 107v4q0 15 23 99q0 26 56 162q0 9 39 115q31 134 95 134h8q56 -6 56 -51v-4 q-6 -33 -71 -190q0 -36 -80 -206q0 -17 -27 -71q0 -16 -28 -95q-20 -84 -52 -135q-8 -35 -67 -194q0 -16 -4 -27q16 -91 32 -187q4 -11 4 -59v-64q0 -12 3 -115q-9 -106 -75 -176h-43q-85 15 -103 161q-8 21 -8 122v103q12 127 12 206v12q-40 42 -59 139q-17 11 -28 95 q-14 0 -40 146q-31 76 -103 345q-37 102 -47 141q-19 33 -37 89q-37 86 -79 110q-49 32 -186 95q-12 26 -12 40z" />
<glyph unicode="&#xe039;" horiz-adv-x="591" d="M-9 -127q16 99 40 159q0 52 27 115q29 272 45 336q0 22 55 210q48 152 48 154q8 0 40 131q34 42 73 390q20 67 27 139q-55 -16 -79 -16h-154q-56 6 -56 51q10 48 56 48h146q126 24 143 24h115q41 0 55 -44q-4 -206 -24 -206q-11 -62 -27 -115q-10 -231 -85 -417l-76 -250 q-15 -91 -19 -146q-9 -8 -49 -297q-7 -7 -36 -119q-20 -42 -35 -123v-12h47q22 0 76 12h154q55 -6 55 -51q-9 -48 -55 -48h-119q-108 -12 -119 -12h-114q-37 0 -103 -4q-52 18 -52 64v27z" />
<glyph unicode="&#xe03a;" horiz-adv-x="803" d="M47 239v265q43 237 91 325q72 141 87 150q66 51 142 60h36q59 0 117 -62q75 89 136 89q60 -5 60 -59q0 -13 -12 -91q-12 -34 -12 -123l-8 -50l-13 -191l-3 -203q0 -20 -7 -79q12 -25 17 -71q17 -37 24 -72q28 -56 50 -175q-10 -47 -55 -47q-84 24 -115 71q-38 57 -55 93 q-6 9 -11 19q-29 45 -41 110q-9 30 -14 65l-3 49q-14 -36 -30 -82q-12 -17 -25 -26l-32 -64q-39 -75 -81 -99t-69 -24h-60q-50 0 -79 51q-27 0 -35 171zM272 187q2 -6 3 -12q4 6 9 12q33 73 60 128t52 125q22 36 56 133l18 188q0 47 16 131q-13 24 -61 37q-31 -4 -58 -76 q-12 -39 -51 -191q-7 -135 -24 -186q-12 0 -20 -170v-119z" />
<glyph unicode="&#xe03b;" horiz-adv-x="894" d="M69 507v103l24 218v15q0 19 -4 40q12 66 33 370q20 104 31 206q50 171 76 202q48 64 107 64q57 0 79 -95q-13 -55 -32 -84q-10 -49 -19 -126q-4 -4 -8 -68q0 -24 -62 -791q-2 -46 -3 -98q0 -91 9 -197q5 87 56 238q26 97 71 186q5 31 21 52q110 236 240 236 q80 0 119 -182v-196q-17 -166 -23 -190q-26 -98 -72 -176q0 -11 -46 -115q-98 -131 -150 -200q-35 -40 -81 -49q-3 -6 -7 -13q-26 -11 -40 -11h-4q-55 6 -55 51q0 22 75 95q0 10 97 151q14 33 28 56q59 171 78 355v72q-17 122 -26 122q-13 0 -28 -9q-81 -109 -91 -182 q-36 -68 -37 -124q-75 -199 -75 -363q8 -48 8 -82v-8q-3 -48 -70 -56q-38 1 -59 26q-28 10 -60 94q-45 114 -67 223q-4 23 -7 52q-9 31 -14 77q-11 27 -12 111z" />
<glyph unicode="&#xe03c;" horiz-adv-x="647" d="M38 253q12 308 24 350v51q0 61 87 274l88 114q48 29 132 44q0 8 44 8q111 0 134 -44q24 0 48 -118v-28q-6 -45 -14 -72q-15 -61 -51 -79l-8 -4h-32q-32 11 -32 92v8q-2 8 -2 19v87q0 9 -15 40h-40q-95 -174 -95 -321q-11 -23 -33 -369q-7 0 -8 -67v-44q16 -101 44 -154 q0 -32 87 -44q51 15 79 63q59 72 101 72q9 0 18 -3q15 -7 16 -25q0 -37 -67 -123q-57 -77 -159 -107q-42 -8 -55 -8h-76q-120 0 -176 143q-39 127 -39 245z" />
<glyph unicode="&#xe03d;" horiz-adv-x="785" d="M49 246q0 153 15 226q30 198 34 253q9 1 28 91q86 178 186 178q0 4 24 4h43q43 0 104 -17l5 -7q4 25 11 64l26 250q16 56 23 127q12 55 80 186q38 83 107 83q47 -10 47 -55q0 -72 -32 -234q0 -37 -15 -103l-26 -278q-20 -143 -20 -230q0 -64 -12 -94q-6 -258 -9 -363 v-147q0 -109 32 -179q20 -45 34 -70q4 -5 5 -13q-1 -11 -6 -22q-6 -10 -17 -17q-26 -24 -52 -24h-8q-121 0 -166 135q-10 12 -24 111v139h-4q-63 -140 -87 -226q-12 -17 -35 -87q-44 -75 -95 -75h-32q-82 0 -139 67q-24 52 -24 95v123q-1 58 -1 109zM252 57q4 -51 12 -51 q28 71 52 150l79 171q11 9 55 154q16 181 20 220v20q0 83 8 130l-24 36q-26 -4 -43 -4q-87 -188 -87 -238q-10 -8 -29 -190q-12 -50 -15 -180q-20 -93 -20 -154q0 -53 -8 -64z" />
<glyph unicode="&#xe03e;" horiz-adv-x="643" d="M47 260q0 76 4 168q4 136 16 178v51q0 61 87 274l88 114q48 29 132 44q0 8 44 8q111 0 134 -44q24 0 48 -118v-56q-12 -118 -103 -265q-42 -42 -166 -115q-24 -8 -44 -15v-5q-7 0 -8 -67v-44q0 -305 28 -358q0 -32 87 -44q52 15 79 64q58 70 99 71q10 0 20 -3 q16 -7 16 -26q-1 -36 -67 -122q-57 -77 -159 -106q-42 -8 -55 -8h-85q-111 0 -167 142q-28 91 -28 282zM297 594q55 28 81 67q83 93 83 202v95q0 9 -15 40h-40q-95 -174 -95 -321q-7 -14 -14 -83z" />
<glyph unicode="&#xe03f;" horiz-adv-x="630" d="M66 907q0 32 44 47q27 -4 43 -4h12q35 108 48 289q5 0 12 107q74 165 130 230q39 36 99 46l70 -3q28 -7 61 -41q43 -22 67 -77v-8q-9 -48 -55 -48q-25 0 -55 36q-68 -24 -80 -178q-35 -138 -35 -194v-64q0 -53 -8 -87h119q16 0 43 4q44 -14 44 -51q0 -44 -60 -52h-158 v-16q-61 -484 -61 -534q0 -108 -2 -294q2 -7 2 -15l-35 -190q-6 -76 -48 -131q-23 -16 -43 -16h-8q-60 0 -71 91q-16 103 -32 317v56q1 7 2 12l-11 87v174q0 36 16 123l26 320l4 8q-80 0 -80 56z" />
<glyph unicode="&#xe040;" horiz-adv-x="910" d="M44 -95q0 56 63 67h16q59 -8 59 -59v-56q-8 -54 -8 -130v-44q0 -28 55 -64q33 1 81 13q35 25 70 57q31 31 66 172q24 29 47 143q16 91 26 178l2 25l4 28q-3 0 -107 -72q-39 -32 -119 -55h-55q-115 0 -147 99q-40 91 -40 182q0 79 16 392q0 132 60 230q46 109 158 162 q26 8 36 8h71q48 0 131 -55q31 -22 40 -34q27 -16 50 -81q75 148 163 158h4q44 -12 44 -59q11 -83 11 -171q0 -19 -1 -39q-6 -162 -36 -385q0 -56 -8 -167.5t-16 -115.5v-50q0 -97 -28 -142q0 -52 -75 -206l-127 -206q-6 0 -55 -44q-54 -46 -95 -55q0 -9 -36 -12l-42 -8 q-7 -1 -14 -1q-17 0 -31 4q-24 5 -43 5q-45 0 -99 47q-17 0 -44 58q-31 34 -47 132v151zM303 448q23 -162 95 -162q4 0 12 -4q56 27 127 103q7 62 7 107l16 305q0 26 1 45q-4 15 -7 34q-11 55 -28 96q-22 35 -45 63q-7 4 -16 4h-51q-26 0 -68 -119q0 -10 -27 -167z" />
<glyph unicode="&#xe041;" horiz-adv-x="809" d="M74 380v115q0 8 8 40q0 226 36 427q3 63 39 299q2 104 60 271q0 40 87 106q15 8 32 8h47q56 0 56 -55v-16q-16 -216 -44 -277l-4 -20v-36q-26 -370 -57 -505q-5 -30 -7 -44l5 -17v-10q2 -8 2 -17q0 -8 -3 -16q-3 -101 -15 -209v-4h4q16 77 43 154q102 268 151 309 q17 48 71 79q0 12 79 32h20q60 0 83 -83v-380q0 -27 -4 -91q0 -105 13 -345l16 -225q0 -32 24 -142q-10 -48 -56 -48q-93 27 -142 83q-64 87 -64 226q-7 0 -8 48v23q-19 242 -19 343q0 43 4 60q7 71 7 159v12l6 85l-26 -34q-56 -112 -99 -269q-44 -164 -68 -218 q-41 -98 -43 -174q-44 -52 -83 -52h-20q-65 0 -79 52q-36 98 -36 194q-16 77 -16 162z" />
<glyph unicode="&#xe042;" horiz-adv-x="470" d="M78 684q6 66 6 73l-3 65q1 26 3 51l-1 27q16 135 63 138q0 7 105 22q74 -3 101 -59q18 -47 19 -63q-6 -141 -33 -293q-9 -65 -12 -138l4 -96q-4 -42 -6 -85l3 -68l2 -18q10 -32 14 -88q0 -58 35 -202q0 -5 32 -32q12 -20 12 -37q-15 -64 -79 -64q-124 16 -178 157 q-15 39 -46 161q-20 152 -23 194q-12 191 -13 217zM92 1320v8q0 66 91 103q5 4 28 4h79q52 0 79 -56q28 -18 28 -51v-56q0 -43 -59 -107q-30 -20 -107 -20q-47 4 -99 44q-40 48 -40 131z" />
<glyph unicode="&#xe043;" horiz-adv-x="521" d="M-41 -363q0 99 56 99q47 -11 47 -61v-38q0 -18 37 -34q50 18 53 51q5 8 17 74q0 35 -3 73q-30 326 -30 349v43q10 291 10 351l-10 108q-8 75 -8 83v174q4 51 49 121q14 21 44 21h51q76 0 99 -69q40 -128 40 -247q4 0 12 -91v-43q-14 -205 -28 -325q12 -61 12 -65v-13 q0 -69 4 -233q-4 -65 -16 -125v-74q0 -12 -24 -78q0 -78 -99 -164q-72 -40 -142 -50q-13 -7 -28 -7h-20q-41 2 -95 57q-28 90 -28 113zM74 1292v40q13 126 64 126q0 4 15 4q24 -4 24 -12q39 24 75 24q88 0 139 -87l4 -28q0 -95 -32 -115q-45 -83 -130 -83h-20q-92 0 -131 87 q-8 16 -8 44z" />
<glyph unicode="&#xe044;" horiz-adv-x="814" d="M69 289v333q12 103 36 225q0 70 16 103q40 525 67 525q14 62 40 96q20 57 117 94q21 8 55 8q31 0 52 -59l-16 -73q-28 -32 -28 -66q-8 -2 -21 -36q-7 -40 -21 -87q-6 -40 -12 -342q-7 0 -15 -200l-20 -184l5 -108l-5 -154h4l138 325q25 62 68 127q0 19 79 99q37 47 43 47 q31 60 84 60q51 0 51 -91q0 -32 -63 -72q-102 -72 -139 -142q-19 -31 -43 -103v-8q38 -41 80 -241l172 -395q19 -47 35 -78q9 -14 22 -29l31 -26q-51 -49 -104 -49h-8q-51 0 -111 48q-171 269 -209 398q-31 89 -31 99h-4q-20 -67 -56 -151q-12 -33 -31 -63q0 -45 -36 -115 q-39 -48 -75 -48h-4q-77 0 -107 119q-15 49 -36 214z" />
<glyph unicode="&#xe045;" horiz-adv-x="460" d="M74 554q0 51 12 127v91q0 15 10 53q18 285 48 363q0 22 35 198q0 16 36 99q11 35 28 55q31 91 95 127q74 16 110 16q8 0 20 -40l-23 -66q-19 -17 -40 -112q-3 -5 -7 -12q-26 -110 -27 -134q4 -22 4 -44q-20 -80 -24 -190q-3 0 -38 -301q5 -110 5 -146q-1 -370 -1 -443 v-20q0 -200 47 -241q8 -35 8 -48q0 -11 -4 -20q-7 -55 -59 -55h-28q-38 0 -50 27q-30 10 -67 44q-47 54 -47 131q-28 44 -28 269z" />
<glyph unicode="&#xe046;" horiz-adv-x="1232" d="M85 867v52q20 95 79 95q54 0 99 -44q36 -59 36 -158q12 0 28 -174q8 0 8 -40v-83q0 -14 -4 -36v-4h4q27 57 39 131q21 8 32 103q51 166 51 174q52 87 111 87h20q107 -22 107 -71q16 -19 36 -194v-67q-20 -14 -20 -222v-4h4q27 56 55 138q28 34 87 234q61 103 99 103 q29 32 80 32q102 0 102 -246v-305q-15 -141 -25 -195q2 -7 4 -15q-4 -68 -4 -79q17 -196 54 -300q8 -37 8 -66q0 -86 -73 -87h-12q-123 60 -180 252q-29 189 -29 229v166q0 5 -8 44v210h-4q-36 -99 -63 -155q-64 -136 -64 -162q-56 -86 -87 -234q-6 -4 -23 -47 q-36 -24 -56 -24q-66 0 -83 79q-12 27 -12 44v158q0 34 20 135q0 54 8 380h-4q-10 -77 -32 -131q-10 0 -20 -75q-48 -92 -83 -234q-7 -7 -35 -103q-7 0 -40 -110q-52 -88 -107 -88q-51 0 -87 84q-8 94 -8 170q1 75 8 75q-4 47 -4 67v317q0 17 4 44q-16 67 -16 150z" />
<glyph unicode="&#xe047;" horiz-adv-x="903" d="M85 123q0 106 4 586q17 209 48 281q24 28 43 28q73 0 99 -32q42 -83 42 -184q8 0 8 -152q0 -147 -39 -334l17 39q63 222 127 382q13 16 35 75q71 124 79 127q47 55 135 55h24q45 0 75 -59q8 -16 8 -44v-40q12 -14 12 -35v-95q-20 -128 -20 -143v-78q10 -16 10 -41v-51 q-8 -39 -8 -44v-16q-8 -340 -8 -380l32 -134q51 -95 51 -119q0 -38 -51 -48q-10 0 -99 56q-23 3 -75 83q-36 47 -72 222q-8 35 -8 67q0 44 -4 250q5 28 10 84h-1q1 36 1 78q10 63 10 118q0 32 -10 75q-29 -9 -87 -150l-67 -249q-36 -67 -63 -162q-14 -11 -48 -103 q-25 -72 -51 -72q0 -8 -40 -8h-4q-73 0 -95 64q0 14 -20 103z" />
<glyph unicode="&#xe048;" d="M47 390q19 42 19 166q24 62 24 119q27 107 83 107v40q0 61 64 138q20 24 83 60q18 20 75 20h44q106 0 229 -151q28 -68 28 -87v-226l-48 -321q-14 -82 -51 -178q0 -47 -87 -150q0 -24 -83 -72q-28 -7 -48 -7h-16q-101 7 -142 27q-87 56 -87 79q-36 29 -64 147 q-8 40 -8 79v163zM272 774q76 -51 81 -104q1 -4 1 -9q-1 -57 -42 -223q0 -46 -8 -270q26 -42 36 -95q24 -32 71 -47h12q0 5 43 39q16 16 40 72q14 0 39 111q12 62 40 308q-9 100 -16 143q-8 0 -31 99q-97 111 -155 111h-39q-29 0 -60 -60q-12 -19 -12 -31v-44z" />
<glyph unicode="&#xe049;" horiz-adv-x="883" d="M47 -199l5 286q12 80 16 515l12 24q5 257 65 438q44 79 87 79h16q43 -1 72 -65q6 -56 10 -138q2 -24 2 -55q-5 -138 -6 -164l55 99q22 16 87 111q20 7 99 59l40 4h12q170 0 170 -269v-66q6 -10 6 -21q0 -111 -28 -183q0 -48 -51 -229q-15 -37 -28 -66q-9 -46 -74 -109 q-98 -51 -159 -51h-19q-106 9 -160 94q-19 -226 -21 -347q-42 -227 -78 -227q-62 0 -99 103q-31 112 -31 178zM286 201q13 -39 39 -62q20 -17 55 -24q57 0 83 55q23 29 48 94q7 31 15 77q17 18 39 162v91q0 3 1 6q-6 124 -42 160q-78 0 -151 -174q-20 0 -59 -162 q-12 0 -26 -208z" />
<glyph unicode="&#xe04a;" horiz-adv-x="776" d="M47 366v4q0 180 15 230q8 86 48 242q11 10 39 79q7 0 32 59q78 91 87 91q50 28 83 28h52q70 -12 129 -80q47 112 116 116q17 0 44 3q44 -13 44 -55q0 -37 -44 -174q-15 -98 -28 -226q-7 0 -8 -28v-47q-12 -130 -39 -277q-8 -71 -8 -87v-430q0 -43 22 -85l35 -70 q10 0 56 -55q12 -17 12 -32q0 -47 -95 -71q-61 0 -96 43l-1 -1q-16 12 -32 33q-67 74 -67 143q0 25 -24 115q-4 52 -4 111v342h-4q-38 -56 -67 -127q-6 0 -40 -59q-43 -40 -71 -40h-8q-117 0 -155 139q-4 58 -23 166zM272 251h4q0 20 56 95q0 20 75 191l55 138q20 59 28 160 q5 66 6 71q-36 58 -47 60q-10 8 -22 10h-4q-26 -34 -44 -83q-14 -20 -35 -111q-9 0 -28 -111q0 -35 -16 -75q-12 -76 -28 -269v-76z" />
<glyph unicode="&#xe04b;" horiz-adv-x="760" d="M85 182v143q0 6 8 63l-3 55q1 60 8 170.5t15 206.5v51q0 143 35 143q0 7 56 12q36 0 78 -87q20 -39 21 -231q53 292 93 320q29 56 127 87h39q6 0 11 -1q5 1 9 1q82 0 85 -75q16 -52 16 -119v-28q0 -13 -5 -40q6 -45 25 -95q53 -21 53 -47q-9 -52 -75 -52q-21 -4 -79 -4 q-97 13 -127 71q-1 2 -1 4q-9 17 -10 39q-2 10 -3 21v48h-4q-5 60 -7 102q-38 -40 -38 -71q-28 -42 -60 -342q0 -28 -19 -139v-71q-12 -72 -16 -147q-3 -7 -10 -27l-11 -127q-23 -28 -52 -60l-28 -4h-32q-22 0 -67 64q-16 0 -24 119q-7 0 -8 47z" />
<glyph unicode="&#xe04c;" horiz-adv-x="577" d="M58 124q0 45 56 51q32 0 47 -43q-4 -27 -4 -44q19 -107 99 -107h1v1l3 -1l24 4q30 15 30 40q0 20 -16 71q-10 58 -79 200q-115 221 -115 244q-32 81 -32 225l28 175q53 98 107 146q91 67 123 67h4q133 0 162 -39q30 -4 59 -64q28 -67 28 -103v-19q0 -61 -36 -99 q-14 -12 -35 -12q-38 0 -48 51q0 8 4 8l-4 28v51q-9 48 -59 48q-75 -36 -75 -56q-20 0 -20 -83q-4 0 -4 -23v-60q0 -79 71 -230q13 -17 56 -142q8 -24 35.5 -102.5t27.5 -155.5v-99q0 -41 -75 -138q-43 -28 -108 -34q-16 -7 -37 -10h-20q-122 31 -128 52q-70 69 -70 202z " />
<glyph unicode="&#xe04d;" horiz-adv-x="578" d="M29 923q0 25 47 63q43 11 79 20q10 108 66 361q9 60 39 167q42 114 64 114q56 32 63 32q59 -13 59 -59q11 0 24 -80q-49 -454 -69 -507q65 9 76 10q31 16 44 16h20q5 0 23 -23v-24q-4 -56 -68.5 -73t-98.5 -17v-24q-12 -56 -26 -192q-13 -115 -13 -407q-3 -116 -3 -173 q4 -18 4 -42q0 -49 48 -142q46 -44 138 -44q28 -21 28 -51q0 -52 -130 -72h-24q-192 0 -258 147q-43 55 -43 119q-12 3 -12 194q0 65 2 497q0 31 16 130h-20q-71 0 -71 52z" />
<glyph unicode="&#xe04e;" horiz-adv-x="863" d="M41 542q19 282 35 316q30 134 61 182q0 4 1 8q25 56 75 56q131 0 138 -107v-16q-18 -131 -43 -257q-21 -113 -36 -333q-4 -45 -4 -87q0 -59 8 -111q3 -20 12 -20q60 51 107 238q27 64 61 329q13 103 23 175q62 187 135 202q26 2 51 3q75 -8 75 -56v-24q-12 -44 -24 -158 q-4 0 -4 -16v-12q8 -12 8 -31q-28 -225 -28 -337v-111q12 -48 24 -142q1 -28 59 -111v-12q-12 -52 -67 -52q-39 0 -119 40q-101 120 -113 216l-30 -64q-30 -64 -75 -136q-64 -67 -111 -67h-59q-73 0 -115 102q-5 23 -8 47q-13 34 -22 88q-9 8 -11 52q0 84 -4 206z" />
<glyph unicode="&#xe04f;" horiz-adv-x="726" d="M29 1097q0 45 55 51h32q69 -10 120 -73q41 -42 54 -129q18 -50 23 -104l19 -228q10 -86 68 -325q82 272 89 353l36 95q0 18 19 134q0 15 8 83q-11 22 -19 99v24q11 95 94 103q66 -7 92 -115v-79q0 -48 -48 -242q-20 -35 -43 -118q-33 -63 -44 -119q-49 -230 -83 -254 q-38 -74 -75 -154q-39 -77 -121 -93q-11 0 -24 1q-61 6 -61 80q-118 394 -118 471v32q-17 48 -32 202v67q-6 39 -12 108q-8 17 -13 43q-16 0 -16 87z" />
<glyph unicode="&#xe050;" horiz-adv-x="1168" d="M31 585q0 91 9 203v107q5 89 21 126q23 107 56 107q41 23 63 23h24q38 0 87 -43q21 -35 22 -76q0 -9 -1 -18q-35 -146 -38 -494v-87q26 -258 44 -258l62 100q44 163 49 221v340q13 53 23 194q67 67 131 67h20q55 0 75 -91v-12q0 -125 8 -444.5t91 -399.5h12q0 10 55 76 q0 25 56 150q0 17 18 44q26 73 56 392q3 35 8 35q-17 166 -51 218q-40 77 -40 95v48q0 55 55 55h28q79 0 123 -123q12 -48 12 -67v-210l-48 -479q-15 -21 -29 -35q-31 -87 -65 -143q-3 -7 -6 -15q-29 -72 -77 -136q-13 -33 -87 -59h-52q-47 3 -126 40q-111 84 -111 126 q-4 0 -33 82q-1 4 -3 6q-27 -108 -65 -181q-18 -34 -56 -73q-45 -70 -81 -70h-55q-65 0 -111 83q-63 154 -63 408q-10 72 -10 168z" />
<glyph unicode="&#xe051;" horiz-adv-x="730" d="M-24 1133q0 37 52 47q4 0 12 -4l19 4q106 -28 139 -79q39 -38 58 -60q36 -21 56 -95q14 -11 47 -154q17 -23 44 -115h4q21 40 111 182q12 60 87 163q13 35 63 35q38 0 48 -51q0 -20 -32 -48l-119 -257q-92 -168 -99 -190q40 -85 72 -166q6 -29 13 -53q35 -35 72 -145 q26 -51 73 -90q34 -10 68 -89q39 -49 87 -59q102 -67 143 -79q16 -24 16 -44q0 -46 -79 -51h-8q-40 0 -285 103q-92 55 -115 107q-25 0 -48 43q-14 18 -23 35q-46 54 -95 172q-6 13 -12 32q-3 7 -5 15q-10 1 -20 39q-9 -8 -24 -51q-52 -56 -123 -206q-14 -4 -63 -40l-20 -4 q-40 0 -55 68q0 14 27 47q0 18 44 79q3 20 71 99q0 9 32 56q20 51 51 95q-39 96 -71 190q-86 169 -87 198q-16 15 -49 131q-1 2 -2 3q-8 11 -15 44q-48 38 -48 107q-12 0 -12 36z" />
<glyph unicode="&#xe052;" horiz-adv-x="835" d="M41 502q0 85 16 200q5 34 30 224q7 37 14 65q8 80 78 138q21 11 40 11h24q114 -11 114 -110v-12q0 -46 -10 -73q0 -19 -1 -41q-38 -223 -60 -536l2 -27q4 -60 25 -75q148 94 159 392q15 212 23 292q-1 10 -1 21q-8 0 -8 48q0 134 75 134h4q86 0 155 -107q23 -72 23 -95 q0 -10 -3 -17l-1 -166l8 -119v-186l-9 -239q-21 -164 -25 -180l-29 -157q-29 -135 -70 -187q-37 -86 -148 -161q-15 -12 -30 -21q-30 -24 -77 -33q-21 -4 -35 -4h-16q-73 0 -115 10q-30 11 -46 24q-59 18 -88 101q0 38 52 47q116 -33 134 -35q96 17 106 51q11 19 23 32 q17 38 42 98q28 95 34 189q11 17 18 196l8 99q-128 -171 -240 -178q-46 0 -89 33q-76 53 -83 149q-13 20 -14 54l-7 99q-2 25 -2 52z" />
<glyph unicode="&#xe053;" horiz-adv-x="563" d="M13 9q19 159 67 355q0 16 52 175q7 26 36.5 116t50.5 129q28 63 47 139h-142q-56 6 -56 51q10 48 56 48q229 8 301 8q91 0 91 -60q0 -4 -4 -4l4 -8v-12q0 -20 -42 -118q-17 -50 -58 -160.5t-80 -231.5q-16 -36 -40 -139q-36 -165 -48 -245q4 -20 40 -23h58q7 2 16 4 q55 19 64 19q47 -9 47 -55q0 -48 -79 -71h-13q-73 -4 -131 -4h-174q-63 0 -63 63v24z" />
</font>
</defs>
</svg>
